<svg width="292" height="295" viewBox="0 0 292 295" fill="none" xmlns="http://www.w3.org/2000/svg">
<path fill-rule="evenodd" clip-rule="evenodd" d="M142.807 0.578328C170.625 7.74432 157.529 59.1645 180.814 75.9924C201.885 91.2205 236.06 67.4835 256.896 83.0317C278.541 99.1838 301.31 132.489 288.084 156.04C272.633 183.553 218.944 159.468 199.859 184.595C178.401 212.845 215.077 265.577 187.726 288.166C165.109 306.846 125.968 283.524 105.386 262.623C86.1822 243.121 95.8958 210.023 85.7463 184.602C79.9619 170.114 68.5635 159.699 59.2855 147.159C39.8448 120.883 -8.66413 101.645 1.34478 70.5277C10.7428 41.3096 62.2157 66.1298 89.7235 52.5278C112.374 41.3279 118.338 -5.72462 142.807 0.578328Z" fill="#D47048"/>
<path fill-rule="evenodd" clip-rule="evenodd" d="M78.5 70L49.5 32L11 57C22.5 63.8333 58.8 85 60 85C61.5 85 70 93 71 93.5C72 94 77 100.5 76.5 105.5C76 110.5 78.5 114.5 82.5 114.5C85.7 114.5 86.8333 110.833 87 109C87 109 89 116.5 95 115.5C99.3724 114.771 99.0981 109.562 98.2587 106.372C98.1445 106.071 98.059 105.775 98 105.5C98.0891 105.767 98.1766 106.06 98.2587 106.372C99.1113 108.62 101.561 111.175 106.5 108C112.1 104.4 108.167 98.8333 105.5 96.5C116.5 86.5 98 81.5 92.5 80.5C88.1 79.7 81.3333 73.1667 78.5 70ZM87.5 85C87.5 86.2 79.8333 91.8333 76 94.5C76.6667 96 79 99.6 83 102C88 105 92.5 102 95 97C97.5 92 87.5 83.5 87.5 85Z" fill="white"/>
<path fill-rule="evenodd" clip-rule="evenodd" d="M197 192.5C199.333 190.833 202.8 186.6 198 183C193.428 179.571 190.308 183.127 189.158 185.633C189.106 185.761 189.054 185.884 189 186C189.048 185.881 189.1 185.759 189.158 185.633C190.058 183.381 190.421 179.5 185.5 179.5C180.3 179.5 179.667 184.167 180 186.5C178.333 184.833 174.4 182.3 172 185.5C169.6 188.7 172.667 191.5 174.5 192.5C172 193.5 167.7 196.5 170.5 200.5C173.3 204.5 178.667 202.5 181 201C181.615 201.642 182.285 202.349 183 203.109C183.667 202.906 185.1 202.7 185.5 203.5C186 204.5 188 205 190 204C192 203 196 205 195 207C194 209 195.5 209.5 196.5 212C197.3 214 195.276 215.167 194.165 215.5C197.265 219.098 200.278 222.757 202.703 226C204.906 224.5 211 223.5 211 226C211 228 212.333 228.833 213 229C217 230.5 216 233 216 235C216 236.6 212.182 238.333 210.272 239C211.77 241.506 212.669 242.11 213 242L232.5 221.5C228.937 219.488 224.038 216.51 219 213.093L218.725 212.906C218.268 212.666 217.458 212.513 216.5 213.093C215 214 215.5 216 214 215.5C212.5 215 210 215 209 216C208 217 204.5 215.5 204.5 213.5C204.5 211.5 202.5 212.5 201.5 212C200.5 211.5 197 208.5 199.5 206C201.5 204 201.333 200.099 201 198.398C199.118 196.312 197.71 194.314 197 192.5ZM195 195.5C195 195.9 190 199.333 187.5 201C187.167 200.667 186.1 199.8 184.5 199C182.5 198 183 192.5 187 191.5C191 190.5 195 195 195 195.5Z" fill="white"/>
<path d="M28.5 210.5C30.3333 211 35 211.7 39 210.5C43 209.3 49.6667 209 52.5 209C64.1667 205.5 87 197.3 85 192.5C82.5 186.5 83.5 186 88.5 187.5C90 185 93.1 180.5 93.5 182.5C94 185 92.5 187 93.5 187C94.5 187 98.5 181.5 99.5 182C100.5 182.5 100.5 183.5 100 186C99.6 188 101.5 187.833 102.5 187.5C104 185 107.1 180.7 107.5 183.5C108 187 105 190 105 190.5C105 191 106.5 191.5 108.5 188.5C110.5 185.5 116 187.5 108.5 194C101 200.5 100.5 204 96 205C92.4 205.8 73.5 221.667 64.5 229.5C57.5 235 43 246.2 41 247L28.5 210.5Z" fill="white"/>
<path d="M216 22C215.493 23.9257 214.795 26.5756 214.025 29.5C216.516 32 222.4 36.5 226 34.5C229.6 32.5 234.5 34.276 236.5 35.4139C237.824 30.7403 238.603 26.5898 238.5 23.5L216 22Z" fill="white"/>
<path d="M226 34.5C222.4 36.5 216.516 32 214.025 29.5C213.094 33.0305 212.057 36.961 211.121 40.5C214.748 43.1667 223.3 48.2 228.5 47C231.157 46.3869 232.375 46.2698 232.824 46.3685C234.255 42.5766 235.525 38.8536 236.5 35.4139C234.5 34.276 229.6 32.5 226 34.5Z" fill="white"/>
<path d="M211.121 40.5C210.283 43.6705 209.526 46.5269 209 48.5C208.751 49.434 208.418 50.4446 208.024 51.5C208.199 53.3333 209.644 57 214.025 57C219.5 57 225.863 58.5 227.181 60C229.05 55.8083 230.919 51.3665 232.584 47C232.665 46.7893 232.744 46.5788 232.824 46.3685C232.375 46.2698 231.157 46.3869 228.5 47C223.3 48.2 214.748 43.1667 211.121 40.5Z" fill="white"/>
<path d="M200 67.5C201.5 71 214 73.5 219.5 76C221.611 71.9413 224.396 66.2486 227.181 60C225.863 58.5 219.5 57 214.025 57C209.644 57 208.199 53.3333 208.024 51.5C205.889 57.2245 201.97 64.2634 200 67.5Z" fill="white"/>
<path d="M216 85C218 85 225 78.5 219.5 76C214 73.5 201.5 71 200 67.5C196.461 68.9157 191.719 72.6884 196.5 77.7149C197.348 78.6059 198.494 79.5363 200 80.5C204.868 83.6153 208.067 84.9867 210.278 85.5C213.744 86.3049 214.779 85 216 85Z" fill="white"/>
<path d="M200 80.5C198.494 79.5363 197.348 78.6059 196.5 77.7149C194.333 83.1433 188.2 94.3 181 95.5C180.5 97 180.3 99.7 183.5 98.5C187.5 97 193.5 95.5 188.5 100C183.5 104.5 181 103 181 105.5C181 108 183 108.5 184.5 107C186 105.5 192.5 102 193 102C193.5 102 195 102 193 104.5C191 107 191.5 109 194 108C196 107.2 198.167 104.333 199 103C199.667 102.667 200.8 102.7 200 105.5C199 109 201 111 202 109C203 107 206 100.5 206.5 103C207 105.5 206 106.5 207 106.5C208 106.5 210.5 107.5 209.5 102.5C208.5 97.5 208.5 94.5 209 93C209.5 91.5 210.556 86 210.278 85.5C208.067 84.9867 204.868 83.6153 200 80.5Z" fill="white"/>
<path d="M214 215.5C215.5 216 215 214 216.5 213.093C217.458 212.513 218.268 212.666 218.725 212.906C212.119 208.409 205.314 203.176 201 198.398C201.333 200.099 201.5 204 199.5 206C197 208.5 200.5 211.5 201.5 212C202.5 212.5 204.5 211.5 204.5 213.5C204.5 215.5 208 217 209 216C210 215 212.5 215 214 215.5Z" fill="white"/>
<path d="M194.165 215.5C195.276 215.167 197.3 214 196.5 212C195.5 209.5 194 209 195 207C196 205 192 203 190 204C188 205 186 204.5 185.5 203.5C185.1 202.7 183.667 202.906 183 203.109C186.183 206.496 190.243 210.949 194.165 215.5Z" fill="white"/>
<path d="M187.5 201C190 199.333 195 195.9 195 195.5C195 195 191 190.5 187 191.5C183 192.5 182.5 198 184.5 199C186.1 199.8 187.167 200.667 187.5 201Z" fill="white"/>
<path d="M207.5 233.5C208.583 235.937 209.506 237.718 210.272 239C212.182 238.333 216 236.6 216 235C216 233 217 230.5 213 229C212.333 228.833 211 228 211 226C211 223.5 204.906 224.5 202.703 226C204.926 228.973 206.654 231.596 207.5 233.5Z" fill="white"/>
<path d="M76 94.5C79.8333 91.8333 87.5 86.2 87.5 85C87.5 83.5 97.5 92 95 97C92.5 102 88 105 83 102C79 99.6 76.6667 96 76 94.5Z" fill="white"/>
<path d="M49.5 32L78.5 70C81.3333 73.1667 88.1 79.7 92.5 80.5C98 81.5 116.5 86.5 105.5 96.5C108.167 98.8333 112.1 104.4 106.5 108C100.9 111.6 98.5 107.833 98 105.5C99 108.5 99.8 114.7 95 115.5C89 116.5 87 109 87 109C86.8333 110.833 85.7 114.5 82.5 114.5C78.5 114.5 76 110.5 76.5 105.5C77 100.5 72 94 71 93.5C70 93 61.5 85 60 85C58.8 85 23.5 63.8333 12 57M216 22C215.493 23.9257 214.795 26.5756 214.025 29.5M200 67.5C201.5 71 214 73.5 219.5 76M200 67.5C201.97 64.2634 205.889 57.2245 208.024 51.5M200 67.5C196.461 68.9157 191.719 72.6884 196.5 77.7149M219.5 76C225 78.5 218 85 216 85C214.779 85 213.744 86.3049 210.278 85.5M219.5 76C221.611 71.9413 224.396 66.2486 227.181 60M238.5 23.5C238.603 26.5898 237.824 30.7403 236.5 35.4139M214.025 29.5C216.516 32 222.4 36.5 226 34.5C229.6 32.5 234.5 34.276 236.5 35.4139M214.025 29.5C213.094 33.0305 212.057 36.961 211.121 40.5M236.5 35.4139C235.471 39.0444 234.114 42.9904 232.584 47M211.121 40.5C210.283 43.6705 209.526 46.5269 209 48.5C208.751 49.434 208.418 50.4446 208.024 51.5M211.121 40.5C214.748 43.1667 223.3 48.2 228.5 47C233.7 45.8 233.389 46.5 232.584 47M232.584 47C230.919 51.3665 229.05 55.8083 227.181 60M208.024 51.5C208.199 53.3333 209.644 57 214.025 57C219.5 57 225.863 58.5 227.181 60M196.5 77.7149C197.348 78.6059 198.494 79.5363 200 80.5C204.868 83.6153 208.067 84.9867 210.278 85.5M196.5 77.7149C194.333 83.1433 188.2 94.3 181 95.5C180.5 97 180.3 99.7 183.5 98.5C187.5 97 193.5 95.5 188.5 100C183.5 104.5 181 103 181 105.5C181 108 183 108.5 184.5 107C186 105.5 192.5 102 193 102C193.5 102 195 102 193 104.5C191 107 191.5 109 194 108C196 107.2 198.167 104.333 199 103C199.667 102.667 200.8 102.7 200 105.5C199 109 201 111 202 109C203 107 206 100.5 206.5 103C207 105.5 206 106.5 207 106.5C208 106.5 210.5 107.5 209.5 102.5C208.5 97.5 208.5 94.5 209 93C209.5 91.5 210.556 86 210.278 85.5M232.5 221.5C228.937 219.488 224.038 216.51 219 213.093M213 242C212.669 242.11 211.77 241.506 210.272 239M210.272 239C209.506 237.718 208.583 235.937 207.5 233.5C206.654 231.596 204.926 228.973 202.703 226M210.272 239C212.182 238.333 216 236.6 216 235C216 233 217 230.5 213 229C212.333 228.833 211 228 211 226C211 223.5 204.906 224.5 202.703 226M202.703 226C200.278 222.757 197.265 219.098 194.165 215.5M219 213.093C218.908 213.031 218.816 212.968 218.725 212.906M219 213.093C218.933 213.032 218.84 212.966 218.725 212.906M201 198.398C199.118 196.313 197.71 194.314 197 192.5C199.333 190.833 202.8 186.6 198 183C193.2 179.4 190 183.5 189 186C190 183.833 190.7 179.5 185.5 179.5C180.3 179.5 179.667 184.167 180 186.5C178.333 184.833 174.4 182.3 172 185.5C169.6 188.7 172.667 191.5 174.5 192.5C172 193.5 167.7 196.5 170.5 200.5C173.3 204.5 178.667 202.5 181 201C181.615 201.642 182.285 202.349 183 203.109M201 198.398C201.333 200.099 201.5 204 199.5 206C197 208.5 200.5 211.5 201.5 212C202.5 212.5 204.5 211.5 204.5 213.5C204.5 215.5 208 217 209 216C210 215 212.5 215 214 215.5C215.5 216 215 214 216.5 213.093C217.458 212.513 218.268 212.666 218.725 212.906M201 198.398C205.314 203.176 212.119 208.409 218.725 212.906M194.165 215.5C195.276 215.167 197.3 214 196.5 212C195.5 209.5 194 209 195 207C196 205 192 203 190 204C188 205 186 204.5 185.5 203.5C185.1 202.7 183.667 202.906 183 203.109M194.165 215.5C190.243 210.949 186.183 206.496 183 203.109M28.5 210.5C30.3333 211 35 211.7 39 210.5C43 209.3 49.6667 209 52.5 209C64.1667 205.5 87 197.3 85 192.5C82.5 186.5 83.5 186 88.5 187.5C90 185 93.1 180.5 93.5 182.5C94 185 92.5 187 93.5 187C94.5 187 98.5 181.5 99.5 182C100.5 182.5 100.5 183.5 100 186C99.6 188 101.5 187.833 102.5 187.5C104 185 107.1 180.7 107.5 183.5C108 187 105 190 105 190.5C105 191 106.5 191.5 108.5 188.5C110.5 185.5 116 187.5 108.5 194C101 200.5 100.5 204 96 205C92.4 205.8 73.5 221.667 64.5 229.5C57.5 235 43 246.2 41 247M76 94.5C79.8333 91.8333 87.5 86.2 87.5 85C87.5 83.5 97.5 92 95 97C92.5 102 88 105 83 102C79 99.6 76.6667 96 76 94.5ZM187.5 201C190 199.333 195 195.9 195 195.5C195 195 191 190.5 187 191.5C183 192.5 182.5 198 184.5 199C186.1 199.8 187.167 200.667 187.5 201Z" stroke="black" stroke-linecap="round" stroke-linejoin="round"/>
<path d="M151 117.5C150.667 120.5 150.2 126.5 151 126.5C152 126.5 159 122.5 158.5 128C158 133.5 153 132.5 152 131.5C151 130.5 150 139 151 140C152 141 163 143 163 141.5C163 140 160.5 132.5 165.5 133.5C170.5 134.5 170 141.5 168.5 141.5C167 141.5 173.5 143 174.5 141.5C175.5 140 177 118.5 175 118.5C173 118.5 152 116.5 151 117.5Z" fill="#197C9B"/>
<path d="M119 136C117.5 138.833 116 144.3 122 143.5C128 142.7 127.167 139.5 126 138C128.167 138 132.6 137.8 133 137C133.5 136 132 133.5 133 133.5C134 133.5 137 135.5 138.5 134.5C140 133.5 141.5 124 135 128C135.333 123.5 135.2 114.9 132 116.5C128 118.5 113.5 116.5 112.5 118.5C111.5 120.5 112.5 124.5 112.5 125.5C112.5 126.5 109.5 138 112.5 137C114.9 136.2 117.833 136 119 136Z" fill="white"/>
<path d="M111.5 149.5C111.333 155.667 111.3 168.1 112.5 168.5C114 169 136.5 170.5 137 168.5C137.4 166.9 137.167 163.167 137 161.5C134 162.833 128.4 164.1 130 158.5C131.6 152.9 135.333 154.833 137 156.5C137.667 153.5 138.5 147.5 136.5 147.5C134 147.5 128 145.5 127 146.5C126 147.5 128 151.5 127 153C126 154.5 124 157 122 155.5C120 154 120 151.5 122 149.5C123.6 147.9 115.667 148.833 111.5 149.5Z" fill="white"/>
<path d="M165.5 154C164.167 152.5 162.3 148.9 165.5 146.5C168.7 144.1 171.5 147.167 172.5 149L171.5 155H180C181 155 182 175 180 175.5C178 176 157 178 156.5 175.5C156.1 173.5 157 168.333 157.5 166C154.333 167.167 148.4 168.1 150 162.5C151.6 156.9 155.667 158.833 157.5 160.5C157.167 158.667 156.7 155 157.5 155C158.3 155 163.167 154.333 165.5 154Z" fill="white"/>
<path d="M119 136L119.442 136.234C119.524 136.079 119.519 135.892 119.428 135.742C119.338 135.592 119.175 135.5 119 135.5V136ZM126 138V137.5C125.809 137.5 125.635 137.609 125.551 137.78C125.467 137.952 125.488 138.156 125.605 138.307L126 138ZM135 128L134.501 127.963C134.488 128.15 134.58 128.33 134.74 128.427C134.901 128.525 135.102 128.524 135.262 128.426L135 128ZM112.5 137L112.342 136.526L112.5 137ZM151 117.5L150.646 117.146C150.566 117.227 150.516 117.332 150.503 117.445L151 117.5ZM111.5 149.5L111.421 149.006C111.183 149.044 111.007 149.246 111 149.486L111.5 149.5ZM112.5 168.5L112.658 168.026L112.5 168.5ZM137 161.5L137.498 161.45C137.482 161.291 137.39 161.148 137.251 161.068C137.113 160.987 136.944 160.978 136.797 161.043L137 161.5ZM137 156.5L136.646 156.854C136.775 156.983 136.965 157.031 137.14 156.98C137.315 156.929 137.449 156.787 137.488 156.608L137 156.5ZM165.5 154L165.571 154.495C165.753 154.469 165.906 154.345 165.969 154.172C166.033 153.999 165.996 153.805 165.874 153.668L165.5 154ZM172.5 149L172.993 149.082C173.012 148.972 172.992 148.859 172.939 148.761L172.5 149ZM171.5 155L171.007 154.918C170.983 155.063 171.023 155.211 171.118 155.323C171.213 155.435 171.353 155.5 171.5 155.5V155ZM156.5 175.5L156.99 175.402L156.5 175.5ZM157.5 166L157.989 166.105C158.027 165.927 157.965 165.742 157.828 165.622C157.69 165.503 157.498 165.468 157.327 165.531L157.5 166ZM157.5 160.5L157.164 160.87C157.322 161.014 157.555 161.041 157.743 160.937C157.93 160.833 158.03 160.621 157.992 160.411L157.5 160.5ZM118.558 135.766C118.17 136.5 117.78 137.405 117.512 138.342C117.244 139.273 117.087 140.268 117.191 141.17C117.296 142.082 117.678 142.935 118.516 143.483C119.336 144.019 120.507 144.204 122.066 143.996L121.934 143.004C120.493 143.196 119.601 142.998 119.063 142.646C118.541 142.305 118.266 141.763 118.184 141.055C118.101 140.336 118.224 139.483 118.473 138.618C118.72 137.757 119.08 136.917 119.442 136.234L118.558 135.766ZM122.066 143.996C125.122 143.588 126.663 142.541 127.157 141.183C127.64 139.858 127.021 138.499 126.395 137.693L125.605 138.307C126.145 139.001 126.527 139.992 126.218 140.841C125.92 141.659 124.878 142.612 121.934 143.004L122.066 143.996ZM126 138.5C127.094 138.5 128.763 138.45 130.215 138.297C130.938 138.221 131.626 138.118 132.168 137.978C132.437 137.908 132.689 137.824 132.897 137.72C133.089 137.624 133.323 137.471 133.447 137.224L132.553 136.776C132.577 136.728 132.585 136.758 132.449 136.826C132.33 136.886 132.153 136.948 131.917 137.01C131.446 137.132 130.816 137.229 130.11 137.303C128.704 137.45 127.073 137.5 126 137.5V138.5ZM133.447 137.224C133.645 136.827 133.622 136.35 133.565 135.959C133.506 135.552 133.387 135.113 133.298 134.754C133.199 134.361 133.143 134.089 133.148 133.922C133.151 133.841 133.167 133.867 133.125 133.92C133.064 133.998 132.987 134 133 134V133C132.763 133 132.515 133.08 132.341 133.299C132.188 133.492 132.154 133.721 132.149 133.891C132.138 134.224 132.238 134.639 132.327 134.996C132.425 135.387 132.525 135.76 132.576 136.103C132.628 136.463 132.605 136.673 132.553 136.776L133.447 137.224ZM133 134C133.053 134 133.155 134.015 133.322 134.064C133.482 134.111 133.671 134.179 133.89 134.263C134.313 134.426 134.858 134.656 135.396 134.846C135.941 135.039 136.533 135.211 137.102 135.263C137.67 135.316 138.27 135.254 138.777 134.916L138.223 134.084C137.98 134.246 137.642 134.309 137.194 134.268C136.748 134.227 136.247 134.086 135.729 133.903C135.205 133.719 134.718 133.511 134.25 133.33C134.024 133.243 133.803 133.163 133.602 133.104C133.407 133.047 133.197 133 133 133V134ZM138.777 134.916C139.078 134.716 139.313 134.359 139.495 133.991C139.686 133.605 139.853 133.134 139.984 132.625C140.246 131.611 140.381 130.39 140.246 129.313C140.115 128.261 139.701 127.188 138.708 126.733C137.721 126.28 136.399 126.552 134.738 127.574L135.262 128.426C136.851 127.448 137.779 127.407 138.292 127.642C138.799 127.875 139.135 128.489 139.254 129.437C139.369 130.36 139.254 131.451 139.016 132.375C138.897 132.835 138.752 133.238 138.599 133.548C138.437 133.875 138.297 134.034 138.223 134.084L138.777 134.916ZM135.499 128.037C135.666 125.771 135.719 122.453 135.319 119.885C135.121 118.617 134.802 117.453 134.275 116.702C134.005 116.318 133.655 116.003 133.202 115.87C132.743 115.735 132.259 115.811 131.776 116.053L132.224 116.947C132.541 116.788 132.762 116.783 132.92 116.83C133.087 116.879 133.269 117.009 133.456 117.276C133.844 117.828 134.137 118.796 134.331 120.039C134.714 122.497 134.667 125.729 134.501 127.963L135.499 128.037ZM131.776 116.053C130.877 116.502 129.316 116.751 127.374 116.876C125.456 117 123.254 117 121.125 117C119.007 117 116.953 117 115.366 117.127C114.575 117.19 113.872 117.287 113.326 117.441C113.052 117.518 112.798 117.614 112.586 117.739C112.375 117.864 112.173 118.036 112.053 118.276L112.947 118.724C112.952 118.714 112.981 118.667 113.094 118.6C113.206 118.535 113.37 118.467 113.596 118.403C114.049 118.276 114.675 118.185 115.446 118.123C116.984 118 118.993 118 121.125 118C123.246 118 125.482 118 127.438 117.874C129.372 117.749 131.123 117.498 132.224 116.947L131.776 116.053ZM112.053 118.276C111.761 118.859 111.628 119.558 111.579 120.262C111.53 120.971 111.563 121.719 111.627 122.42C111.691 123.122 111.786 123.791 111.864 124.336C111.946 124.904 112 125.295 112 125.5H113C113 125.205 112.929 124.721 112.854 124.195C112.776 123.647 112.684 123.003 112.623 122.33C112.562 121.656 112.533 120.966 112.577 120.332C112.622 119.692 112.739 119.141 112.947 118.724L112.053 118.276ZM112 125.5C112 125.567 111.966 125.801 111.885 126.231C111.81 126.636 111.705 127.158 111.587 127.764C111.353 128.968 111.069 130.481 110.879 131.935C110.691 133.376 110.588 134.811 110.74 135.839C110.814 136.342 110.961 136.839 111.272 137.174C111.438 137.352 111.649 137.483 111.904 137.536C112.154 137.588 112.41 137.557 112.658 137.474L112.342 136.526C112.215 136.568 112.143 136.564 112.107 136.557C112.076 136.551 112.044 136.536 112.005 136.494C111.906 136.387 111.795 136.143 111.729 135.693C111.599 134.814 111.684 133.499 111.871 132.065C112.056 130.644 112.335 129.157 112.569 127.955C112.685 127.357 112.792 126.825 112.868 126.414C112.941 126.027 113 125.683 113 125.5H112ZM112.658 137.474C114.987 136.698 117.861 136.5 119 136.5V135.5C117.805 135.5 114.813 135.702 112.342 136.526L112.658 137.474ZM150.503 117.445C150.336 118.952 150.134 121.216 150.075 123.109C150.046 124.052 150.051 124.923 150.118 125.567C150.151 125.884 150.202 126.181 150.288 126.41C150.33 126.524 150.393 126.656 150.494 126.767C150.602 126.887 150.773 127 151 127V126C151.127 126 151.208 126.066 151.235 126.096C151.255 126.118 151.246 126.118 151.225 126.062C151.184 125.952 151.143 125.756 151.113 125.464C151.053 124.889 151.046 124.073 151.075 123.141C151.133 121.284 151.331 119.048 151.497 117.555L150.503 117.445ZM151 127C151.13 127 151.267 126.97 151.382 126.94C151.506 126.907 151.645 126.862 151.793 126.812C152.085 126.711 152.451 126.571 152.836 126.43C153.624 126.142 154.54 125.828 155.397 125.68C156.278 125.528 156.97 125.575 157.404 125.862C157.786 126.116 158.119 126.668 158.002 127.955L158.998 128.045C159.131 126.582 158.776 125.572 157.956 125.028C157.186 124.519 156.16 124.534 155.228 124.695C154.273 124.859 153.282 125.202 152.492 125.491C152.088 125.64 151.747 125.77 151.467 125.866C151.328 125.914 151.216 125.95 151.127 125.973C151.03 125.999 150.995 126 151 126V127ZM158.002 127.955C157.884 129.254 157.505 130.119 157.03 130.687C156.557 131.254 155.958 131.563 155.331 131.699C154.699 131.836 154.042 131.796 153.484 131.662C152.91 131.524 152.511 131.304 152.354 131.146L151.646 131.854C151.989 132.196 152.59 132.476 153.25 132.635C153.927 132.797 154.739 132.851 155.544 132.676C156.355 132.5 157.162 132.09 157.798 131.328C158.432 130.569 158.866 129.496 158.998 128.045L158.002 127.955ZM152.354 131.146C152.221 131.014 152.014 130.891 151.752 130.923C151.515 130.952 151.35 131.096 151.252 131.208C151.06 131.429 150.918 131.768 150.806 132.111C150.572 132.828 150.38 133.866 150.253 134.942C150.126 136.022 150.062 137.173 150.094 138.126C150.11 138.602 150.151 139.042 150.225 139.406C150.293 139.742 150.408 140.116 150.646 140.354L151.354 139.646C151.356 139.649 151.333 139.625 151.299 139.541C151.267 139.461 151.234 139.351 151.205 139.207C151.146 138.919 151.109 138.539 151.093 138.092C151.063 137.202 151.124 136.103 151.247 135.058C151.37 134.009 151.553 133.047 151.757 132.42C151.864 132.092 151.956 131.923 152.006 131.866C152.029 131.839 151.987 131.902 151.874 131.916C151.736 131.933 151.654 131.861 151.646 131.854L152.354 131.146ZM150.646 140.354C150.765 140.472 150.922 140.566 151.072 140.643C151.231 140.724 151.419 140.804 151.628 140.882C152.047 141.037 152.576 141.196 153.171 141.351C154.362 141.661 155.848 141.961 157.3 142.182C158.748 142.402 160.184 142.547 161.269 142.539C161.806 142.535 162.294 142.494 162.663 142.388C162.847 142.335 163.04 142.256 163.197 142.125C163.367 141.983 163.5 141.771 163.5 141.5H162.5C162.5 141.417 162.547 141.365 162.556 141.358C162.556 141.357 162.553 141.36 162.546 141.364C162.539 141.368 162.529 141.374 162.514 141.381C162.485 141.395 162.444 141.411 162.387 141.427C162.151 141.494 161.772 141.535 161.262 141.539C160.254 141.547 158.877 141.41 157.45 141.193C156.027 140.977 154.575 140.683 153.423 140.383C152.846 140.233 152.352 140.084 151.977 139.944C151.79 139.875 151.639 139.81 151.527 139.753C151.471 139.724 151.429 139.7 151.398 139.679C151.382 139.669 151.371 139.661 151.364 139.655C151.356 139.649 151.353 139.646 151.354 139.646L150.646 140.354ZM163.5 141.5C163.5 141.264 163.453 140.942 163.395 140.601C163.338 140.259 163.255 139.824 163.18 139.391C163.024 138.496 162.875 137.485 162.875 136.562C162.875 135.62 163.033 134.877 163.39 134.43C163.705 134.036 164.268 133.764 165.402 133.99L165.598 133.01C164.232 132.736 163.232 133.026 162.61 133.805C162.03 134.529 161.875 135.567 161.875 136.562C161.875 137.577 162.038 138.66 162.195 139.562C162.276 140.028 162.35 140.417 162.409 140.768C162.469 141.12 162.5 141.361 162.5 141.5H163.5ZM165.402 133.99C167.626 134.435 168.652 136.203 168.944 137.957C169.09 138.834 169.043 139.667 168.884 140.261C168.804 140.561 168.703 140.771 168.609 140.894C168.514 141.019 168.473 141 168.5 141V142C168.902 142 169.205 141.763 169.404 141.5C169.605 141.237 169.751 140.892 169.85 140.52C170.051 139.77 170.097 138.791 169.931 137.793C169.598 135.797 168.374 133.565 165.598 133.01L165.402 133.99ZM168.5 141C168.406 141 168.276 141.004 168.162 141.039C168.129 141.049 168.078 141.067 168.024 141.101C167.972 141.133 167.886 141.199 167.829 141.315C167.683 141.614 167.87 141.85 167.923 141.906C167.988 141.974 168.06 142.015 168.095 142.033C168.139 142.057 168.185 142.077 168.228 142.094C168.313 142.127 168.416 142.16 168.528 142.192C168.973 142.318 169.703 142.463 170.503 142.559C171.302 142.655 172.201 142.706 172.978 142.63C173.366 142.593 173.744 142.522 174.071 142.398C174.394 142.276 174.711 142.084 174.916 141.777L174.084 141.223C174.039 141.291 173.934 141.38 173.716 141.463C173.502 141.544 173.22 141.602 172.882 141.635C172.205 141.701 171.386 141.658 170.622 141.566C169.859 141.474 169.183 141.338 168.8 141.23C168.705 141.203 168.637 141.18 168.594 141.163C168.573 141.155 168.565 141.151 168.567 141.152C168.569 141.153 168.576 141.157 168.588 141.165C168.598 141.172 168.622 141.189 168.649 141.217C168.684 141.254 168.866 141.473 168.727 141.756C168.673 141.865 168.595 141.924 168.553 141.95C168.509 141.977 168.472 141.989 168.456 141.994C168.412 142.008 168.406 142 168.5 142V141ZM174.916 141.777C175.028 141.61 175.109 141.367 175.175 141.126C175.245 140.867 175.315 140.543 175.383 140.17C175.518 139.423 175.653 138.448 175.778 137.329C176.03 135.09 176.249 132.251 176.374 129.46C176.5 126.672 176.532 123.917 176.405 121.852C176.342 120.824 176.239 119.941 176.079 119.305C176 118.991 175.898 118.7 175.759 118.477C175.625 118.262 175.381 118 175 118V119C174.869 119 174.848 118.906 174.911 119.007C174.969 119.099 175.039 119.272 175.109 119.549C175.246 120.094 175.345 120.902 175.407 121.913C175.531 123.927 175.5 126.641 175.376 129.415C175.251 132.187 175.033 135.004 174.784 137.218C174.66 138.325 174.529 139.276 174.399 139.992C174.334 140.35 174.27 140.642 174.21 140.863C174.18 140.973 174.152 141.06 174.128 141.125C174.115 141.157 174.105 141.181 174.096 141.199C174.088 141.217 174.083 141.224 174.084 141.223L174.916 141.777ZM175 118C174.525 118 172.866 117.878 170.585 117.705C168.32 117.533 165.474 117.314 162.658 117.126C159.844 116.938 157.054 116.782 154.902 116.734C153.827 116.711 152.901 116.714 152.206 116.757C151.86 116.778 151.558 116.809 151.318 116.855C151.198 116.878 151.082 116.907 150.978 116.946C150.883 116.981 150.753 117.04 150.646 117.146L151.354 117.854C151.31 117.898 151.281 117.9 151.324 117.884C151.359 117.871 151.417 117.855 151.507 117.837C151.685 117.803 151.939 117.775 152.267 117.755C152.92 117.715 153.814 117.711 154.88 117.734C157.009 117.781 159.781 117.936 162.592 118.124C165.401 118.311 168.243 118.53 170.509 118.702C172.759 118.872 174.475 119 175 119V118ZM111 149.486C110.917 152.575 110.867 157.236 110.988 161.178C111.048 163.147 111.152 164.95 111.318 166.291C111.4 166.959 111.501 167.533 111.626 167.961C111.688 168.174 111.762 168.374 111.855 168.537C111.94 168.685 112.09 168.89 112.342 168.974L112.658 168.026C112.76 168.06 112.769 168.121 112.723 168.04C112.685 167.974 112.637 167.859 112.586 167.682C112.483 167.33 112.391 166.819 112.31 166.168C112.15 164.873 112.048 163.107 111.987 161.147C111.867 157.231 111.917 152.591 112 149.513L111 149.486ZM112.342 168.974C112.481 169.021 112.697 169.061 112.941 169.099C113.198 169.138 113.524 169.18 113.907 169.222C114.675 169.308 115.685 169.401 116.852 169.491C119.187 169.671 122.164 169.843 125.109 169.937C128.052 170.031 130.976 170.047 133.202 169.913C134.312 169.846 135.269 169.741 135.975 169.583C136.325 169.504 136.64 169.407 136.887 169.28C137.114 169.164 137.399 168.964 137.485 168.621L136.515 168.379C136.538 168.286 136.59 168.309 136.431 168.39C136.293 168.461 136.071 168.536 135.756 168.607C135.129 168.747 134.235 168.849 133.142 168.915C130.962 169.046 128.073 169.031 125.141 168.938C122.211 168.844 119.25 168.673 116.929 168.494C115.768 168.404 114.771 168.313 114.018 168.229C113.642 168.187 113.331 168.147 113.093 168.11C112.842 168.072 112.706 168.042 112.658 168.026L112.342 168.974ZM137.485 168.621C137.703 167.748 137.741 166.352 137.712 165.014C137.683 163.657 137.582 162.294 137.498 161.45L136.502 161.55C136.585 162.372 136.684 163.709 136.713 165.036C136.742 166.381 136.697 167.652 136.515 168.379L137.485 168.621ZM136.797 161.043C136.07 161.366 135.187 161.684 134.3 161.895C133.407 162.107 132.544 162.201 131.843 162.105C131.149 162.009 130.682 161.74 130.438 161.283C130.181 160.802 130.096 159.986 130.481 158.637L129.519 158.363C129.104 159.814 129.119 160.939 129.556 161.755C130.005 162.593 130.826 162.974 131.707 163.095C132.581 163.216 133.581 163.093 134.531 162.868C135.488 162.641 136.43 162.301 137.203 161.957L136.797 161.043ZM130.481 158.637C130.866 157.288 131.365 156.449 131.882 155.95C132.387 155.462 132.932 155.278 133.478 155.275C134.62 155.268 135.848 156.055 136.646 156.854L137.354 156.146C136.486 155.278 135.013 154.265 133.472 154.275C132.677 154.28 131.883 154.559 131.187 155.231C130.502 155.893 129.934 156.912 129.519 158.363L130.481 158.637ZM137.488 156.608C137.825 155.092 138.207 152.807 138.25 150.886C138.271 149.933 138.21 149.023 137.992 148.334C137.883 147.988 137.723 147.66 137.479 147.413C137.223 147.153 136.892 147 136.5 147V148C136.608 148 136.688 148.034 136.767 148.114C136.858 148.207 136.956 148.372 137.039 148.635C137.206 149.165 137.271 149.942 137.25 150.864C137.209 152.693 136.842 154.908 136.512 156.392L137.488 156.608ZM136.5 147C135.926 147 135.122 146.883 134.192 146.711C133.259 146.539 132.272 146.326 131.283 146.134C130.313 145.946 129.363 145.784 128.586 145.735C128.198 145.711 127.832 145.713 127.516 145.762C127.213 145.809 126.883 145.91 126.646 146.146L127.354 146.854C127.367 146.84 127.443 146.785 127.669 146.75C127.883 146.717 128.169 146.711 128.523 146.733C129.23 146.778 130.125 146.929 131.092 147.116C132.041 147.299 133.084 147.524 134.011 147.695C134.94 147.867 135.824 148 136.5 148V147ZM126.646 146.146C126.228 146.565 126.188 147.211 126.22 147.755C126.253 148.335 126.386 149.012 126.509 149.656C126.635 150.319 126.753 150.957 126.782 151.518C126.812 152.094 126.741 152.487 126.584 152.723L127.416 153.277C127.759 152.763 127.813 152.094 127.781 151.466C127.747 150.825 127.615 150.119 127.491 149.469C127.364 148.8 127.247 148.197 127.218 147.698C127.187 147.164 127.272 146.935 127.354 146.854L126.646 146.146ZM126.584 152.723C126.089 153.464 125.381 154.399 124.584 154.968C124.19 155.25 123.804 155.42 123.436 155.455C123.083 155.49 122.706 155.404 122.3 155.1L121.7 155.9C122.294 156.345 122.917 156.51 123.533 156.451C124.133 156.393 124.685 156.125 125.166 155.782C126.119 155.101 126.911 154.036 127.416 153.277L126.584 152.723ZM122.3 155.1C121.414 154.436 121 153.578 121 152.687C121 151.786 121.425 150.782 122.354 149.854L121.646 149.146C120.575 150.218 120 151.464 120 152.687C120 153.922 120.586 155.064 121.7 155.9L122.3 155.1ZM122.354 149.854C122.479 149.728 122.599 149.576 122.663 149.397C122.733 149.198 122.731 148.972 122.614 148.766C122.509 148.582 122.344 148.47 122.205 148.401C122.06 148.329 121.895 148.279 121.727 148.243C121.07 148.1 120.038 148.092 118.887 148.151C116.557 148.269 113.511 148.672 111.421 149.006L111.579 149.994C113.655 149.661 116.66 149.265 118.938 149.149C120.092 149.091 121.003 149.108 121.514 149.22C121.638 149.247 121.716 149.275 121.76 149.297C121.809 149.321 121.777 149.318 121.745 149.261C121.699 149.181 121.707 149.099 121.72 149.061C121.727 149.044 121.721 149.072 121.646 149.146L122.354 149.854ZM165.874 153.668C165.248 152.964 164.506 151.772 164.293 150.505C164.087 149.277 164.369 147.973 165.8 146.9L165.2 146.1C163.431 147.426 163.047 149.123 163.307 150.67C163.56 152.178 164.419 153.536 165.126 154.332L165.874 153.668ZM165.8 146.9C166.528 146.354 167.205 146.138 167.818 146.12C168.435 146.102 169.026 146.284 169.578 146.597C170.696 147.232 171.588 148.373 172.061 149.239L172.939 148.761C172.412 147.794 171.404 146.485 170.072 145.728C169.399 145.345 168.628 145.096 167.788 145.121C166.945 145.145 166.072 145.446 165.2 146.1L165.8 146.9ZM172.007 148.918L171.007 154.918L171.993 155.082L172.993 149.082L172.007 148.918ZM171.5 155.5C171.505 155.5 171.51 155.5 171.515 155.5C171.52 155.5 171.525 155.5 171.529 155.5C171.534 155.5 171.539 155.5 171.544 155.5C171.549 155.5 171.554 155.5 171.559 155.5C171.564 155.5 171.569 155.5 171.574 155.5C171.579 155.5 171.584 155.5 171.589 155.5C171.594 155.5 171.599 155.5 171.604 155.5C171.609 155.5 171.614 155.5 171.619 155.5C171.624 155.5 171.629 155.5 171.634 155.5C171.639 155.5 171.644 155.5 171.65 155.5C171.655 155.5 171.66 155.5 171.665 155.5C171.67 155.5 171.675 155.5 171.68 155.5C171.685 155.5 171.69 155.5 171.696 155.5C171.701 155.5 171.706 155.5 171.711 155.5C171.716 155.5 171.721 155.5 171.727 155.5C171.732 155.5 171.737 155.5 171.742 155.5C171.747 155.5 171.752 155.5 171.758 155.5C171.763 155.5 171.768 155.5 171.773 155.5C171.779 155.5 171.784 155.5 171.789 155.5C171.794 155.5 171.8 155.5 171.805 155.5C171.81 155.5 171.815 155.5 171.821 155.5C171.826 155.5 171.831 155.5 171.837 155.5C171.842 155.5 171.847 155.5 171.853 155.5C171.858 155.5 171.863 155.5 171.869 155.5C171.874 155.5 171.879 155.5 171.885 155.5C171.89 155.5 171.895 155.5 171.901 155.5C171.906 155.5 171.912 155.5 171.917 155.5C171.922 155.5 171.928 155.5 171.933 155.5C171.939 155.5 171.944 155.5 171.95 155.5C171.955 155.5 171.96 155.5 171.966 155.5C171.971 155.5 171.977 155.5 171.982 155.5C171.988 155.5 171.993 155.5 171.999 155.5C172.004 155.5 172.01 155.5 172.015 155.5C172.021 155.5 172.026 155.5 172.032 155.5C172.037 155.5 172.043 155.5 172.048 155.5C172.054 155.5 172.059 155.5 172.065 155.5C172.07 155.5 172.076 155.5 172.082 155.5C172.087 155.5 172.093 155.5 172.098 155.5C172.104 155.5 172.11 155.5 172.115 155.5C172.121 155.5 172.126 155.5 172.132 155.5C172.138 155.5 172.143 155.5 172.149 155.5C172.155 155.5 172.16 155.5 172.166 155.5C172.171 155.5 172.177 155.5 172.183 155.5C172.188 155.5 172.194 155.5 172.2 155.5C172.206 155.5 172.211 155.5 172.217 155.5C172.223 155.5 172.228 155.5 172.234 155.5C172.24 155.5 172.246 155.5 172.251 155.5C172.257 155.5 172.263 155.5 172.268 155.5C172.274 155.5 172.28 155.5 172.286 155.5C172.292 155.5 172.297 155.5 172.303 155.5C172.309 155.5 172.315 155.5 172.32 155.5C172.326 155.5 172.332 155.5 172.338 155.5C172.344 155.5 172.349 155.5 172.355 155.5C172.361 155.5 172.367 155.5 172.373 155.5C172.379 155.5 172.384 155.5 172.39 155.5C172.396 155.5 172.402 155.5 172.408 155.5C172.414 155.5 172.42 155.5 172.426 155.5C172.431 155.5 172.437 155.5 172.443 155.5C172.449 155.5 172.455 155.5 172.461 155.5C172.467 155.5 172.473 155.5 172.479 155.5C172.485 155.5 172.491 155.5 172.497 155.5C172.502 155.5 172.508 155.5 172.514 155.5C172.52 155.5 172.526 155.5 172.532 155.5C172.538 155.5 172.544 155.5 172.55 155.5C172.556 155.5 172.562 155.5 172.568 155.5C172.574 155.5 172.58 155.5 172.586 155.5C172.592 155.5 172.598 155.5 172.604 155.5C172.61 155.5 172.616 155.5 172.622 155.5C172.628 155.5 172.634 155.5 172.64 155.5C172.647 155.5 172.653 155.5 172.659 155.5C172.665 155.5 172.671 155.5 172.677 155.5C172.683 155.5 172.689 155.5 172.695 155.5C172.701 155.5 172.707 155.5 172.713 155.5C172.72 155.5 172.726 155.5 172.732 155.5C172.738 155.5 172.744 155.5 172.75 155.5C172.756 155.5 172.762 155.5 172.769 155.5C172.775 155.5 172.781 155.5 172.787 155.5C172.793 155.5 172.799 155.5 172.805 155.5C172.812 155.5 172.818 155.5 172.824 155.5C172.83 155.5 172.836 155.5 172.843 155.5C172.849 155.5 172.855 155.5 172.861 155.5C172.867 155.5 172.874 155.5 172.88 155.5C172.886 155.5 172.892 155.5 172.898 155.5C172.905 155.5 172.911 155.5 172.917 155.5C172.923 155.5 172.93 155.5 172.936 155.5C172.942 155.5 172.948 155.5 172.955 155.5C172.961 155.5 172.967 155.5 172.973 155.5C172.98 155.5 172.986 155.5 172.992 155.5C172.999 155.5 173.005 155.5 173.011 155.5C173.017 155.5 173.024 155.5 173.03 155.5C173.036 155.5 173.043 155.5 173.049 155.5C173.055 155.5 173.062 155.5 173.068 155.5C173.074 155.5 173.081 155.5 173.087 155.5C173.093 155.5 173.1 155.5 173.106 155.5C173.112 155.5 173.119 155.5 173.125 155.5C173.131 155.5 173.138 155.5 173.144 155.5C173.151 155.5 173.157 155.5 173.163 155.5C173.17 155.5 173.176 155.5 173.183 155.5C173.189 155.5 173.195 155.5 173.202 155.5C173.208 155.5 173.215 155.5 173.221 155.5C173.227 155.5 173.234 155.5 173.24 155.5C173.247 155.5 173.253 155.5 173.259 155.5C173.266 155.5 173.272 155.5 173.279 155.5C173.285 155.5 173.292 155.5 173.298 155.5C173.305 155.5 173.311 155.5 173.318 155.5C173.324 155.5 173.33 155.5 173.337 155.5C173.343 155.5 173.35 155.5 173.356 155.5C173.363 155.5 173.369 155.5 173.376 155.5C173.382 155.5 173.389 155.5 173.395 155.5C173.402 155.5 173.408 155.5 173.415 155.5C173.421 155.5 173.428 155.5 173.434 155.5C173.441 155.5 173.447 155.5 173.454 155.5C173.46 155.5 173.467 155.5 173.473 155.5C173.48 155.5 173.487 155.5 173.493 155.5C173.5 155.5 173.506 155.5 173.513 155.5C173.519 155.5 173.526 155.5 173.532 155.5C173.539 155.5 173.546 155.5 173.552 155.5C173.559 155.5 173.565 155.5 173.572 155.5C173.578 155.5 173.585 155.5 173.592 155.5C173.598 155.5 173.605 155.5 173.611 155.5C173.618 155.5 173.625 155.5 173.631 155.5C173.638 155.5 173.644 155.5 173.651 155.5C173.658 155.5 173.664 155.5 173.671 155.5C173.677 155.5 173.684 155.5 173.691 155.5C173.697 155.5 173.704 155.5 173.711 155.5C173.717 155.5 173.724 155.5 173.73 155.5C173.737 155.5 173.744 155.5 173.75 155.5C173.757 155.5 173.764 155.5 173.77 155.5C173.777 155.5 173.784 155.5 173.79 155.5C173.797 155.5 173.804 155.5 173.81 155.5C173.817 155.5 173.824 155.5 173.83 155.5C173.837 155.5 173.844 155.5 173.85 155.5C173.857 155.5 173.864 155.5 173.87 155.5C173.877 155.5 173.884 155.5 173.89 155.5C173.897 155.5 173.904 155.5 173.911 155.5C173.917 155.5 173.924 155.5 173.931 155.5C173.937 155.5 173.944 155.5 173.951 155.5C173.957 155.5 173.964 155.5 173.971 155.5C173.978 155.5 173.984 155.5 173.991 155.5C173.998 155.5 174.005 155.5 174.011 155.5C174.018 155.5 174.025 155.5 174.031 155.5C174.038 155.5 174.045 155.5 174.052 155.5C174.058 155.5 174.065 155.5 174.072 155.5C174.079 155.5 174.085 155.5 174.092 155.5C174.099 155.5 174.106 155.5 174.112 155.5C174.119 155.5 174.126 155.5 174.133 155.5C174.139 155.5 174.146 155.5 174.153 155.5C174.16 155.5 174.167 155.5 174.173 155.5C174.18 155.5 174.187 155.5 174.194 155.5C174.2 155.5 174.207 155.5 174.214 155.5C174.221 155.5 174.228 155.5 174.234 155.5C174.241 155.5 174.248 155.5 174.255 155.5C174.261 155.5 174.268 155.5 174.275 155.5C174.282 155.5 174.289 155.5 174.295 155.5C174.302 155.5 174.309 155.5 174.316 155.5C174.323 155.5 174.329 155.5 174.336 155.5C174.343 155.5 174.35 155.5 174.357 155.5C174.364 155.5 174.37 155.5 174.377 155.5C174.384 155.5 174.391 155.5 174.398 155.5C174.404 155.5 174.411 155.5 174.418 155.5C174.425 155.5 174.432 155.5 174.439 155.5C174.445 155.5 174.452 155.5 174.459 155.5C174.466 155.5 174.473 155.5 174.48 155.5C174.486 155.5 174.493 155.5 174.5 155.5C174.507 155.5 174.514 155.5 174.521 155.5C174.527 155.5 174.534 155.5 174.541 155.5C174.548 155.5 174.555 155.5 174.562 155.5C174.569 155.5 174.575 155.5 174.582 155.5C174.589 155.5 174.596 155.5 174.603 155.5C174.61 155.5 174.616 155.5 174.623 155.5C174.63 155.5 174.637 155.5 174.644 155.5C174.651 155.5 174.658 155.5 174.664 155.5C174.671 155.5 174.678 155.5 174.685 155.5C174.692 155.5 174.699 155.5 174.706 155.5C174.713 155.5 174.719 155.5 174.726 155.5C174.733 155.5 174.74 155.5 174.747 155.5C174.754 155.5 174.761 155.5 174.767 155.5C174.774 155.5 174.781 155.5 174.788 155.5C174.795 155.5 174.802 155.5 174.809 155.5C174.816 155.5 174.822 155.5 174.829 155.5C174.836 155.5 174.843 155.5 174.85 155.5C174.857 155.5 174.864 155.5 174.871 155.5C174.877 155.5 174.884 155.5 174.891 155.5C174.898 155.5 174.905 155.5 174.912 155.5C174.919 155.5 174.926 155.5 174.933 155.5C174.939 155.5 174.946 155.5 174.953 155.5C174.96 155.5 174.967 155.5 174.974 155.5C174.981 155.5 174.988 155.5 174.995 155.5C175.001 155.5 175.008 155.5 175.015 155.5C175.022 155.5 175.029 155.5 175.036 155.5C175.043 155.5 175.05 155.5 175.056 155.5C175.063 155.5 175.07 155.5 175.077 155.5C175.084 155.5 175.091 155.5 175.098 155.5C175.105 155.5 175.112 155.5 175.118 155.5C175.125 155.5 175.132 155.5 175.139 155.5C175.146 155.5 175.153 155.5 175.16 155.5C175.167 155.5 175.174 155.5 175.18 155.5C175.187 155.5 175.194 155.5 175.201 155.5C175.208 155.5 175.215 155.5 175.222 155.5C175.229 155.5 175.236 155.5 175.242 155.5C175.249 155.5 175.256 155.5 175.263 155.5C175.27 155.5 175.277 155.5 175.284 155.5C175.291 155.5 175.298 155.5 175.304 155.5C175.311 155.5 175.318 155.5 175.325 155.5C175.332 155.5 175.339 155.5 175.346 155.5C175.353 155.5 175.359 155.5 175.366 155.5C175.373 155.5 175.38 155.5 175.387 155.5C175.394 155.5 175.401 155.5 175.408 155.5C175.415 155.5 175.421 155.5 175.428 155.5C175.435 155.5 175.442 155.5 175.449 155.5C175.456 155.5 175.463 155.5 175.47 155.5C175.476 155.5 175.483 155.5 175.49 155.5C175.497 155.5 175.504 155.5 175.511 155.5C175.518 155.5 175.525 155.5 175.531 155.5C175.538 155.5 175.545 155.5 175.552 155.5C175.559 155.5 175.566 155.5 175.573 155.5C175.579 155.5 175.586 155.5 175.593 155.5C175.6 155.5 175.607 155.5 175.614 155.5C175.621 155.5 175.627 155.5 175.634 155.5C175.641 155.5 175.648 155.5 175.655 155.5C175.662 155.5 175.669 155.5 175.675 155.5C175.682 155.5 175.689 155.5 175.696 155.5C175.703 155.5 175.71 155.5 175.717 155.5C175.723 155.5 175.73 155.5 175.737 155.5C175.744 155.5 175.751 155.5 175.758 155.5C175.764 155.5 175.771 155.5 175.778 155.5C175.785 155.5 175.792 155.5 175.799 155.5C175.805 155.5 175.812 155.5 175.819 155.5C175.826 155.5 175.833 155.5 175.84 155.5C175.846 155.5 175.853 155.5 175.86 155.5C175.867 155.5 175.874 155.5 175.881 155.5C175.887 155.5 175.894 155.5 175.901 155.5C175.908 155.5 175.915 155.5 175.921 155.5C175.928 155.5 175.935 155.5 175.942 155.5C175.949 155.5 175.955 155.5 175.962 155.5C175.969 155.5 175.976 155.5 175.983 155.5C175.989 155.5 175.996 155.5 176.003 155.5C176.01 155.5 176.017 155.5 176.023 155.5C176.03 155.5 176.037 155.5 176.044 155.5C176.051 155.5 176.057 155.5 176.064 155.5C176.071 155.5 176.078 155.5 176.084 155.5C176.091 155.5 176.098 155.5 176.105 155.5C176.112 155.5 176.118 155.5 176.125 155.5C176.132 155.5 176.139 155.5 176.145 155.5C176.152 155.5 176.159 155.5 176.166 155.5C176.172 155.5 176.179 155.5 176.186 155.5C176.193 155.5 176.199 155.5 176.206 155.5C176.213 155.5 176.22 155.5 176.226 155.5C176.233 155.5 176.24 155.5 176.247 155.5C176.253 155.5 176.26 155.5 176.267 155.5C176.273 155.5 176.28 155.5 176.287 155.5C176.294 155.5 176.3 155.5 176.307 155.5C176.314 155.5 176.321 155.5 176.327 155.5C176.334 155.5 176.341 155.5 176.347 155.5C176.354 155.5 176.361 155.5 176.367 155.5C176.374 155.5 176.381 155.5 176.388 155.5C176.394 155.5 176.401 155.5 176.408 155.5C176.414 155.5 176.421 155.5 176.428 155.5C176.434 155.5 176.441 155.5 176.448 155.5C176.454 155.5 176.461 155.5 176.468 155.5C176.474 155.5 176.481 155.5 176.488 155.5C176.494 155.5 176.501 155.5 176.508 155.5C176.514 155.5 176.521 155.5 176.527 155.5C176.534 155.5 176.541 155.5 176.547 155.5C176.554 155.5 176.561 155.5 176.567 155.5C176.574 155.5 176.581 155.5 176.587 155.5C176.594 155.5 176.6 155.5 176.607 155.5C176.614 155.5 176.62 155.5 176.627 155.5C176.633 155.5 176.64 155.5 176.647 155.5C176.653 155.5 176.66 155.5 176.666 155.5C176.673 155.5 176.68 155.5 176.686 155.5C176.693 155.5 176.699 155.5 176.706 155.5C176.712 155.5 176.719 155.5 176.726 155.5C176.732 155.5 176.739 155.5 176.745 155.5C176.752 155.5 176.758 155.5 176.765 155.5C176.771 155.5 176.778 155.5 176.785 155.5C176.791 155.5 176.798 155.5 176.804 155.5C176.811 155.5 176.817 155.5 176.824 155.5C176.83 155.5 176.837 155.5 176.843 155.5C176.85 155.5 176.856 155.5 176.863 155.5C176.869 155.5 176.876 155.5 176.882 155.5C176.889 155.5 176.895 155.5 176.902 155.5C176.908 155.5 176.915 155.5 176.921 155.5C176.928 155.5 176.934 155.5 176.941 155.5C176.947 155.5 176.954 155.5 176.96 155.5C176.966 155.5 176.973 155.5 176.979 155.5C176.986 155.5 176.992 155.5 176.999 155.5C177.005 155.5 177.012 155.5 177.018 155.5C177.024 155.5 177.031 155.5 177.037 155.5C177.044 155.5 177.05 155.5 177.057 155.5C177.063 155.5 177.069 155.5 177.076 155.5C177.082 155.5 177.089 155.5 177.095 155.5C177.101 155.5 177.108 155.5 177.114 155.5C177.12 155.5 177.127 155.5 177.133 155.5C177.14 155.5 177.146 155.5 177.152 155.5C177.159 155.5 177.165 155.5 177.171 155.5C177.178 155.5 177.184 155.5 177.19 155.5C177.197 155.5 177.203 155.5 177.209 155.5C177.216 155.5 177.222 155.5 177.228 155.5C177.235 155.5 177.241 155.5 177.247 155.5C177.253 155.5 177.26 155.5 177.266 155.5C177.272 155.5 177.279 155.5 177.285 155.5C177.291 155.5 177.297 155.5 177.304 155.5C177.31 155.5 177.316 155.5 177.323 155.5C177.329 155.5 177.335 155.5 177.341 155.5C177.348 155.5 177.354 155.5 177.36 155.5C177.366 155.5 177.372 155.5 177.379 155.5C177.385 155.5 177.391 155.5 177.397 155.5C177.404 155.5 177.41 155.5 177.416 155.5C177.422 155.5 177.428 155.5 177.435 155.5C177.441 155.5 177.447 155.5 177.453 155.5C177.459 155.5 177.465 155.5 177.472 155.5C177.478 155.5 177.484 155.5 177.49 155.5C177.496 155.5 177.502 155.5 177.508 155.5C177.515 155.5 177.521 155.5 177.527 155.5C177.533 155.5 177.539 155.5 177.545 155.5C177.551 155.5 177.557 155.5 177.563 155.5C177.57 155.5 177.576 155.5 177.582 155.5C177.588 155.5 177.594 155.5 177.6 155.5C177.606 155.5 177.612 155.5 177.618 155.5C177.624 155.5 177.63 155.5 177.636 155.5C177.642 155.5 177.648 155.5 177.654 155.5C177.66 155.5 177.666 155.5 177.673 155.5C177.679 155.5 177.685 155.5 177.691 155.5C177.697 155.5 177.703 155.5 177.709 155.5C177.715 155.5 177.721 155.5 177.726 155.5C177.732 155.5 177.738 155.5 177.744 155.5C177.75 155.5 177.756 155.5 177.762 155.5C177.768 155.5 177.774 155.5 177.78 155.5C177.786 155.5 177.792 155.5 177.798 155.5C177.804 155.5 177.81 155.5 177.816 155.5C177.822 155.5 177.827 155.5 177.833 155.5C177.839 155.5 177.845 155.5 177.851 155.5C177.857 155.5 177.863 155.5 177.869 155.5C177.874 155.5 177.88 155.5 177.886 155.5C177.892 155.5 177.898 155.5 177.904 155.5C177.909 155.5 177.915 155.5 177.921 155.5C177.927 155.5 177.933 155.5 177.939 155.5C177.944 155.5 177.95 155.5 177.956 155.5C177.962 155.5 177.967 155.5 177.973 155.5C177.979 155.5 177.985 155.5 177.991 155.5C177.996 155.5 178.002 155.5 178.008 155.5C178.014 155.5 178.019 155.5 178.025 155.5C178.031 155.5 178.036 155.5 178.042 155.5C178.048 155.5 178.054 155.5 178.059 155.5C178.065 155.5 178.071 155.5 178.076 155.5C178.082 155.5 178.088 155.5 178.093 155.5C178.099 155.5 178.105 155.5 178.11 155.5C178.116 155.5 178.122 155.5 178.127 155.5C178.133 155.5 178.138 155.5 178.144 155.5C178.15 155.5 178.155 155.5 178.161 155.5C178.166 155.5 178.172 155.5 178.178 155.5C178.183 155.5 178.189 155.5 178.194 155.5C178.2 155.5 178.205 155.5 178.211 155.5C178.217 155.5 178.222 155.5 178.228 155.5C178.233 155.5 178.239 155.5 178.244 155.5C178.25 155.5 178.255 155.5 178.261 155.5C178.266 155.5 178.272 155.5 178.277 155.5C178.283 155.5 178.288 155.5 178.294 155.5C178.299 155.5 178.304 155.5 178.31 155.5C178.315 155.5 178.321 155.5 178.326 155.5C178.332 155.5 178.337 155.5 178.342 155.5C178.348 155.5 178.353 155.5 178.359 155.5C178.364 155.5 178.369 155.5 178.375 155.5C178.38 155.5 178.386 155.5 178.391 155.5C178.396 155.5 178.402 155.5 178.407 155.5C178.412 155.5 178.418 155.5 178.423 155.5C178.428 155.5 178.434 155.5 178.439 155.5C178.444 155.5 178.449 155.5 178.455 155.5C178.46 155.5 178.465 155.5 178.471 155.5C178.476 155.5 178.481 155.5 178.486 155.5C178.492 155.5 178.497 155.5 178.502 155.5C178.507 155.5 178.512 155.5 178.518 155.5C178.523 155.5 178.528 155.5 178.533 155.5C178.538 155.5 178.544 155.5 178.549 155.5C178.554 155.5 178.559 155.5 178.564 155.5C178.569 155.5 178.575 155.5 178.58 155.5C178.585 155.5 178.59 155.5 178.595 155.5C178.6 155.5 178.605 155.5 178.61 155.5C178.615 155.5 178.62 155.5 178.626 155.5C178.631 155.5 178.636 155.5 178.641 155.5C178.646 155.5 178.651 155.5 178.656 155.5C178.661 155.5 178.666 155.5 178.671 155.5C178.676 155.5 178.681 155.5 178.686 155.5C178.691 155.5 178.696 155.5 178.701 155.5C178.706 155.5 178.711 155.5 178.716 155.5C178.721 155.5 178.726 155.5 178.731 155.5C178.736 155.5 178.74 155.5 178.745 155.5C178.75 155.5 178.755 155.5 178.76 155.5C178.765 155.5 178.77 155.5 178.775 155.5C178.78 155.5 178.784 155.5 178.789 155.5C178.794 155.5 178.799 155.5 178.804 155.5C178.809 155.5 178.813 155.5 178.818 155.5C178.823 155.5 178.828 155.5 178.833 155.5C178.837 155.5 178.842 155.5 178.847 155.5C178.852 155.5 178.857 155.5 178.861 155.5C178.866 155.5 178.871 155.5 178.875 155.5C178.88 155.5 178.885 155.5 178.89 155.5C178.894 155.5 178.899 155.5 178.904 155.5C178.908 155.5 178.913 155.5 178.918 155.5C178.922 155.5 178.927 155.5 178.932 155.5C178.936 155.5 178.941 155.5 178.946 155.5C178.95 155.5 178.955 155.5 178.959 155.5C178.964 155.5 178.968 155.5 178.973 155.5C178.978 155.5 178.982 155.5 178.987 155.5C178.991 155.5 178.996 155.5 179 155.5C179.005 155.5 179.009 155.5 179.014 155.5C179.018 155.5 179.023 155.5 179.027 155.5C179.032 155.5 179.036 155.5 179.041 155.5C179.045 155.5 179.05 155.5 179.054 155.5C179.059 155.5 179.063 155.5 179.067 155.5C179.072 155.5 179.076 155.5 179.081 155.5C179.085 155.5 179.089 155.5 179.094 155.5C179.098 155.5 179.102 155.5 179.107 155.5C179.111 155.5 179.115 155.5 179.12 155.5C179.124 155.5 179.128 155.5 179.133 155.5C179.137 155.5 179.141 155.5 179.146 155.5C179.15 155.5 179.154 155.5 179.158 155.5C179.163 155.5 179.167 155.5 179.171 155.5C179.175 155.5 179.18 155.5 179.184 155.5C179.188 155.5 179.192 155.5 179.196 155.5C179.201 155.5 179.205 155.5 179.209 155.5C179.213 155.5 179.217 155.5 179.221 155.5C179.225 155.5 179.23 155.5 179.234 155.5C179.238 155.5 179.242 155.5 179.246 155.5C179.25 155.5 179.254 155.5 179.258 155.5C179.262 155.5 179.266 155.5 179.27 155.5C179.274 155.5 179.278 155.5 179.282 155.5C179.286 155.5 179.29 155.5 179.294 155.5C179.298 155.5 179.302 155.5 179.306 155.5C179.31 155.5 179.314 155.5 179.318 155.5C179.322 155.5 179.326 155.5 179.33 155.5C179.334 155.5 179.338 155.5 179.342 155.5C179.345 155.5 179.349 155.5 179.353 155.5C179.357 155.5 179.361 155.5 179.365 155.5C179.369 155.5 179.372 155.5 179.376 155.5C179.38 155.5 179.384 155.5 179.388 155.5C179.391 155.5 179.395 155.5 179.399 155.5C179.403 155.5 179.406 155.5 179.41 155.5C179.414 155.5 179.418 155.5 179.421 155.5C179.425 155.5 179.429 155.5 179.432 155.5C179.436 155.5 179.44 155.5 179.443 155.5C179.447 155.5 179.451 155.5 179.454 155.5C179.458 155.5 179.461 155.5 179.465 155.5C179.469 155.5 179.472 155.5 179.476 155.5C179.479 155.5 179.483 155.5 179.486 155.5C179.49 155.5 179.494 155.5 179.497 155.5C179.501 155.5 179.504 155.5 179.508 155.5C179.511 155.5 179.515 155.5 179.518 155.5C179.522 155.5 179.525 155.5 179.528 155.5C179.532 155.5 179.535 155.5 179.539 155.5C179.542 155.5 179.546 155.5 179.549 155.5C179.552 155.5 179.556 155.5 179.559 155.5C179.562 155.5 179.566 155.5 179.569 155.5C179.572 155.5 179.576 155.5 179.579 155.5C179.582 155.5 179.586 155.5 179.589 155.5C179.592 155.5 179.595 155.5 179.599 155.5C179.602 155.5 179.605 155.5 179.608 155.5C179.612 155.5 179.615 155.5 179.618 155.5C179.621 155.5 179.624 155.5 179.628 155.5C179.631 155.5 179.634 155.5 179.637 155.5C179.64 155.5 179.643 155.5 179.646 155.5C179.649 155.5 179.653 155.5 179.656 155.5C179.659 155.5 179.662 155.5 179.665 155.5C179.668 155.5 179.671 155.5 179.674 155.5C179.677 155.5 179.68 155.5 179.683 155.5C179.686 155.5 179.689 155.5 179.692 155.5C179.695 155.5 179.698 155.5 179.701 155.5C179.704 155.5 179.707 155.5 179.71 155.5C179.712 155.5 179.715 155.5 179.718 155.5C179.721 155.5 179.724 155.5 179.727 155.5C179.73 155.5 179.733 155.5 179.735 155.5C179.738 155.5 179.741 155.5 179.744 155.5C179.747 155.5 179.749 155.5 179.752 155.5C179.755 155.5 179.758 155.5 179.76 155.5C179.763 155.5 179.766 155.5 179.768 155.5C179.771 155.5 179.774 155.5 179.777 155.5C179.779 155.5 179.782 155.5 179.785 155.5C179.787 155.5 179.79 155.5 179.792 155.5C179.795 155.5 179.798 155.5 179.8 155.5C179.803 155.5 179.805 155.5 179.808 155.5C179.81 155.5 179.813 155.5 179.815 155.5C179.818 155.5 179.821 155.5 179.823 155.5C179.826 155.5 179.828 155.5 179.83 155.5C179.833 155.5 179.835 155.5 179.838 155.5C179.84 155.5 179.843 155.5 179.845 155.5C179.847 155.5 179.85 155.5 179.852 155.5C179.855 155.5 179.857 155.5 179.859 155.5C179.862 155.5 179.864 155.5 179.866 155.5C179.869 155.5 179.871 155.5 179.873 155.5C179.875 155.5 179.878 155.5 179.88 155.5C179.882 155.5 179.884 155.5 179.887 155.5C179.889 155.5 179.891 155.5 179.893 155.5C179.895 155.5 179.897 155.5 179.9 155.5C179.902 155.5 179.904 155.5 179.906 155.5C179.908 155.5 179.91 155.5 179.912 155.5C179.914 155.5 179.916 155.5 179.919 155.5C179.921 155.5 179.923 155.5 179.925 155.5C179.927 155.5 179.929 155.5 179.931 155.5C179.933 155.5 179.935 155.5 179.937 155.5C179.939 155.5 179.94 155.5 179.942 155.5C179.944 155.5 179.946 155.5 179.948 155.5C179.95 155.5 179.952 155.5 179.954 155.5C179.956 155.5 179.957 155.5 179.959 155.5C179.961 155.5 179.963 155.5 179.965 155.5C179.967 155.5 179.968 155.5 179.97 155.5C179.972 155.5 179.974 155.5 179.975 155.5C179.977 155.5 179.979 155.5 179.98 155.5C179.982 155.5 179.984 155.5 179.985 155.5C179.987 155.5 179.989 155.5 179.99 155.5C179.992 155.5 179.994 155.5 179.995 155.5C179.997 155.5 179.998 155.5 180 155.5V154.5C179.998 154.5 179.997 154.5 179.995 154.5C179.994 154.5 179.992 154.5 179.99 154.5C179.989 154.5 179.987 154.5 179.985 154.5C179.984 154.5 179.982 154.5 179.98 154.5C179.979 154.5 179.977 154.5 179.975 154.5C179.974 154.5 179.972 154.5 179.97 154.5C179.968 154.5 179.967 154.5 179.965 154.5C179.963 154.5 179.961 154.5 179.959 154.5C179.957 154.5 179.956 154.5 179.954 154.5C179.952 154.5 179.95 154.5 179.948 154.5C179.946 154.5 179.944 154.5 179.942 154.5C179.94 154.5 179.939 154.5 179.937 154.5C179.935 154.5 179.933 154.5 179.931 154.5C179.929 154.5 179.927 154.5 179.925 154.5C179.923 154.5 179.921 154.5 179.919 154.5C179.916 154.5 179.914 154.5 179.912 154.5C179.91 154.5 179.908 154.5 179.906 154.5C179.904 154.5 179.902 154.5 179.9 154.5C179.897 154.5 179.895 154.5 179.893 154.5C179.891 154.5 179.889 154.5 179.887 154.5C179.884 154.5 179.882 154.5 179.88 154.5C179.878 154.5 179.875 154.5 179.873 154.5C179.871 154.5 179.869 154.5 179.866 154.5C179.864 154.5 179.862 154.5 179.859 154.5C179.857 154.5 179.855 154.5 179.852 154.5C179.85 154.5 179.847 154.5 179.845 154.5C179.843 154.5 179.84 154.5 179.838 154.5C179.835 154.5 179.833 154.5 179.83 154.5C179.828 154.5 179.826 154.5 179.823 154.5C179.821 154.5 179.818 154.5 179.815 154.5C179.813 154.5 179.81 154.5 179.808 154.5C179.805 154.5 179.803 154.5 179.8 154.5C179.798 154.5 179.795 154.5 179.792 154.5C179.79 154.5 179.787 154.5 179.785 154.5C179.782 154.5 179.779 154.5 179.777 154.5C179.774 154.5 179.771 154.5 179.768 154.5C179.766 154.5 179.763 154.5 179.76 154.5C179.758 154.5 179.755 154.5 179.752 154.5C179.749 154.5 179.747 154.5 179.744 154.5C179.741 154.5 179.738 154.5 179.735 154.5C179.733 154.5 179.73 154.5 179.727 154.5C179.724 154.5 179.721 154.5 179.718 154.5C179.715 154.5 179.712 154.5 179.71 154.5C179.707 154.5 179.704 154.5 179.701 154.5C179.698 154.5 179.695 154.5 179.692 154.5C179.689 154.5 179.686 154.5 179.683 154.5C179.68 154.5 179.677 154.5 179.674 154.5C179.671 154.5 179.668 154.5 179.665 154.5C179.662 154.5 179.659 154.5 179.656 154.5C179.653 154.5 179.649 154.5 179.646 154.5C179.643 154.5 179.64 154.5 179.637 154.5C179.634 154.5 179.631 154.5 179.628 154.5C179.624 154.5 179.621 154.5 179.618 154.5C179.615 154.5 179.612 154.5 179.608 154.5C179.605 154.5 179.602 154.5 179.599 154.5C179.595 154.5 179.592 154.5 179.589 154.5C179.586 154.5 179.582 154.5 179.579 154.5C179.576 154.5 179.572 154.5 179.569 154.5C179.566 154.5 179.562 154.5 179.559 154.5C179.556 154.5 179.552 154.5 179.549 154.5C179.546 154.5 179.542 154.5 179.539 154.5C179.535 154.5 179.532 154.5 179.528 154.5C179.525 154.5 179.522 154.5 179.518 154.5C179.515 154.5 179.511 154.5 179.508 154.5C179.504 154.5 179.501 154.5 179.497 154.5C179.494 154.5 179.49 154.5 179.486 154.5C179.483 154.5 179.479 154.5 179.476 154.5C179.472 154.5 179.469 154.5 179.465 154.5C179.461 154.5 179.458 154.5 179.454 154.5C179.451 154.5 179.447 154.5 179.443 154.5C179.44 154.5 179.436 154.5 179.432 154.5C179.429 154.5 179.425 154.5 179.421 154.5C179.418 154.5 179.414 154.5 179.41 154.5C179.406 154.5 179.403 154.5 179.399 154.5C179.395 154.5 179.391 154.5 179.388 154.5C179.384 154.5 179.38 154.5 179.376 154.5C179.372 154.5 179.369 154.5 179.365 154.5C179.361 154.5 179.357 154.5 179.353 154.5C179.349 154.5 179.345 154.5 179.342 154.5C179.338 154.5 179.334 154.5 179.33 154.5C179.326 154.5 179.322 154.5 179.318 154.5C179.314 154.5 179.31 154.5 179.306 154.5C179.302 154.5 179.298 154.5 179.294 154.5C179.29 154.5 179.286 154.5 179.282 154.5C179.278 154.5 179.274 154.5 179.27 154.5C179.266 154.5 179.262 154.5 179.258 154.5C179.254 154.5 179.25 154.5 179.246 154.5C179.242 154.5 179.238 154.5 179.234 154.5C179.23 154.5 179.225 154.5 179.221 154.5C179.217 154.5 179.213 154.5 179.209 154.5C179.205 154.5 179.201 154.5 179.196 154.5C179.192 154.5 179.188 154.5 179.184 154.5C179.18 154.5 179.175 154.5 179.171 154.5C179.167 154.5 179.163 154.5 179.158 154.5C179.154 154.5 179.15 154.5 179.146 154.5C179.141 154.5 179.137 154.5 179.133 154.5C179.128 154.5 179.124 154.5 179.12 154.5C179.115 154.5 179.111 154.5 179.107 154.5C179.102 154.5 179.098 154.5 179.094 154.5C179.089 154.5 179.085 154.5 179.081 154.5C179.076 154.5 179.072 154.5 179.067 154.5C179.063 154.5 179.059 154.5 179.054 154.5C179.05 154.5 179.045 154.5 179.041 154.5C179.036 154.5 179.032 154.5 179.027 154.5C179.023 154.5 179.018 154.5 179.014 154.5C179.009 154.5 179.005 154.5 179 154.5C178.996 154.5 178.991 154.5 178.987 154.5C178.982 154.5 178.978 154.5 178.973 154.5C178.968 154.5 178.964 154.5 178.959 154.5C178.955 154.5 178.95 154.5 178.946 154.5C178.941 154.5 178.936 154.5 178.932 154.5C178.927 154.5 178.922 154.5 178.918 154.5C178.913 154.5 178.908 154.5 178.904 154.5C178.899 154.5 178.894 154.5 178.89 154.5C178.885 154.5 178.88 154.5 178.875 154.5C178.871 154.5 178.866 154.5 178.861 154.5C178.857 154.5 178.852 154.5 178.847 154.5C178.842 154.5 178.837 154.5 178.833 154.5C178.828 154.5 178.823 154.5 178.818 154.5C178.813 154.5 178.809 154.5 178.804 154.5C178.799 154.5 178.794 154.5 178.789 154.5C178.784 154.5 178.78 154.5 178.775 154.5C178.77 154.5 178.765 154.5 178.76 154.5C178.755 154.5 178.75 154.5 178.745 154.5C178.74 154.5 178.736 154.5 178.731 154.5C178.726 154.5 178.721 154.5 178.716 154.5C178.711 154.5 178.706 154.5 178.701 154.5C178.696 154.5 178.691 154.5 178.686 154.5C178.681 154.5 178.676 154.5 178.671 154.5C178.666 154.5 178.661 154.5 178.656 154.5C178.651 154.5 178.646 154.5 178.641 154.5C178.636 154.5 178.631 154.5 178.626 154.5C178.62 154.5 178.615 154.5 178.61 154.5C178.605 154.5 178.6 154.5 178.595 154.5C178.59 154.5 178.585 154.5 178.58 154.5C178.575 154.5 178.569 154.5 178.564 154.5C178.559 154.5 178.554 154.5 178.549 154.5C178.544 154.5 178.538 154.5 178.533 154.5C178.528 154.5 178.523 154.5 178.518 154.5C178.512 154.5 178.507 154.5 178.502 154.5C178.497 154.5 178.492 154.5 178.486 154.5C178.481 154.5 178.476 154.5 178.471 154.5C178.465 154.5 178.46 154.5 178.455 154.5C178.449 154.5 178.444 154.5 178.439 154.5C178.434 154.5 178.428 154.5 178.423 154.5C178.418 154.5 178.412 154.5 178.407 154.5C178.402 154.5 178.396 154.5 178.391 154.5C178.386 154.5 178.38 154.5 178.375 154.5C178.369 154.5 178.364 154.5 178.359 154.5C178.353 154.5 178.348 154.5 178.342 154.5C178.337 154.5 178.332 154.5 178.326 154.5C178.321 154.5 178.315 154.5 178.31 154.5C178.304 154.5 178.299 154.5 178.294 154.5C178.288 154.5 178.283 154.5 178.277 154.5C178.272 154.5 178.266 154.5 178.261 154.5C178.255 154.5 178.25 154.5 178.244 154.5C178.239 154.5 178.233 154.5 178.228 154.5C178.222 154.5 178.217 154.5 178.211 154.5C178.205 154.5 178.2 154.5 178.194 154.5C178.189 154.5 178.183 154.5 178.178 154.5C178.172 154.5 178.166 154.5 178.161 154.5C178.155 154.5 178.15 154.5 178.144 154.5C178.138 154.5 178.133 154.5 178.127 154.5C178.122 154.5 178.116 154.5 178.11 154.5C178.105 154.5 178.099 154.5 178.093 154.5C178.088 154.5 178.082 154.5 178.076 154.5C178.071 154.5 178.065 154.5 178.059 154.5C178.054 154.5 178.048 154.5 178.042 154.5C178.036 154.5 178.031 154.5 178.025 154.5C178.019 154.5 178.014 154.5 178.008 154.5C178.002 154.5 177.996 154.5 177.991 154.5C177.985 154.5 177.979 154.5 177.973 154.5C177.967 154.5 177.962 154.5 177.956 154.5C177.95 154.5 177.944 154.5 177.939 154.5C177.933 154.5 177.927 154.5 177.921 154.5C177.915 154.5 177.909 154.5 177.904 154.5C177.898 154.5 177.892 154.5 177.886 154.5C177.88 154.5 177.874 154.5 177.869 154.5C177.863 154.5 177.857 154.5 177.851 154.5C177.845 154.5 177.839 154.5 177.833 154.5C177.827 154.5 177.822 154.5 177.816 154.5C177.81 154.5 177.804 154.5 177.798 154.5C177.792 154.5 177.786 154.5 177.78 154.5C177.774 154.5 177.768 154.5 177.762 154.5C177.756 154.5 177.75 154.5 177.744 154.5C177.738 154.5 177.732 154.5 177.726 154.5C177.721 154.5 177.715 154.5 177.709 154.5C177.703 154.5 177.697 154.5 177.691 154.5C177.685 154.5 177.679 154.5 177.673 154.5C177.666 154.5 177.66 154.5 177.654 154.5C177.648 154.5 177.642 154.5 177.636 154.5C177.63 154.5 177.624 154.5 177.618 154.5C177.612 154.5 177.606 154.5 177.6 154.5C177.594 154.5 177.588 154.5 177.582 154.5C177.576 154.5 177.57 154.5 177.563 154.5C177.557 154.5 177.551 154.5 177.545 154.5C177.539 154.5 177.533 154.5 177.527 154.5C177.521 154.5 177.515 154.5 177.508 154.5C177.502 154.5 177.496 154.5 177.49 154.5C177.484 154.5 177.478 154.5 177.472 154.5C177.465 154.5 177.459 154.5 177.453 154.5C177.447 154.5 177.441 154.5 177.435 154.5C177.428 154.5 177.422 154.5 177.416 154.5C177.41 154.5 177.404 154.5 177.397 154.5C177.391 154.5 177.385 154.5 177.379 154.5C177.372 154.5 177.366 154.5 177.36 154.5C177.354 154.5 177.348 154.5 177.341 154.5C177.335 154.5 177.329 154.5 177.323 154.5C177.316 154.5 177.31 154.5 177.304 154.5C177.297 154.5 177.291 154.5 177.285 154.5C177.279 154.5 177.272 154.5 177.266 154.5C177.26 154.5 177.253 154.5 177.247 154.5C177.241 154.5 177.235 154.5 177.228 154.5C177.222 154.5 177.216 154.5 177.209 154.5C177.203 154.5 177.197 154.5 177.19 154.5C177.184 154.5 177.178 154.5 177.171 154.5C177.165 154.5 177.159 154.5 177.152 154.5C177.146 154.5 177.14 154.5 177.133 154.5C177.127 154.5 177.12 154.5 177.114 154.5C177.108 154.5 177.101 154.5 177.095 154.5C177.089 154.5 177.082 154.5 177.076 154.5C177.069 154.5 177.063 154.5 177.057 154.5C177.05 154.5 177.044 154.5 177.037 154.5C177.031 154.5 177.024 154.5 177.018 154.5C177.012 154.5 177.005 154.5 176.999 154.5C176.992 154.5 176.986 154.5 176.979 154.5C176.973 154.5 176.966 154.5 176.96 154.5C176.954 154.5 176.947 154.5 176.941 154.5C176.934 154.5 176.928 154.5 176.921 154.5C176.915 154.5 176.908 154.5 176.902 154.5C176.895 154.5 176.889 154.5 176.882 154.5C176.876 154.5 176.869 154.5 176.863 154.5C176.856 154.5 176.85 154.5 176.843 154.5C176.837 154.5 176.83 154.5 176.824 154.5C176.817 154.5 176.811 154.5 176.804 154.5C176.798 154.5 176.791 154.5 176.785 154.5C176.778 154.5 176.771 154.5 176.765 154.5C176.758 154.5 176.752 154.5 176.745 154.5C176.739 154.5 176.732 154.5 176.726 154.5C176.719 154.5 176.712 154.5 176.706 154.5C176.699 154.5 176.693 154.5 176.686 154.5C176.68 154.5 176.673 154.5 176.666 154.5C176.66 154.5 176.653 154.5 176.647 154.5C176.64 154.5 176.633 154.5 176.627 154.5C176.62 154.5 176.614 154.5 176.607 154.5C176.6 154.5 176.594 154.5 176.587 154.5C176.581 154.5 176.574 154.5 176.567 154.5C176.561 154.5 176.554 154.5 176.547 154.5C176.541 154.5 176.534 154.5 176.527 154.5C176.521 154.5 176.514 154.5 176.508 154.5C176.501 154.5 176.494 154.5 176.488 154.5C176.481 154.5 176.474 154.5 176.468 154.5C176.461 154.5 176.454 154.5 176.448 154.5C176.441 154.5 176.434 154.5 176.428 154.5C176.421 154.5 176.414 154.5 176.408 154.5C176.401 154.5 176.394 154.5 176.388 154.5C176.381 154.5 176.374 154.5 176.367 154.5C176.361 154.5 176.354 154.5 176.347 154.5C176.341 154.5 176.334 154.5 176.327 154.5C176.321 154.5 176.314 154.5 176.307 154.5C176.3 154.5 176.294 154.5 176.287 154.5C176.28 154.5 176.273 154.5 176.267 154.5C176.26 154.5 176.253 154.5 176.247 154.5C176.24 154.5 176.233 154.5 176.226 154.5C176.22 154.5 176.213 154.5 176.206 154.5C176.199 154.5 176.193 154.5 176.186 154.5C176.179 154.5 176.172 154.5 176.166 154.5C176.159 154.5 176.152 154.5 176.145 154.5C176.139 154.5 176.132 154.5 176.125 154.5C176.118 154.5 176.112 154.5 176.105 154.5C176.098 154.5 176.091 154.5 176.084 154.5C176.078 154.5 176.071 154.5 176.064 154.5C176.057 154.5 176.051 154.5 176.044 154.5C176.037 154.5 176.03 154.5 176.023 154.5C176.017 154.5 176.01 154.5 176.003 154.5C175.996 154.5 175.989 154.5 175.983 154.5C175.976 154.5 175.969 154.5 175.962 154.5C175.955 154.5 175.949 154.5 175.942 154.5C175.935 154.5 175.928 154.5 175.921 154.5C175.915 154.5 175.908 154.5 175.901 154.5C175.894 154.5 175.887 154.5 175.881 154.5C175.874 154.5 175.867 154.5 175.86 154.5C175.853 154.5 175.846 154.5 175.84 154.5C175.833 154.5 175.826 154.5 175.819 154.5C175.812 154.5 175.805 154.5 175.799 154.5C175.792 154.5 175.785 154.5 175.778 154.5C175.771 154.5 175.764 154.5 175.758 154.5C175.751 154.5 175.744 154.5 175.737 154.5C175.73 154.5 175.723 154.5 175.717 154.5C175.71 154.5 175.703 154.5 175.696 154.5C175.689 154.5 175.682 154.5 175.675 154.5C175.669 154.5 175.662 154.5 175.655 154.5C175.648 154.5 175.641 154.5 175.634 154.5C175.627 154.5 175.621 154.5 175.614 154.5C175.607 154.5 175.6 154.5 175.593 154.5C175.586 154.5 175.579 154.5 175.573 154.5C175.566 154.5 175.559 154.5 175.552 154.5C175.545 154.5 175.538 154.5 175.531 154.5C175.525 154.5 175.518 154.5 175.511 154.5C175.504 154.5 175.497 154.5 175.49 154.5C175.483 154.5 175.476 154.5 175.47 154.5C175.463 154.5 175.456 154.5 175.449 154.5C175.442 154.5 175.435 154.5 175.428 154.5C175.421 154.5 175.415 154.5 175.408 154.5C175.401 154.5 175.394 154.5 175.387 154.5C175.38 154.5 175.373 154.5 175.366 154.5C175.359 154.5 175.353 154.5 175.346 154.5C175.339 154.5 175.332 154.5 175.325 154.5C175.318 154.5 175.311 154.5 175.304 154.5C175.298 154.5 175.291 154.5 175.284 154.5C175.277 154.5 175.27 154.5 175.263 154.5C175.256 154.5 175.249 154.5 175.242 154.5C175.236 154.5 175.229 154.5 175.222 154.5C175.215 154.5 175.208 154.5 175.201 154.5C175.194 154.5 175.187 154.5 175.18 154.5C175.174 154.5 175.167 154.5 175.16 154.5C175.153 154.5 175.146 154.5 175.139 154.5C175.132 154.5 175.125 154.5 175.118 154.5C175.112 154.5 175.105 154.5 175.098 154.5C175.091 154.5 175.084 154.5 175.077 154.5C175.07 154.5 175.063 154.5 175.056 154.5C175.05 154.5 175.043 154.5 175.036 154.5C175.029 154.5 175.022 154.5 175.015 154.5C175.008 154.5 175.001 154.5 174.995 154.5C174.988 154.5 174.981 154.5 174.974 154.5C174.967 154.5 174.96 154.5 174.953 154.5C174.946 154.5 174.939 154.5 174.933 154.5C174.926 154.5 174.919 154.5 174.912 154.5C174.905 154.5 174.898 154.5 174.891 154.5C174.884 154.5 174.877 154.5 174.871 154.5C174.864 154.5 174.857 154.5 174.85 154.5C174.843 154.5 174.836 154.5 174.829 154.5C174.822 154.5 174.816 154.5 174.809 154.5C174.802 154.5 174.795 154.5 174.788 154.5C174.781 154.5 174.774 154.5 174.767 154.5C174.761 154.5 174.754 154.5 174.747 154.5C174.74 154.5 174.733 154.5 174.726 154.5C174.719 154.5 174.713 154.5 174.706 154.5C174.699 154.5 174.692 154.5 174.685 154.5C174.678 154.5 174.671 154.5 174.664 154.5C174.658 154.5 174.651 154.5 174.644 154.5C174.637 154.5 174.63 154.5 174.623 154.5C174.616 154.5 174.61 154.5 174.603 154.5C174.596 154.5 174.589 154.5 174.582 154.5C174.575 154.5 174.569 154.5 174.562 154.5C174.555 154.5 174.548 154.5 174.541 154.5C174.534 154.5 174.527 154.5 174.521 154.5C174.514 154.5 174.507 154.5 174.5 154.5C174.493 154.5 174.486 154.5 174.48 154.5C174.473 154.5 174.466 154.5 174.459 154.5C174.452 154.5 174.445 154.5 174.439 154.5C174.432 154.5 174.425 154.5 174.418 154.5C174.411 154.5 174.404 154.5 174.398 154.5C174.391 154.5 174.384 154.5 174.377 154.5C174.37 154.5 174.364 154.5 174.357 154.5C174.35 154.5 174.343 154.5 174.336 154.5C174.329 154.5 174.323 154.5 174.316 154.5C174.309 154.5 174.302 154.5 174.295 154.5C174.289 154.5 174.282 154.5 174.275 154.5C174.268 154.5 174.261 154.5 174.255 154.5C174.248 154.5 174.241 154.5 174.234 154.5C174.228 154.5 174.221 154.5 174.214 154.5C174.207 154.5 174.2 154.5 174.194 154.5C174.187 154.5 174.18 154.5 174.173 154.5C174.167 154.5 174.16 154.5 174.153 154.5C174.146 154.5 174.139 154.5 174.133 154.5C174.126 154.5 174.119 154.5 174.112 154.5C174.106 154.5 174.099 154.5 174.092 154.5C174.085 154.5 174.079 154.5 174.072 154.5C174.065 154.5 174.058 154.5 174.052 154.5C174.045 154.5 174.038 154.5 174.031 154.5C174.025 154.5 174.018 154.5 174.011 154.5C174.005 154.5 173.998 154.5 173.991 154.5C173.984 154.5 173.978 154.5 173.971 154.5C173.964 154.5 173.957 154.5 173.951 154.5C173.944 154.5 173.937 154.5 173.931 154.5C173.924 154.5 173.917 154.5 173.911 154.5C173.904 154.5 173.897 154.5 173.89 154.5C173.884 154.5 173.877 154.5 173.87 154.5C173.864 154.5 173.857 154.5 173.85 154.5C173.844 154.5 173.837 154.5 173.83 154.5C173.824 154.5 173.817 154.5 173.81 154.5C173.804 154.5 173.797 154.5 173.79 154.5C173.784 154.5 173.777 154.5 173.77 154.5C173.764 154.5 173.757 154.5 173.75 154.5C173.744 154.5 173.737 154.5 173.73 154.5C173.724 154.5 173.717 154.5 173.711 154.5C173.704 154.5 173.697 154.5 173.691 154.5C173.684 154.5 173.677 154.5 173.671 154.5C173.664 154.5 173.658 154.5 173.651 154.5C173.644 154.5 173.638 154.5 173.631 154.5C173.625 154.5 173.618 154.5 173.611 154.5C173.605 154.5 173.598 154.5 173.592 154.5C173.585 154.5 173.578 154.5 173.572 154.5C173.565 154.5 173.559 154.5 173.552 154.5C173.546 154.5 173.539 154.5 173.532 154.5C173.526 154.5 173.519 154.5 173.513 154.5C173.506 154.5 173.5 154.5 173.493 154.5C173.487 154.5 173.48 154.5 173.473 154.5C173.467 154.5 173.46 154.5 173.454 154.5C173.447 154.5 173.441 154.5 173.434 154.5C173.428 154.5 173.421 154.5 173.415 154.5C173.408 154.5 173.402 154.5 173.395 154.5C173.389 154.5 173.382 154.5 173.376 154.5C173.369 154.5 173.363 154.5 173.356 154.5C173.35 154.5 173.343 154.5 173.337 154.5C173.33 154.5 173.324 154.5 173.318 154.5C173.311 154.5 173.305 154.5 173.298 154.5C173.292 154.5 173.285 154.5 173.279 154.5C173.272 154.5 173.266 154.5 173.259 154.5C173.253 154.5 173.247 154.5 173.24 154.5C173.234 154.5 173.227 154.5 173.221 154.5C173.215 154.5 173.208 154.5 173.202 154.5C173.195 154.5 173.189 154.5 173.183 154.5C173.176 154.5 173.17 154.5 173.163 154.5C173.157 154.5 173.151 154.5 173.144 154.5C173.138 154.5 173.131 154.5 173.125 154.5C173.119 154.5 173.112 154.5 173.106 154.5C173.1 154.5 173.093 154.5 173.087 154.5C173.081 154.5 173.074 154.5 173.068 154.5C173.062 154.5 173.055 154.5 173.049 154.5C173.043 154.5 173.036 154.5 173.03 154.5C173.024 154.5 173.017 154.5 173.011 154.5C173.005 154.5 172.999 154.5 172.992 154.5C172.986 154.5 172.98 154.5 172.973 154.5C172.967 154.5 172.961 154.5 172.955 154.5C172.948 154.5 172.942 154.5 172.936 154.5C172.93 154.5 172.923 154.5 172.917 154.5C172.911 154.5 172.905 154.5 172.898 154.5C172.892 154.5 172.886 154.5 172.88 154.5C172.874 154.5 172.867 154.5 172.861 154.5C172.855 154.5 172.849 154.5 172.843 154.5C172.836 154.5 172.83 154.5 172.824 154.5C172.818 154.5 172.812 154.5 172.805 154.5C172.799 154.5 172.793 154.5 172.787 154.5C172.781 154.5 172.775 154.5 172.769 154.5C172.762 154.5 172.756 154.5 172.75 154.5C172.744 154.5 172.738 154.5 172.732 154.5C172.726 154.5 172.72 154.5 172.713 154.5C172.707 154.5 172.701 154.5 172.695 154.5C172.689 154.5 172.683 154.5 172.677 154.5C172.671 154.5 172.665 154.5 172.659 154.5C172.653 154.5 172.647 154.5 172.64 154.5C172.634 154.5 172.628 154.5 172.622 154.5C172.616 154.5 172.61 154.5 172.604 154.5C172.598 154.5 172.592 154.5 172.586 154.5C172.58 154.5 172.574 154.5 172.568 154.5C172.562 154.5 172.556 154.5 172.55 154.5C172.544 154.5 172.538 154.5 172.532 154.5C172.526 154.5 172.52 154.5 172.514 154.5C172.508 154.5 172.502 154.5 172.497 154.5C172.491 154.5 172.485 154.5 172.479 154.5C172.473 154.5 172.467 154.5 172.461 154.5C172.455 154.5 172.449 154.5 172.443 154.5C172.437 154.5 172.431 154.5 172.426 154.5C172.42 154.5 172.414 154.5 172.408 154.5C172.402 154.5 172.396 154.5 172.39 154.5C172.384 154.5 172.379 154.5 172.373 154.5C172.367 154.5 172.361 154.5 172.355 154.5C172.349 154.5 172.344 154.5 172.338 154.5C172.332 154.5 172.326 154.5 172.32 154.5C172.315 154.5 172.309 154.5 172.303 154.5C172.297 154.5 172.292 154.5 172.286 154.5C172.28 154.5 172.274 154.5 172.268 154.5C172.263 154.5 172.257 154.5 172.251 154.5C172.246 154.5 172.24 154.5 172.234 154.5C172.228 154.5 172.223 154.5 172.217 154.5C172.211 154.5 172.206 154.5 172.2 154.5C172.194 154.5 172.188 154.5 172.183 154.5C172.177 154.5 172.171 154.5 172.166 154.5C172.16 154.5 172.155 154.5 172.149 154.5C172.143 154.5 172.138 154.5 172.132 154.5C172.126 154.5 172.121 154.5 172.115 154.5C172.11 154.5 172.104 154.5 172.098 154.5C172.093 154.5 172.087 154.5 172.082 154.5C172.076 154.5 172.07 154.5 172.065 154.5C172.059 154.5 172.054 154.5 172.048 154.5C172.043 154.5 172.037 154.5 172.032 154.5C172.026 154.5 172.021 154.5 172.015 154.5C172.01 154.5 172.004 154.5 171.999 154.5C171.993 154.5 171.988 154.5 171.982 154.5C171.977 154.5 171.971 154.5 171.966 154.5C171.96 154.5 171.955 154.5 171.95 154.5C171.944 154.5 171.939 154.5 171.933 154.5C171.928 154.5 171.922 154.5 171.917 154.5C171.912 154.5 171.906 154.5 171.901 154.5C171.895 154.5 171.89 154.5 171.885 154.5C171.879 154.5 171.874 154.5 171.869 154.5C171.863 154.5 171.858 154.5 171.853 154.5C171.847 154.5 171.842 154.5 171.837 154.5C171.831 154.5 171.826 154.5 171.821 154.5C171.815 154.5 171.81 154.5 171.805 154.5C171.8 154.5 171.794 154.5 171.789 154.5C171.784 154.5 171.779 154.5 171.773 154.5C171.768 154.5 171.763 154.5 171.758 154.5C171.752 154.5 171.747 154.5 171.742 154.5C171.737 154.5 171.732 154.5 171.727 154.5C171.721 154.5 171.716 154.5 171.711 154.5C171.706 154.5 171.701 154.5 171.696 154.5C171.69 154.5 171.685 154.5 171.68 154.5C171.675 154.5 171.67 154.5 171.665 154.5C171.66 154.5 171.655 154.5 171.65 154.5C171.644 154.5 171.639 154.5 171.634 154.5C171.629 154.5 171.624 154.5 171.619 154.5C171.614 154.5 171.609 154.5 171.604 154.5C171.599 154.5 171.594 154.5 171.589 154.5C171.584 154.5 171.579 154.5 171.574 154.5C171.569 154.5 171.564 154.5 171.559 154.5C171.554 154.5 171.549 154.5 171.544 154.5C171.539 154.5 171.534 154.5 171.529 154.5C171.525 154.5 171.52 154.5 171.515 154.5C171.51 154.5 171.505 154.5 171.5 154.5V155.5ZM180 155.5C179.81 155.5 179.713 155.382 179.708 155.375C179.694 155.359 179.703 155.365 179.726 155.419C179.77 155.523 179.823 155.702 179.881 155.967C179.994 156.488 180.105 157.251 180.206 158.186C180.407 160.052 180.563 162.554 180.625 165.075C180.687 167.598 180.656 170.123 180.486 172.042C180.401 173.005 180.283 173.792 180.133 174.344C180.057 174.622 179.98 174.814 179.91 174.934C179.832 175.065 179.81 175.032 179.879 175.015L180.121 175.985C180.441 175.905 180.644 175.657 180.772 175.441C180.906 175.212 181.011 174.924 181.098 174.607C181.271 173.97 181.396 173.113 181.482 172.13C181.657 170.158 181.688 167.59 181.625 165.05C181.562 162.509 181.405 159.979 181.2 158.079C181.098 157.132 180.983 156.328 180.858 155.754C180.796 155.471 180.727 155.22 180.648 155.031C180.609 154.938 180.555 154.831 180.48 154.74C180.412 154.657 180.253 154.5 180 154.5V155.5ZM179.879 175.015C179.423 175.129 177.778 175.345 175.506 175.565C173.256 175.783 170.436 176.001 167.665 176.125C164.89 176.25 162.179 176.28 160.139 176.126C159.115 176.049 158.287 175.927 157.712 175.758C157.423 175.674 157.226 175.585 157.104 175.503C156.981 175.42 156.986 175.38 156.99 175.402L156.01 175.598C156.077 175.933 156.304 176.17 156.545 176.332C156.787 176.495 157.094 176.619 157.431 176.718C158.107 176.916 159.018 177.045 160.064 177.124C162.165 177.282 164.923 177.25 167.71 177.124C170.501 176.999 173.338 176.78 175.603 176.56C177.847 176.343 179.577 176.121 180.121 175.985L179.879 175.015ZM156.99 175.402C156.903 174.963 156.881 174.314 156.917 173.522C156.952 172.739 157.041 171.848 157.158 170.939C157.394 169.122 157.741 167.261 157.989 166.105L157.011 165.895C156.759 167.072 156.406 168.961 156.167 170.811C156.047 171.735 155.954 172.657 155.918 173.478C155.881 174.29 155.898 175.037 156.01 175.598L156.99 175.402ZM157.327 165.531C155.766 166.106 153.598 166.591 152.056 166.296C151.301 166.152 150.771 165.837 150.488 165.33C150.199 164.812 150.099 163.975 150.481 162.637L149.519 162.363C149.101 163.825 149.143 164.971 149.615 165.817C150.093 166.674 150.945 167.102 151.869 167.279C153.686 167.626 156.067 167.061 157.673 166.469L157.327 165.531ZM150.481 162.637C150.865 161.294 151.381 160.458 151.926 159.96C152.463 159.47 153.056 159.278 153.665 159.275C154.927 159.268 156.285 160.071 157.164 160.87L157.836 160.13C156.882 159.262 155.289 158.266 153.66 158.275C152.823 158.28 151.985 158.551 151.252 159.222C150.527 159.884 149.935 160.906 149.519 162.363L150.481 162.637ZM157.992 160.411C157.827 159.505 157.631 158.153 157.574 157.037C157.546 156.473 157.554 156.002 157.609 155.686C157.636 155.523 157.669 155.445 157.684 155.421C157.691 155.409 157.632 155.5 157.5 155.5V154.5C157.168 154.5 156.949 154.705 156.829 154.901C156.718 155.085 156.659 155.308 156.623 155.517C156.55 155.946 156.546 156.506 156.576 157.088C156.635 158.263 156.839 159.662 157.008 160.589L157.992 160.411ZM157.5 155.5C157.734 155.5 158.219 155.454 158.815 155.387C159.424 155.319 160.184 155.225 160.989 155.121C162.6 154.912 164.403 154.662 165.571 154.495L165.429 153.505C164.264 153.671 162.466 153.921 160.861 154.129C160.058 154.233 159.305 154.326 158.704 154.394C158.089 154.462 157.666 154.5 157.5 154.5V155.5ZM171.5 155.5H180V154.5H171.5V155.5Z" fill="black"/>
<path d="M103.831 87.2927C102.691 86.928 100.75 86.5585 99.9178 87.7407C99.4846 88.3563 99.0699 88.6512 99.0877 89.4534C99.1073 90.3315 99.8729 90.779 100.511 91.2321C101.814 92.1579 104.586 91.9108 105.465 90.4679C106.097 89.4284 105.831 88.3159 104.924 87.5299C104.216 86.9157 103.796 86.2603 103.001 87.0556" stroke="black" stroke-linecap="round"/>
<path d="M104.305 99.7432C103.455 98.6638 101.496 98.3364 100.445 99.3875C99.3432 100.489 100.01 102.339 101.222 102.945C102.481 103.574 104.634 104.178 105.847 103.156C106.682 102.451 106.283 101.117 105.959 100.224C105.427 98.7624 104.492 98.7186 103.238 99.3875" stroke="black" stroke-linecap="round"/>
<path d="M92.8032 105.554C90.0798 104.625 90.7045 108.538 92.8098 108.749C93.891 108.857 94.7972 108.284 95.122 107.214C95.3489 106.466 94.4852 105.744 93.9824 105.33C93.0829 104.589 92.022 105.233 91.1431 105.672" stroke="black" stroke-linecap="round"/>
<path d="M81.7756 110.296C82.6774 110.134 84.642 109.911 84.1998 108.459C83.7767 107.068 81.6852 106.265 80.3592 106.265C78.9091 106.265 78.9704 107.244 79.2591 108.399C79.4083 108.996 80.0029 109.305 80.5898 109.341C80.9686 109.365 81.744 109.198 82.0127 109.466" stroke="black" stroke-linecap="round"/>
<path d="M193.712 189.268C194.391 189.657 195.694 189.866 195.938 188.768C196.195 187.613 195.605 186.509 194.594 185.975C193.594 185.446 193.188 184.927 192.078 185.593C191.597 185.881 191.167 186.498 191.301 187.088C191.513 188.029 192.174 188.38 193 188.676" stroke="black" stroke-linecap="round"/>
<path d="M185.293 186.897C186.383 186.663 187.262 186.13 187.183 184.881C187.121 183.877 185.894 182.833 185.056 182.391C184.155 181.916 182.762 181.541 182.579 183.05C182.502 183.679 182.494 184.481 182.684 185.092C182.946 185.931 184.087 185.948 184.819 185.948" stroke="black" stroke-linecap="round"/>
<path d="M176.281 189.743C177.196 189.434 178.956 188.929 178.956 187.648C178.956 186.113 177.566 185.131 176.103 185.131C174.738 185.131 174.128 186.235 174.325 187.49C174.511 188.686 175.156 189.387 176.4 189.387" stroke="black" stroke-linecap="round"/>
<path d="M177.941 197.332C181.164 195.622 175.166 192.708 175.095 196.054C175.021 199.559 179.725 196.594 178.178 195.434" stroke="black" stroke-linecap="round"/>
</svg>
