<svg width="240" height="213" viewBox="0 0 240 213" fill="none" xmlns="http://www.w3.org/2000/svg">
<g clip-path="url(#clip0_24_295)">
<path fill-rule="evenodd" clip-rule="evenodd" d="M109.038 124.9C97.4375 88.1237 120.535 43.2463 153.295 22.7711C183.525 3.8774 222.867 19.3465 255.718 33.2242C276.56 42.029 278.169 71.3056 297.181 83.5557C328.908 103.998 398.439 87.2366 397.998 124.9C397.554 162.747 331.174 150.525 296.223 165.29C281.842 171.365 271.191 182.884 255.718 185.005C237.231 187.537 219.567 185.23 202.307 178.158C167.858 164.042 120.212 160.327 109.038 124.9Z" fill="#775591"/>
<path d="M139.5 111C145.5 103 135 105 133.5 104C132.5 95 126.2 76.1 109 72.5C106.833 71.5 100.9 72 94.5 82C88.8333 79.6667 77.8999 77.6 79.4999 88C81.0999 98.4 88.1666 96.6667 91.5 94.5C82.1666 106 67.5 138.6 83.5 177C83 186 89.5 186.5 93 185.5C96.5 184.5 90 179.5 89.5 177C89.1 175 91.6666 173.167 93 172.5C95.1992 172.084 97.3742 171.059 99.5 169.567C102.028 167.793 104.486 165.358 106.832 162.5C115.792 151.587 123.126 134.508 126.5 124.5C128.833 122.667 134.7 117.4 139.5 111Z" fill="white"/>
<path d="M122 113.5C125.333 110 132.3 103.2 133.5 104M133.5 104C135 105 145.5 103 139.5 111C134.7 117.4 128.833 122.667 126.5 124.5C123.127 134.508 115.793 151.587 106.832 162.5M133.5 104C132.5 95 126.2 76.1 109 72.5M83.5 177C83 186 89.5 186.5 93 185.5C96.5 184.5 90 179.5 89.5 177C89.1 175 91.6667 173.167 93 172.5C95.1993 172.084 97.3743 171.059 99.5 169.567M106.832 162.5C109.388 165 113.4 170.5 109 172.5C103.5 175 106 174.134 99.5 169.567M106.832 162.5C104.486 165.358 102.028 167.793 99.5 169.567M94.5 82C88.8334 79.6667 77.9 77.6 79.5 88C81.1 98.4 88.1667 96.6667 91.5 94.5M106.832 92C108.388 90.1667 112.3 87.3 115.5 90.5" stroke="black" stroke-linecap="round" stroke-linejoin="round"/>
<path d="M96.2885 48.9473C97.9002 54.0756 99.3052 60.0338 99.401 65.4437C99.4383 67.5499 99.0897 69.6111 99.0897 71.6687" stroke="black" stroke-width="2" stroke-linecap="round"/>
<path d="M99.4009 49.5697C100.894 51.7228 101.612 54.3852 103.136 56.4173" stroke="black" stroke-width="2" stroke-linecap="round"/>
<path d="M110.606 61.3973C108.404 63.599 103.398 69.8832 105.626 73.225" stroke="black" stroke-width="2" stroke-linecap="round"/>
<path d="M89.1296 65.7549C91.5468 68.1246 93.3061 69.0194 96.5997 69.4899" stroke="black" stroke-width="2" stroke-linecap="round"/>
<path d="M86.9509 51.7485C88.2567 53.4741 89.6556 55.04 91.3084 56.4173" stroke="black" stroke-width="2" stroke-linecap="round"/>
<path d="M85.0833 70.1124C87.2907 71.8617 89.4364 72.9699 92.2421 73.225" stroke="black" stroke-width="2" stroke-linecap="round"/>
<path d="M79.792 76.6487C82.8782 77.8223 85.8763 78.84 89.1296 79.45" stroke="black" stroke-width="2" stroke-linecap="round"/>
<path d="M77.6132 66.0661C75.0995 63.5049 71.3882 59.3973 71.3882 55.4835" stroke="black" stroke-width="2" stroke-linecap="round"/>
<path d="M75.4345 71.6687C73.7237 70.429 68.9417 67.0499 68.2756 71.0462" stroke="black" stroke-width="2" stroke-linecap="round"/>
<path d="M76.3682 82.8738C74.4771 82.5413 72.3886 81.9401 70.4544 81.9401" stroke="black" stroke-width="2" stroke-linecap="round"/>
<path d="M58.938 79.1387C60.7148 77.7037 62.4239 76.4484 64.8173 76.666C65.5428 76.732 65.9878 77.2712 66.7194 77.2712" stroke="black" stroke-width="2" stroke-linecap="round"/>
<path d="M57.0706 86.9201C60.3489 86.0459 62.7404 86.02 65.7856 87.5427" stroke="black" stroke-width="2" stroke-linecap="round"/>
<path d="M66.7194 91.2776C69.5829 92.7374 71.9902 93.198 75.1232 93.7676" stroke="black" stroke-width="2" stroke-linecap="round"/>
<path d="M75.4344 107.152C78.382 107.403 81.4404 107.202 83.8383 105.284" stroke="black" stroke-width="2" stroke-linecap="round"/>
<path d="M73.2557 113.688C75.8772 113.688 79.0934 113.852 81.3483 112.443" stroke="black" stroke-width="2" stroke-linecap="round"/>
<path d="M77.9245 122.092C80.3699 122.317 82.6654 122.126 85.0833 121.78" stroke="black" stroke-width="2" stroke-linecap="round"/>
<path d="M76.057 137.966C78.9183 138.538 82.0021 138.693 84.7721 137.654" stroke="black" stroke-width="2" stroke-linecap="round"/>
<path d="M74.5007 146.681C76.6531 150.109 81.0174 151.319 84.4608 148.859" stroke="black" stroke-width="2" stroke-linecap="round"/>
<path d="M73.8782 154.773C73.6322 156.28 73.0545 157.831 75.1232 157.886C77.4796 157.948 78.7999 156.911 80.7257 155.707" stroke="black" stroke-width="2" stroke-linecap="round"/>
<path d="M75.7457 166.912C77.5572 166.593 79.2392 166.16 80.7258 165.045" stroke="black" stroke-width="2" stroke-linecap="round"/>
<path d="M74.812 178.429C77.1006 178.375 78.8051 177.859 80.4145 176.25" stroke="black" stroke-width="2" stroke-linecap="round"/>
<path d="M60.183 175.316C64.2478 175.316 67.6094 175.455 70.4544 172.203" stroke="black" stroke-width="2" stroke-linecap="round"/>
<path d="M62.3618 164.422C64.8015 164.813 66.9423 164.807 69.2094 163.8" stroke="black" stroke-width="2" stroke-linecap="round"/>
<path d="M49.9117 165.667C50.3943 167.086 51.2062 169.536 52.7822 170.18C54.8518 171.027 56.8207 169.438 58.3156 168.157" stroke="black" stroke-width="2" stroke-linecap="round"/>
<path d="M50.223 156.952C51.7953 158 53.5643 159.6 55.5143 158.82" stroke="black" stroke-width="2" stroke-linecap="round"/>
<path d="M44.6204 160.376C44.869 158.194 45.0061 155.956 45.8654 153.909C46.1857 153.146 46.5996 152.459 46.7992 151.661" stroke="black" stroke-width="2" stroke-linecap="round"/>
<path d="M47.1104 145.124C49.39 146.72 51.4324 147.926 54.2692 147.926" stroke="black" stroke-width="2" stroke-linecap="round"/>
<path d="M63.2956 138.899C65.5188 139.423 67.5682 139.522 69.8319 139.522" stroke="black" stroke-width="2" stroke-linecap="round"/>
<path d="M55.5143 138.899H59.5606" stroke="black" stroke-width="2" stroke-linecap="round"/>
<path d="M64.8519 132.052C66.4089 131.926 67.962 131.827 69.5207 131.741" stroke="black" stroke-width="2" stroke-linecap="round"/>
<path d="M45.5541 146.058C45.498 146.07 44.0556 146.543 44.3783 146.162C45.0804 145.332 45.8112 144.526 46.5052 143.689C47.693 142.257 48.8049 141.015 50.2229 139.833" stroke="black" stroke-width="2" stroke-linecap="round"/>
<path d="M43.0641 136.721C44.8135 134.521 46.65 132.401 48.3555 130.184" stroke="black" stroke-width="2" stroke-linecap="round"/>
<path d="M39.6404 125.827C41.5944 124.37 43.109 122.736 44.6204 120.847" stroke="black" stroke-width="2" stroke-linecap="round"/>
<path d="M56.7593 124.582C58.8181 125.012 60.6123 125.122 62.6731 125.204" stroke="black" stroke-width="2" stroke-linecap="round"/>
<path d="M52.713 115.244C54.6906 115.561 56.6238 115.867 58.6268 115.867" stroke="black" stroke-width="2" stroke-linecap="round"/>
<path d="M68.8981 116.178C70.8844 115.412 72.9169 114.635 74.8119 113.688" stroke="black" stroke-width="2" stroke-linecap="round"/>
<path d="M53.3355 104.973C55.4878 104.076 57.5251 103.417 59.8718 103.417" stroke="black" stroke-width="2" stroke-linecap="round"/>
<path d="M45.5542 114.31C46.7086 112.373 47.5554 110.497 48.3555 108.397" stroke="black" stroke-width="2" stroke-linecap="round"/>
<path d="M44.9316 100.304C46.0896 98.8653 47.3329 97.4802 48.3554 95.9464" stroke="black" stroke-width="2" stroke-linecap="round"/>
<path d="M43.6866 89.4101C46.1659 88.9182 49.1323 88.7882 51.468 87.8539" stroke="black" stroke-width="2" stroke-linecap="round"/>
<path d="M54.2693 95.9464C57.0385 95.1319 60.0949 93.8758 62.9844 94.7014" stroke="black" stroke-width="2" stroke-linecap="round"/>
<path d="M64.2294 98.4365C66.0804 98.4142 67.7413 98.2992 69.5207 97.814" stroke="black" stroke-width="2" stroke-linecap="round"/>
<path d="M130 82C130 88.7107 129.299 101.617 126.582 102.904C130.982 102.161 139.677 100.294 143.5 98C147.5 95.6 154.167 96.6667 157 97.5V91.25V85C153 84.6 137 81.0447 129.5 79.3171C129.789 80.2151 129.944 81.2121 130 82Z" fill="white"/>
<path d="M126 77.5C124.667 85.8334 122.8 102.6 126 103C126.184 102.971 126.379 102.939 126.582 102.904C129.299 101.617 130 88.7107 130 82C129.944 81.2121 129.789 80.2151 129.5 79.3171C128.934 77.5558 127.854 76.1754 126 77.5Z" fill="white"/>
<path d="M328.411 82C329.668 83.3631 330.584 85.5841 331.5 86.5C332.684 87.6841 330.752 91.9838 328.411 93.7425L355.5 95.5C360.7 89.5766 355.333 78.6986 352 74L328.411 82Z" fill="white"/>
<path d="M325 86.5C324.5 89.1667 324.1 94.5 326.5 94.5C327.132 94.5 327.786 94.2117 328.411 93.7425C330.752 91.9838 332.684 87.6841 331.5 86.5C330.584 85.5841 329.668 83.3631 328.411 82C327.609 81.1309 326.668 80.6106 325.5 81C323.1 81.8 324.167 85 325 86.5Z" fill="white"/>
<path d="M386 86.5L392 88C391.667 89.5 390.9 92.2 390.5 91C390.1 89.8 388.333 90.5 387.5 91C386.5 89.5 384.8 86.5 386 86.5Z" fill="#775591"/>
<path fill-rule="evenodd" clip-rule="evenodd" d="M370 69C368.167 67.3333 363.8 64 361 64C358.2 64 358.833 71.6667 359.5 75.5C358.833 79.5 358.2 90.1 361 100.5C355 93 353.5 98.5 355.5 100.5C357.1 102.1 358.833 108.167 359.5 111C357.667 126.167 356.3 159.5 365.5 171.5C365.667 176.167 367 185.1 371 183.5C376 181.5 377 172 374 167.5C371 163 381.5 168.5 386 170C389.6 171.2 395.5 170.5 398 170C400 169.667 403.6 169.9 402 173.5C400 178 396.5 181.5 398 183.5C399.5 185.5 405.5 185 406.5 183.5C407.5 182 411 174 409.5 171.5C408.3 169.5 415.667 165 419.5 163C420.167 162.833 421.7 161.1 422.5 155.5C423.5 148.5 434 104.5 418 78C422 78 425 66 422.5 64C420.5 62.4 415 66.6667 412.5 69C406.167 62.6667 388.8 53.8 370 69ZM392 88L386 86.5C384.8 86.5 386.5 89.5 387.5 91C388.333 90.5 390.1 89.8 390.5 91C390.9 92.2 391.667 89.5 392 88Z" fill="white"/>
<path d="M130 82.0001C130 88.7107 129.299 101.617 126.582 102.904C130.982 102.161 139.677 100.294 143.5 98C147.5 95.6 154.167 96.6667 157 97.5V91.25V85C153 84.6 137 81.0448 129.5 79.3171C129.789 80.2151 129.944 81.2121 130 82.0001Z" fill="white"/>
<path d="M126 77.5001C124.667 85.8334 122.8 102.6 126 103C126.184 102.971 126.379 102.939 126.582 102.904C129.299 101.617 130 88.7107 130 82.0001C129.944 81.2121 129.789 80.2151 129.5 79.3171C128.934 77.5559 127.854 76.1754 126 77.5001Z" fill="white"/>
<path d="M328.411 82.0001C329.668 83.3631 330.584 85.5841 331.5 86.5C332.684 87.6841 330.752 91.9839 328.411 93.7425L355.5 95.5C360.7 89.5766 355.333 78.6986 352 74L328.411 82.0001Z" fill="white"/>
<path d="M325 86.5C324.5 89.1667 324.1 94.5 326.5 94.5C327.132 94.5 327.786 94.2117 328.411 93.7425C330.752 91.9839 332.684 87.6841 331.5 86.5C330.584 85.5841 329.668 83.3631 328.411 82.0001C327.609 81.1309 326.668 80.6106 325.5 81C323.1 81.8 324.167 85 325 86.5Z" fill="white"/>
<path d="M386 86.5L392 88C391.667 89.5 390.9 92.2 390.5 91C390.1 89.8 388.333 90.5 387.5 91C386.5 89.5 384.8 86.5 386 86.5Z" fill="#775591"/>
<path d="M126 77.5001L125.709 77.0932C125.601 77.1709 125.527 77.289 125.506 77.4211L126 77.5001ZM130 82.0001L130.5 82.0001C130.5 81.9882 130.5 81.9763 130.499 81.9644L130 82.0001ZM129.5 79.3171L129.024 79.4701L129.5 79.3171ZM157 85H157.5C157.5 84.7431 157.305 84.5281 157.05 84.5025L157 85ZM157 97.5L156.859 97.9797C157.01 98.0242 157.173 97.9948 157.3 97.9004C157.426 97.806 157.5 97.6576 157.5 97.5H157ZM143.5 98L143.757 98.4288L143.757 98.4288L143.5 98ZM325 86.5L325.491 86.5922C325.513 86.4776 325.494 86.3591 325.437 86.2572L325 86.5ZM325.5 81L325.658 81.4744L325.658 81.4744L325.5 81ZM352 74L352.408 73.7107C352.28 73.5304 352.049 73.4555 351.839 73.5265L352 74ZM355.5 95.5L355.468 95.999C355.623 96.009 355.773 95.9465 355.876 95.8299L355.5 95.5ZM328.411 93.7425L328.11 93.3427L328.11 93.3427L328.411 93.7425ZM369.664 69.37C369.868 69.5557 370.184 69.5407 370.37 69.3364C370.556 69.132 370.541 68.8158 370.336 68.6301L369.664 69.37ZM359.007 75.5857C359.055 75.8578 359.314 76.0399 359.586 75.9926C359.858 75.9453 360.04 75.6864 359.993 75.4144L359.007 75.5857ZM412.159 68.6345C411.957 68.8229 411.946 69.1393 412.134 69.3412C412.323 69.5431 412.639 69.554 412.841 69.3655L412.159 68.6345ZM422.5 64L422.188 64.3905L422.5 64ZM418 77.5C417.724 77.5 417.5 77.7239 417.5 78C417.5 78.2761 417.724 78.5 418 78.5V77.5ZM413.253 105.935C413.493 106.071 413.798 105.987 413.935 105.747C414.071 105.507 413.987 105.202 413.747 105.065L413.253 105.935ZM398 95.5L398.435 95.2528L398 95.5ZM393.5 102L393.887 101.683L393.887 101.683L393.5 102ZM404.161 113.867C404.364 114.055 404.68 114.042 404.867 113.839C405.055 113.636 405.042 113.32 404.839 113.133L404.161 113.867ZM359.013 111.115C359.077 111.383 359.346 111.55 359.615 111.487C359.883 111.423 360.05 111.154 359.987 110.885L359.013 111.115ZM361 100.5L360.61 100.812L360.61 100.812L361 100.5ZM368.146 109.854C368.342 110.049 368.658 110.049 368.854 109.854C369.049 109.658 369.049 109.342 368.854 109.146L368.146 109.854ZM366 171.482C365.99 171.206 365.758 170.99 365.482 171C365.206 171.01 364.99 171.242 365 171.518L366 171.482ZM371 183.5L370.814 183.036L371 183.5ZM386 170L386.158 169.526L386 170ZM398 170L397.918 169.507C397.912 169.508 397.907 169.509 397.902 169.51L398 170ZM402 173.5L401.543 173.297L402 173.5ZM409.5 171.5L409.929 171.243L409.5 171.5ZM419.731 163.443C419.976 163.316 420.071 163.014 419.943 162.769C419.816 162.524 419.514 162.429 419.269 162.557L419.731 163.443ZM386 86.5L386.121 86.0149C386.082 86.005 386.041 86 386 86V86.5ZM392 88L392.488 88.1085C392.547 87.8439 392.384 87.5807 392.121 87.5149L392 88ZM387.5 91L387.084 91.2774C387.232 91.4994 387.528 91.5661 387.757 91.4287L387.5 91ZM125.506 77.4211C124.838 81.598 124.035 87.8936 123.8 93.203C123.683 95.8533 123.707 98.2846 123.968 100.09C124.098 100.989 124.291 101.77 124.578 102.352C124.861 102.927 125.292 103.415 125.938 103.496L126.062 102.504C125.908 102.485 125.697 102.361 125.475 101.91C125.257 101.467 125.082 100.807 124.957 99.9473C124.71 98.2363 124.683 95.8802 124.799 93.2471C125.032 87.9899 125.829 81.7354 126.494 77.5791L125.506 77.4211ZM130.499 81.9644C130.44 81.1472 130.28 80.1092 129.976 79.1641L129.024 79.4701C129.297 80.3211 129.447 81.277 129.501 82.0357L130.499 81.9644ZM129.976 79.1641C129.685 78.2598 129.232 77.3391 128.519 76.8414C128.147 76.5815 127.707 76.4397 127.21 76.479C126.723 76.5176 126.222 76.7268 125.709 77.0932L126.291 77.9069C126.705 77.611 127.035 77.496 127.289 77.4759C127.534 77.4565 127.747 77.5216 127.947 77.6613C128.379 77.963 128.749 78.6132 129.024 79.4701L129.976 79.1641ZM129.388 79.8044C133.14 80.6686 139.018 81.99 144.459 83.1455C149.885 84.2978 154.916 85.2942 156.95 85.4975L157.05 84.5025C155.084 84.3059 150.115 83.3246 144.666 82.1673C139.232 81.0133 133.36 79.6932 129.612 78.8299L129.388 79.8044ZM157.141 97.0203C155.688 96.5929 153.27 96.1099 150.702 96.0377C148.145 95.9659 145.364 96.2986 143.243 97.5713L143.757 98.4288C145.636 97.3014 148.188 96.9675 150.673 97.0373C153.147 97.1068 155.479 97.5738 156.859 97.9797L157.141 97.0203ZM129.5 82.0001C129.5 85.3431 129.325 90.2259 128.813 94.4256C128.557 96.5278 128.219 98.4392 127.783 99.8954C127.565 100.624 127.328 101.22 127.075 101.664C126.816 102.117 126.572 102.356 126.368 102.452L126.796 103.356C127.271 103.131 127.643 102.685 127.943 102.16C128.248 101.625 128.512 100.949 128.741 100.182C129.201 98.6466 129.547 96.6707 129.806 94.5465C130.324 90.2935 130.5 85.3677 130.5 82.0001L129.5 82.0001ZM126.665 103.397C128.877 103.024 132.166 102.368 135.385 101.517C138.589 100.67 141.78 99.6154 143.757 98.4288L143.243 97.5713C141.397 98.6786 138.329 99.7046 135.129 100.55C131.945 101.392 128.687 102.042 126.499 102.411L126.665 103.397ZM126.499 102.411C126.297 102.445 126.104 102.477 125.921 102.506L126.079 103.494C126.265 103.464 126.46 103.432 126.665 103.397L126.499 102.411ZM125.938 103.496C126.24 103.534 126.53 103.482 126.796 103.356L126.368 102.452C126.265 102.501 126.167 102.517 126.062 102.504L125.938 103.496ZM156.5 85V91.25H157.5V85H156.5ZM156.5 91.25V97.5H157.5V91.25H156.5ZM156.979 91.7496C166.07 92.1249 180.456 92.4377 194.073 92.1562C200.881 92.0154 207.503 91.726 213.177 91.2207C218.84 90.7165 223.599 89.9942 226.658 88.9744L226.342 88.0257C223.401 89.0058 218.744 89.7211 213.088 90.2246C207.445 90.7272 200.848 91.0159 194.052 91.1564C180.461 91.4374 166.096 91.1251 157.021 90.7504L156.979 91.7496ZM226.658 88.9744C229.585 87.9986 235.435 87.3123 243.069 86.8585C250.679 86.4061 259.997 86.1875 269.816 86.125C289.453 86.0001 311.07 86.4999 324.982 86.9997L325.018 86.0003C311.096 85.5002 289.464 85 269.809 85.125C259.982 85.1876 250.644 85.4064 243.009 85.8603C235.398 86.3128 229.415 87.0014 226.342 88.0257L226.658 88.9744ZM324.509 86.4079C324.254 87.7642 324.022 89.8128 324.164 91.5411C324.235 92.3998 324.402 93.2308 324.743 93.8624C325.096 94.5165 325.666 95 326.5 95V94C326.134 94 325.854 93.8169 325.623 93.3876C325.379 92.9359 325.227 92.2669 325.161 91.4589C325.028 89.8539 325.246 87.9026 325.491 86.5922L324.509 86.4079ZM325.342 80.5257C324.625 80.7646 324.135 81.1987 323.848 81.7571C323.568 82.3007 323.5 82.922 323.539 83.52C323.616 84.7087 324.127 85.9575 324.563 86.7428L325.437 86.2572C325.04 85.5426 324.601 84.4413 324.536 83.455C324.505 82.9656 324.568 82.5431 324.737 82.2149C324.898 81.9014 325.175 81.6354 325.658 81.4744L325.342 80.5257ZM331.854 86.1465C331.451 85.7439 331.03 85.0294 330.513 84.1617C330.017 83.3291 329.448 82.3872 328.778 81.661L328.043 82.3391C328.631 82.976 329.149 83.8261 329.654 84.6737C330.138 85.4862 330.633 86.3402 331.146 86.8536L331.854 86.1465ZM328.778 81.661C328.349 81.1955 327.853 80.7907 327.276 80.563C326.687 80.3302 326.038 80.2935 325.342 80.5257L325.658 81.4744C326.13 81.3172 326.536 81.3459 326.909 81.4932C327.295 81.6456 327.671 81.9355 328.043 82.3391L328.778 81.661ZM328.571 82.4736L352.161 74.4735L351.839 73.5265L328.25 81.5265L328.571 82.4736ZM351.592 74.2893C353.235 76.6047 355.379 80.4461 356.468 84.4228C357.562 88.419 357.554 92.4019 355.124 95.1702L355.876 95.8299C358.646 92.6747 358.555 88.257 357.432 84.1587C356.305 80.0408 354.099 76.0939 352.408 73.7107L351.592 74.2893ZM326.5 95C327.281 95 328.04 94.6464 328.711 94.1423L328.11 93.3427C327.532 93.777 326.982 94 326.5 94V95ZM328.711 94.1423C329.969 93.1977 331.084 91.6042 331.736 90.1053C332.063 89.3531 332.287 88.5951 332.344 87.9266C332.4 87.2776 332.306 86.5993 331.854 86.1465L331.146 86.8536C331.286 86.9928 331.395 87.296 331.348 87.8412C331.303 88.3669 331.119 89.0157 330.819 89.7064C330.216 91.093 329.194 92.5287 328.11 93.3427L328.711 94.1423ZM355.532 95.0011L328.443 93.2435L328.378 94.2415L355.468 95.999L355.532 95.0011ZM370.336 68.6301C369.402 67.7803 367.828 66.511 366.127 65.4507C365.276 64.9203 364.385 64.4364 363.518 64.0838C362.657 63.7333 361.791 63.5 361 63.5V64.5C361.609 64.5 362.339 64.6834 363.141 65.01C363.938 65.3345 364.778 65.7881 365.598 66.2993C367.239 67.3223 368.765 68.5531 369.664 69.37L370.336 68.6301ZM361 63.5C360.005 63.5 359.387 64.2043 359.029 65.0658C358.671 65.9256 358.506 67.0734 358.451 68.2899C358.34 70.7359 358.671 73.6503 359.007 75.5857L359.993 75.4144C359.663 73.5164 359.343 70.6808 359.449 68.3351C359.503 67.1558 359.662 66.1473 359.952 65.4499C360.242 64.754 360.595 64.5 361 64.5V63.5ZM412.841 69.3655C414.076 68.2135 416.047 66.5884 417.944 65.4542C418.895 64.8856 419.8 64.4571 420.568 64.2629C421.35 64.0649 421.872 64.1378 422.188 64.3905L422.812 63.6096C422.128 63.0623 421.212 63.0685 420.323 63.2934C419.419 63.5221 418.417 64.0062 417.431 64.5959C415.453 65.7784 413.424 67.4532 412.159 68.6345L412.841 69.3655ZM422.188 64.3905C422.388 64.5508 422.574 64.8469 422.708 65.314C422.841 65.7755 422.91 66.3595 422.914 67.034C422.922 68.3823 422.666 70.0214 422.207 71.6114C421.748 73.2031 421.096 74.7106 420.332 75.8081C419.55 76.9308 418.743 77.5 418 77.5V78.5C419.257 78.5 420.325 77.5692 421.153 76.3794C421.998 75.1644 422.69 73.5469 423.168 71.8886C423.647 70.2286 423.922 68.4927 423.914 67.0285C423.91 66.2968 423.835 65.6152 423.669 65.0376C423.505 64.4657 423.237 63.9493 422.812 63.6096L422.188 64.3905ZM413.747 105.065C411.334 103.694 407.666 101.549 404.502 99.5729C402.92 98.5844 401.47 97.6419 400.369 96.8614C399.818 96.4707 399.36 96.1253 399.02 95.8383C398.66 95.5355 398.485 95.3415 398.435 95.2528L397.565 95.7473C397.715 96.01 398.023 96.3063 398.375 96.6031C398.746 96.9156 399.229 97.2792 399.791 97.6773C400.915 98.4743 402.384 99.4287 403.973 100.421C407.151 102.407 410.832 104.559 413.253 105.935L413.747 105.065ZM398.435 95.2528C398.221 94.8769 397.847 94.6688 397.465 94.5662C397.08 94.463 396.636 94.4506 396.183 94.5042C395.279 94.6115 394.243 94.995 393.39 95.6266C392.535 96.26 391.824 97.1748 391.668 98.3514C391.512 99.5332 391.93 100.871 393.113 102.317L393.887 101.683C392.82 100.379 392.55 99.3096 392.66 98.4825C392.77 97.65 393.278 96.9541 393.985 96.4302C394.695 95.9047 395.565 95.5846 396.301 95.4973C396.669 95.4536 396.979 95.4712 397.205 95.532C397.434 95.5935 397.529 95.6837 397.565 95.7473L398.435 95.2528ZM393.113 102.317C396.735 106.743 401.987 111.861 404.161 113.867L404.839 113.133C402.679 111.139 397.465 106.057 393.887 101.683L393.113 102.317ZM359.987 110.885C359.65 109.456 359.046 107.214 358.323 105.124C357.961 104.079 357.567 103.063 357.158 102.203C356.755 101.354 356.317 100.61 355.854 100.146L355.146 100.854C355.483 101.19 355.862 101.804 356.255 102.632C356.642 103.447 357.022 104.425 357.377 105.451C358.087 107.502 358.683 109.71 359.013 111.115L359.987 110.885ZM355.854 100.146C355.452 99.7445 355.211 99.1457 355.171 98.5672C355.13 97.9729 355.304 97.531 355.559 97.3307C355.776 97.1602 356.228 97.0352 357.093 97.496C357.959 97.9573 359.127 98.9594 360.61 100.812L361.39 100.188C359.873 98.2906 358.604 97.1677 357.563 96.6134C356.522 96.0586 355.599 96.0273 354.941 96.5443C354.321 97.0315 354.12 97.8709 354.173 98.636C354.227 99.4168 354.548 100.255 355.146 100.854L355.854 100.146ZM360.61 100.812C365.406 106.807 367.623 109.33 368.146 109.854L368.854 109.146C368.377 108.67 366.194 106.193 361.39 100.188L360.61 100.812ZM365 171.518C365.084 173.873 365.462 177.325 366.337 180.005C366.772 181.337 367.349 182.541 368.124 183.311C368.518 183.702 368.977 183.995 369.506 184.121C370.039 184.249 370.603 184.197 371.186 183.964L370.814 183.036C370.397 183.203 370.044 183.222 369.738 183.149C369.428 183.075 369.125 182.896 368.829 182.601C368.224 182.001 367.707 180.98 367.288 179.695C366.454 177.141 366.082 173.794 366 171.482L365 171.518ZM371.186 183.964C373.931 182.866 375.484 179.768 375.994 176.515C376.507 173.247 376.006 169.608 374.416 167.223L373.584 167.777C374.994 169.892 375.493 173.253 375.006 176.36C374.516 179.482 373.069 182.134 370.814 183.036L371.186 183.964ZM374.416 167.223C374.239 166.957 374.122 166.744 374.052 166.576C373.98 166.404 373.968 166.309 373.969 166.27C373.97 166.248 373.971 166.277 373.943 166.302C373.929 166.315 373.946 166.291 374.05 166.276C374.267 166.244 374.64 166.278 375.177 166.405C375.7 166.528 376.325 166.724 377.02 166.971C378.411 167.466 380.038 168.147 381.612 168.805C383.176 169.459 384.695 170.092 385.842 170.474L386.158 169.526C385.055 169.158 383.574 168.541 381.997 167.882C380.431 167.228 378.777 166.534 377.355 166.029C376.644 165.776 375.98 165.566 375.407 165.431C374.848 165.3 374.319 165.225 373.903 165.287C373.691 165.318 373.459 165.392 373.273 165.56C373.072 165.741 372.978 165.983 372.97 166.238C372.962 166.477 373.029 166.723 373.13 166.964C373.233 167.209 373.386 167.48 373.584 167.777L374.416 167.223ZM385.842 170.474C387.729 171.103 390.177 171.225 392.432 171.137C394.698 171.049 396.824 170.745 398.098 170.49L397.902 169.51C396.676 169.755 394.602 170.051 392.393 170.138C390.173 170.225 387.871 170.097 386.158 169.526L385.842 170.474ZM398.082 170.493C399.053 170.331 400.323 170.328 401.13 170.724C401.511 170.911 401.752 171.168 401.849 171.52C401.951 171.889 401.918 172.454 401.543 173.297L402.457 173.703C402.882 172.746 402.999 171.932 402.813 171.255C402.623 170.561 402.139 170.106 401.57 169.826C400.477 169.289 398.947 169.335 397.918 169.507L398.082 170.493ZM401.543 173.297C400.553 175.525 399.222 177.446 398.25 179.195C397.778 180.046 397.387 180.865 397.222 181.62C397.054 182.39 397.111 183.147 397.6 183.8L398.4 183.2C398.139 182.853 398.071 182.422 398.199 181.833C398.331 181.229 398.66 180.517 399.125 179.68C400.028 178.054 401.447 175.975 402.457 173.703L401.543 173.297ZM397.6 183.8C398.072 184.43 398.855 184.814 399.691 185.038C400.539 185.264 401.513 185.345 402.455 185.312C403.397 185.28 404.333 185.134 405.11 184.891C405.856 184.659 406.565 184.304 406.916 183.777L406.084 183.223C405.935 183.446 405.519 183.716 404.812 183.937C404.135 184.148 403.29 184.283 402.42 184.313C401.55 184.343 400.679 184.267 399.949 184.072C399.208 183.873 398.678 183.57 398.4 183.2L397.6 183.8ZM406.916 183.777C407.452 182.973 408.594 180.55 409.413 178.03C409.824 176.764 410.163 175.448 410.301 174.277C410.436 173.134 410.395 172.019 409.929 171.243L409.071 171.757C409.355 172.231 409.439 173.054 409.308 174.16C409.181 175.24 408.863 176.486 408.462 177.72C407.656 180.2 406.548 182.527 406.084 183.223L406.916 183.777ZM409.929 171.243C409.868 171.142 409.842 171.005 409.907 170.784C409.976 170.552 410.138 170.262 410.409 169.92C410.95 169.237 411.837 168.455 412.912 167.65C415.053 166.047 417.828 164.436 419.731 163.443L419.269 162.557C417.339 163.564 414.513 165.203 412.313 166.85C411.217 167.67 410.248 168.513 409.625 169.299C409.315 169.691 409.068 170.096 408.948 170.501C408.826 170.917 408.832 171.358 409.071 171.757L409.929 171.243ZM385.879 86.9851L391.879 88.4851L392.121 87.5149L386.121 86.0149L385.879 86.9851ZM391.512 87.8915C391.347 88.6343 391.079 89.6531 390.81 90.3277C390.744 90.4947 390.682 90.63 390.626 90.7299C390.564 90.8409 390.532 90.8673 390.542 90.8596C390.55 90.8529 390.596 90.8172 390.678 90.8038C390.773 90.7883 390.865 90.8116 390.934 90.8552C391.03 90.9164 391.019 90.9763 390.974 90.8419L390.026 91.1581C390.081 91.3237 390.181 91.5617 390.397 91.6991C390.526 91.7808 390.68 91.8167 390.839 91.7908C390.984 91.767 391.096 91.6979 391.171 91.6372C391.313 91.5217 391.42 91.3583 391.499 91.2173C391.584 91.0654 391.664 90.8865 391.74 90.6973C392.038 89.9469 392.32 88.8657 392.488 88.1085L391.512 87.8915ZM390.974 90.8419C390.829 90.4058 390.541 90.1114 390.168 89.9601C389.818 89.8183 389.434 89.8173 389.09 89.8678C388.403 89.9686 387.689 90.3036 387.243 90.5713L387.757 91.4287C388.144 91.1964 388.73 90.9314 389.235 90.8572C389.487 90.8202 389.672 90.838 389.792 90.8867C389.889 90.9261 389.971 90.9942 390.026 91.1581L390.974 90.8419ZM387.916 90.7226C387.423 89.9835 386.767 88.8878 386.385 87.9913C386.188 87.5296 386.092 87.1837 386.087 86.982C386.085 86.8826 386.108 86.8949 386.073 86.9398C386.02 87.007 385.96 87 386 87V86C385.74 86 385.47 86.0868 385.285 86.3239C385.117 86.5387 385.083 86.7971 385.088 87.0025C385.096 87.4101 385.262 87.9079 385.465 88.3837C385.883 89.3622 386.577 90.5165 387.084 91.2774L387.916 90.7226Z" fill="black"/>
</g>
<defs>
<clipPath id="clip0_24_295">
<rect width="240" height="213" fill="white"/>
</clipPath>
</defs>
</svg>
