<svg width="224" height="213" viewBox="0 0 224 213" fill="none" xmlns="http://www.w3.org/2000/svg">
<g clip-path="url(#clip0_25_399)">
<path fill-rule="evenodd" clip-rule="evenodd" d="M-130.962 124.9C-142.562 88.1237 -119.465 43.2463 -86.705 22.7711C-56.4753 3.8774 -17.1328 19.3465 15.7177 33.2242C36.5601 42.029 38.1693 71.3056 57.1811 83.5557C88.9081 103.998 158.439 87.2366 157.998 124.9C157.554 162.747 91.1739 150.525 56.2233 165.29C41.8417 171.365 31.1912 182.884 15.7177 185.005C-2.76882 187.537 -20.4331 185.23 -37.6928 178.158C-72.1416 164.042 -119.788 160.327 -130.962 124.9Z" fill="#775591"/>
<path d="M-110 82.0001C-110 88.7107 -110.701 101.617 -113.418 102.904C-109.018 102.161 -100.323 100.294 -96.5 98C-92.5 95.6 -85.8333 96.6667 -83 97.5V91.25V85C-87 84.6 -103 81.0448 -110.5 79.3171C-110.211 80.2151 -110.056 81.2121 -110 82.0001Z" fill="white"/>
<path d="M-114 77.5001C-115.333 85.8334 -117.2 102.6 -114 103C-113.816 102.971 -113.621 102.939 -113.418 102.904C-110.701 101.617 -110 88.7107 -110 82.0001C-110.056 81.2121 -110.211 80.2151 -110.5 79.3171C-111.066 77.5559 -112.146 76.1754 -114 77.5001Z" fill="white"/>
<path d="M88.4106 82.0001C89.6681 83.3631 90.5841 85.5841 91.5 86.5C92.6841 87.6841 90.7525 91.9839 88.4106 93.7425L115.5 95.5C120.7 89.5766 115.333 78.6986 112 74L88.4106 82.0001Z" fill="white"/>
<path d="M85 86.5C84.5 89.1667 84.1 94.5 86.5 94.5C87.1318 94.5 87.7858 94.2117 88.4106 93.7425C90.7525 91.9839 92.6841 87.6841 91.5 86.5C90.5841 85.5841 89.6681 83.3631 88.4106 82.0001C87.6088 81.1309 86.6681 80.6106 85.5 81C83.1 81.8001 84.1667 85 85 86.5Z" fill="white"/>
<path d="M146 86.5L152 88C151.667 89.5 150.9 92.2 150.5 91C150.1 89.8 148.333 90.5 147.5 91C146.5 89.5 144.8 86.5 146 86.5Z" fill="#775591"/>
<path fill-rule="evenodd" clip-rule="evenodd" d="M130 69C128.167 67.3334 123.8 64 121 64C118.2 64 118.833 71.6667 119.5 75.5C118.833 79.5 118.2 90.1 121 100.5C115 93 113.5 98.5 115.5 100.5C117.1 102.1 118.833 108.167 119.5 111C117.667 126.167 116.3 159.5 125.5 171.5C125.667 176.167 127 185.1 131 183.5C136 181.5 137 172 134 167.5C131 163 141.5 168.5 146 170C149.6 171.2 155.5 170.5 158 170C160 169.667 163.6 169.9 162 173.5C160 178 156.5 181.5 158 183.5C159.5 185.5 165.5 185 166.5 183.5C167.5 182 171 174 169.5 171.5C168.3 169.5 175.667 165 179.5 163C180.167 162.833 181.7 161.1 182.5 155.5C183.5 148.5 194 104.5 178 78C182 78 185 66 182.5 64C180.5 62.4 175 66.6667 172.5 69C166.167 62.6667 148.8 53.8 130 69ZM152 88L146 86.5C144.8 86.5 146.5 89.5 147.5 91C148.333 90.5 150.1 89.8 150.5 91C150.9 92.2 151.667 89.5 152 88Z" fill="white"/>
<path d="M-110 82.0001C-110 88.7107 -110.701 101.617 -113.418 102.904C-109.018 102.161 -100.323 100.294 -96.5 98C-92.5 95.6 -85.8333 96.6667 -83 97.5V91.25V85C-87 84.6 -103 81.0448 -110.5 79.3171C-110.211 80.2151 -110.056 81.2121 -110 82.0001Z" fill="white"/>
<path d="M-114 77.5001C-115.333 85.8334 -117.2 102.6 -114 103C-113.816 102.971 -113.621 102.939 -113.418 102.904C-110.701 101.617 -110 88.7107 -110 82.0001C-110.056 81.2121 -110.211 80.2151 -110.5 79.3171C-111.066 77.5559 -112.146 76.1754 -114 77.5001Z" fill="white"/>
<path d="M88.4106 82.0001C89.6681 83.3631 90.5841 85.5841 91.5 86.5C92.6841 87.6841 90.7525 91.9839 88.4106 93.7425L115.5 95.5C120.7 89.5766 115.333 78.6986 112 74L88.4106 82.0001Z" fill="white"/>
<path d="M85 86.5C84.5 89.1667 84.1 94.5 86.5 94.5C87.1318 94.5 87.7858 94.2117 88.4106 93.7425C90.7525 91.9839 92.6841 87.6841 91.5 86.5C90.5841 85.5841 89.6681 83.3631 88.4106 82.0001C87.6088 81.1309 86.6681 80.6106 85.5 81C83.1 81.8 84.1667 85 85 86.5Z" fill="white"/>
<path d="M146 86.5L152 88C151.667 89.5 150.9 92.2 150.5 91C150.1 89.8 148.333 90.5 147.5 91C146.5 89.5 144.8 86.5 146 86.5Z" fill="#775591"/>
<path d="M-114 77.5001L-114.291 77.0932C-114.399 77.1709 -114.473 77.289 -114.494 77.4211L-114 77.5001ZM-110 82.0001L-109.5 82.0001C-109.5 81.9882 -109.5 81.9763 -109.501 81.9644L-110 82.0001ZM-110.5 79.3171L-110.976 79.4701L-110.5 79.3171ZM-83 85H-82.5C-82.5 84.7431 -82.6946 84.5281 -82.9502 84.5025L-83 85ZM-83 97.5L-83.1411 97.9797C-82.9899 98.0242 -82.8266 97.9948 -82.7005 97.9004C-82.5743 97.806 -82.5 97.6576 -82.5 97.5H-83ZM-96.5 98L-96.2428 98.4288L-96.2428 98.4288L-96.5 98ZM85 86.5L85.4914 86.5922C85.5129 86.4776 85.4937 86.3591 85.4371 86.2572L85 86.5ZM85.5 81L85.6581 81.4744L85.6581 81.4744L85.5 81ZM112 74L112.408 73.7107C112.28 73.5304 112.049 73.4555 111.839 73.5265L112 74ZM115.5 95.5L115.468 95.999C115.623 96.009 115.773 95.9465 115.876 95.8299L115.5 95.5ZM88.4106 93.7425L88.1104 93.3427L88.1104 93.3427L88.4106 93.7425ZM129.664 69.37C129.868 69.5557 130.184 69.5407 130.37 69.3364C130.556 69.132 130.541 68.8158 130.336 68.6301L129.664 69.37ZM119.007 75.5857C119.055 75.8578 119.314 76.0399 119.586 75.9926C119.858 75.9453 120.04 75.6864 119.993 75.4144L119.007 75.5857ZM172.159 68.6345C171.957 68.8229 171.946 69.1393 172.134 69.3412C172.323 69.5431 172.639 69.554 172.841 69.3655L172.159 68.6345ZM182.5 64L182.188 64.3905L182.5 64ZM178 77.5C177.724 77.5 177.5 77.7239 177.5 78C177.5 78.2761 177.724 78.5 178 78.5V77.5ZM173.253 105.935C173.493 106.071 173.798 105.987 173.935 105.747C174.071 105.507 173.987 105.202 173.747 105.065L173.253 105.935ZM158 95.5L158.435 95.2528L158 95.5ZM153.5 102L153.887 101.683L153.887 101.683L153.5 102ZM164.161 113.867C164.364 114.055 164.68 114.042 164.867 113.839C165.055 113.636 165.042 113.32 164.839 113.133L164.161 113.867ZM119.013 111.115C119.077 111.383 119.346 111.55 119.615 111.487C119.883 111.423 120.05 111.154 119.987 110.885L119.013 111.115ZM121 100.5L120.61 100.812L120.61 100.812L121 100.5ZM128.146 109.854C128.342 110.049 128.658 110.049 128.854 109.854C129.049 109.658 129.049 109.342 128.854 109.146L128.146 109.854ZM126 171.482C125.99 171.206 125.758 170.99 125.482 171C125.206 171.01 124.99 171.242 125 171.518L126 171.482ZM131 183.5L130.814 183.036L131 183.5ZM146 170L146.158 169.526L146 170ZM158 170L157.918 169.507C157.912 169.508 157.907 169.509 157.902 169.51L158 170ZM162 173.5L161.543 173.297L162 173.5ZM169.5 171.5L169.929 171.243L169.5 171.5ZM179.731 163.443C179.976 163.316 180.071 163.014 179.943 162.769C179.816 162.524 179.514 162.429 179.269 162.557L179.731 163.443ZM146 86.5L146.121 86.0149C146.082 86.005 146.041 86 146 86V86.5ZM152 88L152.488 88.1085C152.547 87.8439 152.384 87.5807 152.121 87.5149L152 88ZM147.5 91L147.084 91.2774C147.232 91.4994 147.528 91.5661 147.757 91.4287L147.5 91ZM-114.494 77.4211C-115.162 81.598 -115.965 87.8936 -116.2 93.203C-116.317 95.8533 -116.293 98.2846 -116.032 100.09C-115.902 100.989 -115.709 101.77 -115.422 102.352C-115.139 102.927 -114.708 103.415 -114.062 103.496L-113.938 102.504C-114.092 102.485 -114.303 102.361 -114.525 101.91C-114.743 101.467 -114.918 100.807 -115.043 99.9473C-115.29 98.2363 -115.317 95.8802 -115.201 93.2471C-114.968 87.9899 -114.171 81.7354 -113.506 77.5791L-114.494 77.4211ZM-109.501 81.9644C-109.56 81.1472 -109.72 80.1092 -110.024 79.1641L-110.976 79.4701C-110.703 80.3211 -110.553 81.277 -110.499 82.0357L-109.501 81.9644ZM-110.024 79.1641C-110.315 78.2598 -110.768 77.3391 -111.481 76.8414C-111.853 76.5815 -112.293 76.4397 -112.79 76.479C-113.277 76.5176 -113.778 76.7268 -114.291 77.0932L-113.709 77.9069C-113.295 77.611 -112.965 77.496 -112.711 77.4759C-112.466 77.4565 -112.253 77.5216 -112.053 77.6613C-111.621 77.963 -111.251 78.6132 -110.976 79.4701L-110.024 79.1641ZM-110.612 79.8044C-106.86 80.6686 -100.982 81.99 -95.5414 83.1455C-90.1155 84.2978 -85.0836 85.2942 -83.0498 85.4975L-82.9502 84.5025C-84.9164 84.3059 -89.8845 83.3246 -95.3336 82.1673C-100.768 81.0133 -106.64 79.6932 -110.388 78.8299L-110.612 79.8044ZM-82.8589 97.0203C-84.3123 96.5929 -86.7301 96.1099 -89.2985 96.0377C-91.8552 95.9659 -94.6362 96.2986 -96.7572 97.5713L-96.2428 98.4288C-94.3638 97.3014 -91.8115 96.9675 -89.3265 97.0373C-86.8533 97.1068 -84.521 97.5738 -83.1411 97.9797L-82.8589 97.0203ZM-110.5 82.0001C-110.5 85.3431 -110.675 90.2259 -111.187 94.4256C-111.443 96.5278 -111.781 98.4392 -112.217 99.8954C-112.435 100.624 -112.672 101.22 -112.925 101.664C-113.184 102.117 -113.428 102.356 -113.632 102.452L-113.204 103.356C-112.729 103.131 -112.357 102.685 -112.057 102.16C-111.752 101.625 -111.488 100.949 -111.259 100.182C-110.799 98.6466 -110.453 96.6707 -110.194 94.5465C-109.676 90.2935 -109.5 85.3677 -109.5 82.0001L-110.5 82.0001ZM-113.335 103.397C-111.123 103.024 -107.834 102.368 -104.615 101.517C-101.411 100.67 -98.2204 99.6154 -96.2428 98.4288L-96.7572 97.5713C-98.6027 98.6786 -101.671 99.7046 -104.871 100.55C-108.055 101.392 -111.313 102.042 -113.501 102.411L-113.335 103.397ZM-113.501 102.411C-113.703 102.445 -113.896 102.477 -114.079 102.506L-113.921 103.494C-113.735 103.464 -113.54 103.432 -113.335 103.397L-113.501 102.411ZM-114.062 103.496C-113.76 103.534 -113.47 103.482 -113.204 103.356L-113.632 102.452C-113.735 102.501 -113.833 102.517 -113.938 102.504L-114.062 103.496ZM-83.5 85V91.25H-82.5V85H-83.5ZM-83.5 91.25V97.5H-82.5V91.25H-83.5ZM-83.0206 91.7496C-73.9296 92.1249 -59.544 92.4377 -45.9272 92.1562C-39.119 92.0154 -32.4973 91.726 -26.8228 91.2207C-21.1602 90.7165 -16.4015 89.9942 -13.3419 88.9744L-13.6581 88.0257C-16.5985 89.0058 -21.2565 89.7211 -26.9115 90.2246C-32.5548 90.7272 -39.1518 91.0159 -45.9478 91.1564C-59.5394 91.4374 -73.9038 91.1251 -82.9794 90.7504L-83.0206 91.7496ZM-13.3419 88.9744C-10.4147 87.9986 -4.56457 87.3123 3.06873 86.8585C10.6785 86.4061 19.9968 86.1875 29.8157 86.125C49.4525 86.0001 71.0702 86.4999 84.982 86.9997L85.018 86.0003C71.0965 85.5002 49.4641 85 29.8093 85.125C19.9824 85.1876 10.6444 85.4064 3.00939 85.8603C-4.60209 86.3128 -10.5853 87.0014 -13.6581 88.0257L-13.3419 88.9744ZM84.5086 86.4079C84.2543 87.7642 84.0216 89.8128 84.1642 91.5411C84.235 92.3998 84.4021 93.2308 84.7428 93.8624C85.0956 94.5165 85.6662 95 86.5 95V94C86.1338 94 85.8544 93.8169 85.6229 93.3876C85.3792 92.9359 85.2275 92.2669 85.1608 91.4589C85.0284 89.8539 85.2457 87.9026 85.4914 86.5922L84.5086 86.4079ZM85.3419 80.5257C84.625 80.7646 84.1352 81.1987 83.8477 81.7571C83.5677 82.3007 83.4996 82.922 83.5386 83.52C83.616 84.7087 84.1266 85.9575 84.5629 86.7428L85.4371 86.2572C85.0401 85.5426 84.6007 84.4413 84.5364 83.455C84.5046 82.9656 84.5677 82.5431 84.7367 82.2149C84.8981 81.9014 85.175 81.6354 85.6581 81.4744L85.3419 80.5257ZM91.8536 86.1465C91.451 85.7439 91.03 85.0294 90.5129 84.1617C90.0167 83.3291 89.4481 82.3872 88.7781 81.661L88.0431 82.3391C88.6307 82.976 89.1488 83.8261 89.6539 84.6737C90.1381 85.4862 90.6331 86.3402 91.1464 86.8536L91.8536 86.1465ZM88.7781 81.661C88.3487 81.1955 87.8531 80.7907 87.2763 80.563C86.6866 80.3302 86.0384 80.2935 85.3419 80.5257L85.6581 81.4744C86.1297 81.3172 86.5359 81.3459 86.9091 81.4932C87.2951 81.6456 87.6708 81.9355 88.0431 82.3391L88.7781 81.661ZM88.5712 82.4736L112.161 74.4735L111.839 73.5265L88.2501 81.5265L88.5712 82.4736ZM111.592 74.2893C113.235 76.6047 115.379 80.4461 116.468 84.4228C117.562 88.419 117.554 92.4019 115.124 95.1702L115.876 95.8299C118.646 92.6747 118.555 88.257 117.432 84.1587C116.305 80.0408 114.099 76.0939 112.408 73.7107L111.592 74.2893ZM86.5 95C87.2814 95 88.0396 94.6464 88.7109 94.1423L88.1104 93.3427C87.532 93.777 86.9823 94 86.5 94V95ZM88.7109 94.1423C89.9687 93.1977 91.084 91.6042 91.736 90.1053C92.0632 89.3531 92.287 88.5951 92.3443 87.9266C92.3999 87.2776 92.3064 86.5993 91.8536 86.1465L91.1464 86.8536C91.2856 86.9928 91.3947 87.296 91.348 87.8412C91.3029 88.3669 91.1195 89.0157 90.819 89.7064C90.2159 91.093 89.1944 92.5287 88.1104 93.3427L88.7109 94.1423ZM115.532 95.0011L88.443 93.2435L88.3783 94.2415L115.468 95.999L115.532 95.0011ZM130.336 68.6301C129.402 67.7803 127.828 66.511 126.127 65.4507C125.276 64.9203 124.385 64.4364 123.518 64.0838C122.657 63.7333 121.791 63.5 121 63.5V64.5C121.609 64.5 122.339 64.6834 123.141 65.01C123.938 65.3345 124.778 65.7881 125.598 66.2993C127.239 67.3223 128.765 68.5531 129.664 69.37L130.336 68.6301ZM121 63.5C120.005 63.5 119.387 64.2043 119.029 65.0658C118.671 65.9256 118.506 67.0734 118.451 68.2899C118.34 70.7359 118.671 73.6503 119.007 75.5857L119.993 75.4144C119.663 73.5164 119.343 70.6808 119.449 68.3351C119.503 67.1558 119.662 66.1473 119.952 65.4499C120.242 64.754 120.595 64.5 121 64.5V63.5ZM172.841 69.3655C174.076 68.2135 176.047 66.5884 177.944 65.4542C178.895 64.8856 179.8 64.4571 180.568 64.2629C181.35 64.0649 181.872 64.1378 182.188 64.3905L182.812 63.6096C182.128 63.0623 181.212 63.0685 180.323 63.2934C179.419 63.5221 178.417 64.0062 177.431 64.5959C175.453 65.7784 173.424 67.4532 172.159 68.6345L172.841 69.3655ZM182.188 64.3905C182.388 64.5508 182.574 64.8469 182.708 65.314C182.841 65.7755 182.91 66.3595 182.914 67.034C182.922 68.3823 182.666 70.0214 182.207 71.6114C181.748 73.2031 181.096 74.7106 180.332 75.8081C179.55 76.9308 178.743 77.5 178 77.5V78.5C179.257 78.5 180.325 77.5692 181.153 76.3794C181.998 75.1644 182.69 73.5469 183.168 71.8886C183.647 70.2286 183.922 68.4927 183.914 67.0285C183.91 66.2968 183.835 65.6152 183.669 65.0376C183.505 64.4657 183.237 63.9493 182.812 63.6096L182.188 64.3905ZM173.747 105.065C171.334 103.694 167.666 101.549 164.502 99.5729C162.92 98.5844 161.47 97.6419 160.369 96.8614C159.818 96.4707 159.36 96.1253 159.02 95.8383C158.66 95.5355 158.485 95.3415 158.435 95.2528L157.565 95.7473C157.715 96.01 158.023 96.3063 158.375 96.6031C158.746 96.9156 159.229 97.2792 159.791 97.6773C160.915 98.4743 162.384 99.4287 163.973 100.421C167.151 102.407 170.832 104.559 173.253 105.935L173.747 105.065ZM158.435 95.2528C158.221 94.8769 157.847 94.6688 157.465 94.5662C157.08 94.463 156.636 94.4506 156.183 94.5042C155.279 94.6115 154.243 94.995 153.39 95.6266C152.535 96.26 151.824 97.1748 151.668 98.3514C151.512 99.5332 151.93 100.871 153.113 102.317L153.887 101.683C152.82 100.379 152.55 99.3096 152.66 98.4825C152.77 97.65 153.278 96.9541 153.985 96.4302C154.695 95.9047 155.565 95.5846 156.301 95.4973C156.669 95.4536 156.979 95.4712 157.205 95.532C157.434 95.5935 157.529 95.6837 157.565 95.7473L158.435 95.2528ZM153.113 102.317C156.735 106.743 161.987 111.861 164.161 113.867L164.839 113.133C162.679 111.139 157.465 106.057 153.887 101.683L153.113 102.317ZM119.987 110.885C119.65 109.456 119.046 107.214 118.323 105.124C117.961 104.079 117.567 103.063 117.158 102.203C116.755 101.354 116.317 100.61 115.854 100.146L115.146 100.854C115.483 101.19 115.862 101.804 116.255 102.632C116.642 103.447 117.022 104.425 117.377 105.451C118.087 107.502 118.683 109.71 119.013 111.115L119.987 110.885ZM115.854 100.146C115.452 99.7445 115.211 99.1457 115.171 98.5672C115.13 97.9729 115.304 97.531 115.559 97.3307C115.776 97.1602 116.228 97.0352 117.093 97.496C117.959 97.9573 119.127 98.9594 120.61 100.812L121.39 100.188C119.873 98.2906 118.604 97.1677 117.563 96.6134C116.522 96.0586 115.599 96.0273 114.941 96.5443C114.321 97.0315 114.12 97.8709 114.173 98.636C114.227 99.4168 114.548 100.255 115.146 100.854L115.854 100.146ZM120.61 100.812C125.406 106.807 127.623 109.33 128.146 109.854L128.854 109.146C128.377 108.67 126.194 106.193 121.39 100.188L120.61 100.812ZM125 171.518C125.084 173.873 125.462 177.325 126.337 180.005C126.772 181.337 127.349 182.541 128.124 183.311C128.518 183.702 128.977 183.995 129.506 184.121C130.039 184.249 130.603 184.197 131.186 183.964L130.814 183.036C130.397 183.203 130.044 183.222 129.738 183.149C129.428 183.075 129.125 182.896 128.829 182.601C128.224 182.001 127.707 180.98 127.288 179.695C126.454 177.141 126.082 173.794 126 171.482L125 171.518ZM131.186 183.964C133.931 182.866 135.484 179.768 135.994 176.515C136.507 173.247 136.006 169.608 134.416 167.223L133.584 167.777C134.994 169.892 135.493 173.253 135.006 176.36C134.516 179.482 133.069 182.134 130.814 183.036L131.186 183.964ZM134.416 167.223C134.239 166.957 134.122 166.744 134.052 166.576C133.98 166.404 133.968 166.309 133.969 166.27C133.97 166.248 133.971 166.277 133.943 166.302C133.929 166.315 133.946 166.291 134.05 166.276C134.267 166.244 134.64 166.278 135.177 166.405C135.7 166.528 136.325 166.724 137.02 166.971C138.411 167.466 140.038 168.147 141.612 168.805C143.176 169.459 144.695 170.092 145.842 170.474L146.158 169.526C145.055 169.158 143.574 168.541 141.997 167.882C140.431 167.228 138.777 166.534 137.355 166.029C136.644 165.776 135.98 165.566 135.407 165.431C134.848 165.3 134.319 165.225 133.903 165.287C133.691 165.318 133.459 165.392 133.273 165.56C133.072 165.741 132.978 165.983 132.97 166.238C132.962 166.477 133.029 166.723 133.13 166.964C133.233 167.209 133.386 167.48 133.584 167.777L134.416 167.223ZM145.842 170.474C147.729 171.103 150.177 171.225 152.432 171.137C154.698 171.049 156.824 170.745 158.098 170.49L157.902 169.51C156.676 169.755 154.602 170.051 152.393 170.138C150.173 170.225 147.871 170.097 146.158 169.526L145.842 170.474ZM158.082 170.493C159.053 170.331 160.323 170.328 161.13 170.724C161.511 170.911 161.752 171.168 161.849 171.52C161.951 171.889 161.918 172.454 161.543 173.297L162.457 173.703C162.882 172.746 162.999 171.932 162.813 171.255C162.623 170.561 162.139 170.106 161.57 169.826C160.477 169.289 158.947 169.335 157.918 169.507L158.082 170.493ZM161.543 173.297C160.553 175.525 159.222 177.446 158.25 179.195C157.778 180.046 157.387 180.865 157.222 181.62C157.054 182.39 157.111 183.147 157.6 183.8L158.4 183.2C158.139 182.853 158.071 182.422 158.199 181.833C158.331 181.229 158.66 180.517 159.125 179.68C160.028 178.054 161.447 175.975 162.457 173.703L161.543 173.297ZM157.6 183.8C158.072 184.43 158.855 184.814 159.691 185.038C160.539 185.264 161.513 185.345 162.455 185.312C163.397 185.28 164.333 185.134 165.11 184.891C165.856 184.659 166.565 184.304 166.916 183.777L166.084 183.223C165.935 183.446 165.519 183.716 164.812 183.937C164.135 184.148 163.29 184.283 162.42 184.313C161.55 184.343 160.679 184.267 159.949 184.072C159.208 183.873 158.678 183.57 158.4 183.2L157.6 183.8ZM166.916 183.777C167.452 182.973 168.594 180.55 169.413 178.03C169.824 176.764 170.163 175.448 170.301 174.277C170.436 173.134 170.395 172.019 169.929 171.243L169.071 171.757C169.355 172.231 169.439 173.054 169.308 174.16C169.181 175.24 168.863 176.486 168.462 177.72C167.656 180.2 166.548 182.527 166.084 183.223L166.916 183.777ZM169.929 171.243C169.868 171.142 169.842 171.005 169.907 170.784C169.976 170.552 170.138 170.262 170.409 169.92C170.95 169.237 171.837 168.455 172.912 167.65C175.053 166.047 177.828 164.436 179.731 163.443L179.269 162.557C177.339 163.564 174.513 165.203 172.313 166.85C171.217 167.67 170.248 168.513 169.625 169.299C169.315 169.691 169.068 170.096 168.948 170.501C168.826 170.917 168.832 171.358 169.071 171.757L169.929 171.243ZM145.879 86.9851L151.879 88.4851L152.121 87.5149L146.121 86.0149L145.879 86.9851ZM151.512 87.8915C151.347 88.6343 151.079 89.6531 150.81 90.3277C150.744 90.4947 150.682 90.63 150.626 90.7299C150.564 90.8409 150.532 90.8673 150.542 90.8596C150.55 90.8529 150.596 90.8172 150.678 90.8038C150.773 90.7883 150.865 90.8116 150.934 90.8552C151.03 90.9164 151.019 90.9763 150.974 90.8419L150.026 91.1581C150.081 91.3237 150.181 91.5617 150.397 91.6991C150.526 91.7808 150.68 91.8167 150.839 91.7908C150.984 91.767 151.096 91.6979 151.171 91.6372C151.313 91.5217 151.42 91.3583 151.499 91.2173C151.584 91.0654 151.664 90.8865 151.74 90.6973C152.038 89.9469 152.32 88.8657 152.488 88.1085L151.512 87.8915ZM150.974 90.8419C150.829 90.4058 150.541 90.1114 150.168 89.9601C149.818 89.8183 149.434 89.8173 149.09 89.8678C148.403 89.9686 147.689 90.3036 147.243 90.5713L147.757 91.4287C148.144 91.1964 148.73 90.9314 149.235 90.8572C149.487 90.8202 149.672 90.838 149.792 90.8867C149.889 90.9261 149.971 90.9942 150.026 91.1581L150.974 90.8419ZM147.916 90.7226C147.423 89.9835 146.767 88.8878 146.385 87.9913C146.188 87.5296 146.092 87.1837 146.087 86.982C146.085 86.8826 146.108 86.8949 146.073 86.9398C146.02 87.007 145.96 87 146 87V86C145.74 86 145.47 86.0868 145.285 86.3239C145.117 86.5387 145.083 86.7971 145.088 87.0025C145.096 87.4101 145.262 87.9079 145.465 88.3837C145.883 89.3622 146.577 90.5165 147.084 91.2774L147.916 90.7226Z" fill="black"/>
<path d="M109.545 67.3737C111.72 67.1282 113.112 67.6821 114.742 69.0946C115.076 69.3842 115.494 69.6985 115.904 69.8354" stroke="black" stroke-width="2" stroke-linecap="round"/>
<path d="M105.442 64.2967C107.084 63.7019 108.724 63.0312 110.48 63.4762C111.298 63.6837 111.961 64.2967 112.827 64.2967" stroke="black" stroke-width="2" stroke-linecap="round"/>
<path d="M113.853 53.6296C115.748 54.5773 117.747 55.9877 119.802 56.5015" stroke="black" stroke-width="2" stroke-linecap="round"/>
<path d="M125.136 54.6553C124.158 57.2819 125.773 60.5431 128.418 61.4248" stroke="black" stroke-width="2" stroke-linecap="round"/>
<path d="M124.52 48.7063C125.21 49.6173 126.145 50.5129 126.572 51.5782" stroke="black" stroke-width="2" stroke-linecap="round"/>
<path d="M133.136 53.6296C131.821 57.5747 129.737 62.5789 131.905 66.5532" stroke="black" stroke-width="2" stroke-linecap="round"/>
<path d="M136.623 59.7837C136.752 61.5856 136.94 63.3235 136.828 65.1172" stroke="black" stroke-width="2" stroke-linecap="round"/>
<path d="M136.213 51.5782V54.8604" stroke="black" stroke-width="2" stroke-linecap="round"/>
<path d="M146.265 52.6039C146.947 56.2421 145.622 59.8243 143.598 62.8607" stroke="black" stroke-width="2" stroke-linecap="round"/>
<path d="M150.162 48.0909C150.679 49.9201 151.272 51.6753 152.008 53.4245" stroke="black" stroke-width="2" stroke-linecap="round"/>
<path d="M156.727 54.6553C154.92 58.1432 153.18 61.1668 150.162 63.6813" stroke="black" stroke-width="2" stroke-linecap="round"/>
<path d="M163.086 55.681C161.756 57.8125 161.047 59.9523 161.24 62.4505" stroke="black" stroke-width="2" stroke-linecap="round"/>
<path d="M168.624 56.2964C168.133 57.2965 167.188 58.6069 167.188 59.7837" stroke="black" stroke-width="2" stroke-linecap="round"/>
<path d="M177.24 56.9117C175.721 58.2623 173.649 59.897 173.343 62.0401" stroke="black" stroke-width="2" stroke-linecap="round"/>
<path d="M184.215 56.5015C183.818 57.818 183.339 58.9613 182.779 60.1939" stroke="black" stroke-width="2" stroke-linecap="round"/>
<path d="M191.189 61.4248C188.639 61.9749 187.532 62.5913 187.087 65.1173" stroke="black" stroke-width="2" stroke-linecap="round"/>
<path d="M171.701 50.5526C171.071 48.1523 170.959 47.075 168.419 47.2704" stroke="black" stroke-width="2" stroke-linecap="round"/>
<path d="M184.625 80.7076C186.486 81.3021 188.297 82.0094 190.164 82.5539" stroke="black" stroke-width="2" stroke-linecap="round"/>
<path d="M189.548 73.7329C191.07 73.962 191.609 74.4126 192.83 75.1689" stroke="black" stroke-width="2" stroke-linecap="round"/>
<path d="M177.035 84.4C178.821 85.357 180.613 86.2659 182.209 87.5227C182.884 88.0544 183.509 88.6479 184.215 89.1182" stroke="black" stroke-width="2" stroke-linecap="round"/>
<path d="M189.548 88.5028C191.226 89.3797 192.644 90.3397 194.061 91.5798" stroke="black" stroke-width="2" stroke-linecap="round"/>
<path d="M192.215 95.2722C193.074 96.0618 193.748 96.8438 194.472 97.7339" stroke="black" stroke-width="2" stroke-linecap="round"/>
<path d="M178.266 94.0414C180.141 95.7443 181.91 97.2853 184.215 98.3492" stroke="black" stroke-width="2" stroke-linecap="round"/>
<path d="M179.497 104.093C183.635 105.104 187.573 106.265 191.805 105.529" stroke="black" stroke-width="2" stroke-linecap="round"/>
<path d="M189.959 101.221C191.616 102.594 193.411 103.778 195.087 105.119" stroke="black" stroke-width="2" stroke-linecap="round"/>
<path d="M191.395 109.632C192.974 111.084 194.55 112.486 195.908 114.145" stroke="black" stroke-width="2" stroke-linecap="round"/>
<path d="M182.163 112.914C184.129 113.371 185.952 114.403 187.702 115.376" stroke="black" stroke-width="2" stroke-linecap="round"/>
<path d="M178.881 118.658C181.803 120.659 184.758 122.644 187.702 124.607" stroke="black" stroke-width="2" stroke-linecap="round"/>
<path d="M188.728 119.273C189.706 122.55 192.878 123.728 195.907 124.402" stroke="black" stroke-width="2" stroke-linecap="round"/>
<path d="M182.163 124.812C182.53 125.893 182.911 126.84 183.599 127.764C184.059 128.38 184.419 128.811 184.625 129.53" stroke="black" stroke-width="2" stroke-linecap="round"/>
<path d="M187.087 130.966C189.177 132.538 191.247 134.072 193.446 135.479" stroke="black" stroke-width="2" stroke-linecap="round"/>
<path d="M187.907 135.889C188.91 136.55 189.629 137.282 190.164 138.351" stroke="black" stroke-width="2" stroke-linecap="round"/>
<path d="M181.343 137.735C182.167 139.192 183.599 140.709 183.599 142.454" stroke="black" stroke-width="2" stroke-linecap="round"/>
<path d="M183.394 144.505C185.666 144.787 189.781 144.807 190.574 147.582" stroke="black" stroke-width="2" stroke-linecap="round"/>
<path d="M179.086 147.377C180.048 148.499 181.407 149.398 182.163 150.659" stroke="black" stroke-width="2" stroke-linecap="round"/>
<path d="M180.933 153.531C182.24 154.746 183.372 155.864 184.215 157.428" stroke="black" stroke-width="2" stroke-linecap="round"/>
<path d="M178.266 158.865C179.193 160.034 181.607 162.102 180.933 163.788" stroke="black" stroke-width="2" stroke-linecap="round"/>
<path d="M124.93 159.275C123.026 161.358 121.461 163.136 120.212 165.634" stroke="black" stroke-width="2" stroke-linecap="round"/>
<path d="M117.135 164.198C115.644 166.047 114.448 168.055 113.033 169.942" stroke="black" stroke-width="2" stroke-linecap="round"/>
<path d="M121.853 155.172C120.532 156.55 119.442 157.934 118.389 159.514C118.039 160.039 117.635 160.354 117.135 160.711" stroke="black" stroke-width="2" stroke-linecap="round"/>
<path d="M116.11 153.531C113.71 156.121 111.626 159.04 109.135 161.531" stroke="black" stroke-width="2" stroke-linecap="round"/>
<path d="M110.776 152.71C109.897 154.784 108.998 156.839 108.326 158.99C108.205 159.376 107.978 159.611 107.699 159.89" stroke="black" stroke-width="2" stroke-linecap="round"/>
<path d="M114.468 143.89C113.791 144.716 113.107 145.536 112.417 146.351" stroke="black" stroke-width="2" stroke-linecap="round"/>
<path d="M110.776 139.787C109.246 140.404 108.6 141.553 107.494 142.659" stroke="black" stroke-width="2" stroke-linecap="round"/>
<path d="M117.135 132.197C115.846 132.783 114.551 133.313 113.238 133.838" stroke="black" stroke-width="2" stroke-linecap="round"/>
<path d="M116.11 122.145C113.399 122.679 110.824 123.557 109.135 125.883C108.355 126.957 107.752 128.18 107.084 129.325" stroke="black" stroke-width="2" stroke-linecap="round"/>
<path d="M116.93 114.76C114.247 115.594 112.021 117.01 109.545 118.247" stroke="black" stroke-width="2" stroke-linecap="round"/>
<path d="M111.597 113.324C109.908 113.009 108.413 113.736 106.878 114.35" stroke="black" stroke-width="2" stroke-linecap="round"/>
<path d="M110.161 108.811C109.127 108.921 108.11 109.068 107.084 109.222" stroke="black" stroke-width="2" stroke-linecap="round"/>
<path d="M105.853 105.734H108.109" stroke="black" stroke-width="2" stroke-linecap="round"/>
<path d="M106.468 100.606C104.827 100.502 103.189 100.401 101.545 100.401" stroke="black" stroke-width="2" stroke-linecap="round"/>
<path d="M108.109 96.7083C103.625 96.8364 100.691 102.161 99.0833 105.734" stroke="black" stroke-width="2" stroke-linecap="round"/>
<path d="M159.393 79.4768C160.387 79.6706 162.214 79.7306 162.049 78.246C161.934 77.2141 161.224 77.2896 160.932 78.1662C160.317 80.0101 161.981 80.7428 163.245 79.2489C164.411 77.8711 163.031 75.6937 161.319 76.4453C159.911 77.0635 158.173 79.0392 159.484 80.548C160.832 82.0992 164.391 81.4119 164.59 79.1349C164.778 76.99 161.769 75.8157 160.259 77.1063C158.788 78.3642 159.45 79.6961 161.034 80.0922" stroke="black" stroke-width="2" stroke-linecap="round"/>
<path d="M139.144 80.0715C139.546 79.5561 140.904 78.5423 140.654 77.761C140.55 77.4351 139.479 76.4002 139.21 77.0723C138.774 78.1634 142.402 77.0855 139.744 76.4947C138.873 76.3012 138.866 78.0087 140.121 77.65C141.221 77.3356 137.589 75.104 137.589 76.2948C137.589 77.1963 139.784 77.5541 138.344 76.9613C137.861 76.7622 138.543 79.3717 140.343 79.2717C141.286 79.2193 139.731 76.1479 138.122 77.6722C136.796 78.9283 138.936 80.5254 139.855 78.8718C140.237 78.184 139.358 76.7025 138.566 77.4944C138.027 78.0337 141.019 78.6673 140.121 76.8724C139.475 75.5804 136.522 76.0992 137.744 77.0501C138.415 77.5719 138.464 76.3728 137.766 76.1615C137.179 75.9835 136.094 75.8635 135.767 76.517C134.949 78.1529 136.87 79.5198 138.344 78.783C139.395 78.2576 137.593 76.5118 136.745 76.9613C135.11 77.8264 138.353 78.5011 137.855 77.6722C137.557 77.1756 135.396 78.3975 137.944 79.6716" stroke="black" stroke-width="2" stroke-linecap="round"/>
<path d="M145.542 146.452C146.051 145.8 146.697 144.583 147.719 144.875C147.926 144.934 148.352 145.252 147.941 145.252" stroke="black" stroke-width="2" stroke-linecap="round"/>
</g>
<defs>
<clipPath id="clip0_25_399">
<rect width="224" height="213" fill="white"/>
</clipPath>
</defs>
</svg>
