<svg width="29" height="28" viewBox="0 0 29 28" fill="none" xmlns="http://www.w3.org/2000/svg">
<path d="M14.7298 21.629H7.32763C6.85638 21.629 6.47461 21.247 6.47461 20.7759V7.0266C6.47461 6.55541 6.85644 6.17358 7.32763 6.17358H21.077C21.5481 6.17358 21.93 6.55541 21.93 7.0266V20.7759C21.93 21.247 21.548 21.629 21.077 21.629H17.1386V15.6438H19.1476L19.4483 13.3113H17.1386V11.8221C17.1386 11.1468 17.3261 10.6866 18.2945 10.6866L19.5297 10.686V8.59979C19.3161 8.57136 18.5829 8.50785 17.7298 8.50785C15.949 8.50785 14.7298 9.59487 14.7298 11.5911V13.3113H12.7157V15.6438H14.7298V21.629Z" fill="#684B7D"/>
</svg>
