<svg width="18" height="18" viewBox="0 0 18 18" fill="none" xmlns="http://www.w3.org/2000/svg">
<mask id="path-1-inside-1_1328_16548" fill="white">
<path d="M0.0351562 14.5531V10.9866V6.99339V3.55718C0.0351562 3.20308 0.362777 2.9386 0.708363 3.01566C6.30394 4.26389 11.8995 1.3584 17.4951 2.73322C17.7426 2.79404 17.9163 3.01682 17.9163 3.27174V6.99339V10.9866V14.2676C17.9163 14.6217 17.5887 14.8862 17.2431 14.8091C11.6475 13.5609 6.05194 16.4664 0.456363 15.0916C0.208828 15.0308 0.0351562 14.808 0.0351562 14.5531Z"/>
</mask>
<path d="M0.0351562 14.5531V10.9866V6.99339V3.55718C0.0351562 3.20308 0.362777 2.9386 0.708363 3.01566C6.30394 4.26389 11.8995 1.3584 17.4951 2.73322C17.7426 2.79404 17.9163 3.01682 17.9163 3.27174V6.99339V10.9866V14.2676C17.9163 14.6217 17.5887 14.8862 17.2431 14.8091C11.6475 13.5609 6.05194 16.4664 0.456363 15.0916C0.208828 15.0308 0.0351562 14.808 0.0351562 14.5531Z" fill="#FAFAFA"/>
<path d="M0.456363 15.0916L0.337061 15.5771L0.337063 15.5771L0.456363 15.0916ZM17.2431 14.8091L17.352 14.3211L17.3519 14.3211L17.2431 14.8091ZM17.4951 2.73322L17.6144 2.24766L17.6144 2.24766L17.4951 2.73322ZM0.708363 3.01566L0.817224 2.52766L0.817186 2.52765L0.708363 3.01566ZM-0.464844 10.9866V14.5531H0.535156V10.9866H-0.464844ZM-0.464844 14.5531C-0.464844 15.0368 -0.135365 15.4611 0.337061 15.5771L0.575665 14.606C0.553021 14.6005 0.535156 14.5792 0.535156 14.5531H-0.464844ZM0.337063 15.5771C3.2432 16.2912 6.13586 15.8894 8.92023 15.4928C11.7363 15.0917 14.441 14.6964 17.1342 15.2971L17.3519 14.3211C14.4496 13.6737 11.5587 14.1069 8.77922 14.5028C5.96801 14.9032 3.2651 15.2668 0.575664 14.606L0.337063 15.5771ZM17.1342 15.2971C17.7946 15.4445 18.4163 14.9392 18.4163 14.2676H17.4163C17.4163 14.3042 17.3827 14.328 17.352 14.3211L17.1342 15.2971ZM18.4163 14.2676V10.9866H17.4163V14.2676H18.4163ZM-0.464844 6.99339V10.9866H0.535156V6.99339H-0.464844ZM18.4163 10.9866V6.99339H17.4163V10.9866H18.4163ZM-0.464844 3.55718V6.99339H0.535156V3.55718H-0.464844ZM18.4163 6.99339V3.27174H17.4163V6.99339H18.4163ZM18.4163 3.27174C18.4163 2.78803 18.0868 2.36374 17.6144 2.24766L17.3758 3.21878C17.3984 3.22434 17.4163 3.24562 17.4163 3.27174H18.4163ZM17.6144 2.24766C14.7083 1.53363 11.8156 1.93538 9.03122 2.33196C6.21513 2.73306 3.51043 3.12844 0.817224 2.52766L0.599502 3.50367C3.50187 4.15111 6.39274 3.71786 9.17223 3.32197C11.9834 2.92157 14.6863 2.55799 17.3758 3.21878L17.6144 2.24766ZM0.817186 2.52765C0.156875 2.38041 -0.464844 2.88549 -0.464844 3.55718H0.535156C0.535156 3.52067 0.568679 3.4968 0.599541 3.50368L0.817186 2.52765Z" fill="#EDEBEB" mask="url(#path-1-inside-1_1328_16548)"/>
<mask id="mask0_1328_16548" style="mask-type:alpha" maskUnits="userSpaceOnUse" x="0" y="0" width="18" height="18">
<path d="M0.0351562 10.987V14.5534C0.0351562 14.8084 0.208828 15.0311 0.456363 15.092C6.05194 16.4668 11.6475 13.5613 17.2431 14.8095C17.5887 14.8866 17.9163 14.6221 17.9163 14.268V10.987C11.9559 9.28812 5.99555 12.6859 0.0351562 10.987V10.987Z" fill="#F1F1F1"/>
<path d="M0.0351562 6.99385V10.9871C5.99555 12.686 11.9559 9.28821 17.9163 10.9871V6.99385C11.9559 5.29495 5.99555 8.69274 0.0351562 6.99385Z" fill="#F1F1F1"/>
<path d="M0.0351562 3.55766V6.99387C5.99555 8.69276 11.9559 5.29498 17.9163 6.99387V3.27223C17.9163 3.01731 17.7426 2.79453 17.4951 2.73371C11.8995 1.35889 6.30394 4.26438 0.708363 3.01615C0.362777 2.93909 0.0351562 3.20357 0.0351562 3.55766Z" fill="#F1F1F1"/>
</mask>
<g mask="url(#mask0_1328_16548)">
<path d="M0.0829112 1.5507L-1.91372 5.00896C3.81353 10.2773 12.0891 11.1318 17.8163 16.4001L19.813 12.9419C14.0857 7.67351 5.81016 6.81904 0.0829112 1.5507Z" fill="#0099CC"/>
</g>
</svg>
