<svg width="24" height="24" viewBox="0 0 24 24" fill="none" xmlns="http://www.w3.org/2000/svg">
<g clip-path="url(#clip0_321_103)">
<path d="M23.1891 3.67987C15.7125 1.94081 8.23594 5.81269 0.754687 4.06894C0.3375 3.97519 0 4.21425 0 4.63144V19.3689C0 19.7861 0.3375 20.2221 0.754687 20.3205C8.23125 22.0596 15.7078 18.1877 23.1891 19.9314C23.6062 20.0299 23.9437 19.7908 23.9437 19.3736V4.63612C23.9437 4.21425 23.6062 3.77831 23.1891 3.67987Z" fill="#0B67B2"/>
<path d="M23.9437 4.63135C23.9437 4.21416 23.6062 3.77822 23.1891 3.67978C23.1422 3.67041 23.0906 3.65635 23.0437 3.64697L14.7141 8.71885V3.50635C12.8859 3.72666 11.0578 4.02666 9.22969 4.24697V8.6626L2.10937 4.32666C1.65937 4.26104 1.20937 4.17666 0.754687 4.06885C0.3375 3.9751 0 4.21416 0 4.63135V5.60635L6 9.25791H0V14.7423H6.27656L0 18.5626V19.3688C0 19.786 0.3375 20.222 0.754687 20.3204C0.895312 20.3532 1.03594 20.3813 1.17187 20.4095L9.225 15.5017V20.4892C11.0531 20.2688 12.8812 19.9688 14.7094 19.7485V15.4407L21.5953 19.6407C22.125 19.711 22.6547 19.8048 23.1844 19.9313C23.6016 20.0298 23.9391 19.7907 23.9391 19.3735V18.511L17.7562 14.747H23.9391V9.2626H18.0328L23.9391 5.66728C23.9437 5.31572 23.9437 4.97354 23.9437 4.63135Z" fill="#FF473E"/>
<path d="M19.3547 15.164L23.9437 17.9577V19.0546L17.5547 15.164H15.15L22.8516 19.8562C22.0734 19.6921 21.2906 19.589 20.5125 19.528L15.1359 16.2562V19.7062C14.8547 19.739 14.5734 19.7718 14.2922 19.8093V14.3249H23.9437V15.1687H19.3547V15.164ZM8.80781 20.5452C9.08906 20.5124 9.37031 20.4796 9.65156 20.4421V14.3202H0V15.164H4.68281L0 18.014V19.1108L6.48281 15.164H8.80781V15.2108L0.548437 20.2405C0.614062 20.2733 0.684375 20.3015 0.754687 20.3202C1.125 20.4046 1.49531 20.4796 1.86562 20.5405L8.80781 16.3124V20.5452ZM0 8.83584V9.67959H9.65156V4.19521C9.37031 4.23272 9.08906 4.26553 8.80781 4.29834V7.86084L3.22031 4.45771C2.41406 4.3874 1.60781 4.27021 0.801562 4.08271L8.60625 8.83584H6.20156L0 5.05772V6.15459L4.40625 8.83584H0ZM15.1359 3.45459C14.8547 3.4874 14.5734 3.52022 14.2922 3.55772V9.67959H23.9437V8.83584H19.6312L23.9437 6.21084V5.11396L17.8312 8.83584H15.4266L23.5687 3.87646C23.4562 3.78271 23.3297 3.7124 23.1891 3.67959C22.9125 3.61396 22.6406 3.5624 22.3641 3.51084L15.1359 7.9124V3.45459Z" fill="#E8E8E8"/>
</g>
<defs>
<clipPath id="clip0_321_103">
<rect width="24" height="24" fill="white"/>
</clipPath>
</defs>
</svg>
