<svg width="18" height="18" viewBox="0 0 18 18" fill="none" xmlns="http://www.w3.org/2000/svg">
<g clip-path="url(#clip0_1347_16554)">
<path d="M17.3918 2.75954C11.7844 1.45524 6.17695 4.35915 0.566016 3.05134C0.253125 2.98102 0 3.16032 0 3.47321V14.5263C0 14.8392 0.253125 15.1662 0.566016 15.24C6.17344 16.5443 11.7809 13.6404 17.3918 14.9482C17.7047 15.022 17.9578 14.8427 17.9578 14.5299V3.47673C17.9578 3.16032 17.7047 2.83337 17.3918 2.75954Z" fill="#0B67B2"/>
<path d="M17.9578 3.47363C17.9578 3.16074 17.7047 2.83379 17.3918 2.75996C17.3566 2.75293 17.318 2.74238 17.2828 2.73535L11.0355 6.53926V2.62988C9.66445 2.79512 8.29336 3.02012 6.92227 3.18535V6.49707L1.58203 3.24512C1.24453 3.1959 0.907031 3.13262 0.566016 3.05176C0.253125 2.98145 0 3.16074 0 3.47363V4.20488L4.5 6.94355H0V11.0568H4.70742L0 13.9221V14.5268C0 14.8396 0.253125 15.1666 0.566016 15.2404C0.671484 15.265 0.776953 15.2861 0.878906 15.3072L6.91875 11.6264V15.367C8.28984 15.2018 9.66094 14.9768 11.032 14.8115V11.5807L16.1965 14.7307C16.5938 14.7834 16.991 14.8537 17.3883 14.9486C17.7012 15.0225 17.9543 14.8432 17.9543 14.5303V13.8834L13.3172 11.0604H17.9543V6.94707H13.5246L17.9543 4.25059C17.9578 3.98691 17.9578 3.73027 17.9578 3.47363V3.47363Z" fill="#FF473E"/>
<path d="M14.516 11.3729L17.9578 13.4682V14.2908L13.166 11.3729H11.3625L17.1387 14.892C16.5551 14.7689 15.968 14.6916 15.3844 14.6459L11.352 12.192V14.7795C11.141 14.8041 10.9301 14.8287 10.7191 14.8568V10.7436H17.9578V11.3764H14.516V11.3729ZM6.60586 15.4088C6.8168 15.3842 7.02773 15.3596 7.23867 15.3314V10.74H0V11.3729H3.51211L0 13.5104V14.333L4.86211 11.3729H6.60586V11.408L0.411328 15.1803C0.460547 15.2049 0.513281 15.226 0.566016 15.24C0.84375 15.3033 1.12148 15.3596 1.39922 15.4053L6.60586 12.2342V15.4088V15.4088ZM0 6.62676V7.25957H7.23867V3.14629C7.02773 3.17441 6.8168 3.19902 6.60586 3.22363V5.89551L2.41523 3.34316C1.81055 3.29043 1.20586 3.20254 0.601172 3.06191L6.45469 6.62676H4.65117L0 3.79316V4.61582L3.30469 6.62676H0ZM11.352 2.59082C11.141 2.61543 10.9301 2.64004 10.7191 2.66816V7.25957H17.9578V6.62676H14.7234L17.9578 4.65801V3.83535L13.3734 6.62676H11.5699L17.6766 2.90723C17.5922 2.83691 17.4973 2.78418 17.3918 2.75957C17.1844 2.71035 16.9805 2.67168 16.773 2.63301L11.352 5.93418V2.59082Z" fill="#E8E8E8"/>
</g>
<defs>
<clipPath id="clip0_1347_16554">
<rect width="18" height="18" fill="white"/>
</clipPath>
</defs>
</svg>
