<svg width="762" height="598" viewBox="0 0 762 598" fill="none" xmlns="http://www.w3.org/2000/svg">
<path d="M19 84C19 75.1634 26.1634 68 35 68H712C720.837 68 728 75.1634 728 84V582C728 590.837 720.837 598 712 598H35C26.1634 598 19 590.837 19 582V84Z" fill="#775591"/>
<path fill-rule="evenodd" clip-rule="evenodd" d="M584.942 166.38C632.692 206.483 765.819 137.131 761.529 199.313C757.026 264.6 678.447 381.764 584.942 366.238C530.086 357.131 495.059 266.721 471.575 279.872C443.261 295.728 475.339 358.226 447.322 341.683C414.799 322.479 395.788 264.655 393.756 226.925C391.748 189.643 428.461 165.823 447.322 133.69C474.305 87.7196 474.161 -10.7865 526.049 1.53836C584.942 15.5273 538.517 127.388 584.942 166.38Z" fill="white"/>
<path d="M535.757 189.272C526.25 192.248 517.707 195.933 510.199 200.28C487.631 213.346 474.433 232.396 472.614 256.163C472.424 258.653 472.358 261.193 472.42 263.784C472.925 285.062 479.114 313.494 499.415 331.522C513.045 343.627 533.035 351.042 561.937 348.457C607.782 344.357 625.258 312.809 632.146 286.646C636.818 268.907 636.62 253.642 637.098 251.083C639.536 238.054 601.73 188.654 556.87 186.564C549.96 186.243 542.882 187.044 535.757 189.272Z" fill="white"/>
<path d="M472.42 263.784C472.358 261.193 472.424 258.653 472.614 256.163M472.42 263.784L472.614 256.163M472.42 263.784C476.079 268.3 484.073 279.194 486.776 286.646C491.561 289.469 501.132 297.822 501.132 308.66C501.132 319.499 498.881 319.385 497.754 317.974L499.415 331.522M472.42 263.784C472.925 285.062 479.114 313.494 499.415 331.522M472.614 256.163C475.927 255.034 483.398 253.454 486.776 256.163C490.998 259.55 507.888 247.696 507.044 245.156C506.199 242.616 512.956 218.908 507.044 216.367C502.315 214.335 507.176 204.796 510.199 200.28M472.614 256.163C474.433 232.396 487.631 213.346 510.199 200.28M499.415 331.522C513.045 343.627 533.035 351.042 561.937 348.457C607.782 344.357 625.258 312.809 632.146 286.646M510.199 200.28C517.707 195.933 526.25 192.248 535.757 189.272C542.882 187.044 549.96 186.243 556.87 186.564M510.199 200.28L556.87 186.564M556.87 186.564C601.73 188.654 639.536 238.054 637.098 251.083C636.62 253.642 636.818 268.907 632.146 286.646M556.87 186.564C552.365 190.571 544.202 199.941 547.58 205.36C550.958 210.779 551.803 220.037 551.803 223.988C546.736 224.552 537.109 226.528 539.135 229.915C541.162 233.302 545.609 235.278 547.58 235.842C545.047 236.406 540.318 238.044 541.669 240.076C543.02 242.108 542.795 245.439 542.513 246.85L540.824 254.47C539.698 255.881 538.46 258.873 542.513 259.55C546.567 260.228 550.396 257.574 551.803 256.163C554.054 257.293 559.572 259.212 563.626 257.857C568.693 256.163 580.516 251.083 586.428 254.47C591.157 257.18 588.961 255.034 587.272 253.623C589.806 252.777 595.38 251.591 597.406 253.623C599.94 256.163 610.919 267.171 612.608 267.171C614.297 267.171 627.194 286.646 632.146 286.646M527.312 270.558C525.623 272.815 522.752 279.194 524.779 286.646C527.312 295.96 522.245 299.346 524.779 302.733C527.312 306.12 535.757 310.354 539.135 308.66C542.513 306.967 546.736 316.281 547.58 326.442C548.425 336.602 550.958 341.683 553.492 342.529C556.026 343.376 570.382 305.274 577.138 308.66C583.894 312.047 597.406 279.872 582.205 270.558C567.004 261.244 553.492 261.244 551.803 263.784C550.114 266.324 529.846 266.324 527.312 267.171C525.285 267.848 526.468 269.711 527.312 270.558Z" stroke="black" stroke-linecap="round" stroke-linejoin="round"/>
<path d="M689.458 124.922C684.391 130.002 676.115 141.01 683.546 144.397C690.978 147.783 690.585 132.825 689.458 124.922Z" fill="#D47048"/>
<path d="M693.681 153.14C690.865 159.814 686.08 173.771 689.458 176.212C696.488 174.483 704.014 171.99 711.415 168.559C714.118 165.535 708.6 154.751 705.504 149.736C702.183 151.034 698.272 152.195 693.681 153.14Z" fill="white"/>
<path d="M705.504 149.736C708.6 154.75 714.118 165.534 711.415 168.559C718.753 165.155 725.966 160.828 732.449 155.404C732.385 149.985 720.651 146.089 714.794 144.818C712.404 146.551 709.351 148.234 705.504 149.736Z" fill="white"/>
<path d="M714.793 144.819C720.651 146.089 732.385 149.985 732.449 155.404C735.795 152.605 738.945 149.511 741.818 146.103C743.618 143.967 745.307 141.707 746.868 139.317C745.505 134.915 729.704 135.225 721.973 135.93C721.141 138.58 718.987 141.777 714.793 144.819Z" fill="white"/>
<path d="M751.952 130.001C746.885 128.308 733.88 126.614 722.394 133.388C722.394 134.148 722.264 135.005 721.974 135.928C729.704 135.223 745.505 134.913 746.868 139.315C748.768 136.406 750.474 133.305 751.952 130.001Z" fill="white"/>
<path d="M683.546 154.715C677.072 160.409 665.474 173.287 670.879 179.262C672.223 179.162 673.634 179.025 675.101 178.849C679.461 178.33 684.327 177.474 689.458 176.21C686.08 173.77 690.865 159.813 693.681 153.139C690.613 153.77 687.244 154.304 683.546 154.715Z" fill="white"/>
<path d="M675.101 155.404C668.063 160.767 654.327 172.678 655.678 177.419C656.147 179.064 662.081 179.927 670.879 179.263C665.474 173.289 677.073 160.41 683.547 154.717C680.903 155.011 678.091 155.243 675.101 155.404Z" fill="white"/>
<path fill-rule="evenodd" clip-rule="evenodd" d="M711.415 168.558C704.014 171.989 696.488 174.482 689.458 176.211C684.327 177.474 679.461 178.331 675.102 178.849C679.324 184.864 692.498 194.353 711.415 184.192C735.062 171.491 745.196 159.696 744.351 154.716C743.676 150.733 742.38 147.313 741.818 146.102C738.945 149.51 735.795 152.604 732.449 155.403C725.966 160.827 718.753 165.154 711.415 168.558ZM720.705 173.184C719.354 174.539 720.143 169.798 720.705 167.257L732.449 161.33V168.558C732.449 169.857 722.394 171.491 720.705 173.184Z" fill="white"/>
<path d="M720.705 167.257C720.142 169.797 719.354 174.539 720.705 173.184C722.394 171.491 732.449 169.857 732.449 168.558V161.33L720.705 167.257Z" fill="white"/>
<path fill-rule="evenodd" clip-rule="evenodd" d="M722.394 133.39C684.56 97.4883 675.102 133.107 675.102 155.404C678.091 155.244 680.903 155.012 683.547 154.717C687.244 154.305 690.614 153.772 693.681 153.14C698.272 152.195 702.183 151.034 705.504 149.736C709.351 148.235 712.404 146.552 714.794 144.819C718.987 141.777 721.141 138.58 721.974 135.93C722.264 135.007 722.394 134.15 722.394 133.39ZM689.458 124.922C684.391 130.003 676.115 141.01 683.547 144.397C690.978 147.784 690.585 132.825 689.458 124.922Z" fill="white"/>
<path d="M689.458 124.921L690.294 124.801C690.249 124.484 690.029 124.219 689.725 124.118C689.421 124.017 689.087 124.096 688.86 124.323L689.458 124.921ZM655.678 177.418L656.49 177.186L655.678 177.418ZM751.952 130.002L752.722 130.348C752.82 130.13 752.822 129.88 752.725 129.661C752.629 129.442 752.445 129.274 752.219 129.198L751.952 130.002ZM683.547 154.716L683.454 153.874L683.547 154.716ZM711.415 168.558L711.77 169.325L711.415 168.558ZM714.793 144.818L714.299 144.132L714.793 144.818ZM711.415 184.192L711.017 183.445L711.415 184.192ZM744.351 154.716L745.184 154.574L744.351 154.716ZM720.705 167.257L720.325 166.501C720.099 166.616 719.935 166.826 719.881 167.075L720.705 167.257ZM732.449 161.33H733.293C733.293 161.036 733.141 160.763 732.891 160.609C732.641 160.455 732.33 160.441 732.069 160.573L732.449 161.33ZM675.946 155.403C675.946 149.883 676.532 143.547 677.99 137.714C679.451 131.866 681.766 126.613 685.161 123.166C688.509 119.767 692.944 118.076 698.863 119.374C704.85 120.687 712.4 125.071 721.813 134.004L722.975 132.774C713.471 123.755 705.651 119.129 699.224 117.72C692.728 116.296 687.705 118.172 683.959 121.977C680.26 125.734 677.846 131.323 676.351 137.303C674.853 143.298 674.257 149.776 674.257 155.403H675.946ZM688.86 124.323C686.296 126.895 682.883 130.998 681.05 134.936C680.136 136.897 679.566 138.921 679.783 140.739C680.011 142.636 681.084 144.204 683.197 145.167L683.896 143.625C682.293 142.894 681.614 141.817 681.461 140.538C681.299 139.181 681.721 137.501 682.58 135.652C684.295 131.969 687.553 128.028 690.056 125.52L688.86 124.323ZM683.197 145.167C684.227 145.637 685.2 145.823 686.1 145.694C687.012 145.563 687.769 145.119 688.377 144.475C689.551 143.231 690.195 141.215 690.546 139.026C691.255 134.598 690.862 128.785 690.294 124.801L688.622 125.041C689.181 128.961 689.548 134.578 688.877 138.758C688.539 140.874 687.958 142.456 687.151 143.311C686.768 143.717 686.345 143.948 685.861 144.018C685.364 144.089 684.724 144.002 683.896 143.625L683.197 145.167ZM674.59 154.729C671.051 157.425 665.824 161.772 661.64 166.052C659.552 168.187 657.698 170.334 656.445 172.272C655.818 173.239 655.325 174.182 655.034 175.066C654.745 175.943 654.632 176.834 654.865 177.65L656.49 177.186C656.386 176.819 656.406 176.299 656.637 175.596C656.867 174.9 657.281 174.092 657.862 173.193C659.025 171.395 660.79 169.34 662.848 167.235C666.954 163.034 672.114 158.743 675.613 156.077L674.59 154.729ZM752.219 129.198C747.003 127.455 733.726 125.723 721.967 132.659L722.823 134.118C734.033 127.507 746.767 129.161 751.685 130.805L752.219 129.198ZM683.454 153.874C680.826 154.167 678.03 154.397 675.056 154.558L675.147 156.248C678.15 156.087 680.979 155.854 683.639 155.557L683.454 153.874ZM654.865 177.65C654.987 178.079 655.266 178.409 655.578 178.658C655.889 178.908 656.276 179.112 656.703 179.281C657.556 179.62 658.694 179.872 660.047 180.046C662.765 180.394 666.509 180.441 670.941 180.107L670.816 178.419C666.45 178.748 662.827 178.695 660.262 178.367C658.973 178.201 657.992 177.972 657.325 177.706C656.992 177.574 656.769 177.445 656.632 177.335C656.495 177.225 656.485 177.169 656.49 177.186L654.865 177.65ZM682.989 154.079C679.719 156.956 675.14 161.656 672.049 166.423C670.507 168.8 669.298 171.252 668.84 173.54C668.378 175.847 668.666 178.077 670.254 179.831L671.504 178.693C670.389 177.461 670.102 175.842 670.496 173.874C670.894 171.887 671.975 169.644 673.467 167.346C676.443 162.755 680.9 158.169 684.104 155.353L682.989 154.079ZM693.51 152.309C690.472 152.936 687.127 153.466 683.454 153.874L683.639 155.557C687.36 155.143 690.757 154.606 693.851 153.969L693.51 152.309ZM692.904 152.809C691.485 156.172 689.566 161.374 688.426 166.062C687.857 168.401 687.472 170.655 687.453 172.505C687.443 173.432 687.526 174.295 687.745 175.034C687.965 175.774 688.342 176.448 688.965 176.898L689.951 175.525C689.73 175.364 689.517 175.068 689.364 174.551C689.21 174.033 689.134 173.354 689.141 172.522C689.158 170.863 689.511 168.753 690.068 166.463C691.179 161.893 693.061 156.78 694.459 153.469L692.904 152.809ZM705.198 148.948C701.926 150.225 698.06 151.375 693.51 152.309L693.851 153.969C698.481 153.016 702.44 151.84 705.81 150.525L705.198 148.948ZM689.659 177.034C696.734 175.293 704.313 172.783 711.77 169.325L711.061 167.789C703.715 171.195 696.241 173.671 689.257 175.389L689.659 177.034ZM704.786 150.182C706.316 152.662 708.443 156.562 709.846 160.199C710.551 162.02 711.056 163.735 711.23 165.149C711.409 166.611 711.206 167.523 710.787 167.992L712.044 169.122C712.976 168.079 713.098 166.511 712.905 164.943C712.708 163.329 712.147 161.466 711.422 159.588C709.968 155.822 707.787 151.825 706.222 149.29L704.786 150.182ZM714.299 144.132C711.974 145.817 708.988 147.467 705.198 148.948L705.81 150.525C709.716 149 712.832 147.285 715.288 145.504L714.299 144.132ZM711.77 169.325C719.163 165.898 726.441 161.534 732.989 156.054L731.907 154.753C725.492 160.123 718.344 164.411 711.061 167.789L711.77 169.325ZM714.614 145.645C717.501 146.271 721.828 147.544 725.421 149.315C727.22 150.201 728.79 151.192 729.903 152.255C731.022 153.324 731.591 154.38 731.604 155.413L733.293 155.393C733.273 153.717 732.352 152.255 731.069 151.029C729.782 149.798 728.04 148.719 726.166 147.795C722.413 145.945 717.943 144.635 714.972 143.99L714.614 145.645ZM721.55 133.388C721.55 134.053 721.436 134.824 721.169 135.674L722.779 136.183C723.093 135.187 723.239 134.245 723.239 133.388H721.55ZM721.169 135.674C720.403 138.114 718.379 141.171 714.299 144.132L715.288 145.504C719.595 142.38 721.881 139.043 722.779 136.183L721.169 135.674ZM747.576 139.779C749.498 136.834 751.227 133.694 752.722 130.348L751.182 129.655C749.722 132.918 748.037 135.98 746.162 138.852L747.576 139.779ZM722.051 136.772C725.887 136.422 731.721 136.171 736.746 136.552C739.262 136.742 741.531 137.087 743.231 137.636C744.083 137.911 744.753 138.224 745.235 138.568C745.716 138.91 745.963 139.248 746.062 139.567L747.675 139.064C747.434 138.283 746.888 137.668 746.214 137.187C745.54 136.708 744.692 136.329 743.75 136.024C741.862 135.415 739.441 135.057 736.872 134.863C731.722 134.473 725.791 134.73 721.897 135.085L722.051 136.772ZM670.941 180.107C672.299 180.006 673.722 179.867 675.201 179.691L675.002 178.009C673.546 178.182 672.147 178.319 670.816 178.419L670.941 180.107ZM675.201 179.691C679.594 179.168 684.494 178.304 689.659 177.034L689.257 175.389C684.16 176.643 679.327 177.494 675.002 178.009L675.201 179.691ZM674.411 179.337C676.622 182.487 681.125 186.485 687.506 188.399C693.919 190.319 702.171 190.117 711.814 184.939L711.017 183.445C701.742 188.427 693.949 188.561 687.99 186.774C681.999 184.981 677.804 181.227 675.792 178.363L674.411 179.337ZM711.814 184.939C723.683 178.563 732.197 172.397 737.651 167.171C740.377 164.56 742.358 162.164 743.61 160.072C744.844 158.013 745.446 156.121 745.184 154.574L743.519 154.858C743.679 155.801 743.329 157.253 742.162 159.2C741.014 161.12 739.142 163.4 736.484 165.947C731.17 171.037 722.794 177.12 711.017 183.445L711.814 184.939ZM732.989 156.054C736.371 153.224 739.556 150.098 742.463 146.648L741.173 145.555C738.335 148.924 735.219 151.983 731.907 154.753L732.989 156.054ZM742.463 146.648C744.284 144.487 745.995 142.199 747.576 139.779L746.162 138.852C744.621 141.212 742.951 143.445 741.173 145.555L742.463 146.648ZM745.184 154.574C744.495 150.509 743.176 147.017 742.583 145.744L741.053 146.459C741.586 147.609 742.856 150.956 743.519 154.858L745.184 154.574ZM719.881 167.075C719.597 168.357 719.247 170.224 719.144 171.62C719.119 171.97 719.107 172.307 719.119 172.607C719.129 172.89 719.163 173.207 719.263 173.479C719.352 173.723 719.622 174.24 720.254 174.268C720.751 174.292 721.115 173.97 721.303 173.784L720.107 172.585C719.957 172.737 720.051 172.565 720.333 172.577C720.514 172.585 720.663 172.67 720.756 172.763C720.795 172.804 720.82 172.839 720.832 172.861C720.838 172.873 720.842 172.881 720.845 172.887C720.847 172.892 720.849 172.895 720.849 172.897C720.849 172.897 720.847 172.888 720.842 172.871C720.838 172.853 720.833 172.829 720.828 172.797C720.818 172.732 720.811 172.648 720.806 172.541C720.798 172.328 720.806 172.06 720.83 171.743C720.923 170.472 721.251 168.699 721.529 167.44L719.881 167.075ZM721.303 173.784C721.409 173.676 721.646 173.515 722.06 173.317C722.455 173.127 722.955 172.931 723.531 172.729C724.683 172.328 726.073 171.931 727.442 171.537C728.795 171.149 730.14 170.761 731.147 170.384C731.645 170.197 732.106 169.997 732.457 169.781C732.631 169.672 732.817 169.537 732.967 169.366C733.116 169.198 733.293 168.924 733.293 168.558H731.604C731.604 168.353 731.702 168.245 731.702 168.243C731.706 168.241 731.673 168.275 731.569 168.34C731.363 168.468 731.027 168.621 730.555 168.797C729.625 169.146 728.349 169.515 726.978 169.909C725.623 170.299 724.183 170.709 722.975 171.13C722.37 171.34 721.806 171.561 721.33 171.789C720.871 172.009 720.423 172.27 720.107 172.585L721.303 173.784ZM733.293 168.558C733.293 168.555 733.293 168.553 733.293 168.551C733.293 168.55 733.293 168.548 733.293 168.545C733.293 168.543 733.293 168.541 733.293 168.539C733.293 168.536 733.293 168.534 733.293 168.533C733.293 168.531 733.293 168.528 733.293 168.526C733.293 168.524 733.293 168.522 733.293 168.519C733.293 168.517 733.293 168.516 733.293 168.512C733.293 168.511 733.293 168.509 733.293 168.506C733.293 168.504 733.293 168.502 733.293 168.5C733.293 168.497 733.293 168.495 733.293 168.494C733.293 168.49 733.293 168.489 733.293 168.485C733.293 168.484 733.293 168.482 733.293 168.478C733.293 168.477 733.293 168.475 733.293 168.472C733.293 168.47 733.293 168.468 733.293 168.465C733.293 168.463 733.293 168.46 733.293 168.458C733.293 168.456 733.293 168.453 733.293 168.451C733.293 168.448 733.293 168.446 733.293 168.443C733.293 168.441 733.293 168.44 733.293 168.436C733.293 168.434 733.293 168.431 733.293 168.429C733.293 168.426 733.293 168.424 733.293 168.421C733.293 168.419 733.293 168.416 733.293 168.414C733.293 168.411 733.293 168.409 733.293 168.406C733.293 168.404 733.293 168.401 733.293 168.399C733.293 168.395 733.293 168.394 733.293 168.39C733.293 168.389 733.293 168.385 733.293 168.384C733.293 168.38 733.293 168.379 733.293 168.375C733.293 168.372 733.293 168.37 733.293 168.367C733.293 168.365 733.293 168.362 733.293 168.36C733.293 168.357 733.293 168.353 733.293 168.351C733.293 168.348 733.293 168.346 733.293 168.343C733.293 168.34 733.293 168.338 733.293 168.335C733.293 168.333 733.293 168.329 733.293 168.326C733.293 168.324 733.293 168.321 733.293 168.318C733.293 168.316 733.293 168.313 733.293 168.309C733.293 168.307 733.293 168.304 733.293 168.301C733.293 168.299 733.293 168.296 733.293 168.292C733.293 168.29 733.293 168.287 733.293 168.284C733.293 168.282 733.293 168.279 733.293 168.275C733.293 168.274 733.293 168.27 733.293 168.267C733.293 168.263 733.293 168.262 733.293 168.258C733.293 168.255 733.293 168.252 733.293 168.25C733.293 168.246 733.293 168.243 733.293 168.24C733.293 168.238 733.293 168.235 733.293 168.231C733.293 168.228 733.293 168.226 733.293 168.223C733.293 168.219 733.293 168.216 733.293 168.213C733.293 168.211 733.293 168.208 733.293 168.204C733.293 168.201 733.293 168.197 733.293 168.196C733.293 168.192 733.293 168.189 733.293 168.185C733.293 168.182 733.293 168.179 733.293 168.177C733.293 168.174 733.293 168.17 733.293 168.167C733.293 168.163 733.293 168.16 733.293 168.158C733.293 168.155 733.293 168.152 733.293 168.148C733.293 168.145 733.293 168.141 733.293 168.138C733.293 168.135 733.293 168.131 733.293 168.13C733.293 168.126 733.293 168.123 733.293 168.119C733.293 168.116 733.293 168.113 733.293 168.109C733.293 168.106 733.293 168.103 733.293 168.099C733.293 168.096 733.293 168.092 733.293 168.089C733.293 168.087 733.293 168.084 733.293 168.08C733.293 168.077 733.293 168.074 733.293 168.07C733.293 168.067 733.293 168.064 733.293 168.06C733.293 168.057 733.293 168.053 733.293 168.05C733.293 168.047 733.293 168.043 733.293 168.04C733.293 168.036 733.293 168.033 733.293 168.03C733.293 168.026 733.293 168.023 733.293 168.02C733.293 168.016 733.293 168.013 733.293 168.009C733.293 168.006 733.293 168.003 733.293 167.998C733.293 167.994 733.293 167.991 733.293 167.987C733.293 167.984 733.293 167.981 733.293 167.977C733.293 167.974 733.293 167.97 733.293 167.967C733.293 167.964 733.293 167.96 733.293 167.957C733.293 167.953 733.293 167.948 733.293 167.945C733.293 167.942 733.293 167.938 733.293 167.935C733.293 167.931 733.293 167.928 733.293 167.925C733.293 167.921 733.293 167.916 733.293 167.913C733.293 167.909 733.293 167.906 733.293 167.903C733.293 167.899 733.293 167.896 733.293 167.891C733.293 167.887 733.293 167.884 733.293 167.881C733.293 167.877 733.293 167.874 733.293 167.869C733.293 167.865 733.293 167.862 733.293 167.859C733.293 167.855 733.293 167.85 733.293 167.847C733.293 167.843 733.293 167.84 733.293 167.837C733.293 167.832 733.293 167.828 733.293 167.825C733.293 167.821 733.293 167.816 733.293 167.813C733.293 167.81 733.293 167.806 733.293 167.803C733.293 167.798 733.293 167.794 733.293 167.791C733.293 167.788 733.293 167.782 733.293 167.779C733.293 167.776 733.293 167.772 733.293 167.767C733.293 167.764 733.293 167.76 733.293 167.755C733.293 167.752 733.293 167.749 733.293 167.745C733.293 167.74 733.293 167.737 733.293 167.733C733.293 167.728 733.293 167.725 733.293 167.721C733.293 167.716 733.293 167.713 733.293 167.71C733.293 167.705 733.293 167.701 733.293 167.698C733.293 167.693 733.293 167.689 733.293 167.686C733.293 167.681 733.293 167.677 733.293 167.674C733.293 167.669 733.293 167.666 733.293 167.662C733.293 167.657 733.293 167.654 733.293 167.65C733.293 167.645 733.293 167.642 733.293 167.637C733.293 167.633 733.293 167.63 733.293 167.625C733.293 167.622 733.293 167.616 733.293 167.613C733.293 167.61 733.293 167.605 733.293 167.601C733.293 167.596 733.293 167.593 733.293 167.589C733.293 167.584 733.293 167.581 733.293 167.576C733.293 167.572 733.293 167.569 733.293 167.564C733.293 167.561 733.293 167.556 733.293 167.552C733.293 167.547 733.293 167.544 733.293 167.539C733.293 167.535 733.293 167.53 733.293 167.527C733.293 167.523 733.293 167.518 733.293 167.515C733.293 167.51 733.293 167.506 733.293 167.501C733.293 167.498 733.293 167.493 733.293 167.489C733.293 167.484 733.293 167.481 733.293 167.476C733.293 167.473 733.293 167.467 733.293 167.464C733.293 167.459 733.293 167.456 733.293 167.451C733.293 167.447 733.293 167.442 733.293 167.439C733.293 167.434 733.293 167.43 733.293 167.425C733.293 167.42 733.293 167.417 733.293 167.412C733.293 167.408 733.293 167.403 733.293 167.4C733.293 167.395 733.293 167.391 733.293 167.386C733.293 167.381 733.293 167.378 733.293 167.373C733.293 167.369 733.293 167.364 733.293 167.361C733.293 167.356 733.293 167.351 733.293 167.347C733.293 167.342 733.293 167.339 733.293 167.334C733.293 167.329 733.293 167.325 733.293 167.32C733.293 167.317 733.293 167.312 733.293 167.307C733.293 167.303 733.293 167.298 733.293 167.295C733.293 167.29 733.293 167.285 733.293 167.281C733.293 167.276 733.293 167.271 733.293 167.268C733.293 167.263 733.293 167.259 733.293 167.254C733.293 167.249 733.293 167.246 733.293 167.241C733.293 167.235 733.293 167.232 733.293 167.227C733.293 167.222 733.293 167.219 733.293 167.213C733.293 167.208 733.293 167.205 733.293 167.2C733.293 167.195 733.293 167.191 733.293 167.186C733.293 167.181 733.293 167.178 733.293 167.173C733.293 167.168 733.293 167.163 733.293 167.159C733.293 167.154 733.293 167.149 733.293 167.146C733.293 167.141 733.293 167.136 733.293 167.13C733.293 167.127 733.293 167.122 733.293 167.117C733.293 167.114 733.293 167.108 733.293 167.103C733.293 167.098 733.293 167.095 733.293 167.09C733.293 167.085 733.293 167.08 733.293 167.076C733.293 167.071 733.293 167.066 733.293 167.061C733.293 167.058 733.293 167.053 733.293 167.047C733.293 167.042 733.293 167.039 733.293 167.034C733.293 167.029 733.293 167.024 733.293 167.019C733.293 167.015 733.293 167.01 733.293 167.005C733.293 167 733.293 166.997 733.293 166.992C733.293 166.987 733.293 166.981 733.293 166.976C733.293 166.973 733.293 166.968 733.293 166.963C733.293 166.958 733.293 166.953 733.293 166.949C733.293 166.944 733.293 166.939 733.293 166.934C733.293 166.929 733.293 166.924 733.293 166.92C733.293 166.915 733.293 166.91 733.293 166.905C733.293 166.9 733.293 166.895 733.293 166.892C733.293 166.887 733.293 166.882 733.293 166.876C733.293 166.871 733.293 166.866 733.293 166.861C733.293 166.858 733.293 166.853 733.293 166.848C733.293 166.843 733.293 166.838 733.293 166.832C733.293 166.827 733.293 166.824 733.293 166.819C733.293 166.814 733.293 166.809 733.293 166.804C733.293 166.799 733.293 166.793 733.293 166.788C733.293 166.785 733.293 166.78 733.293 166.775C733.293 166.77 733.293 166.765 733.293 166.76C733.293 166.755 733.293 166.749 733.293 166.744C733.293 166.739 733.293 166.734 733.293 166.731C733.293 166.726 733.293 166.721 733.293 166.716C733.293 166.71 733.293 166.705 733.293 166.7C733.293 166.695 733.293 166.69 733.293 166.685C733.293 166.68 733.293 166.675 733.293 166.67C733.293 166.665 733.293 166.661 733.293 166.656C733.293 166.651 733.293 166.646 733.293 166.641C733.293 166.636 733.293 166.631 733.293 166.626C733.293 166.621 733.293 166.616 733.293 166.611C733.293 166.605 733.293 166.6 733.293 166.595C733.293 166.59 733.293 166.585 733.293 166.58C733.293 166.575 733.293 166.57 733.293 166.565C733.293 166.56 733.293 166.555 733.293 166.55C733.293 166.545 733.293 166.539 733.293 166.534C733.293 166.529 733.293 166.524 733.293 166.519C733.293 166.514 733.293 166.509 733.293 166.504C733.293 166.499 733.293 166.494 733.293 166.489C733.293 166.484 733.293 166.478 733.293 166.473C733.293 166.468 733.293 166.463 733.293 166.458C733.293 166.453 733.293 166.448 733.293 166.443C733.293 166.438 733.293 166.433 733.293 166.428C733.293 166.423 733.293 166.418 733.293 166.412C733.293 166.407 733.293 166.402 733.293 166.397C733.293 166.392 733.293 166.387 733.293 166.382C733.293 166.377 733.293 166.372 733.293 166.365C733.293 166.36 733.293 166.355 733.293 166.35C733.293 166.345 733.293 166.34 733.293 166.335C733.293 166.329 733.293 166.324 733.293 166.319C733.293 166.314 733.293 166.309 733.293 166.304C733.293 166.299 733.293 166.294 733.293 166.287C733.293 166.282 733.293 166.277 733.293 166.272C733.293 166.267 733.293 166.262 733.293 166.257C733.293 166.252 733.293 166.246 733.293 166.241C733.293 166.236 733.293 166.23 733.293 166.224C733.293 166.219 733.293 166.214 733.293 166.209C733.293 166.204 733.293 166.199 733.293 166.194C733.293 166.189 733.293 166.182 733.293 166.177C733.293 166.172 733.293 166.167 733.293 166.162C733.293 166.157 733.293 166.152 733.293 166.147C733.293 166.142 733.293 166.135 733.293 166.13C733.293 166.125 733.293 166.119 733.293 166.114C733.293 166.109 733.293 166.104 733.293 166.097C733.293 166.092 733.293 166.087 733.293 166.082C733.293 166.077 733.293 166.072 733.293 166.067C733.293 166.06 733.293 166.055 733.293 166.05C733.293 166.045 733.293 166.04 733.293 166.035C733.293 166.03 733.293 166.023 733.293 166.018C733.293 166.013 733.293 166.008 733.293 166.003C733.293 165.998 733.293 165.991 733.293 165.986C733.293 165.981 733.293 165.976 733.293 165.97C733.293 165.965 733.293 165.959 733.293 165.954C733.293 165.948 733.293 165.943 733.293 165.938C733.293 165.933 733.293 165.926 733.293 165.921C733.293 165.916 733.293 165.911 733.293 165.906C733.293 165.899 733.293 165.894 733.293 165.889C733.293 165.884 733.293 165.879 733.293 165.872C733.293 165.867 733.293 165.862 733.293 165.857C733.293 165.852 733.293 165.845 733.293 165.84C733.293 165.835 733.293 165.83 733.293 165.825C733.293 165.818 733.293 165.813 733.293 165.808C733.293 165.803 733.293 165.798 733.293 165.791C733.293 165.786 733.293 165.781 733.293 165.776C733.293 165.771 733.293 165.764 733.293 165.759C733.293 165.754 733.293 165.749 733.293 165.742C733.293 165.737 733.293 165.732 733.293 165.727C733.293 165.722 733.293 165.715 733.293 165.71C733.293 165.705 733.293 165.7 733.293 165.693C733.293 165.688 733.293 165.683 733.293 165.677C733.293 165.671 733.293 165.666 733.293 165.661C733.293 165.655 733.293 165.649 733.293 165.644C733.293 165.639 733.293 165.633 733.293 165.627C733.293 165.622 733.293 165.617 733.293 165.611C733.293 165.605 733.293 165.6 733.293 165.595C733.293 165.589 733.293 165.583 733.293 165.578C733.293 165.573 733.293 165.567 733.293 165.561C733.293 165.556 733.293 165.55 733.293 165.545C733.293 165.539 733.293 165.534 733.293 165.528C733.293 165.523 733.293 165.517 733.293 165.512C733.293 165.506 733.293 165.501 733.293 165.495C733.293 165.49 733.293 165.484 733.293 165.478C733.293 165.473 733.293 165.468 733.293 165.462C733.293 165.456 733.293 165.451 733.293 165.445C733.293 165.44 733.293 165.434 733.293 165.429C733.293 165.423 733.293 165.417 733.293 165.412C733.293 165.407 733.293 165.401 733.293 165.395C733.293 165.39 733.293 165.385 733.293 165.378C733.293 165.373 733.293 165.368 733.293 165.363C733.293 165.356 733.293 165.351 733.293 165.346C733.293 165.339 733.293 165.334 733.293 165.329C733.293 165.324 733.293 165.317 733.293 165.312C733.293 165.307 733.293 165.3 733.293 165.295C733.293 165.29 733.293 165.283 733.293 165.278C733.293 165.273 733.293 165.268 733.293 165.261C733.293 165.256 733.293 165.251 733.293 165.244C733.293 165.239 733.293 165.234 733.293 165.227C733.293 165.222 733.293 165.217 733.293 165.21C733.293 165.205 733.293 165.2 733.293 165.195C733.293 165.188 733.293 165.183 733.293 165.178C733.293 165.171 733.293 165.166 733.293 165.161C733.293 165.154 733.293 165.149 733.293 165.144C733.293 165.137 733.293 165.132 733.293 165.127C733.293 165.12 733.293 165.115 733.293 165.11C733.293 165.105 733.293 165.098 733.293 165.093C733.293 165.088 733.293 165.081 733.293 165.076C733.293 165.071 733.293 165.064 733.293 165.059C733.293 165.054 733.293 165.048 733.293 165.042C733.293 165.037 733.293 165.031 733.293 165.026C733.293 165.02 733.293 165.014 733.293 165.009C733.293 165.003 733.293 164.997 733.293 164.992C733.293 164.987 733.293 164.98 733.293 164.975C733.293 164.97 733.293 164.963 733.293 164.958C733.293 164.953 733.293 164.946 733.293 164.941C733.293 164.936 733.293 164.929 733.293 164.924C733.293 164.919 733.293 164.912 733.293 164.907C733.293 164.902 733.293 164.895 733.293 164.89C733.293 164.885 733.293 164.878 733.293 164.873C733.293 164.868 733.293 164.861 733.293 164.856C733.293 164.851 733.293 164.844 733.293 164.839C733.293 164.834 733.293 164.827 733.293 164.822C733.293 164.817 733.293 164.81 733.293 164.805C733.293 164.8 733.293 164.794 733.293 164.788C733.293 164.783 733.293 164.777 733.293 164.771C733.293 164.766 733.293 164.76 733.293 164.755C733.293 164.749 733.293 164.743 733.293 164.738C733.293 164.733 733.293 164.726 733.293 164.721C733.293 164.716 733.293 164.709 733.293 164.704C733.293 164.699 733.293 164.692 733.293 164.687C733.293 164.682 733.293 164.675 733.293 164.67C733.293 164.663 733.293 164.658 733.293 164.653C733.293 164.646 733.293 164.641 733.293 164.636C733.293 164.629 733.293 164.624 733.293 164.619C733.293 164.612 733.293 164.607 733.293 164.602C733.293 164.595 733.293 164.59 733.293 164.585C733.293 164.578 733.293 164.573 733.293 164.568C733.293 164.562 733.293 164.556 733.293 164.551C733.293 164.545 733.293 164.539 733.293 164.534C733.293 164.528 733.293 164.523 733.293 164.517C733.293 164.511 733.293 164.506 733.293 164.501C733.293 164.494 733.293 164.489 733.293 164.482C733.293 164.477 733.293 164.472 733.293 164.465C733.293 164.46 733.293 164.455 733.293 164.448C733.293 164.443 733.293 164.438 733.293 164.431C733.293 164.426 733.293 164.421 733.293 164.414C733.293 164.409 733.293 164.404 733.293 164.397C733.293 164.392 733.293 164.387 733.293 164.38C733.293 164.375 733.293 164.37 733.293 164.363C733.293 164.358 733.293 164.353 733.293 164.346C733.293 164.341 733.293 164.336 733.293 164.33C733.293 164.324 733.293 164.319 733.293 164.313C733.293 164.307 733.293 164.302 733.293 164.296C733.293 164.291 733.293 164.284 733.293 164.279C733.293 164.274 733.293 164.267 733.293 164.262C733.293 164.257 733.293 164.25 733.293 164.245C733.293 164.24 733.293 164.233 733.293 164.228C733.293 164.223 733.293 164.216 733.293 164.211C733.293 164.206 733.293 164.199 733.293 164.194C733.293 164.189 733.293 164.182 733.293 164.177C733.293 164.172 733.293 164.165 733.293 164.16C733.293 164.155 733.293 164.148 733.293 164.143C733.293 164.138 733.293 164.131 733.293 164.126C733.293 164.121 733.293 164.114 733.293 164.109C733.293 164.104 733.293 164.097 733.293 164.092C733.293 164.087 733.293 164.081 733.293 164.075C733.293 164.07 733.293 164.064 733.293 164.059C733.293 164.053 733.293 164.048 733.293 164.042C733.293 164.037 733.293 164.031 733.293 164.025C733.293 164.02 733.293 164.015 733.293 164.008C733.293 164.003 733.293 163.998 733.293 163.991C733.293 163.986 733.293 163.981 733.293 163.974C733.293 163.969 733.293 163.964 733.293 163.957C733.293 163.952 733.293 163.947 733.293 163.94C733.293 163.935 733.293 163.93 733.293 163.925C733.293 163.918 733.293 163.913 733.293 163.908C733.293 163.901 733.293 163.896 733.293 163.891C733.293 163.884 733.293 163.879 733.293 163.874C733.293 163.867 733.293 163.862 733.293 163.857C733.293 163.85 733.293 163.845 733.293 163.84C733.293 163.835 733.293 163.828 733.293 163.823C733.293 163.818 733.293 163.811 733.293 163.806C733.293 163.801 733.293 163.794 733.293 163.789C733.293 163.784 733.293 163.779 733.293 163.772C733.293 163.767 733.293 163.762 733.293 163.755C733.293 163.75 733.293 163.745 733.293 163.74C733.293 163.733 733.293 163.728 733.293 163.723C733.293 163.716 733.293 163.711 733.293 163.706C733.293 163.701 733.293 163.694 733.293 163.689C733.293 163.684 733.293 163.678 733.293 163.672C733.293 163.667 733.293 163.662 733.293 163.656C733.293 163.65 733.293 163.645 733.293 163.639C733.293 163.633 733.293 163.628 733.293 163.623C733.293 163.617 733.293 163.611 733.293 163.606C733.293 163.601 733.293 163.595 733.293 163.589C733.293 163.584 733.293 163.578 733.293 163.573C733.293 163.567 733.293 163.562 733.293 163.556C733.293 163.551 733.293 163.545 733.293 163.54C733.293 163.534 733.293 163.529 733.293 163.523C733.293 163.518 733.293 163.512 733.293 163.506C733.293 163.501 733.293 163.496 733.293 163.49C733.293 163.484 733.293 163.479 733.293 163.474C733.293 163.468 733.293 163.462 733.293 163.457C733.293 163.452 733.293 163.446 733.293 163.44C733.293 163.435 733.293 163.43 733.293 163.424C733.293 163.418 733.293 163.413 733.293 163.408C733.293 163.401 733.293 163.396 733.293 163.391C733.293 163.386 733.293 163.379 733.293 163.374C733.293 163.369 733.293 163.364 733.293 163.359C733.293 163.352 733.293 163.347 733.293 163.342C733.293 163.337 733.293 163.33 733.293 163.325C733.293 163.32 733.293 163.315 733.293 163.31C733.293 163.303 733.293 163.298 733.293 163.293C733.293 163.288 733.293 163.283 733.293 163.276C733.293 163.271 733.293 163.266 733.293 163.261C733.293 163.254 733.293 163.249 733.293 163.244C733.293 163.239 733.293 163.234 733.293 163.227C733.293 163.222 733.293 163.217 733.293 163.212C733.293 163.207 733.293 163.202 733.293 163.195C733.293 163.19 733.293 163.185 733.293 163.18C733.293 163.175 733.293 163.168 733.293 163.163C733.293 163.158 733.293 163.153 733.293 163.147C733.293 163.141 733.293 163.136 733.293 163.131C733.293 163.125 733.293 163.12 733.293 163.115C733.293 163.109 733.293 163.103 733.293 163.098C733.293 163.093 733.293 163.088 733.293 163.083C733.293 163.076 733.293 163.071 733.293 163.066C733.293 163.061 733.293 163.056 733.293 163.051C733.293 163.046 733.293 163.039 733.293 163.034C733.293 163.029 733.293 163.024 733.293 163.019C733.293 163.014 733.293 163.007 733.293 163.002C733.293 162.997 733.293 162.992 733.293 162.987C733.293 162.982 733.293 162.976 733.293 162.971C733.293 162.965 733.293 162.96 733.293 162.954C733.293 162.949 733.293 162.944 733.293 162.939C733.293 162.934 733.293 162.929 733.293 162.922C733.293 162.917 733.293 162.912 733.293 162.907C733.293 162.902 733.293 162.897 733.293 162.892C733.293 162.887 733.293 162.882 733.293 162.875C733.293 162.87 733.293 162.865 733.293 162.86C733.293 162.855 733.293 162.849 733.293 162.844C733.293 162.839 733.293 162.834 733.293 162.829C733.293 162.822 733.293 162.817 733.293 162.812C733.293 162.807 733.293 162.802 733.293 162.797C733.293 162.792 733.293 162.787 733.293 162.782C733.293 162.777 733.293 162.772 733.293 162.766C733.293 162.761 733.293 162.755 733.293 162.75C733.293 162.744 733.293 162.739 733.293 162.734C733.293 162.729 733.293 162.724 733.293 162.719C733.293 162.714 733.293 162.709 733.293 162.704C733.293 162.699 733.293 162.694 733.293 162.689C733.293 162.683 733.293 162.678 733.293 162.673C733.293 162.668 733.293 162.663 733.293 162.658C733.293 162.653 733.293 162.646 733.293 162.641C733.293 162.636 733.293 162.631 733.293 162.626C733.293 162.621 733.293 162.616 733.293 162.611C733.293 162.606 733.293 162.6 733.293 162.595C733.293 162.59 733.293 162.585 733.293 162.58C733.293 162.575 733.293 162.57 733.293 162.565C733.293 162.56 733.293 162.555 733.293 162.55C733.293 162.545 733.293 162.54 733.293 162.534C733.293 162.529 733.293 162.524 733.293 162.519C733.293 162.514 733.293 162.509 733.293 162.504C733.293 162.499 733.293 162.494 733.293 162.49C733.293 162.485 733.293 162.48 733.293 162.475C733.293 162.47 733.293 162.465 733.293 162.46C733.293 162.455 733.293 162.45 733.293 162.445C733.293 162.44 733.293 162.435 733.293 162.429C733.293 162.424 733.293 162.419 733.293 162.414C733.293 162.409 733.293 162.404 733.293 162.399C733.293 162.394 733.293 162.391 733.293 162.385C733.293 162.38 733.293 162.375 733.293 162.37C733.293 162.365 733.293 162.36 733.293 162.355C733.293 162.35 733.293 162.345 733.293 162.34C733.293 162.335 733.293 162.331 733.293 162.326C733.293 162.321 733.293 162.316 733.293 162.311C733.293 162.306 733.293 162.301 733.293 162.296C733.293 162.291 733.293 162.287 733.293 162.282C733.293 162.277 733.293 162.272 733.293 162.267C733.293 162.262 733.293 162.257 733.293 162.252C733.293 162.248 733.293 162.243 733.293 162.238C733.293 162.233 733.293 162.228 733.293 162.223C733.293 162.218 733.293 162.214 733.293 162.209C733.293 162.204 733.293 162.199 733.293 162.194C733.293 162.189 733.293 162.184 733.293 162.181C733.293 162.175 733.293 162.17 733.293 162.165C733.293 162.16 733.293 162.157 733.293 162.152C733.293 162.147 733.293 162.142 733.293 162.136C733.293 162.131 733.293 162.128 733.293 162.123C733.293 162.118 733.293 162.113 733.293 162.108C733.293 162.104 733.293 162.099 733.293 162.094C733.293 162.089 733.293 162.084 733.293 162.081C733.293 162.076 733.293 162.07 733.293 162.065C733.293 162.062 733.293 162.057 733.293 162.052C733.293 162.047 733.293 162.043 733.293 162.038C733.293 162.033 733.293 162.028 733.293 162.023C733.293 162.02 733.293 162.015 733.293 162.009C733.293 162.004 733.293 162.001 733.293 161.996C733.293 161.991 733.293 161.987 733.293 161.982C733.293 161.977 733.293 161.972 733.293 161.969C733.293 161.964 733.293 161.959 733.293 161.954C733.293 161.95 733.293 161.945 733.293 161.94C733.293 161.937 733.293 161.932 733.293 161.926C733.293 161.923 733.293 161.918 733.293 161.913C733.293 161.908 733.293 161.904 733.293 161.899C733.293 161.894 733.293 161.891 733.293 161.886C733.293 161.881 733.293 161.877 733.293 161.872C733.293 161.867 733.293 161.864 733.293 161.859C733.293 161.854 733.293 161.85 733.293 161.845C733.293 161.84 733.293 161.837 733.293 161.832C733.293 161.827 733.293 161.823 733.293 161.818C733.293 161.815 733.293 161.81 733.293 161.805C733.293 161.801 733.293 161.796 733.293 161.791C733.293 161.788 733.293 161.783 733.293 161.779C733.293 161.774 733.293 161.769 733.293 161.766C733.293 161.761 733.293 161.757 733.293 161.752C733.293 161.747 733.293 161.744 733.293 161.739C733.293 161.735 733.293 161.73 733.293 161.725C733.293 161.722 733.293 161.717 733.293 161.713C733.293 161.708 733.293 161.705 733.293 161.7C733.293 161.695 733.293 161.691 733.293 161.686C733.293 161.683 733.293 161.678 733.293 161.674C733.293 161.669 733.293 161.666 733.293 161.661C733.293 161.657 733.293 161.652 733.293 161.649C733.293 161.644 733.293 161.64 733.293 161.635C733.293 161.63 733.293 161.627 733.293 161.622C733.293 161.618 733.293 161.613 733.293 161.61C733.293 161.605 733.293 161.601 733.293 161.596C733.293 161.593 733.293 161.59 733.293 161.584C733.293 161.581 733.293 161.576 733.293 161.573C733.293 161.567 733.293 161.564 733.293 161.559C733.293 161.556 733.293 161.551 733.293 161.547C733.293 161.542 733.293 161.539 733.293 161.534C733.293 161.53 733.293 161.527 733.293 161.522C733.293 161.518 733.293 161.513 733.293 161.51C733.293 161.505 733.293 161.501 733.293 161.498C733.293 161.493 733.293 161.49 733.293 161.485C733.293 161.481 733.293 161.478 733.293 161.473C733.293 161.469 733.293 161.464 733.293 161.461C733.293 161.457 733.293 161.452 733.293 161.449C733.293 161.444 733.293 161.44 733.293 161.437C733.293 161.432 733.293 161.429 733.293 161.425C733.293 161.42 733.293 161.417 733.293 161.413C733.293 161.408 733.293 161.405 733.293 161.402C733.293 161.396 733.293 161.393 733.293 161.39C733.293 161.385 733.293 161.381 733.293 161.378C733.293 161.373 733.293 161.369 733.293 161.366C733.293 161.361 733.293 161.358 733.293 161.354C733.293 161.349 733.293 161.346 733.293 161.342C733.293 161.339 733.293 161.334 733.293 161.33H731.604C731.604 161.334 731.604 161.339 731.604 161.342C731.604 161.346 731.604 161.349 731.604 161.354C731.604 161.358 731.604 161.361 731.604 161.366C731.604 161.369 731.604 161.373 731.604 161.378C731.604 161.381 731.604 161.385 731.604 161.39C731.604 161.393 731.604 161.396 731.604 161.402C731.604 161.405 731.604 161.408 731.604 161.413C731.604 161.417 731.604 161.42 731.604 161.425C731.604 161.429 731.604 161.432 731.604 161.437C731.604 161.44 731.604 161.444 731.604 161.449C731.604 161.452 731.604 161.457 731.604 161.461C731.604 161.464 731.604 161.469 731.604 161.473C731.604 161.478 731.604 161.481 731.604 161.485C731.604 161.49 731.604 161.493 731.604 161.498C731.604 161.501 731.604 161.505 731.604 161.51C731.604 161.513 731.604 161.518 731.604 161.522C731.604 161.527 731.604 161.53 731.604 161.534C731.604 161.539 731.604 161.542 731.604 161.547C731.604 161.551 731.604 161.556 731.604 161.559C731.604 161.564 731.604 161.567 731.604 161.573C731.604 161.576 731.604 161.581 731.604 161.584C731.604 161.59 731.604 161.593 731.604 161.596C731.604 161.601 731.604 161.605 731.604 161.61C731.604 161.613 731.604 161.618 731.604 161.622C731.604 161.627 731.604 161.63 731.604 161.635C731.604 161.64 731.604 161.644 731.604 161.649C731.604 161.652 731.604 161.657 731.604 161.661C731.604 161.666 731.604 161.669 731.604 161.674C731.604 161.678 731.604 161.683 731.604 161.686C731.604 161.691 731.604 161.695 731.604 161.7C731.604 161.705 731.604 161.708 731.604 161.713C731.604 161.717 731.604 161.722 731.604 161.725C731.604 161.73 731.604 161.735 731.604 161.739C731.604 161.744 731.604 161.747 731.604 161.752C731.604 161.757 731.604 161.761 731.604 161.766C731.604 161.769 731.604 161.774 731.604 161.779C731.604 161.783 731.604 161.788 731.604 161.791C731.604 161.796 731.604 161.801 731.604 161.805C731.604 161.81 731.604 161.815 731.604 161.818C731.604 161.823 731.604 161.827 731.604 161.832C731.604 161.837 731.604 161.84 731.604 161.845C731.604 161.85 731.604 161.854 731.604 161.859C731.604 161.864 731.604 161.867 731.604 161.872C731.604 161.877 731.604 161.881 731.604 161.886C731.604 161.891 731.604 161.894 731.604 161.899C731.604 161.904 731.604 161.908 731.604 161.913C731.604 161.918 731.604 161.923 731.604 161.926C731.604 161.932 731.604 161.937 731.604 161.94C731.604 161.945 731.604 161.95 731.604 161.954C731.604 161.959 731.604 161.964 731.604 161.969C731.604 161.972 731.604 161.977 731.604 161.982C731.604 161.987 731.604 161.991 731.604 161.996C731.604 162.001 731.604 162.004 731.604 162.009C731.604 162.015 731.604 162.02 731.604 162.023C731.604 162.028 731.604 162.033 731.604 162.038C731.604 162.043 731.604 162.047 731.604 162.052C731.604 162.057 731.604 162.062 731.604 162.065C731.604 162.07 731.604 162.076 731.604 162.081C731.604 162.084 731.604 162.089 731.604 162.094C731.604 162.099 731.604 162.104 731.604 162.108C731.604 162.113 731.604 162.118 731.604 162.123C731.604 162.128 731.604 162.131 731.604 162.136C731.604 162.142 731.604 162.147 731.604 162.152C731.604 162.157 731.604 162.16 731.604 162.165C731.604 162.17 731.604 162.175 731.604 162.181C731.604 162.184 731.604 162.189 731.604 162.194C731.604 162.199 731.604 162.204 731.604 162.209C731.604 162.214 731.604 162.218 731.604 162.223C731.604 162.228 731.604 162.233 731.604 162.238C731.604 162.243 731.604 162.248 731.604 162.252C731.604 162.257 731.604 162.262 731.604 162.267C731.604 162.272 731.604 162.277 731.604 162.282C731.604 162.287 731.604 162.291 731.604 162.296C731.604 162.301 731.604 162.306 731.604 162.311C731.604 162.316 731.604 162.321 731.604 162.326C731.604 162.331 731.604 162.335 731.604 162.34C731.604 162.345 731.604 162.35 731.604 162.355C731.604 162.36 731.604 162.365 731.604 162.37C731.604 162.375 731.604 162.38 731.604 162.385C731.604 162.391 731.604 162.394 731.604 162.399C731.604 162.404 731.604 162.409 731.604 162.414C731.604 162.419 731.604 162.424 731.604 162.429C731.604 162.435 731.604 162.44 731.604 162.445C731.604 162.45 731.604 162.455 731.604 162.46C731.604 162.465 731.604 162.47 731.604 162.475C731.604 162.48 731.604 162.485 731.604 162.49C731.604 162.494 731.604 162.499 731.604 162.504C731.604 162.509 731.604 162.514 731.604 162.519C731.604 162.524 731.604 162.529 731.604 162.534C731.604 162.54 731.604 162.545 731.604 162.55C731.604 162.555 731.604 162.56 731.604 162.565C731.604 162.57 731.604 162.575 731.604 162.58C731.604 162.585 731.604 162.59 731.604 162.595C731.604 162.6 731.604 162.606 731.604 162.611C731.604 162.616 731.604 162.621 731.604 162.626C731.604 162.631 731.604 162.636 731.604 162.641C731.604 162.646 731.604 162.653 731.604 162.658C731.604 162.663 731.604 162.668 731.604 162.673C731.604 162.678 731.604 162.683 731.604 162.689C731.604 162.694 731.604 162.699 731.604 162.704C731.604 162.709 731.604 162.714 731.604 162.719C731.604 162.724 731.604 162.729 731.604 162.734C731.604 162.739 731.604 162.744 731.604 162.75C731.604 162.755 731.604 162.761 731.604 162.766C731.604 162.772 731.604 162.777 731.604 162.782C731.604 162.787 731.604 162.792 731.604 162.797C731.604 162.802 731.604 162.807 731.604 162.812C731.604 162.817 731.604 162.822 731.604 162.829C731.604 162.834 731.604 162.839 731.604 162.844C731.604 162.849 731.604 162.855 731.604 162.86C731.604 162.865 731.604 162.87 731.604 162.875C731.604 162.882 731.604 162.887 731.604 162.892C731.604 162.897 731.604 162.902 731.604 162.907C731.604 162.912 731.604 162.917 731.604 162.922C731.604 162.929 731.604 162.934 731.604 162.939C731.604 162.944 731.604 162.949 731.604 162.954C731.604 162.96 731.604 162.965 731.604 162.971C731.604 162.976 731.604 162.982 731.604 162.987C731.604 162.992 731.604 162.997 731.604 163.002C731.604 163.007 731.604 163.014 731.604 163.019C731.604 163.024 731.604 163.029 731.604 163.034C731.604 163.039 731.604 163.046 731.604 163.051C731.604 163.056 731.604 163.061 731.604 163.066C731.604 163.071 731.604 163.076 731.604 163.083C731.604 163.088 731.604 163.093 731.604 163.098C731.604 163.103 731.604 163.109 731.604 163.115C731.604 163.12 731.604 163.125 731.604 163.131C731.604 163.136 731.604 163.141 731.604 163.147C731.604 163.153 731.604 163.158 731.604 163.163C731.604 163.168 731.604 163.175 731.604 163.18C731.604 163.185 731.604 163.19 731.604 163.195C731.604 163.202 731.604 163.207 731.604 163.212C731.604 163.217 731.604 163.222 731.604 163.227C731.604 163.234 731.604 163.239 731.604 163.244C731.604 163.249 731.604 163.254 731.604 163.261C731.604 163.266 731.604 163.271 731.604 163.276C731.604 163.283 731.604 163.288 731.604 163.293C731.604 163.298 731.604 163.303 731.604 163.31C731.604 163.315 731.604 163.32 731.604 163.325C731.604 163.33 731.604 163.337 731.604 163.342C731.604 163.347 731.604 163.352 731.604 163.359C731.604 163.364 731.604 163.369 731.604 163.374C731.604 163.379 731.604 163.386 731.604 163.391C731.604 163.396 731.604 163.401 731.604 163.408C731.604 163.413 731.604 163.418 731.604 163.424C731.604 163.43 731.604 163.435 731.604 163.44C731.604 163.446 731.604 163.452 731.604 163.457C731.604 163.462 731.604 163.468 731.604 163.474C731.604 163.479 731.604 163.484 731.604 163.49C731.604 163.496 731.604 163.501 731.604 163.506C731.604 163.512 731.604 163.518 731.604 163.523C731.604 163.529 731.604 163.534 731.604 163.54C731.604 163.545 731.604 163.551 731.604 163.556C731.604 163.562 731.604 163.567 731.604 163.573C731.604 163.578 731.604 163.584 731.604 163.589C731.604 163.595 731.604 163.601 731.604 163.606C731.604 163.611 731.604 163.617 731.604 163.623C731.604 163.628 731.604 163.633 731.604 163.639C731.604 163.645 731.604 163.65 731.604 163.656C731.604 163.662 731.604 163.667 731.604 163.672C731.604 163.678 731.604 163.684 731.604 163.689C731.604 163.694 731.604 163.701 731.604 163.706C731.604 163.711 731.604 163.716 731.604 163.723C731.604 163.728 731.604 163.733 731.604 163.74C731.604 163.745 731.604 163.75 731.604 163.755C731.604 163.762 731.604 163.767 731.604 163.772C731.604 163.779 731.604 163.784 731.604 163.789C731.604 163.794 731.604 163.801 731.604 163.806C731.604 163.811 731.604 163.818 731.604 163.823C731.604 163.828 731.604 163.835 731.604 163.84C731.604 163.845 731.604 163.85 731.604 163.857C731.604 163.862 731.604 163.867 731.604 163.874C731.604 163.879 731.604 163.884 731.604 163.891C731.604 163.896 731.604 163.901 731.604 163.908C731.604 163.913 731.604 163.918 731.604 163.925C731.604 163.93 731.604 163.935 731.604 163.94C731.604 163.947 731.604 163.952 731.604 163.957C731.604 163.964 731.604 163.969 731.604 163.974C731.604 163.981 731.604 163.986 731.604 163.991C731.604 163.998 731.604 164.003 731.604 164.008C731.604 164.015 731.604 164.02 731.604 164.025C731.604 164.031 731.604 164.037 731.604 164.042C731.604 164.048 731.604 164.053 731.604 164.059C731.604 164.064 731.604 164.07 731.604 164.075C731.604 164.081 731.604 164.087 731.604 164.092C731.604 164.097 731.604 164.104 731.604 164.109C731.604 164.114 731.604 164.121 731.604 164.126C731.604 164.131 731.604 164.138 731.604 164.143C731.604 164.148 731.604 164.155 731.604 164.16C731.604 164.165 731.604 164.172 731.604 164.177C731.604 164.182 731.604 164.189 731.604 164.194C731.604 164.199 731.604 164.206 731.604 164.211C731.604 164.216 731.604 164.223 731.604 164.228C731.604 164.233 731.604 164.24 731.604 164.245C731.604 164.25 731.604 164.257 731.604 164.262C731.604 164.267 731.604 164.274 731.604 164.279C731.604 164.284 731.604 164.291 731.604 164.296C731.604 164.302 731.604 164.307 731.604 164.313C731.604 164.319 731.604 164.324 731.604 164.33C731.604 164.336 731.604 164.341 731.604 164.346C731.604 164.353 731.604 164.358 731.604 164.363C731.604 164.37 731.604 164.375 731.604 164.38C731.604 164.387 731.604 164.392 731.604 164.397C731.604 164.404 731.604 164.409 731.604 164.414C731.604 164.421 731.604 164.426 731.604 164.431C731.604 164.438 731.604 164.443 731.604 164.448C731.604 164.455 731.604 164.46 731.604 164.465C731.604 164.472 731.604 164.477 731.604 164.482C731.604 164.489 731.604 164.494 731.604 164.501C731.604 164.506 731.604 164.511 731.604 164.517C731.604 164.523 731.604 164.528 731.604 164.534C731.604 164.539 731.604 164.545 731.604 164.551C731.604 164.556 731.604 164.562 731.604 164.568C731.604 164.573 731.604 164.578 731.604 164.585C731.604 164.59 731.604 164.595 731.604 164.602C731.604 164.607 731.604 164.612 731.604 164.619C731.604 164.624 731.604 164.629 731.604 164.636C731.604 164.641 731.604 164.646 731.604 164.653C731.604 164.658 731.604 164.663 731.604 164.67C731.604 164.675 731.604 164.682 731.604 164.687C731.604 164.692 731.604 164.699 731.604 164.704C731.604 164.709 731.604 164.716 731.604 164.721C731.604 164.726 731.604 164.733 731.604 164.738C731.604 164.743 731.604 164.749 731.604 164.755C731.604 164.76 731.604 164.766 731.604 164.771C731.604 164.777 731.604 164.783 731.604 164.788C731.604 164.794 731.604 164.8 731.604 164.805C731.604 164.81 731.604 164.817 731.604 164.822C731.604 164.827 731.604 164.834 731.604 164.839C731.604 164.844 731.604 164.851 731.604 164.856C731.604 164.861 731.604 164.868 731.604 164.873C731.604 164.878 731.604 164.885 731.604 164.89C731.604 164.895 731.604 164.902 731.604 164.907C731.604 164.912 731.604 164.919 731.604 164.924C731.604 164.929 731.604 164.936 731.604 164.941C731.604 164.946 731.604 164.953 731.604 164.958C731.604 164.963 731.604 164.97 731.604 164.975C731.604 164.98 731.604 164.987 731.604 164.992C731.604 164.997 731.604 165.003 731.604 165.009C731.604 165.014 731.604 165.02 731.604 165.026C731.604 165.031 731.604 165.037 731.604 165.042C731.604 165.048 731.604 165.054 731.604 165.059C731.604 165.064 731.604 165.071 731.604 165.076C731.604 165.081 731.604 165.088 731.604 165.093C731.604 165.098 731.604 165.105 731.604 165.11C731.604 165.115 731.604 165.12 731.604 165.127C731.604 165.132 731.604 165.137 731.604 165.144C731.604 165.149 731.604 165.154 731.604 165.161C731.604 165.166 731.604 165.171 731.604 165.178C731.604 165.183 731.604 165.188 731.604 165.195C731.604 165.2 731.604 165.205 731.604 165.21C731.604 165.217 731.604 165.222 731.604 165.227C731.604 165.234 731.604 165.239 731.604 165.244C731.604 165.251 731.604 165.256 731.604 165.261C731.604 165.268 731.604 165.273 731.604 165.278C731.604 165.283 731.604 165.29 731.604 165.295C731.604 165.3 731.604 165.307 731.604 165.312C731.604 165.317 731.604 165.324 731.604 165.329C731.604 165.334 731.604 165.339 731.604 165.346C731.604 165.351 731.604 165.356 731.604 165.363C731.604 165.368 731.604 165.373 731.604 165.378C731.604 165.385 731.604 165.39 731.604 165.395C731.604 165.401 731.604 165.407 731.604 165.412C731.604 165.417 731.604 165.423 731.604 165.429C731.604 165.434 731.604 165.44 731.604 165.445C731.604 165.451 731.604 165.456 731.604 165.462C731.604 165.468 731.604 165.473 731.604 165.478C731.604 165.484 731.604 165.49 731.604 165.495C731.604 165.501 731.604 165.506 731.604 165.512C731.604 165.517 731.604 165.523 731.604 165.528C731.604 165.534 731.604 165.539 731.604 165.545C731.604 165.55 731.604 165.556 731.604 165.561C731.604 165.567 731.604 165.573 731.604 165.578C731.604 165.583 731.604 165.589 731.604 165.595C731.604 165.6 731.604 165.605 731.604 165.611C731.604 165.617 731.604 165.622 731.604 165.627C731.604 165.633 731.604 165.639 731.604 165.644C731.604 165.649 731.604 165.655 731.604 165.661C731.604 165.666 731.604 165.671 731.604 165.677C731.604 165.683 731.604 165.688 731.604 165.693C731.604 165.7 731.604 165.705 731.604 165.71C731.604 165.715 731.604 165.722 731.604 165.727C731.604 165.732 731.604 165.737 731.604 165.742C731.604 165.749 731.604 165.754 731.604 165.759C731.604 165.764 731.604 165.771 731.604 165.776C731.604 165.781 731.604 165.786 731.604 165.791C731.604 165.798 731.604 165.803 731.604 165.808C731.604 165.813 731.604 165.818 731.604 165.825C731.604 165.83 731.604 165.835 731.604 165.84C731.604 165.845 731.604 165.852 731.604 165.857C731.604 165.862 731.604 165.867 731.604 165.872C731.604 165.879 731.604 165.884 731.604 165.889C731.604 165.894 731.604 165.899 731.604 165.906C731.604 165.911 731.604 165.916 731.604 165.921C731.604 165.926 731.604 165.933 731.604 165.938C731.604 165.943 731.604 165.948 731.604 165.954C731.604 165.959 731.604 165.965 731.604 165.97C731.604 165.976 731.604 165.981 731.604 165.986C731.604 165.991 731.604 165.998 731.604 166.003C731.604 166.008 731.604 166.013 731.604 166.018C731.604 166.023 731.604 166.03 731.604 166.035C731.604 166.04 731.604 166.045 731.604 166.05C731.604 166.055 731.604 166.06 731.604 166.067C731.604 166.072 731.604 166.077 731.604 166.082C731.604 166.087 731.604 166.092 731.604 166.097C731.604 166.104 731.604 166.109 731.604 166.114C731.604 166.119 731.604 166.125 731.604 166.13C731.604 166.135 731.604 166.142 731.604 166.147C731.604 166.152 731.604 166.157 731.604 166.162C731.604 166.167 731.604 166.172 731.604 166.177C731.604 166.182 731.604 166.189 731.604 166.194C731.604 166.199 731.604 166.204 731.604 166.209C731.604 166.214 731.604 166.219 731.604 166.224C731.604 166.23 731.604 166.236 731.604 166.241C731.604 166.246 731.604 166.252 731.604 166.257C731.604 166.262 731.604 166.267 731.604 166.272C731.604 166.277 731.604 166.282 731.604 166.287C731.604 166.294 731.604 166.299 731.604 166.304C731.604 166.309 731.604 166.314 731.604 166.319C731.604 166.324 731.604 166.329 731.604 166.335C731.604 166.34 731.604 166.345 731.604 166.35C731.604 166.355 731.604 166.36 731.604 166.365C731.604 166.372 731.604 166.377 731.604 166.382C731.604 166.387 731.604 166.392 731.604 166.397C731.604 166.402 731.604 166.407 731.604 166.412C731.604 166.418 731.604 166.423 731.604 166.428C731.604 166.433 731.604 166.438 731.604 166.443C731.604 166.448 731.604 166.453 731.604 166.458C731.604 166.463 731.604 166.468 731.604 166.473C731.604 166.478 731.604 166.484 731.604 166.489C731.604 166.494 731.604 166.499 731.604 166.504C731.604 166.509 731.604 166.514 731.604 166.519C731.604 166.524 731.604 166.529 731.604 166.534C731.604 166.539 731.604 166.545 731.604 166.55C731.604 166.555 731.604 166.56 731.604 166.565C731.604 166.57 731.604 166.575 731.604 166.58C731.604 166.585 731.604 166.59 731.604 166.595C731.604 166.6 731.604 166.605 731.604 166.611C731.604 166.616 731.604 166.621 731.604 166.626C731.604 166.631 731.604 166.636 731.604 166.641C731.604 166.646 731.604 166.651 731.604 166.656C731.604 166.661 731.604 166.665 731.604 166.67C731.604 166.675 731.604 166.68 731.604 166.685C731.604 166.69 731.604 166.695 731.604 166.7C731.604 166.705 731.604 166.71 731.604 166.716C731.604 166.721 731.604 166.726 731.604 166.731C731.604 166.734 731.604 166.739 731.604 166.744C731.604 166.749 731.604 166.755 731.604 166.76C731.604 166.765 731.604 166.77 731.604 166.775C731.604 166.78 731.604 166.785 731.604 166.788C731.604 166.793 731.604 166.799 731.604 166.804C731.604 166.809 731.604 166.814 731.604 166.819C731.604 166.824 731.604 166.827 731.604 166.832C731.604 166.838 731.604 166.843 731.604 166.848C731.604 166.853 731.604 166.858 731.604 166.861C731.604 166.866 731.604 166.871 731.604 166.876C731.604 166.882 731.604 166.887 731.604 166.892C731.604 166.895 731.604 166.9 731.604 166.905C731.604 166.91 731.604 166.915 731.604 166.92C731.604 166.924 731.604 166.929 731.604 166.934C731.604 166.939 731.604 166.944 731.604 166.949C731.604 166.953 731.604 166.958 731.604 166.963C731.604 166.968 731.604 166.973 731.604 166.976C731.604 166.981 731.604 166.987 731.604 166.992C731.604 166.997 731.604 167 731.604 167.005C731.604 167.01 731.604 167.015 731.604 167.019C731.604 167.024 731.604 167.029 731.604 167.034C731.604 167.039 731.604 167.042 731.604 167.047C731.604 167.053 731.604 167.058 731.604 167.061C731.604 167.066 731.604 167.071 731.604 167.076C731.604 167.08 731.604 167.085 731.604 167.09C731.604 167.095 731.604 167.098 731.604 167.103C731.604 167.108 731.604 167.114 731.604 167.117C731.604 167.122 731.604 167.127 731.604 167.13C731.604 167.136 731.604 167.141 731.604 167.146C731.604 167.149 731.604 167.154 731.604 167.159C731.604 167.163 731.604 167.168 731.604 167.173C731.604 167.178 731.604 167.181 731.604 167.186C731.604 167.191 731.604 167.195 731.604 167.2C731.604 167.205 731.604 167.208 731.604 167.213C731.604 167.219 731.604 167.222 731.604 167.227C731.604 167.232 731.604 167.235 731.604 167.241C731.604 167.246 731.604 167.249 731.604 167.254C731.604 167.259 731.604 167.263 731.604 167.268C731.604 167.271 731.604 167.276 731.604 167.281C731.604 167.285 731.604 167.29 731.604 167.295C731.604 167.298 731.604 167.303 731.604 167.307C731.604 167.312 731.604 167.317 731.604 167.32C731.604 167.325 731.604 167.329 731.604 167.334C731.604 167.339 731.604 167.342 731.604 167.347C731.604 167.351 731.604 167.356 731.604 167.361C731.604 167.364 731.604 167.369 731.604 167.373C731.604 167.378 731.604 167.381 731.604 167.386C731.604 167.391 731.604 167.395 731.604 167.4C731.604 167.403 731.604 167.408 731.604 167.412C731.604 167.417 731.604 167.42 731.604 167.425C731.604 167.43 731.604 167.434 731.604 167.439C731.604 167.442 731.604 167.447 731.604 167.451C731.604 167.456 731.604 167.459 731.604 167.464C731.604 167.467 731.604 167.473 731.604 167.476C731.604 167.481 731.604 167.484 731.604 167.489C731.604 167.493 731.604 167.498 731.604 167.501C731.604 167.506 731.604 167.51 731.604 167.515C731.604 167.518 731.604 167.523 731.604 167.527C731.604 167.53 731.604 167.535 731.604 167.539C731.604 167.544 731.604 167.547 731.604 167.552C731.604 167.556 731.604 167.561 731.604 167.564C731.604 167.569 731.604 167.572 731.604 167.576C731.604 167.581 731.604 167.584 731.604 167.589C731.604 167.593 731.604 167.596 731.604 167.601C731.604 167.605 731.604 167.61 731.604 167.613C731.604 167.616 731.604 167.622 731.604 167.625C731.604 167.63 731.604 167.633 731.604 167.637C731.604 167.642 731.604 167.645 731.604 167.65C731.604 167.654 731.604 167.657 731.604 167.662C731.604 167.666 731.604 167.669 731.604 167.674C731.604 167.677 731.604 167.681 731.604 167.686C731.604 167.689 731.604 167.693 731.604 167.698C731.604 167.701 731.604 167.705 731.604 167.71C731.604 167.713 731.604 167.716 731.604 167.721C731.604 167.725 731.604 167.728 731.604 167.733C731.604 167.737 731.604 167.74 731.604 167.745C731.604 167.749 731.604 167.752 731.604 167.755C731.604 167.76 731.604 167.764 731.604 167.767C731.604 167.772 731.604 167.776 731.604 167.779C731.604 167.782 731.604 167.788 731.604 167.791C731.604 167.794 731.604 167.798 731.604 167.803C731.604 167.806 731.604 167.81 731.604 167.813C731.604 167.816 731.604 167.821 731.604 167.825C731.604 167.828 731.604 167.832 731.604 167.837C731.604 167.84 731.604 167.843 731.604 167.847C731.604 167.85 731.604 167.855 731.604 167.859C731.604 167.862 731.604 167.865 731.604 167.869C731.604 167.874 731.604 167.877 731.604 167.881C731.604 167.884 731.604 167.887 731.604 167.891C731.604 167.896 731.604 167.899 731.604 167.903C731.604 167.906 731.604 167.909 731.604 167.913C731.604 167.916 731.604 167.921 731.604 167.925C731.604 167.928 731.604 167.931 731.604 167.935C731.604 167.938 731.604 167.942 731.604 167.945C731.604 167.948 731.604 167.953 731.604 167.957C731.604 167.96 731.604 167.964 731.604 167.967C731.604 167.97 731.604 167.974 731.604 167.977C731.604 167.981 731.604 167.984 731.604 167.987C731.604 167.991 731.604 167.994 731.604 167.998C731.604 168.003 731.604 168.006 731.604 168.009C731.604 168.013 731.604 168.016 731.604 168.02C731.604 168.023 731.604 168.026 731.604 168.03C731.604 168.033 731.604 168.036 731.604 168.04C731.604 168.043 731.604 168.047 731.604 168.05C731.604 168.053 731.604 168.057 731.604 168.06C731.604 168.064 731.604 168.067 731.604 168.07C731.604 168.074 731.604 168.077 731.604 168.08C731.604 168.084 731.604 168.087 731.604 168.089C731.604 168.092 731.604 168.096 731.604 168.099C731.604 168.103 731.604 168.106 731.604 168.109C731.604 168.113 731.604 168.116 731.604 168.119C731.604 168.123 731.604 168.126 731.604 168.13C731.604 168.131 731.604 168.135 731.604 168.138C731.604 168.141 731.604 168.145 731.604 168.148C731.604 168.152 731.604 168.155 731.604 168.158C731.604 168.16 731.604 168.163 731.604 168.167C731.604 168.17 731.604 168.174 731.604 168.177C731.604 168.179 731.604 168.182 731.604 168.185C731.604 168.189 731.604 168.192 731.604 168.196C731.604 168.197 731.604 168.201 731.604 168.204C731.604 168.208 731.604 168.211 731.604 168.213C731.604 168.216 731.604 168.219 731.604 168.223C731.604 168.226 731.604 168.228 731.604 168.231C731.604 168.235 731.604 168.238 731.604 168.24C731.604 168.243 731.604 168.246 731.604 168.25C731.604 168.252 731.604 168.255 731.604 168.258C731.604 168.262 731.604 168.263 731.604 168.267C731.604 168.27 731.604 168.274 731.604 168.275C731.604 168.279 731.604 168.282 731.604 168.284C731.604 168.287 731.604 168.29 731.604 168.292C731.604 168.296 731.604 168.299 731.604 168.301C731.604 168.304 731.604 168.307 731.604 168.309C731.604 168.313 731.604 168.316 731.604 168.318C731.604 168.321 731.604 168.324 731.604 168.326C731.604 168.329 731.604 168.333 731.604 168.335C731.604 168.338 731.604 168.34 731.604 168.343C731.604 168.346 731.604 168.348 731.604 168.351C731.604 168.353 731.604 168.357 731.604 168.36C731.604 168.362 731.604 168.365 731.604 168.367C731.604 168.37 731.604 168.372 731.604 168.375C731.604 168.379 731.604 168.38 731.604 168.384C731.604 168.385 731.604 168.389 731.604 168.39C731.604 168.394 731.604 168.395 731.604 168.399C731.604 168.401 731.604 168.404 731.604 168.406C731.604 168.409 731.604 168.411 731.604 168.414C731.604 168.416 731.604 168.419 731.604 168.421C731.604 168.424 731.604 168.426 731.604 168.429C731.604 168.431 731.604 168.434 731.604 168.436C731.604 168.44 731.604 168.441 731.604 168.443C731.604 168.446 731.604 168.448 731.604 168.451C731.604 168.453 731.604 168.456 731.604 168.458C731.604 168.46 731.604 168.463 731.604 168.465C731.604 168.468 731.604 168.47 731.604 168.472C731.604 168.475 731.604 168.477 731.604 168.478C731.604 168.482 731.604 168.484 731.604 168.485C731.604 168.489 731.604 168.49 731.604 168.494C731.604 168.495 731.604 168.497 731.604 168.5C731.604 168.502 731.604 168.504 731.604 168.506C731.604 168.509 731.604 168.511 731.604 168.512C731.604 168.516 731.604 168.517 731.604 168.519C731.604 168.522 731.604 168.524 731.604 168.526C731.604 168.528 731.604 168.531 731.604 168.533C731.604 168.534 731.604 168.536 731.604 168.539C731.604 168.541 731.604 168.543 731.604 168.545C731.604 168.548 731.604 168.55 731.604 168.551C731.604 168.553 731.604 168.555 731.604 168.558H733.293ZM732.069 160.573L720.325 166.501L721.085 168.014L732.827 162.087L732.069 160.573ZM731.604 161.33V168.558H733.293V161.33H731.604Z" fill="black"/>
<path fill-rule="evenodd" clip-rule="evenodd" d="M584.739 67.3437C582.768 68.1905 577.476 70.2226 572.071 71.5774C570.149 72.0591 568.812 71.6271 567.898 70.7306C568.163 79.1979 569.369 95.7937 572.071 94.4389C575.428 92.7562 575.042 91.281 574.902 90.7438L574.899 90.7338C575.095 91.4786 575.282 92.1609 575.45 92.7455C571.396 102.906 577.139 106.575 580.517 107.14L584.739 112.22L588.117 109.68L582.206 100.366L584.739 92.7455C587.555 92.1811 593.184 92.4068 593.184 97.8258C593.184 104.6 595.718 105.446 599.94 109.68C603.318 113.067 603.6 108.269 603.318 105.446C602.192 104.882 599.94 103.076 599.94 100.366C599.94 96.9791 595.718 90.2053 593.184 87.6651C590.651 85.125 588.962 71.5774 590.651 73.2708C592.002 74.6256 597.407 72.7064 599.94 71.5774C600.503 67.626 601.967 59.0458 603.318 56.3363C604.67 53.6268 602.756 50.6915 601.629 49.5625C598.814 49.5625 593.691 50.2399 595.718 52.9494C598.251 56.3363 595.718 63.9568 593.184 67.3437C591.157 70.0533 586.71 68.4728 584.739 67.3437ZM584.739 73.2708C584.739 74.6256 579.11 74.3998 576.294 74.1175C576.856 76.94 578.152 83.2622 578.828 85.9717C579.672 89.3586 582.206 86.8184 584.739 86.8184C587.273 86.8184 584.739 71.5774 584.739 73.2708Z" fill="white"/>
<path d="M582.205 43.6357C569.538 39.4021 563.626 44.4824 562.782 49.5628C561.937 54.6431 561.937 63.9571 566.16 63.9571C570.382 63.9571 582.205 69.1313 584.739 63.9571C582.036 65.3119 575.167 62.8281 572.071 61.4169C571.992 60.782 571.912 60.2215 571.833 59.7235L571.227 60.5702C570.382 60.8525 568.186 60.9089 566.16 58.8767C564.133 56.8446 567.567 53.5141 569.538 52.1029C568.862 48.716 577.701 45.0468 582.205 43.6357Z" fill="white"/>
<path d="M584.739 63.957C582.206 69.1312 570.383 63.957 566.16 63.957C565.979 65.9575 566.241 69.1065 567.898 70.7308C568.812 71.6273 570.149 72.0593 572.072 71.5776C577.476 70.2228 582.768 68.1907 584.739 67.3439C585.866 66.7795 587.442 65.3118 584.739 63.957Z" fill="white"/>
<path d="M576.294 74.1187C579.11 74.401 584.739 74.6267 584.739 73.272C584.739 71.5785 587.273 86.8196 584.739 86.8196C582.206 86.8196 579.672 89.3597 578.827 85.9728C578.152 83.2633 576.856 76.9412 576.294 74.1187Z" fill="white"/>
<path d="M584.739 63.9562C588.117 58.5937 592.34 47.0217 582.206 43.6348C577.701 45.0459 568.862 48.7151 569.538 52.102C569.601 52.4146 569.663 52.6949 569.726 52.9487C570.428 55.8097 571.131 55.2999 571.833 59.7225C571.913 60.2206 571.992 60.7811 572.072 61.416C575.168 62.8272 582.037 65.3109 584.739 63.9562Z" fill="#C0C0C0"/>
<path d="M569.725 52.9483C569.663 52.6944 569.6 52.4142 569.538 52.1016C567.567 53.5127 564.133 56.8432 566.16 58.8754C568.187 60.9075 570.382 60.8511 571.227 60.5688L571.833 59.7221C571.131 55.2995 570.428 55.8092 569.725 52.9483Z" fill="#0F0F0F"/>
<path d="M601.629 49.5619L602.227 48.9632C602.068 48.8044 601.854 48.7151 601.629 48.7151V49.5619ZM599.94 71.5767L600.283 72.3505C600.548 72.2321 600.736 71.985 600.776 71.6964L599.94 71.5767ZM603.318 105.446L604.159 105.361C604.129 105.072 603.955 104.818 603.696 104.688L603.318 105.446ZM584.739 92.7448L584.573 91.9145C584.276 91.9742 584.033 92.1889 583.938 92.4771L584.739 92.7448ZM582.205 100.365L581.405 100.098C581.324 100.339 581.356 100.605 581.493 100.82L582.205 100.365ZM588.117 109.679L588.624 110.357C588.977 110.091 589.066 109.598 588.83 109.225L588.117 109.679ZM584.739 112.22L584.09 112.762C584.378 113.108 584.886 113.167 585.246 112.897L584.739 112.22ZM580.516 107.139L581.165 106.597C581.035 106.441 580.854 106.337 580.655 106.304L580.516 107.139ZM575.449 92.7448L576.233 93.0593C576.302 92.8851 576.312 92.6927 576.262 92.5122L575.449 92.7448ZM573.716 78.6183C573.865 78.1746 573.625 77.6952 573.183 77.5473C572.74 77.3993 572.262 77.6391 572.115 78.0828L573.716 78.6183ZM576.294 74.1169L576.378 73.2744C576.111 73.2476 575.848 73.3493 575.669 73.5481C575.488 73.747 575.414 74.0197 575.466 74.283L576.294 74.1169ZM572.071 61.416L571.234 61.521C571.269 61.813 571.455 62.0651 571.722 62.1869L572.071 61.416ZM570.202 57.1627C570.658 57.263 571.107 56.9739 571.207 56.5172C571.308 56.0603 571.019 55.6088 570.563 55.5086L570.202 57.1627ZM571.227 60.5693L571.494 61.3725C571.663 61.3163 571.81 61.2081 571.913 61.0634L571.227 60.5693ZM585.453 64.4083C587.183 61.6621 589.161 57.2862 589.382 53.0995C589.494 50.9937 589.164 48.8818 588.078 47.0517C586.984 45.208 585.17 43.733 582.472 42.8316L581.939 44.4382C584.308 45.2302 585.768 46.4718 586.626 47.9179C587.492 49.3778 587.796 51.129 587.696 53.0097C587.495 56.7965 585.673 60.8878 584.024 63.504L585.453 64.4083ZM582.472 42.8316C576.015 40.6736 571.144 40.8431 567.724 42.3286C564.29 43.8206 562.417 46.6032 561.949 49.4227L563.614 49.7011C563.991 47.4401 565.496 45.1426 568.396 43.8825C571.31 42.6162 575.728 42.3623 581.939 44.4382L582.472 42.8316ZM561.949 49.4227C561.517 52.0223 561.297 55.7116 561.735 58.7839C561.952 60.3131 562.344 61.7676 563.011 62.8631C563.695 63.9862 564.726 64.8029 566.16 64.8029V63.1095C565.482 63.1095 564.928 62.7621 564.452 61.9799C563.959 61.1703 563.611 59.9788 563.407 58.5444C563 55.6896 563.202 52.1818 563.614 49.7011L561.949 49.4227ZM566.16 64.8029C567.099 64.8029 568.529 65.0983 570.298 65.5087C572.021 65.9087 574.009 66.4024 575.941 66.7312C577.866 67.0588 579.824 67.24 581.493 66.9754C583.18 66.7079 584.698 65.9589 585.497 64.3294L583.981 63.5831C583.513 64.5406 582.602 65.085 581.229 65.3027C579.837 65.5231 578.099 65.3809 576.225 65.0617C574.357 64.7438 572.44 64.2674 570.678 63.859C568.964 63.4609 567.332 63.1095 566.16 63.1095V64.8029ZM572.276 72.3982C577.735 71.0299 583.07 68.9812 585.072 68.1214L584.406 66.5648C582.466 67.3985 577.218 69.414 571.867 70.7552L572.276 72.3982ZM585.117 68.1004C585.453 67.9321 585.828 67.694 586.159 67.3956C586.482 67.104 586.816 66.7062 586.977 66.2081C587.153 65.6698 587.104 65.0774 586.749 64.5218C586.42 64.0041 585.86 63.5719 585.117 63.1989L584.361 64.7135C584.969 65.018 585.227 65.2773 585.325 65.4334C585.401 65.5516 585.394 65.6154 585.372 65.6838C585.337 65.7927 585.234 65.9523 585.029 66.1368C584.832 66.315 584.589 66.472 584.361 66.5858L585.117 68.1004ZM584.32 68.0782C585.372 68.6813 587.085 69.4081 588.838 69.623C590.583 69.8369 592.583 69.5585 593.86 67.8511L592.508 66.8351C591.759 67.8372 590.522 68.1233 589.043 67.9421C587.573 67.7619 586.077 67.1339 585.158 66.608L584.32 68.0782ZM593.86 67.8511C595.207 66.05 596.518 63.1858 597.174 60.3363C597.503 58.9062 597.675 57.4449 597.589 56.0965C597.505 54.7526 597.158 53.4627 596.393 52.4407L595.042 53.4568C595.544 54.1283 595.831 55.061 595.903 56.2044C595.976 57.3433 595.832 58.6338 595.528 59.9556C594.917 62.6097 593.694 65.2493 592.508 66.8351L593.86 67.8511ZM596.393 52.4407C596 51.9139 596.108 51.7254 596.133 51.6787C596.219 51.5185 596.505 51.2712 597.148 51.0342C598.388 50.5778 600.253 50.4086 601.629 50.4086V48.7151C600.19 48.7151 598.087 48.8847 596.567 49.4445C595.831 49.7153 595.04 50.1454 594.647 50.8743C594.194 51.7166 594.422 52.6289 595.042 53.4568L596.393 52.4407ZM601.031 50.1607C601.524 50.6538 602.21 51.5696 602.61 52.6514C603.009 53.7245 603.1 54.8776 602.563 55.957L604.073 56.7143C604.886 55.0842 604.696 53.415 604.195 52.0607C603.695 50.7153 602.86 49.599 602.227 48.9632L601.031 50.1607ZM602.563 55.957C601.828 57.4298 601.107 60.3673 600.506 63.3215C599.896 66.3189 599.388 69.4685 599.104 71.457L600.776 71.6964C601.057 69.7334 601.56 66.6174 602.161 63.6595C602.771 60.6585 603.457 57.951 604.073 56.7143L602.563 55.957ZM599.597 70.803C598.359 71.3544 596.424 72.0964 594.65 72.5325C593.76 72.7513 592.951 72.883 592.307 72.8891C591.617 72.8957 591.331 72.7552 591.248 72.6714L590.053 73.869C590.645 74.4625 591.542 74.59 592.324 74.5826C593.154 74.5746 594.106 74.41 595.054 74.1772C596.954 73.71 598.988 72.9281 600.283 72.3505L599.597 70.803ZM591.248 72.6714C591.091 72.5154 590.764 72.2416 590.301 72.2812C589.792 72.3247 589.529 72.7012 589.421 72.9079C589.306 73.1306 589.245 73.3858 589.206 73.6138C589.168 73.8542 589.144 74.1262 589.134 74.4163C589.092 75.5646 589.232 77.2384 589.499 79.0066C589.767 80.783 590.171 82.7037 590.674 84.3531C590.926 85.1777 591.206 85.9489 591.514 86.6066C591.816 87.2523 592.169 87.8442 592.586 88.2633L593.782 87.0657C593.566 86.8498 593.312 86.4627 593.044 85.8877C592.78 85.325 592.527 84.6342 592.289 83.858C591.816 82.3059 591.427 80.4692 591.169 78.7529C590.909 77.0283 590.784 75.4739 590.821 74.479C590.831 74.2332 590.848 74.0373 590.873 73.8901C590.899 73.731 590.924 73.6791 590.921 73.6886C590.916 73.6964 590.887 73.7525 590.814 73.815C590.733 73.8849 590.607 73.9547 590.444 73.9685C590.142 73.9945 589.999 73.8133 590.053 73.869L591.248 72.6714ZM592.586 88.2633C593.782 89.4609 595.427 91.7195 596.777 94.114C597.449 95.3054 598.035 96.5092 598.45 97.6094C598.873 98.7246 599.096 99.6702 599.096 100.365H600.785C600.785 99.3671 600.479 98.1959 600.03 97.0089C599.575 95.8071 598.949 94.5238 598.248 93.2808C596.853 90.8067 595.12 88.4083 593.782 87.0657L592.586 88.2633ZM599.096 100.365C599.096 101.967 599.763 103.28 600.553 104.247C601.339 105.207 602.279 105.872 602.94 106.203L603.696 104.688C603.23 104.455 602.482 103.935 601.861 103.173C601.242 102.419 600.785 101.473 600.785 100.365H599.096ZM602.477 105.53C602.545 106.202 602.578 106.988 602.541 107.732C602.502 108.491 602.394 109.138 602.219 109.572C602.132 109.786 602.048 109.9 601.991 109.954C601.948 109.993 601.928 109.997 601.903 109.997C601.783 110.002 601.357 109.902 600.538 109.081L599.342 110.278C600.212 111.15 601.087 111.721 601.962 111.69C602.96 111.654 603.509 110.888 603.784 110.21C604.065 109.515 604.186 108.645 604.227 107.817C604.269 106.973 604.232 106.101 604.159 105.361L602.477 105.53ZM600.538 109.081C599.469 108.009 598.493 107.138 597.68 106.376C596.856 105.601 596.191 104.931 595.66 104.204C594.635 102.803 594.029 101.091 594.029 97.8252H592.34C592.34 101.334 593 103.432 594.297 105.206C594.927 106.066 595.689 106.825 596.527 107.612C597.376 108.41 598.3 109.232 599.342 110.278L600.538 109.081ZM594.029 97.8252C594.029 96.3165 593.633 95.1028 592.939 94.1621C592.248 93.2271 591.308 92.6233 590.314 92.2487C588.355 91.51 586.07 91.6145 584.573 91.9145L584.904 93.5752C586.224 93.3106 588.161 93.2459 589.72 93.8337C590.485 94.1225 591.129 94.5558 591.581 95.1697C592.03 95.7776 592.34 96.6244 592.34 97.8252H594.029ZM583.938 92.4771L581.405 100.098L583.006 100.633L585.54 93.0126L583.938 92.4771ZM581.493 100.82L587.404 110.134L588.83 109.225L582.918 99.9108L581.493 100.82ZM587.61 109.002L584.232 111.542L585.246 112.897L588.624 110.357L587.61 109.002ZM585.388 111.677L581.165 106.597L579.868 107.681L584.09 112.762L585.388 111.677ZM580.655 106.304C579.147 106.052 577.115 105.1 575.921 103.105C574.745 101.142 574.27 97.979 576.233 93.0593L574.666 92.4304C572.575 97.6714 572.945 101.423 574.471 103.976C575.98 106.497 578.508 107.662 580.378 107.974L580.655 106.304ZM565.319 63.8795C565.222 64.9464 565.243 66.3175 565.511 67.652C565.778 68.9732 566.307 70.3554 567.307 71.3352L568.487 70.1248C567.83 69.4804 567.401 68.4758 567.166 67.3165C566.937 66.1702 566.916 64.9667 567.001 64.0329L565.319 63.8795ZM567.307 71.3352C568.464 72.47 570.117 72.9393 572.276 72.3982L571.867 70.7552C570.181 71.1779 569.158 70.7828 568.487 70.1248L567.307 71.3352ZM567.053 70.7566C567.187 75.0044 567.555 81.3019 568.234 86.3797C568.57 88.9083 568.991 91.1864 569.516 92.7636C569.771 93.5364 570.083 94.2373 570.487 94.7079C570.693 94.9494 570.97 95.1841 571.33 95.2967C571.717 95.4173 572.105 95.3683 572.45 95.1956L571.693 93.681C571.69 93.6829 571.706 93.6742 571.739 93.6708C571.774 93.6674 571.808 93.6718 571.833 93.68C571.879 93.6942 571.852 93.7028 571.767 93.6038C571.587 93.3931 571.359 92.9535 571.117 92.2287C570.647 90.8106 570.242 88.6645 569.908 86.1551C569.241 81.1569 568.874 74.9228 568.741 70.7034L567.053 70.7566ZM575.715 90.5166C575.152 88.3832 574.519 85.7438 574.098 83.4309C573.887 82.2731 573.733 81.2131 573.666 80.3468C573.595 79.4394 573.632 78.8724 573.716 78.6183L572.115 78.0828C571.911 78.6945 571.911 79.5718 571.982 80.4785C572.056 81.4262 572.22 82.5494 572.436 83.7347C572.869 86.1079 573.514 88.7942 574.083 90.9496L575.715 90.5166ZM576.209 74.9594C577.638 75.1027 579.794 75.2334 581.609 75.1533C582.508 75.1137 583.379 75.0205 584.048 74.8275C584.379 74.7321 584.725 74.5944 585.006 74.3784C585.303 74.1496 585.583 73.7806 585.583 73.2702H583.894C583.894 73.0985 583.999 73.0187 583.977 73.0358C583.938 73.0656 583.824 73.1305 583.582 73.2001C583.107 73.3367 582.396 73.4236 581.535 73.4615C579.831 73.5367 577.763 73.4133 576.378 73.2744L576.209 74.9594ZM585.583 73.2702C585.583 73.218 585.589 73.2666 585.57 73.3476C585.563 73.3735 585.55 73.427 585.521 73.4918C585.497 73.5452 585.431 73.6827 585.281 73.8024C585.095 73.9514 584.832 74.0282 584.56 73.9614C584.34 73.9076 584.209 73.7826 584.16 73.7318C584.06 73.629 584.018 73.5279 584.016 73.524C584.004 73.4988 583.999 73.4835 584.001 73.4874C584.003 73.4937 584.011 73.5198 584.024 73.574C584.08 73.7926 584.165 74.22 584.263 74.8117C584.457 75.9824 584.692 77.7072 584.847 79.4833C585.006 81.2693 585.078 83.0632 584.967 84.3912C584.91 85.0652 584.81 85.5484 584.688 85.8383C584.555 86.156 584.53 85.971 584.739 85.971V87.6645C585.582 87.6645 586.031 87.0034 586.246 86.4942C586.47 85.9572 586.588 85.2628 586.649 84.5345C586.774 83.0576 586.69 81.1471 586.531 79.3346C586.371 77.5121 586.129 75.7441 585.928 74.5333C585.828 73.9343 585.735 73.4488 585.661 73.1582C585.643 73.0851 585.622 73.009 585.599 72.9403C585.587 72.9068 585.57 72.8609 585.548 72.8121C585.534 72.7845 585.482 72.6668 585.374 72.5547C585.32 72.4993 585.185 72.3715 584.962 72.3166C584.685 72.2489 584.418 72.3264 584.229 72.4783C584.075 72.6007 584.006 72.7428 583.979 72.8029C583.947 72.8742 583.932 72.9362 583.923 72.9726C583.894 73.0951 583.894 73.2165 583.894 73.2702H585.583ZM584.739 85.971C583.976 85.971 583.242 86.1614 582.619 86.3517C581.947 86.5568 581.459 86.7392 580.984 86.8342C580.527 86.9258 580.31 86.8813 580.185 86.8061C580.065 86.7338 579.832 86.5121 579.647 85.7656L578.008 86.1765C578.245 87.1234 578.645 87.8543 579.317 88.2582C579.983 88.6594 580.717 88.6149 581.315 88.4948C581.896 88.3781 582.569 88.1371 583.111 87.9719C583.702 87.7917 584.236 87.6645 584.739 87.6645V85.971ZM579.647 85.7656C578.978 83.0796 577.686 76.7785 577.122 73.9508L575.466 74.283C576.027 77.1001 577.326 83.4434 578.008 86.1765L579.647 85.7656ZM581.954 42.8267C579.669 43.5427 576.272 44.8338 573.515 46.3897C572.141 47.1648 570.877 48.0332 569.989 48.9632C569.121 49.8731 568.459 51.0103 568.71 52.2682L570.365 51.9359C570.279 51.5004 570.47 50.9087 571.208 50.1341C571.929 49.3795 573.029 48.6073 574.343 47.8654C576.963 46.3873 580.239 45.1381 582.457 44.4431L581.954 42.8267ZM571.722 62.1869C573.303 62.9076 575.843 63.9003 578.343 64.5435C579.593 64.8651 580.859 65.1057 582.004 65.1745C583.129 65.242 584.242 65.1514 585.117 64.7135L584.361 63.1989C583.884 63.4383 583.126 63.5454 582.106 63.4841C581.106 63.4241 579.956 63.2097 578.763 62.9032C576.38 62.2903 573.936 61.3357 572.421 60.6452L571.722 62.1869ZM568.71 52.2682C568.774 52.5916 568.839 52.8842 568.904 53.1513L570.544 52.7462C570.485 52.5058 570.426 52.2377 570.365 51.9359L568.71 52.2682ZM570.563 55.5086C570.301 55.451 570.017 55.3545 569.778 55.2263C569.528 55.0927 569.398 54.9623 569.345 54.873C569.318 54.8266 569.29 54.7684 569.352 54.6141C569.433 54.4151 569.666 54.0768 570.251 53.6119L569.2 52.2856C568.508 52.8368 568.024 53.3947 567.788 53.977C567.535 54.6041 567.589 55.2127 567.886 55.7238C568.156 56.1921 568.589 56.5098 568.982 56.7201C569.384 56.9358 569.822 57.0791 570.202 57.1627L570.563 55.5086ZM569.046 51.413C568.018 52.1503 566.579 53.4041 565.65 54.7819C565.187 55.4693 564.805 56.2535 564.716 57.0664C564.623 57.9224 564.861 58.7717 565.562 59.4745L566.758 58.2772C566.445 57.9639 566.352 57.6349 566.395 57.2508C566.442 56.8236 566.661 56.3059 567.05 55.7303C567.823 54.5821 569.087 53.4651 570.029 52.7911L569.046 51.413ZM565.562 59.4745C567.825 61.7434 570.359 61.7517 571.494 61.3725L570.96 59.7661C570.406 59.9514 568.548 60.0726 566.758 58.2772L565.562 59.4745ZM568.904 53.1513C569.279 54.6764 569.675 55.3536 570.009 56.0976C570.325 56.7993 570.658 57.703 571 59.8558L572.668 59.5893C572.308 57.3196 571.938 56.2667 571.549 55.4024C571.181 54.5804 570.874 54.082 570.544 52.7462L568.904 53.1513ZM571 59.8558C571.076 60.343 571.156 60.8941 571.234 61.521L572.909 61.311C572.83 60.6682 572.749 60.098 572.668 59.5893L571 59.8558ZM571.913 61.0634L572.519 60.2167L571.147 59.2284L570.541 60.0751L571.913 61.0634ZM572.45 95.1956C574.21 94.3128 575.142 93.4117 575.561 92.5238C575.998 91.5979 575.801 90.8463 575.718 90.5283L574.085 90.9581C574.142 91.1772 574.208 91.4317 574.034 91.7985C573.843 92.2031 573.289 92.881 571.693 93.681L572.45 95.1956ZM575.718 90.5283L575.716 90.5183L574.081 90.9479L574.085 90.9581L575.718 90.5283ZM574.083 90.9496C574.281 91.6995 574.47 92.3872 574.637 92.9775L576.262 92.5122C576.096 91.9333 575.91 91.2563 575.715 90.5166L574.083 90.9496ZM575.718 90.5283C575.718 90.5249 575.716 90.5215 575.716 90.5183L574.081 90.9479C574.083 90.9515 574.083 90.9547 574.085 90.9581L575.718 90.5283ZM576.262 92.5122C576.098 91.9359 575.912 91.2626 575.718 90.5266L574.085 90.9598C574.282 91.7057 574.47 92.3897 574.637 92.9775L576.262 92.5122Z" fill="black"/>
<path d="M411.853 212.768L420.298 228.009C423.393 227.17 426.2 226.124 428.743 224.916C436.729 221.126 442.116 215.75 445.639 210.227C436.185 210.227 434.377 199.32 434.655 193.865C428.643 196.642 423.04 201.032 418.609 205.304C415.834 207.98 413.52 210.608 411.853 212.768Z" fill="white"/>
<path d="M420.298 228.008L411.853 212.767C413.519 210.608 415.834 207.979 418.609 205.304C413.26 202.994 401.043 200.913 394.962 211.073C397.859 213.812 404.134 218.829 406.063 217C404.794 218.418 404.126 219.739 405.097 220.387C407.63 222.081 409.319 231.395 412.697 230.548C413.61 230.319 414.613 230.02 415.595 229.701C417.52 229.078 419.366 228.382 420.298 228.008Z" fill="white"/>
<path d="M420.298 228.008C419.366 228.382 417.52 229.078 415.595 229.702C414.629 233.371 412.697 241.217 412.697 243.249C412.697 245.789 429.588 244.53 428.743 224.916C426.2 226.123 423.392 227.17 420.298 228.008Z" fill="white"/>
<path d="M448.376 205.147C441.786 203.115 439.861 195.513 439.722 191.967C438.012 192.451 436.318 193.096 434.655 193.865C434.377 199.32 436.185 210.227 445.639 210.227C446.72 208.534 447.625 206.827 448.376 205.147Z" fill="white"/>
<path d="M451.545 191.6C447.655 190.583 443.648 190.854 439.722 191.968C439.861 195.514 441.786 203.116 448.376 205.148C450.697 199.957 451.545 195.031 451.545 191.6Z" fill="white"/>
<path d="M412.697 230.549C409.319 231.396 407.63 222.082 405.097 220.389C403.33 220.92 400.52 222.119 398.84 223.776C394.169 225.186 385.335 229.703 387.362 236.476C384.828 239.299 380.099 245.113 381.45 245.79C383.14 246.637 401.719 245.79 412.697 230.549Z" fill="#197C9B"/>
<path d="M411.853 212.768L411.185 212.25C410.978 212.517 410.951 212.883 411.115 213.179L411.853 212.768ZM451.545 191.6H452.389C452.389 191.215 452.13 190.878 451.758 190.78L451.545 191.6ZM411.493 213.462C411.875 213.193 411.968 212.666 411.7 212.282C411.433 211.899 410.906 211.806 410.524 212.075L411.493 213.462ZM396.668 227.328C396.76 227.787 397.205 228.085 397.662 227.992C398.119 227.9 398.416 227.455 398.324 226.996L396.668 227.328ZM396.292 231.243C396.674 230.974 396.767 230.447 396.499 230.063C396.232 229.68 395.705 229.587 395.323 229.856L396.292 231.243ZM394.963 211.074L394.239 210.639C394.035 210.979 394.095 211.418 394.384 211.691L394.963 211.074ZM445.639 210.228L446.351 210.685L445.639 210.228ZM411.115 213.179L419.56 228.42L421.036 227.597L412.591 212.356L411.115 213.179ZM404.628 221.093C405.059 221.381 405.555 222.089 406.128 223.199C406.691 224.288 407.213 225.518 407.819 226.786C408.399 228.004 409.048 229.235 409.802 230.11C410.555 230.984 411.596 231.699 412.902 231.37L412.493 229.728C412.11 229.824 411.673 229.69 411.08 229.003C410.488 228.317 409.923 227.272 409.342 226.056C408.786 224.891 408.201 223.528 407.628 222.42C407.067 221.333 406.402 220.243 405.565 219.684L404.628 221.093ZM404.854 219.577C403.04 220.122 400.074 221.37 398.248 223.172L399.432 224.38C400.966 222.866 403.62 221.718 405.34 221.199L404.854 219.577ZM398.248 223.172C397.157 224.248 396.336 225.665 396.668 227.328L398.324 226.996C398.153 226.138 398.531 225.267 399.432 224.38L398.248 223.172ZM398.596 222.964C396.191 223.692 392.699 225.218 390.044 227.469C387.392 229.716 385.399 232.862 386.553 236.72L388.171 236.232C387.299 233.318 388.709 230.818 391.135 228.761C393.558 226.708 396.819 225.27 399.084 224.586L398.596 222.964ZM395.323 229.856L386.878 235.783L387.846 237.17L396.292 231.243L395.323 229.856ZM386.734 235.91C385.456 237.335 383.616 239.521 382.259 241.45C381.587 242.407 381.001 243.343 380.672 244.112C380.512 244.486 380.377 244.901 380.369 245.292C380.359 245.719 380.512 246.266 381.073 246.547L381.828 245.033C382.052 245.145 382.056 245.362 382.057 245.329C382.059 245.263 382.092 245.089 382.224 244.781C382.481 244.18 382.982 243.36 383.64 242.425C384.943 240.573 386.735 238.44 387.99 237.043L386.734 235.91ZM381.073 246.547C381.298 246.66 381.575 246.723 381.828 246.762C382.101 246.806 382.426 246.835 382.794 246.85C383.53 246.879 384.475 246.854 385.579 246.752C387.789 246.549 390.674 246.034 393.849 245.009C400.199 242.959 407.761 238.849 413.382 231.045L412.013 230.053C406.656 237.49 399.438 241.424 393.332 243.397C390.279 244.383 387.516 244.874 385.424 245.067C384.378 245.163 383.508 245.184 382.862 245.158C382.538 245.145 382.281 245.119 382.091 245.089C381.881 245.057 381.814 245.026 381.828 245.033L381.073 246.547ZM412.521 213.286C414.161 211.162 416.448 208.563 419.195 205.914L418.024 204.693C415.221 207.396 412.878 210.057 411.185 212.25L412.521 213.286ZM418.943 204.527C416.166 203.327 411.63 202.192 406.974 202.67C402.287 203.152 397.444 205.283 394.239 210.639L395.687 211.51C398.562 206.705 402.868 204.795 407.147 204.355C411.457 203.911 415.703 204.971 418.275 206.082L418.943 204.527ZM410.524 212.075C409.035 213.12 406.88 214.822 405.435 216.436L406.692 217.567C408.012 216.092 410.047 214.476 411.493 213.462L410.524 212.075ZM405.435 216.436C404.782 217.166 404.204 217.953 403.943 218.705C403.81 219.089 403.736 219.53 403.837 219.973C403.944 220.442 404.225 220.823 404.628 221.093L405.565 219.684C405.484 219.63 405.485 219.603 405.484 219.597C405.477 219.567 405.467 219.465 405.538 219.262C405.685 218.837 406.076 218.256 406.692 217.567L405.435 216.436ZM394.384 211.691C395.855 213.081 398.192 215.059 400.427 216.468C401.538 217.167 402.674 217.758 403.693 218.046C404.67 218.324 405.822 218.395 406.644 217.616L405.483 216.387C405.34 216.522 404.984 216.653 404.152 216.417C403.362 216.194 402.386 215.701 401.325 215.034C399.216 213.704 396.967 211.806 395.542 210.458L394.384 211.691ZM412.902 231.37C413.84 231.135 414.862 230.83 415.855 230.508L415.335 228.896C414.364 229.211 413.381 229.506 412.493 229.728L412.902 231.37ZM415.855 230.508C417.801 229.877 419.664 229.176 420.612 228.795L419.984 227.223C419.068 227.591 417.24 228.28 415.335 228.896L415.855 230.508ZM414.778 229.487C414.294 231.328 413.567 234.217 412.96 236.903C412.657 238.246 412.383 239.545 412.184 240.64C411.988 241.712 411.853 242.655 411.853 243.25H413.542C413.542 242.828 413.648 242.029 413.845 240.943C414.038 239.882 414.307 238.608 414.608 237.277C415.209 234.615 415.93 231.746 416.412 229.919L414.778 229.487ZM428.382 224.151C425.885 225.337 423.125 226.366 420.078 227.191L420.518 228.827C423.66 227.975 426.514 226.911 429.104 225.682L428.382 224.151ZM411.853 243.25C411.853 244.127 412.582 244.588 413.129 244.791C413.732 245.013 414.511 245.097 415.359 245.062C417.073 244.987 419.293 244.413 421.468 243.119C425.873 240.498 430.021 234.974 429.587 224.881L427.9 224.954C428.309 234.473 424.435 239.385 420.606 241.663C418.664 242.818 416.714 243.307 415.287 243.37C414.566 243.401 414.032 243.319 413.714 243.202C413.341 243.064 413.542 243.009 413.542 243.25H411.853ZM439.952 192.782C443.769 191.698 447.619 191.449 451.332 192.419L451.758 190.78C447.691 189.717 443.528 190.006 439.492 191.153L439.952 192.782ZM450.7 191.6C450.7 194.907 449.879 199.715 447.605 204.802L449.146 205.494C451.514 200.197 452.389 195.154 452.389 191.6H450.7ZM438.878 191.999C438.952 193.877 439.492 196.787 440.878 199.51C442.268 202.241 444.55 204.853 448.127 205.957L448.624 204.338C445.613 203.41 443.636 201.203 442.382 198.741C441.123 196.267 440.631 193.603 440.566 191.933L438.878 191.999ZM419.195 205.914C423.585 201.681 429.111 197.359 435.008 194.634L434.301 193.097C428.174 195.926 422.494 200.384 418.024 204.693L419.195 205.914ZM435.008 194.634C436.637 193.882 438.29 193.252 439.952 192.782L439.492 191.153C437.735 191.65 435.999 192.313 434.301 193.097L435.008 194.634ZM447.605 204.802C446.87 206.444 445.985 208.114 444.928 209.772L446.351 210.685C447.454 208.954 448.379 207.21 449.146 205.494L447.605 204.802ZM444.928 209.772C441.484 215.171 436.214 220.436 428.382 224.151L429.104 225.682C437.244 221.819 442.748 216.331 446.351 210.685L444.928 209.772ZM433.811 193.821C433.668 196.638 434.057 200.88 435.733 204.453C437.429 208.067 440.496 211.074 445.639 211.074V209.381C441.329 209.381 438.764 206.934 437.262 203.731C435.74 200.487 435.364 196.546 435.498 193.908L433.811 193.821Z" fill="black"/>
<path d="M422.185 218.444C424.497 218.444 426.808 218.444 429.12 218.444C430.724 218.444 431.258 216.852 431.302 215.281C431.419 211.042 431.134 207.545 426.315 207.545C423.397 207.545 420.432 207.623 420.432 211.413C420.432 212.414 420.091 214.148 420.782 214.928C421.24 215.445 421.347 216.199 421.834 216.686C422.379 217.233 422.886 216.828 422.886 217.741" stroke="black" stroke-linecap="round"/>
<path d="M561.093 149.477C558.277 138.752 546.229 119.333 520.556 127.462C488.465 137.623 483.398 158.791 488.465 174.879C493.532 190.966 502.822 227.376 546.736 249.39C558.559 231.892 577.983 187.41 561.093 149.477Z" fill="#D47048" stroke="black" stroke-linecap="round" stroke-linejoin="round"/>
<path d="M523.934 140.162C510.422 142.872 507.607 158.226 507.889 165.564C509.86 175.161 518.867 192.659 539.136 185.885C551.296 173.692 550.959 161.613 549.27 157.097C546.454 150.323 537.447 137.453 523.934 140.162Z" fill="white" stroke="black" stroke-linecap="round"/>
</svg>
