<svg width="265" height="263" viewBox="0 0 265 263" fill="none" xmlns="http://www.w3.org/2000/svg">
<path fill-rule="evenodd" clip-rule="evenodd" d="M152.62 110.482C180.891 134.163 259.71 93.2102 257.17 129.929C254.504 168.482 207.981 237.668 152.62 228.5C120.142 223.122 99.4042 169.734 85.5 177.5C68.7367 186.863 87.7285 223.769 71.1407 214C51.8853 202.66 40.6296 168.514 39.4265 146.234C38.2379 124.219 59.9742 110.153 71.1407 91.1782C87.1163 64.032 87.031 5.86317 117.752 13.1411C152.62 21.4017 125.134 87.4566 152.62 110.482Z" fill="#775591"/>
<path d="M123.5 124C117.871 125.757 112.813 127.933 108.368 130.5C95.0064 138.216 87.1924 149.465 86.1156 163.5C86.0029 164.97 85.964 166.47 86.0004 168C86.2993 180.565 89.9636 197.354 101.983 208C110.053 215.148 121.888 219.527 139 218C166.143 215.579 176.49 196.95 180.568 181.5C183.334 171.025 183.217 162.011 183.5 160.5C184.943 152.806 162.56 123.635 136 122.401C131.909 122.211 127.718 122.684 123.5 124Z" fill="white"/>
<path d="M86.0004 168C85.964 166.47 86.0029 164.97 86.1156 163.5M86.0004 168C88.1669 170.667 92.9 177.1 94.5 181.5C97.3333 183.167 103 188.1 103 194.5C103 200.9 101.667 200.833 101 200L101.983 208M86.0004 168C86.2993 180.565 89.9636 197.354 101.983 208M86.1156 163.5C88.0771 162.833 92.5 161.9 94.5 163.5C97 165.5 107 158.5 106.5 157C106 155.5 110 141.5 106.5 140C103.7 138.8 106.578 133.167 108.368 130.5M86.1156 163.5C87.1924 149.465 95.0064 138.216 108.368 130.5M108.368 130.5C112.813 127.933 117.871 125.757 123.5 124C127.718 122.684 131.909 122.211 136 122.401M101.983 208C110.053 215.148 121.888 219.527 139 218C166.143 215.579 176.49 196.95 180.568 181.5M136 122.401C162.56 123.635 184.943 152.806 183.5 160.5C183.217 162.011 183.334 171.025 180.568 181.5M136 122.401C133.333 124.767 128.5 130.3 130.5 133.5C132.5 136.7 133 142.167 133 144.5C130 144.833 124.3 146 125.5 148C126.7 150 129.333 151.167 130.5 151.5C129 151.833 126.2 152.8 127 154C127.8 155.2 127.667 157.167 127.5 158L126.5 162.5C125.833 163.333 125.1 165.1 127.5 165.5C129.9 165.9 132.167 164.333 133 163.5C134.333 164.167 137.6 165.3 140 164.5C143 163.5 150 160.5 153.5 162.5C156.3 164.1 155 162.833 154 162C155.5 161.5 158.8 160.8 160 162C161.5 163.5 168 170 169 170C170 170 177.636 181.5 180.568 181.5M118.5 172C117.5 173.333 115.8 177.1 117 181.5C118.5 187 115.5 189 117 191C118.5 193 123.5 195.5 125.5 194.5C127.5 193.5 130 199 130.5 205C131 211 132.5 214 134 214.5C135.5 215 144 192.5 148 194.5C152 196.5 160 177.5 151 172C142 166.5 134 166.5 133 168C132 169.5 120 169.5 118.5 170C117.3 170.4 118 171.5 118.5 172Z" stroke="black" stroke-linecap="round" stroke-linejoin="round"/>
<path d="M214.5 86C211.5 89 206.6 95.5 211 97.5C215.4 99.5 215.167 90.6667 214.5 86Z" fill="#D47048"/>
<path d="M217 102.663C215.333 106.604 212.5 114.846 214.5 116.287C218.662 115.266 223.118 113.794 227.5 111.768C229.1 109.982 225.833 103.614 224 100.653C222.034 101.419 219.718 102.105 217 102.663Z" fill="white"/>
<path d="M224 100.653C225.833 103.614 229.1 109.982 227.5 111.768C231.844 109.758 236.115 107.203 239.953 104C239.915 100.8 232.968 98.4994 229.5 97.7491C228.085 98.7725 226.278 99.7662 224 100.653Z" fill="white"/>
<path d="M229.5 97.7491C232.968 98.4994 239.915 100.8 239.953 104C241.934 102.347 243.799 100.52 245.5 98.5073C246.566 97.246 247.566 95.9114 248.49 94.5C247.683 91.9008 238.328 92.0837 233.751 92.5C233.258 94.0648 231.983 95.9528 229.5 97.7491Z" fill="white"/>
<path d="M251.5 89C248.5 88 240.8 87 234 91C234 91.4491 233.923 91.955 233.751 92.5C238.328 92.0837 247.683 91.9008 248.49 94.5C249.615 92.7825 250.625 90.9512 251.5 89Z" fill="white"/>
<path d="M211 103.594C207.167 106.956 200.3 114.561 203.5 118.089C204.296 118.03 205.131 117.949 206 117.845C208.581 117.539 211.462 117.033 214.5 116.287C212.5 114.846 215.333 106.604 217 102.663C215.184 103.036 213.189 103.351 211 103.594Z" fill="white"/>
<path d="M206 104C201.833 107.167 193.7 114.2 194.5 117C194.778 117.971 198.291 118.481 203.5 118.089C200.3 114.561 207.167 106.956 211 103.594C209.435 103.768 207.77 103.905 206 104Z" fill="white"/>
<path fill-rule="evenodd" clip-rule="evenodd" d="M227.5 111.768C223.118 113.794 218.662 115.266 214.5 116.287C211.462 117.033 208.581 117.539 206 117.845C208.5 121.397 216.3 127 227.5 121C241.5 113.5 247.5 106.535 247 103.594C246.6 101.242 245.833 99.2227 245.5 98.5073C243.799 100.52 241.934 102.347 239.953 104C236.115 107.203 231.844 109.758 227.5 111.768ZM233 114.5C232.2 115.3 232.667 112.5 233 111L239.953 107.5V111.768C239.953 112.535 234 113.5 233 114.5Z" fill="white"/>
<path d="M233 111C232.667 112.5 232.2 115.3 233 114.5C234 113.5 239.953 112.535 239.953 111.768V107.5L233 111Z" fill="white"/>
<path fill-rule="evenodd" clip-rule="evenodd" d="M234 91C211.6 69.8 206 90.8334 206 104C207.77 103.905 209.435 103.768 211 103.594C213.189 103.351 215.184 103.036 217 102.663C219.718 102.105 222.034 101.419 224 100.653C226.278 99.7662 228.085 98.7725 229.5 97.7491C231.983 95.9528 233.258 94.0648 233.751 92.5C233.923 91.955 234 91.4491 234 91ZM214.5 86C211.5 89 206.6 95.5 211 97.5C215.4 99.5 215.167 90.6667 214.5 86Z" fill="white"/>
<path d="M214.5 86L214.995 85.9293C214.968 85.7418 214.838 85.5856 214.658 85.5257C214.478 85.4658 214.28 85.5126 214.146 85.6465L214.5 86ZM194.5 117L194.981 116.863L194.5 117ZM251.5 89L251.956 89.2046C252.014 89.0756 252.015 88.9283 251.958 88.799C251.901 88.6696 251.792 88.5704 251.658 88.5257L251.5 89ZM211 103.594L210.945 103.097L211 103.594ZM227.5 111.768L227.71 112.221L227.5 111.768ZM229.5 97.7491L229.207 97.3439L229.5 97.7491ZM227.5 121L227.264 120.559L227.5 121ZM247 103.594L247.493 103.51L247 103.594ZM233 111L232.775 110.553C232.641 110.621 232.544 110.745 232.512 110.892L233 111ZM239.953 107.5H240.453C240.453 107.326 240.363 107.165 240.215 107.074C240.067 106.983 239.883 106.975 239.728 107.053L239.953 107.5ZM206.5 104C206.5 100.74 206.847 96.9985 207.71 93.5544C208.575 90.1007 209.946 86.9993 211.956 84.9638C213.938 82.9563 216.564 81.9581 220.068 82.7244C223.613 83.4996 228.083 86.0885 233.656 91.3632L234.344 90.6369C228.717 85.3116 224.087 82.5796 220.282 81.7475C216.436 80.9065 213.462 82.0146 211.244 84.2612C209.054 86.4799 207.625 89.7806 206.74 93.3113C205.853 96.8515 205.5 100.677 205.5 104H206.5ZM214.146 85.6465C212.628 87.1653 210.607 89.5882 209.522 91.9136C208.981 93.0718 208.643 94.2672 208.772 95.3408C208.907 96.4605 209.542 97.3867 210.793 97.9552L211.207 97.0448C210.258 96.6134 209.856 95.977 209.765 95.2217C209.669 94.4203 209.919 93.4282 210.428 92.3365C211.443 90.1619 213.372 87.8348 214.854 86.3536L214.146 85.6465ZM210.793 97.9552C211.403 98.2326 211.979 98.3429 212.512 98.2665C213.052 98.189 213.5 97.9269 213.86 97.5468C214.555 96.8124 214.936 95.6216 215.144 94.3293C215.564 91.7144 215.331 88.2814 214.995 85.9293L214.005 86.0707C214.336 88.3853 214.553 91.7023 214.156 94.1707C213.956 95.4201 213.612 96.3543 213.134 96.8595C212.907 97.0992 212.657 97.2355 212.37 97.2766C212.076 97.3186 211.697 97.2674 211.207 97.0448L210.793 97.9552ZM205.697 103.602C203.602 105.194 200.507 107.761 198.03 110.288C196.794 111.549 195.696 112.817 194.954 113.961C194.583 114.532 194.291 115.089 194.119 115.611C193.948 116.129 193.881 116.655 194.019 117.137L194.981 116.863C194.919 116.646 194.931 116.339 195.068 115.924C195.204 115.513 195.449 115.036 195.793 114.505C196.482 113.443 197.527 112.23 198.745 110.987C201.176 108.506 204.231 105.972 206.303 104.398L205.697 103.602ZM251.658 88.5257C248.57 87.4962 240.709 86.4733 233.747 90.5691L234.254 91.431C240.891 87.5267 248.43 88.5038 251.342 89.4744L251.658 88.5257ZM210.945 103.097C209.389 103.27 207.734 103.406 205.973 103.501L206.027 104.499C207.805 104.404 209.48 104.266 211.055 104.091L210.945 103.097ZM194.019 117.137C194.091 117.39 194.256 117.585 194.441 117.732C194.625 117.88 194.854 118 195.107 118.1C195.612 118.3 196.286 118.449 197.087 118.552C198.696 118.757 200.913 118.785 203.537 118.588L203.463 117.591C200.878 117.785 198.733 117.754 197.214 117.56C196.451 117.462 195.87 117.327 195.475 117.17C195.278 117.092 195.146 117.016 195.065 116.951C194.984 116.886 194.978 116.853 194.981 116.863L194.019 117.137ZM210.67 103.218C208.734 104.917 206.023 107.692 204.193 110.507C203.28 111.911 202.564 113.359 202.293 114.71C202.019 116.072 202.19 117.389 203.13 118.425L203.87 117.753C203.21 117.025 203.04 116.069 203.273 114.907C203.509 113.734 204.149 112.409 205.032 111.052C206.794 108.341 209.433 105.633 211.33 103.97L210.67 103.218ZM216.899 102.173C215.1 102.543 213.12 102.856 210.945 103.097L211.055 104.091C213.258 103.846 215.269 103.529 217.101 103.153L216.899 102.173ZM216.54 102.468C215.7 104.454 214.564 107.526 213.889 110.294C213.552 111.675 213.324 113.006 213.313 114.099C213.307 114.646 213.356 115.156 213.486 115.592C213.616 116.029 213.839 116.427 214.208 116.693L214.792 115.882C214.661 115.787 214.535 115.612 214.444 115.307C214.353 115.001 214.308 114.6 214.312 114.109C214.322 113.129 214.531 111.883 214.861 110.531C215.519 107.832 216.633 104.813 217.461 102.858L216.54 102.468ZM223.819 100.188C221.882 100.942 219.593 101.621 216.899 102.173L217.101 103.153C219.842 102.59 222.186 101.896 224.181 101.119L223.819 100.188ZM214.619 116.773C218.808 115.745 223.295 114.263 227.71 112.221L227.29 111.314C222.941 113.325 218.516 114.787 214.381 115.802L214.619 116.773ZM223.575 100.917C224.481 102.381 225.74 104.684 226.571 106.832C226.988 107.907 227.287 108.92 227.39 109.755C227.496 110.618 227.376 111.157 227.128 111.434L227.872 112.101C228.424 111.485 228.496 110.559 228.382 109.633C228.265 108.68 227.933 107.58 227.504 106.471C226.643 104.247 225.352 101.887 224.425 100.39L223.575 100.917ZM229.207 97.3439C227.831 98.3391 226.063 99.3135 223.819 100.188L224.181 101.119C226.494 100.219 228.339 99.2059 229.793 98.1542L229.207 97.3439ZM227.71 112.221C232.087 110.197 236.396 107.62 240.273 104.384L239.632 103.616C235.834 106.787 231.602 109.319 227.29 111.314L227.71 112.221ZM229.394 98.2378C231.103 98.6074 233.665 99.3591 235.792 100.405C236.857 100.928 237.787 101.513 238.446 102.141C239.108 102.772 239.445 103.396 239.453 104.006L240.453 103.994C240.441 103.004 239.896 102.141 239.136 101.417C238.374 100.69 237.343 100.053 236.233 99.5072C234.011 98.4148 231.365 97.641 229.606 97.2604L229.394 98.2378ZM233.5 91C233.5 91.3927 233.433 91.8479 233.275 92.3498L234.228 92.6503C234.414 92.0621 234.5 91.5055 234.5 91H233.5ZM233.275 92.3498C232.821 93.7905 231.623 95.5959 229.207 97.3439L229.793 98.1542C232.343 96.3096 233.696 94.3392 234.228 92.6503L233.275 92.3498ZM248.909 94.7739C250.047 93.0349 251.071 91.1805 251.956 89.2046L251.044 88.7955C250.18 90.722 249.182 92.5301 248.072 94.2262L248.909 94.7739ZM233.797 92.998C236.068 92.7913 239.522 92.6434 242.497 92.8678C243.987 92.9802 245.33 93.1842 246.337 93.5084C246.841 93.6704 247.238 93.8556 247.523 94.0584C247.808 94.2604 247.954 94.4601 248.013 94.6484L248.968 94.3517C248.825 93.8901 248.502 93.527 248.103 93.2431C247.704 92.96 247.202 92.7363 246.644 92.5565C245.526 92.1969 244.093 91.9853 242.572 91.8706C239.523 91.6407 236.011 91.7924 233.706 92.0021L233.797 92.998ZM203.537 118.588C204.341 118.528 205.183 118.446 206.059 118.342L205.941 117.349C205.079 117.451 204.251 117.532 203.463 117.591L203.537 118.588ZM206.059 118.342C208.66 118.033 211.561 117.523 214.619 116.773L214.381 115.802C211.363 116.542 208.502 117.045 205.941 117.349L206.059 118.342ZM205.591 118.133C206.9 119.993 209.566 122.354 213.344 123.484C217.141 124.618 222.027 124.499 227.736 121.441L227.264 120.559C221.773 123.501 217.159 123.58 213.631 122.525C210.084 121.466 207.6 119.249 206.409 117.558L205.591 118.133ZM227.736 121.441C234.763 117.676 239.804 114.035 243.033 110.949C244.647 109.407 245.82 107.992 246.561 106.757C247.292 105.541 247.648 104.424 247.493 103.51L246.507 103.678C246.602 104.235 246.395 105.092 245.704 106.242C245.024 107.376 243.916 108.722 242.342 110.226C239.196 113.232 234.237 116.824 227.264 120.559L227.736 121.441ZM240.273 104.384C242.275 102.713 244.161 100.867 245.882 98.83L245.118 98.1846C243.438 100.174 241.593 101.98 239.632 103.616L240.273 104.384ZM245.882 98.83C246.96 97.5538 247.973 96.2029 248.909 94.7739L248.072 94.2262C247.16 95.6199 246.171 96.9383 245.118 98.1846L245.882 98.83ZM247.493 103.51C247.085 101.11 246.304 99.0479 245.953 98.2961L245.047 98.7185C245.363 99.3975 246.115 101.374 246.507 103.678L247.493 103.51ZM232.512 110.892C232.344 111.649 232.137 112.752 232.076 113.576C232.061 113.783 232.054 113.982 232.061 114.159C232.067 114.326 232.087 114.513 232.146 114.674C232.199 114.818 232.359 115.123 232.733 115.14C233.027 115.154 233.243 114.964 233.354 114.854L232.646 114.146C232.557 114.236 232.613 114.134 232.78 114.141C232.887 114.146 232.975 114.196 233.03 114.251C233.053 114.275 233.068 114.296 233.075 114.309C233.079 114.316 233.081 114.321 233.083 114.324C233.084 114.327 233.085 114.329 233.085 114.33C233.085 114.33 233.084 114.325 233.081 114.315C233.079 114.304 233.076 114.29 233.073 114.271C233.067 114.233 233.063 114.183 233.06 114.12C233.055 113.994 233.06 113.836 233.074 113.649C233.129 112.898 233.323 111.851 233.488 111.108L232.512 110.892ZM233.354 114.854C233.417 114.79 233.557 114.695 233.802 114.578C234.036 114.466 234.332 114.35 234.673 114.231C235.355 113.994 236.178 113.76 236.989 113.527C237.79 113.298 238.586 113.069 239.182 112.846C239.477 112.736 239.75 112.618 239.958 112.49C240.061 112.426 240.171 112.346 240.26 112.245C240.348 112.146 240.453 111.984 240.453 111.768H239.453C239.453 111.647 239.511 111.583 239.511 111.582C239.513 111.581 239.494 111.601 239.432 111.639C239.31 111.715 239.111 111.805 238.832 111.909C238.281 112.115 237.526 112.333 236.714 112.566C235.912 112.796 235.059 113.038 234.344 113.287C233.986 113.411 233.652 113.541 233.37 113.676C233.098 113.806 232.833 113.96 232.646 114.146L233.354 114.854ZM240.453 111.768C240.453 111.766 240.453 111.765 240.453 111.764C240.453 111.763 240.453 111.762 240.453 111.76C240.453 111.759 240.453 111.758 240.453 111.757C240.453 111.755 240.453 111.754 240.453 111.753C240.453 111.752 240.453 111.75 240.453 111.749C240.453 111.748 240.453 111.747 240.453 111.745C240.453 111.744 240.453 111.743 240.453 111.741C240.453 111.74 240.453 111.739 240.453 111.737C240.453 111.736 240.453 111.735 240.453 111.734C240.453 111.732 240.453 111.731 240.453 111.73C240.453 111.728 240.453 111.727 240.453 111.725C240.453 111.724 240.453 111.723 240.453 111.721C240.453 111.72 240.453 111.719 240.453 111.717C240.453 111.716 240.453 111.715 240.453 111.713C240.453 111.712 240.453 111.71 240.453 111.709C240.453 111.708 240.453 111.706 240.453 111.705C240.453 111.703 240.453 111.702 240.453 111.7C240.453 111.699 240.453 111.698 240.453 111.696C240.453 111.695 240.453 111.693 240.453 111.692C240.453 111.69 240.453 111.689 240.453 111.687C240.453 111.686 240.453 111.684 240.453 111.683C240.453 111.681 240.453 111.68 240.453 111.678C240.453 111.677 240.453 111.675 240.453 111.674C240.453 111.672 240.453 111.671 240.453 111.669C240.453 111.668 240.453 111.666 240.453 111.665C240.453 111.663 240.453 111.662 240.453 111.66C240.453 111.658 240.453 111.657 240.453 111.655C240.453 111.654 240.453 111.652 240.453 111.651C240.453 111.649 240.453 111.647 240.453 111.646C240.453 111.644 240.453 111.643 240.453 111.641C240.453 111.639 240.453 111.638 240.453 111.636C240.453 111.635 240.453 111.633 240.453 111.631C240.453 111.63 240.453 111.628 240.453 111.626C240.453 111.625 240.453 111.623 240.453 111.621C240.453 111.62 240.453 111.618 240.453 111.616C240.453 111.615 240.453 111.613 240.453 111.611C240.453 111.61 240.453 111.608 240.453 111.606C240.453 111.605 240.453 111.603 240.453 111.601C240.453 111.6 240.453 111.598 240.453 111.596C240.453 111.594 240.453 111.593 240.453 111.591C240.453 111.589 240.453 111.587 240.453 111.586C240.453 111.584 240.453 111.582 240.453 111.58C240.453 111.579 240.453 111.577 240.453 111.575C240.453 111.573 240.453 111.572 240.453 111.57C240.453 111.568 240.453 111.566 240.453 111.564C240.453 111.563 240.453 111.561 240.453 111.559C240.453 111.557 240.453 111.555 240.453 111.554C240.453 111.552 240.453 111.55 240.453 111.548C240.453 111.546 240.453 111.544 240.453 111.543C240.453 111.541 240.453 111.539 240.453 111.537C240.453 111.535 240.453 111.533 240.453 111.532C240.453 111.53 240.453 111.528 240.453 111.526C240.453 111.524 240.453 111.522 240.453 111.52C240.453 111.518 240.453 111.516 240.453 111.515C240.453 111.513 240.453 111.511 240.453 111.509C240.453 111.507 240.453 111.505 240.453 111.503C240.453 111.501 240.453 111.499 240.453 111.497C240.453 111.495 240.453 111.493 240.453 111.491C240.453 111.49 240.453 111.488 240.453 111.486C240.453 111.484 240.453 111.482 240.453 111.48C240.453 111.478 240.453 111.476 240.453 111.474C240.453 111.472 240.453 111.47 240.453 111.468C240.453 111.466 240.453 111.464 240.453 111.462C240.453 111.46 240.453 111.458 240.453 111.456C240.453 111.454 240.453 111.452 240.453 111.45C240.453 111.448 240.453 111.446 240.453 111.444C240.453 111.442 240.453 111.44 240.453 111.437C240.453 111.435 240.453 111.433 240.453 111.431C240.453 111.429 240.453 111.427 240.453 111.425C240.453 111.423 240.453 111.421 240.453 111.419C240.453 111.417 240.453 111.415 240.453 111.413C240.453 111.411 240.453 111.408 240.453 111.406C240.453 111.404 240.453 111.402 240.453 111.4C240.453 111.398 240.453 111.396 240.453 111.394C240.453 111.392 240.453 111.389 240.453 111.387C240.453 111.385 240.453 111.383 240.453 111.381C240.453 111.379 240.453 111.377 240.453 111.374C240.453 111.372 240.453 111.37 240.453 111.368C240.453 111.366 240.453 111.364 240.453 111.361C240.453 111.359 240.453 111.357 240.453 111.355C240.453 111.353 240.453 111.35 240.453 111.348C240.453 111.346 240.453 111.344 240.453 111.342C240.453 111.339 240.453 111.337 240.453 111.335C240.453 111.333 240.453 111.33 240.453 111.328C240.453 111.326 240.453 111.324 240.453 111.322C240.453 111.319 240.453 111.317 240.453 111.315C240.453 111.313 240.453 111.31 240.453 111.308C240.453 111.306 240.453 111.304 240.453 111.301C240.453 111.299 240.453 111.297 240.453 111.294C240.453 111.292 240.453 111.29 240.453 111.288C240.453 111.285 240.453 111.283 240.453 111.281C240.453 111.278 240.453 111.276 240.453 111.274C240.453 111.271 240.453 111.269 240.453 111.267C240.453 111.264 240.453 111.262 240.453 111.26C240.453 111.257 240.453 111.255 240.453 111.253C240.453 111.25 240.453 111.248 240.453 111.246C240.453 111.243 240.453 111.241 240.453 111.239C240.453 111.236 240.453 111.234 240.453 111.232C240.453 111.229 240.453 111.227 240.453 111.224C240.453 111.222 240.453 111.22 240.453 111.217C240.453 111.215 240.453 111.212 240.453 111.21C240.453 111.208 240.453 111.205 240.453 111.203C240.453 111.2 240.453 111.198 240.453 111.196C240.453 111.193 240.453 111.191 240.453 111.188C240.453 111.186 240.453 111.184 240.453 111.181C240.453 111.179 240.453 111.176 240.453 111.174C240.453 111.171 240.453 111.169 240.453 111.166C240.453 111.164 240.453 111.161 240.453 111.159C240.453 111.157 240.453 111.154 240.453 111.152C240.453 111.149 240.453 111.147 240.453 111.144C240.453 111.142 240.453 111.139 240.453 111.137C240.453 111.134 240.453 111.132 240.453 111.129C240.453 111.127 240.453 111.124 240.453 111.122C240.453 111.119 240.453 111.117 240.453 111.114C240.453 111.112 240.453 111.109 240.453 111.107C240.453 111.104 240.453 111.102 240.453 111.099C240.453 111.096 240.453 111.094 240.453 111.091C240.453 111.089 240.453 111.086 240.453 111.084C240.453 111.081 240.453 111.079 240.453 111.076C240.453 111.073 240.453 111.071 240.453 111.068C240.453 111.066 240.453 111.063 240.453 111.061C240.453 111.058 240.453 111.055 240.453 111.053C240.453 111.05 240.453 111.048 240.453 111.045C240.453 111.042 240.453 111.04 240.453 111.037C240.453 111.035 240.453 111.032 240.453 111.029C240.453 111.027 240.453 111.024 240.453 111.022C240.453 111.019 240.453 111.016 240.453 111.014C240.453 111.011 240.453 111.008 240.453 111.006C240.453 111.003 240.453 111.001 240.453 110.998C240.453 110.995 240.453 110.993 240.453 110.99C240.453 110.987 240.453 110.985 240.453 110.982C240.453 110.979 240.453 110.977 240.453 110.974C240.453 110.971 240.453 110.969 240.453 110.966C240.453 110.963 240.453 110.961 240.453 110.958C240.453 110.955 240.453 110.953 240.453 110.95C240.453 110.947 240.453 110.944 240.453 110.942C240.453 110.939 240.453 110.936 240.453 110.934C240.453 110.931 240.453 110.928 240.453 110.925C240.453 110.923 240.453 110.92 240.453 110.917C240.453 110.915 240.453 110.912 240.453 110.909C240.453 110.906 240.453 110.904 240.453 110.901C240.453 110.898 240.453 110.895 240.453 110.893C240.453 110.89 240.453 110.887 240.453 110.884C240.453 110.882 240.453 110.879 240.453 110.876C240.453 110.873 240.453 110.871 240.453 110.868C240.453 110.865 240.453 110.862 240.453 110.859C240.453 110.857 240.453 110.854 240.453 110.851C240.453 110.848 240.453 110.846 240.453 110.843C240.453 110.84 240.453 110.837 240.453 110.834C240.453 110.832 240.453 110.829 240.453 110.826C240.453 110.823 240.453 110.82 240.453 110.818C240.453 110.815 240.453 110.812 240.453 110.809C240.453 110.806 240.453 110.803 240.453 110.801C240.453 110.798 240.453 110.795 240.453 110.792C240.453 110.789 240.453 110.786 240.453 110.784C240.453 110.781 240.453 110.778 240.453 110.775C240.453 110.772 240.453 110.769 240.453 110.766C240.453 110.764 240.453 110.761 240.453 110.758C240.453 110.755 240.453 110.752 240.453 110.749C240.453 110.746 240.453 110.744 240.453 110.741C240.453 110.738 240.453 110.735 240.453 110.732C240.453 110.729 240.453 110.726 240.453 110.723C240.453 110.721 240.453 110.718 240.453 110.715C240.453 110.712 240.453 110.709 240.453 110.706C240.453 110.703 240.453 110.7 240.453 110.697C240.453 110.694 240.453 110.691 240.453 110.689C240.453 110.686 240.453 110.683 240.453 110.68C240.453 110.677 240.453 110.674 240.453 110.671C240.453 110.668 240.453 110.665 240.453 110.662C240.453 110.659 240.453 110.656 240.453 110.653C240.453 110.65 240.453 110.648 240.453 110.645C240.453 110.642 240.453 110.639 240.453 110.636C240.453 110.633 240.453 110.63 240.453 110.627C240.453 110.624 240.453 110.621 240.453 110.618C240.453 110.615 240.453 110.612 240.453 110.609C240.453 110.606 240.453 110.603 240.453 110.6C240.453 110.597 240.453 110.594 240.453 110.591C240.453 110.588 240.453 110.585 240.453 110.582C240.453 110.579 240.453 110.576 240.453 110.573C240.453 110.57 240.453 110.567 240.453 110.564C240.453 110.561 240.453 110.558 240.453 110.555C240.453 110.552 240.453 110.549 240.453 110.546C240.453 110.543 240.453 110.54 240.453 110.537C240.453 110.534 240.453 110.531 240.453 110.528C240.453 110.525 240.453 110.522 240.453 110.519C240.453 110.516 240.453 110.513 240.453 110.51C240.453 110.507 240.453 110.504 240.453 110.501C240.453 110.498 240.453 110.495 240.453 110.492C240.453 110.489 240.453 110.486 240.453 110.483C240.453 110.48 240.453 110.477 240.453 110.473C240.453 110.47 240.453 110.467 240.453 110.464C240.453 110.461 240.453 110.458 240.453 110.455C240.453 110.452 240.453 110.449 240.453 110.446C240.453 110.443 240.453 110.44 240.453 110.437C240.453 110.434 240.453 110.431 240.453 110.427C240.453 110.424 240.453 110.421 240.453 110.418C240.453 110.415 240.453 110.412 240.453 110.409C240.453 110.406 240.453 110.403 240.453 110.4C240.453 110.397 240.453 110.393 240.453 110.39C240.453 110.387 240.453 110.384 240.453 110.381C240.453 110.378 240.453 110.375 240.453 110.372C240.453 110.369 240.453 110.365 240.453 110.362C240.453 110.359 240.453 110.356 240.453 110.353C240.453 110.35 240.453 110.347 240.453 110.344C240.453 110.341 240.453 110.337 240.453 110.334C240.453 110.331 240.453 110.328 240.453 110.325C240.453 110.322 240.453 110.319 240.453 110.315C240.453 110.312 240.453 110.309 240.453 110.306C240.453 110.303 240.453 110.3 240.453 110.297C240.453 110.293 240.453 110.29 240.453 110.287C240.453 110.284 240.453 110.281 240.453 110.278C240.453 110.275 240.453 110.271 240.453 110.268C240.453 110.265 240.453 110.262 240.453 110.259C240.453 110.256 240.453 110.252 240.453 110.249C240.453 110.246 240.453 110.243 240.453 110.24C240.453 110.237 240.453 110.233 240.453 110.23C240.453 110.227 240.453 110.224 240.453 110.221C240.453 110.218 240.453 110.214 240.453 110.211C240.453 110.208 240.453 110.205 240.453 110.202C240.453 110.198 240.453 110.195 240.453 110.192C240.453 110.189 240.453 110.186 240.453 110.182C240.453 110.179 240.453 110.176 240.453 110.173C240.453 110.17 240.453 110.166 240.453 110.163C240.453 110.16 240.453 110.157 240.453 110.154C240.453 110.15 240.453 110.147 240.453 110.144C240.453 110.141 240.453 110.138 240.453 110.134C240.453 110.131 240.453 110.128 240.453 110.125C240.453 110.122 240.453 110.118 240.453 110.115C240.453 110.112 240.453 110.109 240.453 110.105C240.453 110.102 240.453 110.099 240.453 110.096C240.453 110.093 240.453 110.089 240.453 110.086C240.453 110.083 240.453 110.08 240.453 110.076C240.453 110.073 240.453 110.07 240.453 110.067C240.453 110.063 240.453 110.06 240.453 110.057C240.453 110.054 240.453 110.05 240.453 110.047C240.453 110.044 240.453 110.041 240.453 110.037C240.453 110.034 240.453 110.031 240.453 110.028C240.453 110.024 240.453 110.021 240.453 110.018C240.453 110.015 240.453 110.011 240.453 110.008C240.453 110.005 240.453 110.002 240.453 109.998C240.453 109.995 240.453 109.992 240.453 109.989C240.453 109.985 240.453 109.982 240.453 109.979C240.453 109.976 240.453 109.972 240.453 109.969C240.453 109.966 240.453 109.963 240.453 109.959C240.453 109.956 240.453 109.953 240.453 109.949C240.453 109.946 240.453 109.943 240.453 109.94C240.453 109.936 240.453 109.933 240.453 109.93C240.453 109.927 240.453 109.923 240.453 109.92C240.453 109.917 240.453 109.913 240.453 109.91C240.453 109.907 240.453 109.904 240.453 109.9C240.453 109.897 240.453 109.894 240.453 109.89C240.453 109.887 240.453 109.884 240.453 109.881C240.453 109.877 240.453 109.874 240.453 109.871C240.453 109.867 240.453 109.864 240.453 109.861C240.453 109.858 240.453 109.854 240.453 109.851C240.453 109.848 240.453 109.844 240.453 109.841C240.453 109.838 240.453 109.834 240.453 109.831C240.453 109.828 240.453 109.825 240.453 109.821C240.453 109.818 240.453 109.815 240.453 109.811C240.453 109.808 240.453 109.805 240.453 109.801C240.453 109.798 240.453 109.795 240.453 109.791C240.453 109.788 240.453 109.785 240.453 109.782C240.453 109.778 240.453 109.775 240.453 109.772C240.453 109.768 240.453 109.765 240.453 109.762C240.453 109.758 240.453 109.755 240.453 109.752C240.453 109.748 240.453 109.745 240.453 109.742C240.453 109.738 240.453 109.735 240.453 109.732C240.453 109.729 240.453 109.725 240.453 109.722C240.453 109.719 240.453 109.715 240.453 109.712C240.453 109.709 240.453 109.705 240.453 109.702C240.453 109.699 240.453 109.695 240.453 109.692C240.453 109.689 240.453 109.685 240.453 109.682C240.453 109.679 240.453 109.675 240.453 109.672C240.453 109.669 240.453 109.665 240.453 109.662C240.453 109.659 240.453 109.655 240.453 109.652C240.453 109.649 240.453 109.645 240.453 109.642C240.453 109.639 240.453 109.635 240.453 109.632C240.453 109.629 240.453 109.625 240.453 109.622C240.453 109.619 240.453 109.615 240.453 109.612C240.453 109.609 240.453 109.605 240.453 109.602C240.453 109.599 240.453 109.595 240.453 109.592C240.453 109.589 240.453 109.585 240.453 109.582C240.453 109.579 240.453 109.575 240.453 109.572C240.453 109.569 240.453 109.565 240.453 109.562C240.453 109.559 240.453 109.555 240.453 109.552C240.453 109.549 240.453 109.545 240.453 109.542C240.453 109.539 240.453 109.535 240.453 109.532C240.453 109.529 240.453 109.525 240.453 109.522C240.453 109.519 240.453 109.515 240.453 109.512C240.453 109.509 240.453 109.505 240.453 109.502C240.453 109.499 240.453 109.495 240.453 109.492C240.453 109.489 240.453 109.485 240.453 109.482C240.453 109.479 240.453 109.475 240.453 109.472C240.453 109.468 240.453 109.465 240.453 109.462C240.453 109.458 240.453 109.455 240.453 109.452C240.453 109.448 240.453 109.445 240.453 109.442C240.453 109.438 240.453 109.435 240.453 109.432C240.453 109.428 240.453 109.425 240.453 109.422C240.453 109.418 240.453 109.415 240.453 109.412C240.453 109.408 240.453 109.405 240.453 109.402C240.453 109.398 240.453 109.395 240.453 109.392C240.453 109.388 240.453 109.385 240.453 109.382C240.453 109.378 240.453 109.375 240.453 109.372C240.453 109.368 240.453 109.365 240.453 109.361C240.453 109.358 240.453 109.355 240.453 109.351C240.453 109.348 240.453 109.345 240.453 109.341C240.453 109.338 240.453 109.335 240.453 109.331C240.453 109.328 240.453 109.325 240.453 109.321C240.453 109.318 240.453 109.315 240.453 109.311C240.453 109.308 240.453 109.305 240.453 109.301C240.453 109.298 240.453 109.295 240.453 109.291C240.453 109.288 240.453 109.285 240.453 109.281C240.453 109.278 240.453 109.275 240.453 109.271C240.453 109.268 240.453 109.265 240.453 109.261C240.453 109.258 240.453 109.255 240.453 109.251C240.453 109.248 240.453 109.244 240.453 109.241C240.453 109.238 240.453 109.234 240.453 109.231C240.453 109.228 240.453 109.224 240.453 109.221C240.453 109.218 240.453 109.214 240.453 109.211C240.453 109.208 240.453 109.204 240.453 109.201C240.453 109.198 240.453 109.194 240.453 109.191C240.453 109.188 240.453 109.184 240.453 109.181C240.453 109.178 240.453 109.174 240.453 109.171C240.453 109.168 240.453 109.164 240.453 109.161C240.453 109.158 240.453 109.154 240.453 109.151C240.453 109.148 240.453 109.144 240.453 109.141C240.453 109.138 240.453 109.134 240.453 109.131C240.453 109.128 240.453 109.124 240.453 109.121C240.453 109.118 240.453 109.114 240.453 109.111C240.453 109.108 240.453 109.105 240.453 109.101C240.453 109.098 240.453 109.095 240.453 109.091C240.453 109.088 240.453 109.085 240.453 109.081C240.453 109.078 240.453 109.075 240.453 109.071C240.453 109.068 240.453 109.065 240.453 109.061C240.453 109.058 240.453 109.055 240.453 109.051C240.453 109.048 240.453 109.045 240.453 109.041C240.453 109.038 240.453 109.035 240.453 109.032C240.453 109.028 240.453 109.025 240.453 109.022C240.453 109.018 240.453 109.015 240.453 109.012C240.453 109.008 240.453 109.005 240.453 109.002C240.453 108.998 240.453 108.995 240.453 108.992C240.453 108.988 240.453 108.985 240.453 108.982C240.453 108.979 240.453 108.975 240.453 108.972C240.453 108.969 240.453 108.965 240.453 108.962C240.453 108.959 240.453 108.955 240.453 108.952C240.453 108.949 240.453 108.946 240.453 108.942C240.453 108.939 240.453 108.936 240.453 108.932C240.453 108.929 240.453 108.926 240.453 108.923C240.453 108.919 240.453 108.916 240.453 108.913C240.453 108.909 240.453 108.906 240.453 108.903C240.453 108.9 240.453 108.896 240.453 108.893C240.453 108.89 240.453 108.886 240.453 108.883C240.453 108.88 240.453 108.877 240.453 108.873C240.453 108.87 240.453 108.867 240.453 108.863C240.453 108.86 240.453 108.857 240.453 108.854C240.453 108.85 240.453 108.847 240.453 108.844C240.453 108.841 240.453 108.837 240.453 108.834C240.453 108.831 240.453 108.827 240.453 108.824C240.453 108.821 240.453 108.818 240.453 108.814C240.453 108.811 240.453 108.808 240.453 108.805C240.453 108.801 240.453 108.798 240.453 108.795C240.453 108.792 240.453 108.788 240.453 108.785C240.453 108.782 240.453 108.779 240.453 108.775C240.453 108.772 240.453 108.769 240.453 108.766C240.453 108.762 240.453 108.759 240.453 108.756C240.453 108.753 240.453 108.749 240.453 108.746C240.453 108.743 240.453 108.74 240.453 108.736C240.453 108.733 240.453 108.73 240.453 108.727C240.453 108.723 240.453 108.72 240.453 108.717C240.453 108.714 240.453 108.71 240.453 108.707C240.453 108.704 240.453 108.701 240.453 108.698C240.453 108.694 240.453 108.691 240.453 108.688C240.453 108.685 240.453 108.681 240.453 108.678C240.453 108.675 240.453 108.672 240.453 108.669C240.453 108.665 240.453 108.662 240.453 108.659C240.453 108.656 240.453 108.653 240.453 108.649C240.453 108.646 240.453 108.643 240.453 108.64C240.453 108.636 240.453 108.633 240.453 108.63C240.453 108.627 240.453 108.624 240.453 108.62C240.453 108.617 240.453 108.614 240.453 108.611C240.453 108.608 240.453 108.605 240.453 108.601C240.453 108.598 240.453 108.595 240.453 108.592C240.453 108.589 240.453 108.585 240.453 108.582C240.453 108.579 240.453 108.576 240.453 108.573C240.453 108.569 240.453 108.566 240.453 108.563C240.453 108.56 240.453 108.557 240.453 108.554C240.453 108.55 240.453 108.547 240.453 108.544C240.453 108.541 240.453 108.538 240.453 108.535C240.453 108.531 240.453 108.528 240.453 108.525C240.453 108.522 240.453 108.519 240.453 108.516C240.453 108.513 240.453 108.509 240.453 108.506C240.453 108.503 240.453 108.5 240.453 108.497C240.453 108.494 240.453 108.49 240.453 108.487C240.453 108.484 240.453 108.481 240.453 108.478C240.453 108.475 240.453 108.472 240.453 108.469C240.453 108.465 240.453 108.462 240.453 108.459C240.453 108.456 240.453 108.453 240.453 108.45C240.453 108.447 240.453 108.444 240.453 108.44C240.453 108.437 240.453 108.434 240.453 108.431C240.453 108.428 240.453 108.425 240.453 108.422C240.453 108.419 240.453 108.416 240.453 108.412C240.453 108.409 240.453 108.406 240.453 108.403C240.453 108.4 240.453 108.397 240.453 108.394C240.453 108.391 240.453 108.388 240.453 108.385C240.453 108.381 240.453 108.378 240.453 108.375C240.453 108.372 240.453 108.369 240.453 108.366C240.453 108.363 240.453 108.36 240.453 108.357C240.453 108.354 240.453 108.351 240.453 108.348C240.453 108.345 240.453 108.341 240.453 108.338C240.453 108.335 240.453 108.332 240.453 108.329C240.453 108.326 240.453 108.323 240.453 108.32C240.453 108.317 240.453 108.314 240.453 108.311C240.453 108.308 240.453 108.305 240.453 108.302C240.453 108.299 240.453 108.296 240.453 108.293C240.453 108.29 240.453 108.287 240.453 108.284C240.453 108.281 240.453 108.277 240.453 108.274C240.453 108.271 240.453 108.268 240.453 108.265C240.453 108.262 240.453 108.259 240.453 108.256C240.453 108.253 240.453 108.25 240.453 108.247C240.453 108.244 240.453 108.241 240.453 108.238C240.453 108.235 240.453 108.232 240.453 108.229C240.453 108.226 240.453 108.223 240.453 108.22C240.453 108.217 240.453 108.214 240.453 108.211C240.453 108.208 240.453 108.205 240.453 108.202C240.453 108.199 240.453 108.196 240.453 108.193C240.453 108.19 240.453 108.187 240.453 108.185C240.453 108.182 240.453 108.179 240.453 108.176C240.453 108.173 240.453 108.17 240.453 108.167C240.453 108.164 240.453 108.161 240.453 108.158C240.453 108.155 240.453 108.152 240.453 108.149C240.453 108.146 240.453 108.143 240.453 108.14C240.453 108.137 240.453 108.134 240.453 108.131C240.453 108.128 240.453 108.126 240.453 108.123C240.453 108.12 240.453 108.117 240.453 108.114C240.453 108.111 240.453 108.108 240.453 108.105C240.453 108.102 240.453 108.099 240.453 108.096C240.453 108.093 240.453 108.091 240.453 108.088C240.453 108.085 240.453 108.082 240.453 108.079C240.453 108.076 240.453 108.073 240.453 108.07C240.453 108.067 240.453 108.065 240.453 108.062C240.453 108.059 240.453 108.056 240.453 108.053C240.453 108.05 240.453 108.047 240.453 108.044C240.453 108.042 240.453 108.039 240.453 108.036C240.453 108.033 240.453 108.03 240.453 108.027C240.453 108.024 240.453 108.022 240.453 108.019C240.453 108.016 240.453 108.013 240.453 108.01C240.453 108.007 240.453 108.004 240.453 108.002C240.453 107.999 240.453 107.996 240.453 107.993C240.453 107.99 240.453 107.988 240.453 107.985C240.453 107.982 240.453 107.979 240.453 107.976C240.453 107.973 240.453 107.971 240.453 107.968C240.453 107.965 240.453 107.962 240.453 107.959C240.453 107.957 240.453 107.954 240.453 107.951C240.453 107.948 240.453 107.945 240.453 107.943C240.453 107.94 240.453 107.937 240.453 107.934C240.453 107.932 240.453 107.929 240.453 107.926C240.453 107.923 240.453 107.921 240.453 107.918C240.453 107.915 240.453 107.912 240.453 107.909C240.453 107.907 240.453 107.904 240.453 107.901C240.453 107.898 240.453 107.896 240.453 107.893C240.453 107.89 240.453 107.888 240.453 107.885C240.453 107.882 240.453 107.879 240.453 107.877C240.453 107.874 240.453 107.871 240.453 107.868C240.453 107.866 240.453 107.863 240.453 107.86C240.453 107.858 240.453 107.855 240.453 107.852C240.453 107.85 240.453 107.847 240.453 107.844C240.453 107.841 240.453 107.839 240.453 107.836C240.453 107.833 240.453 107.831 240.453 107.828C240.453 107.825 240.453 107.823 240.453 107.82C240.453 107.817 240.453 107.815 240.453 107.812C240.453 107.809 240.453 107.807 240.453 107.804C240.453 107.801 240.453 107.799 240.453 107.796C240.453 107.793 240.453 107.791 240.453 107.788C240.453 107.786 240.453 107.783 240.453 107.78C240.453 107.778 240.453 107.775 240.453 107.772C240.453 107.77 240.453 107.767 240.453 107.765C240.453 107.762 240.453 107.759 240.453 107.757C240.453 107.754 240.453 107.752 240.453 107.749C240.453 107.746 240.453 107.744 240.453 107.741C240.453 107.739 240.453 107.736 240.453 107.733C240.453 107.731 240.453 107.728 240.453 107.726C240.453 107.723 240.453 107.721 240.453 107.718C240.453 107.715 240.453 107.713 240.453 107.71C240.453 107.708 240.453 107.705 240.453 107.703C240.453 107.7 240.453 107.698 240.453 107.695C240.453 107.693 240.453 107.69 240.453 107.688C240.453 107.685 240.453 107.683 240.453 107.68C240.453 107.677 240.453 107.675 240.453 107.672C240.453 107.67 240.453 107.667 240.453 107.665C240.453 107.662 240.453 107.66 240.453 107.657C240.453 107.655 240.453 107.653 240.453 107.65C240.453 107.648 240.453 107.645 240.453 107.643C240.453 107.64 240.453 107.638 240.453 107.635C240.453 107.633 240.453 107.63 240.453 107.628C240.453 107.625 240.453 107.623 240.453 107.62C240.453 107.618 240.453 107.616 240.453 107.613C240.453 107.611 240.453 107.608 240.453 107.606C240.453 107.603 240.453 107.601 240.453 107.599C240.453 107.596 240.453 107.594 240.453 107.591C240.453 107.589 240.453 107.587 240.453 107.584C240.453 107.582 240.453 107.579 240.453 107.577C240.453 107.575 240.453 107.572 240.453 107.57C240.453 107.567 240.453 107.565 240.453 107.563C240.453 107.56 240.453 107.558 240.453 107.556C240.453 107.553 240.453 107.551 240.453 107.549C240.453 107.546 240.453 107.544 240.453 107.542C240.453 107.539 240.453 107.537 240.453 107.535C240.453 107.532 240.453 107.53 240.453 107.528C240.453 107.525 240.453 107.523 240.453 107.521C240.453 107.518 240.453 107.516 240.453 107.514C240.453 107.511 240.453 107.509 240.453 107.507C240.453 107.505 240.453 107.502 240.453 107.5H239.453C239.453 107.502 239.453 107.505 239.453 107.507C239.453 107.509 239.453 107.511 239.453 107.514C239.453 107.516 239.453 107.518 239.453 107.521C239.453 107.523 239.453 107.525 239.453 107.528C239.453 107.53 239.453 107.532 239.453 107.535C239.453 107.537 239.453 107.539 239.453 107.542C239.453 107.544 239.453 107.546 239.453 107.549C239.453 107.551 239.453 107.553 239.453 107.556C239.453 107.558 239.453 107.56 239.453 107.563C239.453 107.565 239.453 107.567 239.453 107.57C239.453 107.572 239.453 107.575 239.453 107.577C239.453 107.579 239.453 107.582 239.453 107.584C239.453 107.587 239.453 107.589 239.453 107.591C239.453 107.594 239.453 107.596 239.453 107.599C239.453 107.601 239.453 107.603 239.453 107.606C239.453 107.608 239.453 107.611 239.453 107.613C239.453 107.616 239.453 107.618 239.453 107.62C239.453 107.623 239.453 107.625 239.453 107.628C239.453 107.63 239.453 107.633 239.453 107.635C239.453 107.638 239.453 107.64 239.453 107.643C239.453 107.645 239.453 107.648 239.453 107.65C239.453 107.653 239.453 107.655 239.453 107.657C239.453 107.66 239.453 107.662 239.453 107.665C239.453 107.667 239.453 107.67 239.453 107.672C239.453 107.675 239.453 107.677 239.453 107.68C239.453 107.683 239.453 107.685 239.453 107.688C239.453 107.69 239.453 107.693 239.453 107.695C239.453 107.698 239.453 107.7 239.453 107.703C239.453 107.705 239.453 107.708 239.453 107.71C239.453 107.713 239.453 107.715 239.453 107.718C239.453 107.721 239.453 107.723 239.453 107.726C239.453 107.728 239.453 107.731 239.453 107.733C239.453 107.736 239.453 107.739 239.453 107.741C239.453 107.744 239.453 107.746 239.453 107.749C239.453 107.752 239.453 107.754 239.453 107.757C239.453 107.759 239.453 107.762 239.453 107.765C239.453 107.767 239.453 107.77 239.453 107.772C239.453 107.775 239.453 107.778 239.453 107.78C239.453 107.783 239.453 107.786 239.453 107.788C239.453 107.791 239.453 107.793 239.453 107.796C239.453 107.799 239.453 107.801 239.453 107.804C239.453 107.807 239.453 107.809 239.453 107.812C239.453 107.815 239.453 107.817 239.453 107.82C239.453 107.823 239.453 107.825 239.453 107.828C239.453 107.831 239.453 107.833 239.453 107.836C239.453 107.839 239.453 107.841 239.453 107.844C239.453 107.847 239.453 107.85 239.453 107.852C239.453 107.855 239.453 107.858 239.453 107.86C239.453 107.863 239.453 107.866 239.453 107.868C239.453 107.871 239.453 107.874 239.453 107.877C239.453 107.879 239.453 107.882 239.453 107.885C239.453 107.888 239.453 107.89 239.453 107.893C239.453 107.896 239.453 107.898 239.453 107.901C239.453 107.904 239.453 107.907 239.453 107.909C239.453 107.912 239.453 107.915 239.453 107.918C239.453 107.921 239.453 107.923 239.453 107.926C239.453 107.929 239.453 107.932 239.453 107.934C239.453 107.937 239.453 107.94 239.453 107.943C239.453 107.945 239.453 107.948 239.453 107.951C239.453 107.954 239.453 107.957 239.453 107.959C239.453 107.962 239.453 107.965 239.453 107.968C239.453 107.971 239.453 107.973 239.453 107.976C239.453 107.979 239.453 107.982 239.453 107.985C239.453 107.988 239.453 107.99 239.453 107.993C239.453 107.996 239.453 107.999 239.453 108.002C239.453 108.004 239.453 108.007 239.453 108.01C239.453 108.013 239.453 108.016 239.453 108.019C239.453 108.022 239.453 108.024 239.453 108.027C239.453 108.03 239.453 108.033 239.453 108.036C239.453 108.039 239.453 108.042 239.453 108.044C239.453 108.047 239.453 108.05 239.453 108.053C239.453 108.056 239.453 108.059 239.453 108.062C239.453 108.065 239.453 108.067 239.453 108.07C239.453 108.073 239.453 108.076 239.453 108.079C239.453 108.082 239.453 108.085 239.453 108.088C239.453 108.091 239.453 108.093 239.453 108.096C239.453 108.099 239.453 108.102 239.453 108.105C239.453 108.108 239.453 108.111 239.453 108.114C239.453 108.117 239.453 108.12 239.453 108.123C239.453 108.126 239.453 108.128 239.453 108.131C239.453 108.134 239.453 108.137 239.453 108.14C239.453 108.143 239.453 108.146 239.453 108.149C239.453 108.152 239.453 108.155 239.453 108.158C239.453 108.161 239.453 108.164 239.453 108.167C239.453 108.17 239.453 108.173 239.453 108.176C239.453 108.179 239.453 108.182 239.453 108.185C239.453 108.187 239.453 108.19 239.453 108.193C239.453 108.196 239.453 108.199 239.453 108.202C239.453 108.205 239.453 108.208 239.453 108.211C239.453 108.214 239.453 108.217 239.453 108.22C239.453 108.223 239.453 108.226 239.453 108.229C239.453 108.232 239.453 108.235 239.453 108.238C239.453 108.241 239.453 108.244 239.453 108.247C239.453 108.25 239.453 108.253 239.453 108.256C239.453 108.259 239.453 108.262 239.453 108.265C239.453 108.268 239.453 108.271 239.453 108.274C239.453 108.277 239.453 108.281 239.453 108.284C239.453 108.287 239.453 108.29 239.453 108.293C239.453 108.296 239.453 108.299 239.453 108.302C239.453 108.305 239.453 108.308 239.453 108.311C239.453 108.314 239.453 108.317 239.453 108.32C239.453 108.323 239.453 108.326 239.453 108.329C239.453 108.332 239.453 108.335 239.453 108.338C239.453 108.341 239.453 108.345 239.453 108.348C239.453 108.351 239.453 108.354 239.453 108.357C239.453 108.36 239.453 108.363 239.453 108.366C239.453 108.369 239.453 108.372 239.453 108.375C239.453 108.378 239.453 108.381 239.453 108.385C239.453 108.388 239.453 108.391 239.453 108.394C239.453 108.397 239.453 108.4 239.453 108.403C239.453 108.406 239.453 108.409 239.453 108.412C239.453 108.416 239.453 108.419 239.453 108.422C239.453 108.425 239.453 108.428 239.453 108.431C239.453 108.434 239.453 108.437 239.453 108.44C239.453 108.444 239.453 108.447 239.453 108.45C239.453 108.453 239.453 108.456 239.453 108.459C239.453 108.462 239.453 108.465 239.453 108.469C239.453 108.472 239.453 108.475 239.453 108.478C239.453 108.481 239.453 108.484 239.453 108.487C239.453 108.49 239.453 108.494 239.453 108.497C239.453 108.5 239.453 108.503 239.453 108.506C239.453 108.509 239.453 108.513 239.453 108.516C239.453 108.519 239.453 108.522 239.453 108.525C239.453 108.528 239.453 108.531 239.453 108.535C239.453 108.538 239.453 108.541 239.453 108.544C239.453 108.547 239.453 108.55 239.453 108.554C239.453 108.557 239.453 108.56 239.453 108.563C239.453 108.566 239.453 108.569 239.453 108.573C239.453 108.576 239.453 108.579 239.453 108.582C239.453 108.585 239.453 108.589 239.453 108.592C239.453 108.595 239.453 108.598 239.453 108.601C239.453 108.605 239.453 108.608 239.453 108.611C239.453 108.614 239.453 108.617 239.453 108.62C239.453 108.624 239.453 108.627 239.453 108.63C239.453 108.633 239.453 108.636 239.453 108.64C239.453 108.643 239.453 108.646 239.453 108.649C239.453 108.653 239.453 108.656 239.453 108.659C239.453 108.662 239.453 108.665 239.453 108.669C239.453 108.672 239.453 108.675 239.453 108.678C239.453 108.681 239.453 108.685 239.453 108.688C239.453 108.691 239.453 108.694 239.453 108.698C239.453 108.701 239.453 108.704 239.453 108.707C239.453 108.71 239.453 108.714 239.453 108.717C239.453 108.72 239.453 108.723 239.453 108.727C239.453 108.73 239.453 108.733 239.453 108.736C239.453 108.74 239.453 108.743 239.453 108.746C239.453 108.749 239.453 108.753 239.453 108.756C239.453 108.759 239.453 108.762 239.453 108.766C239.453 108.769 239.453 108.772 239.453 108.775C239.453 108.779 239.453 108.782 239.453 108.785C239.453 108.788 239.453 108.792 239.453 108.795C239.453 108.798 239.453 108.801 239.453 108.805C239.453 108.808 239.453 108.811 239.453 108.814C239.453 108.818 239.453 108.821 239.453 108.824C239.453 108.827 239.453 108.831 239.453 108.834C239.453 108.837 239.453 108.841 239.453 108.844C239.453 108.847 239.453 108.85 239.453 108.854C239.453 108.857 239.453 108.86 239.453 108.863C239.453 108.867 239.453 108.87 239.453 108.873C239.453 108.877 239.453 108.88 239.453 108.883C239.453 108.886 239.453 108.89 239.453 108.893C239.453 108.896 239.453 108.9 239.453 108.903C239.453 108.906 239.453 108.909 239.453 108.913C239.453 108.916 239.453 108.919 239.453 108.923C239.453 108.926 239.453 108.929 239.453 108.932C239.453 108.936 239.453 108.939 239.453 108.942C239.453 108.946 239.453 108.949 239.453 108.952C239.453 108.955 239.453 108.959 239.453 108.962C239.453 108.965 239.453 108.969 239.453 108.972C239.453 108.975 239.453 108.979 239.453 108.982C239.453 108.985 239.453 108.988 239.453 108.992C239.453 108.995 239.453 108.998 239.453 109.002C239.453 109.005 239.453 109.008 239.453 109.012C239.453 109.015 239.453 109.018 239.453 109.022C239.453 109.025 239.453 109.028 239.453 109.032C239.453 109.035 239.453 109.038 239.453 109.041C239.453 109.045 239.453 109.048 239.453 109.051C239.453 109.055 239.453 109.058 239.453 109.061C239.453 109.065 239.453 109.068 239.453 109.071C239.453 109.075 239.453 109.078 239.453 109.081C239.453 109.085 239.453 109.088 239.453 109.091C239.453 109.095 239.453 109.098 239.453 109.101C239.453 109.105 239.453 109.108 239.453 109.111C239.453 109.114 239.453 109.118 239.453 109.121C239.453 109.124 239.453 109.128 239.453 109.131C239.453 109.134 239.453 109.138 239.453 109.141C239.453 109.144 239.453 109.148 239.453 109.151C239.453 109.154 239.453 109.158 239.453 109.161C239.453 109.164 239.453 109.168 239.453 109.171C239.453 109.174 239.453 109.178 239.453 109.181C239.453 109.184 239.453 109.188 239.453 109.191C239.453 109.194 239.453 109.198 239.453 109.201C239.453 109.204 239.453 109.208 239.453 109.211C239.453 109.214 239.453 109.218 239.453 109.221C239.453 109.224 239.453 109.228 239.453 109.231C239.453 109.234 239.453 109.238 239.453 109.241C239.453 109.244 239.453 109.248 239.453 109.251C239.453 109.255 239.453 109.258 239.453 109.261C239.453 109.265 239.453 109.268 239.453 109.271C239.453 109.275 239.453 109.278 239.453 109.281C239.453 109.285 239.453 109.288 239.453 109.291C239.453 109.295 239.453 109.298 239.453 109.301C239.453 109.305 239.453 109.308 239.453 109.311C239.453 109.315 239.453 109.318 239.453 109.321C239.453 109.325 239.453 109.328 239.453 109.331C239.453 109.335 239.453 109.338 239.453 109.341C239.453 109.345 239.453 109.348 239.453 109.351C239.453 109.355 239.453 109.358 239.453 109.361C239.453 109.365 239.453 109.368 239.453 109.372C239.453 109.375 239.453 109.378 239.453 109.382C239.453 109.385 239.453 109.388 239.453 109.392C239.453 109.395 239.453 109.398 239.453 109.402C239.453 109.405 239.453 109.408 239.453 109.412C239.453 109.415 239.453 109.418 239.453 109.422C239.453 109.425 239.453 109.428 239.453 109.432C239.453 109.435 239.453 109.438 239.453 109.442C239.453 109.445 239.453 109.448 239.453 109.452C239.453 109.455 239.453 109.458 239.453 109.462C239.453 109.465 239.453 109.468 239.453 109.472C239.453 109.475 239.453 109.479 239.453 109.482C239.453 109.485 239.453 109.489 239.453 109.492C239.453 109.495 239.453 109.499 239.453 109.502C239.453 109.505 239.453 109.509 239.453 109.512C239.453 109.515 239.453 109.519 239.453 109.522C239.453 109.525 239.453 109.529 239.453 109.532C239.453 109.535 239.453 109.539 239.453 109.542C239.453 109.545 239.453 109.549 239.453 109.552C239.453 109.555 239.453 109.559 239.453 109.562C239.453 109.565 239.453 109.569 239.453 109.572C239.453 109.575 239.453 109.579 239.453 109.582C239.453 109.585 239.453 109.589 239.453 109.592C239.453 109.595 239.453 109.599 239.453 109.602C239.453 109.605 239.453 109.609 239.453 109.612C239.453 109.615 239.453 109.619 239.453 109.622C239.453 109.625 239.453 109.629 239.453 109.632C239.453 109.635 239.453 109.639 239.453 109.642C239.453 109.645 239.453 109.649 239.453 109.652C239.453 109.655 239.453 109.659 239.453 109.662C239.453 109.665 239.453 109.669 239.453 109.672C239.453 109.675 239.453 109.679 239.453 109.682C239.453 109.685 239.453 109.689 239.453 109.692C239.453 109.695 239.453 109.699 239.453 109.702C239.453 109.705 239.453 109.709 239.453 109.712C239.453 109.715 239.453 109.719 239.453 109.722C239.453 109.725 239.453 109.729 239.453 109.732C239.453 109.735 239.453 109.738 239.453 109.742C239.453 109.745 239.453 109.748 239.453 109.752C239.453 109.755 239.453 109.758 239.453 109.762C239.453 109.765 239.453 109.768 239.453 109.772C239.453 109.775 239.453 109.778 239.453 109.782C239.453 109.785 239.453 109.788 239.453 109.791C239.453 109.795 239.453 109.798 239.453 109.801C239.453 109.805 239.453 109.808 239.453 109.811C239.453 109.815 239.453 109.818 239.453 109.821C239.453 109.825 239.453 109.828 239.453 109.831C239.453 109.834 239.453 109.838 239.453 109.841C239.453 109.844 239.453 109.848 239.453 109.851C239.453 109.854 239.453 109.858 239.453 109.861C239.453 109.864 239.453 109.867 239.453 109.871C239.453 109.874 239.453 109.877 239.453 109.881C239.453 109.884 239.453 109.887 239.453 109.89C239.453 109.894 239.453 109.897 239.453 109.9C239.453 109.904 239.453 109.907 239.453 109.91C239.453 109.913 239.453 109.917 239.453 109.92C239.453 109.923 239.453 109.927 239.453 109.93C239.453 109.933 239.453 109.936 239.453 109.94C239.453 109.943 239.453 109.946 239.453 109.949C239.453 109.953 239.453 109.956 239.453 109.959C239.453 109.963 239.453 109.966 239.453 109.969C239.453 109.972 239.453 109.976 239.453 109.979C239.453 109.982 239.453 109.985 239.453 109.989C239.453 109.992 239.453 109.995 239.453 109.998C239.453 110.002 239.453 110.005 239.453 110.008C239.453 110.011 239.453 110.015 239.453 110.018C239.453 110.021 239.453 110.024 239.453 110.028C239.453 110.031 239.453 110.034 239.453 110.037C239.453 110.041 239.453 110.044 239.453 110.047C239.453 110.05 239.453 110.054 239.453 110.057C239.453 110.06 239.453 110.063 239.453 110.067C239.453 110.07 239.453 110.073 239.453 110.076C239.453 110.08 239.453 110.083 239.453 110.086C239.453 110.089 239.453 110.093 239.453 110.096C239.453 110.099 239.453 110.102 239.453 110.105C239.453 110.109 239.453 110.112 239.453 110.115C239.453 110.118 239.453 110.122 239.453 110.125C239.453 110.128 239.453 110.131 239.453 110.134C239.453 110.138 239.453 110.141 239.453 110.144C239.453 110.147 239.453 110.15 239.453 110.154C239.453 110.157 239.453 110.16 239.453 110.163C239.453 110.166 239.453 110.17 239.453 110.173C239.453 110.176 239.453 110.179 239.453 110.182C239.453 110.186 239.453 110.189 239.453 110.192C239.453 110.195 239.453 110.198 239.453 110.202C239.453 110.205 239.453 110.208 239.453 110.211C239.453 110.214 239.453 110.218 239.453 110.221C239.453 110.224 239.453 110.227 239.453 110.23C239.453 110.233 239.453 110.237 239.453 110.24C239.453 110.243 239.453 110.246 239.453 110.249C239.453 110.252 239.453 110.256 239.453 110.259C239.453 110.262 239.453 110.265 239.453 110.268C239.453 110.271 239.453 110.275 239.453 110.278C239.453 110.281 239.453 110.284 239.453 110.287C239.453 110.29 239.453 110.293 239.453 110.297C239.453 110.3 239.453 110.303 239.453 110.306C239.453 110.309 239.453 110.312 239.453 110.315C239.453 110.319 239.453 110.322 239.453 110.325C239.453 110.328 239.453 110.331 239.453 110.334C239.453 110.337 239.453 110.341 239.453 110.344C239.453 110.347 239.453 110.35 239.453 110.353C239.453 110.356 239.453 110.359 239.453 110.362C239.453 110.365 239.453 110.369 239.453 110.372C239.453 110.375 239.453 110.378 239.453 110.381C239.453 110.384 239.453 110.387 239.453 110.39C239.453 110.393 239.453 110.397 239.453 110.4C239.453 110.403 239.453 110.406 239.453 110.409C239.453 110.412 239.453 110.415 239.453 110.418C239.453 110.421 239.453 110.424 239.453 110.427C239.453 110.431 239.453 110.434 239.453 110.437C239.453 110.44 239.453 110.443 239.453 110.446C239.453 110.449 239.453 110.452 239.453 110.455C239.453 110.458 239.453 110.461 239.453 110.464C239.453 110.467 239.453 110.47 239.453 110.473C239.453 110.477 239.453 110.48 239.453 110.483C239.453 110.486 239.453 110.489 239.453 110.492C239.453 110.495 239.453 110.498 239.453 110.501C239.453 110.504 239.453 110.507 239.453 110.51C239.453 110.513 239.453 110.516 239.453 110.519C239.453 110.522 239.453 110.525 239.453 110.528C239.453 110.531 239.453 110.534 239.453 110.537C239.453 110.54 239.453 110.543 239.453 110.546C239.453 110.549 239.453 110.552 239.453 110.555C239.453 110.558 239.453 110.561 239.453 110.564C239.453 110.567 239.453 110.57 239.453 110.573C239.453 110.576 239.453 110.579 239.453 110.582C239.453 110.585 239.453 110.588 239.453 110.591C239.453 110.594 239.453 110.597 239.453 110.6C239.453 110.603 239.453 110.606 239.453 110.609C239.453 110.612 239.453 110.615 239.453 110.618C239.453 110.621 239.453 110.624 239.453 110.627C239.453 110.63 239.453 110.633 239.453 110.636C239.453 110.639 239.453 110.642 239.453 110.645C239.453 110.648 239.453 110.65 239.453 110.653C239.453 110.656 239.453 110.659 239.453 110.662C239.453 110.665 239.453 110.668 239.453 110.671C239.453 110.674 239.453 110.677 239.453 110.68C239.453 110.683 239.453 110.686 239.453 110.689C239.453 110.691 239.453 110.694 239.453 110.697C239.453 110.7 239.453 110.703 239.453 110.706C239.453 110.709 239.453 110.712 239.453 110.715C239.453 110.718 239.453 110.721 239.453 110.723C239.453 110.726 239.453 110.729 239.453 110.732C239.453 110.735 239.453 110.738 239.453 110.741C239.453 110.744 239.453 110.746 239.453 110.749C239.453 110.752 239.453 110.755 239.453 110.758C239.453 110.761 239.453 110.764 239.453 110.766C239.453 110.769 239.453 110.772 239.453 110.775C239.453 110.778 239.453 110.781 239.453 110.784C239.453 110.786 239.453 110.789 239.453 110.792C239.453 110.795 239.453 110.798 239.453 110.801C239.453 110.803 239.453 110.806 239.453 110.809C239.453 110.812 239.453 110.815 239.453 110.818C239.453 110.82 239.453 110.823 239.453 110.826C239.453 110.829 239.453 110.832 239.453 110.834C239.453 110.837 239.453 110.84 239.453 110.843C239.453 110.846 239.453 110.848 239.453 110.851C239.453 110.854 239.453 110.857 239.453 110.859C239.453 110.862 239.453 110.865 239.453 110.868C239.453 110.871 239.453 110.873 239.453 110.876C239.453 110.879 239.453 110.882 239.453 110.884C239.453 110.887 239.453 110.89 239.453 110.893C239.453 110.895 239.453 110.898 239.453 110.901C239.453 110.904 239.453 110.906 239.453 110.909C239.453 110.912 239.453 110.915 239.453 110.917C239.453 110.92 239.453 110.923 239.453 110.925C239.453 110.928 239.453 110.931 239.453 110.934C239.453 110.936 239.453 110.939 239.453 110.942C239.453 110.944 239.453 110.947 239.453 110.95C239.453 110.953 239.453 110.955 239.453 110.958C239.453 110.961 239.453 110.963 239.453 110.966C239.453 110.969 239.453 110.971 239.453 110.974C239.453 110.977 239.453 110.979 239.453 110.982C239.453 110.985 239.453 110.987 239.453 110.99C239.453 110.993 239.453 110.995 239.453 110.998C239.453 111.001 239.453 111.003 239.453 111.006C239.453 111.008 239.453 111.011 239.453 111.014C239.453 111.016 239.453 111.019 239.453 111.022C239.453 111.024 239.453 111.027 239.453 111.029C239.453 111.032 239.453 111.035 239.453 111.037C239.453 111.04 239.453 111.042 239.453 111.045C239.453 111.048 239.453 111.05 239.453 111.053C239.453 111.055 239.453 111.058 239.453 111.061C239.453 111.063 239.453 111.066 239.453 111.068C239.453 111.071 239.453 111.073 239.453 111.076C239.453 111.079 239.453 111.081 239.453 111.084C239.453 111.086 239.453 111.089 239.453 111.091C239.453 111.094 239.453 111.096 239.453 111.099C239.453 111.102 239.453 111.104 239.453 111.107C239.453 111.109 239.453 111.112 239.453 111.114C239.453 111.117 239.453 111.119 239.453 111.122C239.453 111.124 239.453 111.127 239.453 111.129C239.453 111.132 239.453 111.134 239.453 111.137C239.453 111.139 239.453 111.142 239.453 111.144C239.453 111.147 239.453 111.149 239.453 111.152C239.453 111.154 239.453 111.157 239.453 111.159C239.453 111.161 239.453 111.164 239.453 111.166C239.453 111.169 239.453 111.171 239.453 111.174C239.453 111.176 239.453 111.179 239.453 111.181C239.453 111.184 239.453 111.186 239.453 111.188C239.453 111.191 239.453 111.193 239.453 111.196C239.453 111.198 239.453 111.2 239.453 111.203C239.453 111.205 239.453 111.208 239.453 111.21C239.453 111.212 239.453 111.215 239.453 111.217C239.453 111.22 239.453 111.222 239.453 111.224C239.453 111.227 239.453 111.229 239.453 111.232C239.453 111.234 239.453 111.236 239.453 111.239C239.453 111.241 239.453 111.243 239.453 111.246C239.453 111.248 239.453 111.25 239.453 111.253C239.453 111.255 239.453 111.257 239.453 111.26C239.453 111.262 239.453 111.264 239.453 111.267C239.453 111.269 239.453 111.271 239.453 111.274C239.453 111.276 239.453 111.278 239.453 111.281C239.453 111.283 239.453 111.285 239.453 111.288C239.453 111.29 239.453 111.292 239.453 111.294C239.453 111.297 239.453 111.299 239.453 111.301C239.453 111.304 239.453 111.306 239.453 111.308C239.453 111.31 239.453 111.313 239.453 111.315C239.453 111.317 239.453 111.319 239.453 111.322C239.453 111.324 239.453 111.326 239.453 111.328C239.453 111.33 239.453 111.333 239.453 111.335C239.453 111.337 239.453 111.339 239.453 111.342C239.453 111.344 239.453 111.346 239.453 111.348C239.453 111.35 239.453 111.353 239.453 111.355C239.453 111.357 239.453 111.359 239.453 111.361C239.453 111.364 239.453 111.366 239.453 111.368C239.453 111.37 239.453 111.372 239.453 111.374C239.453 111.377 239.453 111.379 239.453 111.381C239.453 111.383 239.453 111.385 239.453 111.387C239.453 111.389 239.453 111.392 239.453 111.394C239.453 111.396 239.453 111.398 239.453 111.4C239.453 111.402 239.453 111.404 239.453 111.406C239.453 111.408 239.453 111.411 239.453 111.413C239.453 111.415 239.453 111.417 239.453 111.419C239.453 111.421 239.453 111.423 239.453 111.425C239.453 111.427 239.453 111.429 239.453 111.431C239.453 111.433 239.453 111.435 239.453 111.437C239.453 111.44 239.453 111.442 239.453 111.444C239.453 111.446 239.453 111.448 239.453 111.45C239.453 111.452 239.453 111.454 239.453 111.456C239.453 111.458 239.453 111.46 239.453 111.462C239.453 111.464 239.453 111.466 239.453 111.468C239.453 111.47 239.453 111.472 239.453 111.474C239.453 111.476 239.453 111.478 239.453 111.48C239.453 111.482 239.453 111.484 239.453 111.486C239.453 111.488 239.453 111.49 239.453 111.491C239.453 111.493 239.453 111.495 239.453 111.497C239.453 111.499 239.453 111.501 239.453 111.503C239.453 111.505 239.453 111.507 239.453 111.509C239.453 111.511 239.453 111.513 239.453 111.515C239.453 111.516 239.453 111.518 239.453 111.52C239.453 111.522 239.453 111.524 239.453 111.526C239.453 111.528 239.453 111.53 239.453 111.532C239.453 111.533 239.453 111.535 239.453 111.537C239.453 111.539 239.453 111.541 239.453 111.543C239.453 111.544 239.453 111.546 239.453 111.548C239.453 111.55 239.453 111.552 239.453 111.554C239.453 111.555 239.453 111.557 239.453 111.559C239.453 111.561 239.453 111.563 239.453 111.564C239.453 111.566 239.453 111.568 239.453 111.57C239.453 111.572 239.453 111.573 239.453 111.575C239.453 111.577 239.453 111.579 239.453 111.58C239.453 111.582 239.453 111.584 239.453 111.586C239.453 111.587 239.453 111.589 239.453 111.591C239.453 111.593 239.453 111.594 239.453 111.596C239.453 111.598 239.453 111.6 239.453 111.601C239.453 111.603 239.453 111.605 239.453 111.606C239.453 111.608 239.453 111.61 239.453 111.611C239.453 111.613 239.453 111.615 239.453 111.616C239.453 111.618 239.453 111.62 239.453 111.621C239.453 111.623 239.453 111.625 239.453 111.626C239.453 111.628 239.453 111.63 239.453 111.631C239.453 111.633 239.453 111.635 239.453 111.636C239.453 111.638 239.453 111.639 239.453 111.641C239.453 111.643 239.453 111.644 239.453 111.646C239.453 111.647 239.453 111.649 239.453 111.651C239.453 111.652 239.453 111.654 239.453 111.655C239.453 111.657 239.453 111.658 239.453 111.66C239.453 111.662 239.453 111.663 239.453 111.665C239.453 111.666 239.453 111.668 239.453 111.669C239.453 111.671 239.453 111.672 239.453 111.674C239.453 111.675 239.453 111.677 239.453 111.678C239.453 111.68 239.453 111.681 239.453 111.683C239.453 111.684 239.453 111.686 239.453 111.687C239.453 111.689 239.453 111.69 239.453 111.692C239.453 111.693 239.453 111.695 239.453 111.696C239.453 111.698 239.453 111.699 239.453 111.7C239.453 111.702 239.453 111.703 239.453 111.705C239.453 111.706 239.453 111.708 239.453 111.709C239.453 111.71 239.453 111.712 239.453 111.713C239.453 111.715 239.453 111.716 239.453 111.717C239.453 111.719 239.453 111.72 239.453 111.721C239.453 111.723 239.453 111.724 239.453 111.725C239.453 111.727 239.453 111.728 239.453 111.73C239.453 111.731 239.453 111.732 239.453 111.734C239.453 111.735 239.453 111.736 239.453 111.737C239.453 111.739 239.453 111.74 239.453 111.741C239.453 111.743 239.453 111.744 239.453 111.745C239.453 111.747 239.453 111.748 239.453 111.749C239.453 111.75 239.453 111.752 239.453 111.753C239.453 111.754 239.453 111.755 239.453 111.757C239.453 111.758 239.453 111.759 239.453 111.76C239.453 111.762 239.453 111.763 239.453 111.764C239.453 111.765 239.453 111.766 239.453 111.768H240.453ZM239.728 107.053L232.775 110.553L233.225 111.447L240.177 107.947L239.728 107.053ZM239.453 107.5V111.768H240.453V107.5H239.453Z" fill="black"/>
<path d="M152.5 50C154.5 46.8334 157 40 151 38C148.333 38.8333 143.1 41 143.5 43C143.537 43.1846 143.574 43.3501 143.611 43.5C144.027 45.1894 144.443 44.8884 144.859 47.5C144.906 47.7941 144.953 48.1251 145 48.5C146.833 49.3333 150.9 50.8 152.5 50Z" fill="#C0C0C0"/>
<path fill-rule="evenodd" clip-rule="evenodd" d="M152.5 52C151.333 52.5 148.2 53.7 145 54.5C143.862 54.7845 143.07 54.5294 142.529 54C142.686 59 143.4 68.8 145 68C146.987 67.0063 146.759 66.1352 146.676 65.818L146.674 65.8121C146.79 66.2519 146.901 66.6548 147 67C144.6 73 148 75.1667 150 75.5L152.5 78.5L154.5 77L151 71.5L152.5 67C154.167 66.6667 157.5 66.8 157.5 70C157.5 74 159 74.5 161.5 77C163.5 79 163.667 76.1667 163.5 74.5C162.833 74.1667 161.5 73.1 161.5 71.5C161.5 69.5 159 65.5 157.5 64C156 62.5 155 54.5 156 55.5C156.8 56.3 160 55.1667 161.5 54.5C161.833 52.1667 162.7 47.1 163.5 45.5C164.3 43.9 163.167 42.1667 162.5 41.5C160.833 41.5 157.8 41.9 159 43.5C160.5 45.5 159 50 157.5 52C156.3 53.6 153.667 52.6667 152.5 52ZM152.5 55.5C152.5 56.3 149.167 56.1667 147.5 56C147.833 57.6667 148.6 61.4 149 63C149.5 65 151 63.5 152.5 63.5C154 63.5 152.5 54.5 152.5 55.5Z" fill="white"/>
<path d="M151 38C143.5 35.5 140 38.5 139.5 41.5C139 44.5 139 50 141.5 50C144 50 151 53.0554 152.5 50C150.9 50.8 146.833 49.3333 145 48.5C144.953 48.1251 144.906 47.7941 144.859 47.5L144.5 48C144 48.1667 142.7 48.2 141.5 47C140.3 45.8 142.333 43.8333 143.5 43C143.1 41 148.333 38.8333 151 38Z" fill="white"/>
<path d="M152.5 50C151 53.0554 144 50 141.5 50C141.393 51.1813 141.548 53.0408 142.529 54C143.07 54.5294 143.862 54.7845 145 54.5C148.2 53.7 151.333 52.5 152.5 52C153.167 51.6667 154.1 50.8 152.5 50Z" fill="white"/>
<path d="M143.611 43.5C143.574 43.3501 143.537 43.1846 143.5 43C142.333 43.8333 140.3 45.8 141.5 47C142.7 48.2 144 48.1667 144.5 48L144.859 47.5C144.443 44.8884 144.027 45.1894 143.611 43.5Z" fill="#0F0F0F"/>
<path d="M147.5 56C149.167 56.1667 152.5 56.3 152.5 55.5C152.5 54.5 154 63.5 152.5 63.5C151 63.5 149.5 65 149 63C148.6 61.4 147.833 57.6667 147.5 56Z" fill="white"/>
<path d="M157.5 52L157.9 52.3L157.5 52ZM159 43.5L159.4 43.2L159 43.5ZM162.5 41.5L162.854 41.1465C162.76 41.0527 162.633 41 162.5 41V41.5ZM161.5 54.5L161.703 54.9569C161.86 54.887 161.971 54.7411 161.995 54.5707L161.5 54.5ZM163.5 74.5L163.998 74.4502C163.98 74.2795 163.877 74.1295 163.724 74.0528L163.5 74.5ZM152.5 67L152.402 66.5097C152.226 66.5449 152.082 66.6717 152.026 66.8419L152.5 67ZM151 71.5L150.526 71.3419C150.478 71.4847 150.497 71.6414 150.578 71.7684L151 71.5ZM154.5 77L154.8 77.4C155.009 77.2432 155.062 76.952 154.922 76.7316L154.5 77ZM152.5 78.5L152.116 78.8201C152.286 79.0246 152.587 79.0597 152.8 78.9L152.5 78.5ZM150 75.5L150.384 75.1799C150.307 75.0879 150.2 75.0265 150.082 75.0068L150 75.5ZM147 67L147.464 67.1857C147.505 67.0828 147.511 66.9692 147.481 66.8626L147 67ZM145.974 58.6581C146.062 58.3961 145.92 58.113 145.658 58.0257C145.396 57.9383 145.113 58.0799 145.026 58.3419L145.974 58.6581ZM145 68L144.776 67.5528L145 68ZM147.5 56L147.55 55.5025C147.392 55.4867 147.236 55.5467 147.13 55.6641C147.023 55.7816 146.979 55.9426 147.01 56.0981L147.5 56ZM143.5 43L143.99 42.9019L143.5 43ZM145 48.5L144.504 48.562C144.525 48.7344 144.635 48.8833 144.793 48.9552L145 48.5ZM143.893 45.9884C144.163 46.0476 144.429 45.8769 144.488 45.6072C144.548 45.3374 144.377 45.0708 144.107 45.0116L143.893 45.9884ZM144.5 48L144.658 48.4743C144.758 48.4411 144.845 48.3772 144.906 48.2918L144.5 48ZM146.676 65.818L146.192 65.9449V65.9449L146.676 65.818ZM152.923 50.267C153.947 48.6453 155.118 46.0613 155.249 43.589C155.315 42.3455 155.12 41.0984 154.477 40.0177C153.829 38.929 152.755 38.058 151.158 37.5257L150.842 38.4744C152.245 38.9421 153.109 39.6753 153.617 40.5292C154.13 41.3913 154.31 42.4254 154.251 43.536C154.132 45.7721 153.053 48.1881 152.077 49.733L152.923 50.267ZM151.158 37.5257C147.335 36.2514 144.451 36.3515 142.426 37.2287C140.393 38.1097 139.284 39.7529 139.007 41.4178L139.993 41.5822C140.216 40.2471 141.107 38.8904 142.824 38.1463C144.549 37.3985 147.165 37.2486 150.842 38.4744L151.158 37.5257ZM139.007 41.4178C138.751 42.9529 138.621 45.1315 138.88 46.9457C139.009 47.8487 139.241 48.7076 139.636 49.3545C140.041 50.0177 140.651 50.5 141.5 50.5V49.5C141.099 49.5 140.771 49.2949 140.489 48.833C140.197 48.3549 139.991 47.6513 139.87 46.8043C139.629 45.1185 139.749 43.0471 139.993 41.5822L139.007 41.4178ZM141.5 50.5C142.056 50.5 142.903 50.6744 143.95 50.9168C144.97 51.153 146.147 51.4445 147.291 51.6387C148.431 51.8321 149.59 51.9391 150.578 51.7829C151.577 51.6249 152.476 51.1826 152.949 50.2204L152.051 49.7797C151.774 50.3451 151.235 50.6666 150.422 50.7951C149.598 50.9253 148.569 50.8413 147.459 50.6528C146.353 50.4651 145.218 50.1838 144.175 49.9426C143.16 49.7075 142.194 49.5 141.5 49.5V50.5ZM145.121 54.9851C148.353 54.1771 151.512 52.9673 152.697 52.4596L152.303 51.5404C151.154 52.0327 148.047 53.2229 144.879 54.0149L145.121 54.9851ZM152.724 52.4472C152.923 52.3478 153.145 52.2072 153.341 52.031C153.532 51.8588 153.73 51.6239 153.825 51.3298C153.929 51.0119 153.9 50.6621 153.69 50.334C153.495 50.0283 153.164 49.7731 152.724 49.5528L152.276 50.4472C152.636 50.627 152.789 50.7801 152.847 50.8723C152.892 50.9421 152.888 50.9798 152.875 51.0202C152.854 51.0845 152.793 51.1787 152.672 51.2877C152.555 51.3929 152.411 51.4856 152.276 51.5528L152.724 52.4472ZM152.252 52.4341C152.875 52.7902 153.889 53.2194 154.927 53.3463C155.96 53.4726 157.144 53.3082 157.9 52.3L157.1 51.7C156.656 52.2918 155.924 52.4607 155.048 52.3537C154.178 52.2473 153.292 51.8765 152.748 51.5659L152.252 52.4341ZM157.9 52.3C158.698 51.2364 159.474 49.5451 159.862 47.8624C160.057 47.0179 160.159 46.155 160.108 45.3588C160.058 44.5652 159.853 43.8035 159.4 43.2L158.6 43.8C158.897 44.1965 159.067 44.7473 159.11 45.4225C159.153 46.095 159.068 46.8571 158.888 47.6376C158.526 49.2049 157.802 50.7636 157.1 51.7L157.9 52.3ZM159.4 43.2C159.167 42.8889 159.231 42.7776 159.246 42.75C159.297 42.6554 159.466 42.5094 159.847 42.3694C160.581 42.0999 161.685 42 162.5 42V41C161.648 41 160.403 41.1001 159.503 41.4307C159.067 41.5906 158.599 41.8446 158.366 42.275C158.098 42.7724 158.233 43.3111 158.6 43.8L159.4 43.2ZM162.146 41.8536C162.438 42.1448 162.844 42.6856 163.081 43.3244C163.317 43.9581 163.371 44.639 163.053 45.2764L163.947 45.7236C164.428 44.761 164.316 43.7753 164.019 42.9756C163.723 42.1811 163.229 41.5219 162.854 41.1465L162.146 41.8536ZM163.053 45.2764C162.618 46.1461 162.191 47.8807 161.835 49.6252C161.474 51.3952 161.173 53.2551 161.005 54.4293L161.995 54.5707C162.161 53.4115 162.459 51.5715 162.815 49.8248C163.176 48.0527 163.582 46.4539 163.947 45.7236L163.053 45.2764ZM161.297 54.0431C160.564 54.3687 159.418 54.8069 158.368 55.0644C157.841 55.1936 157.362 55.2714 156.981 55.275C156.572 55.2789 156.403 55.1959 156.354 55.1464L155.646 55.8536C155.997 56.2041 156.528 56.2794 156.991 56.275C157.482 56.2703 158.046 56.1731 158.607 56.0356C159.732 55.7597 160.936 55.298 161.703 54.9569L161.297 54.0431ZM156.354 55.1464C156.261 55.0543 156.067 54.8926 155.793 54.916C155.492 54.9417 155.336 55.164 155.272 55.2861C155.204 55.4176 155.168 55.5683 155.145 55.7029C155.122 55.8449 155.108 56.0055 155.102 56.1768C155.077 56.8549 155.16 57.8433 155.318 58.8874C155.477 59.9364 155.716 61.0706 156.014 62.0446C156.163 62.5315 156.329 62.9869 156.511 63.3753C156.69 63.7566 156.899 64.1061 157.146 64.3536L157.854 63.6464C157.726 63.5189 157.576 63.2903 157.417 62.9508C157.261 62.6185 157.111 62.2106 156.97 61.7522C156.69 60.8357 156.46 59.7511 156.307 58.7376C156.153 57.7192 156.079 56.8013 156.101 56.2138C156.107 56.0687 156.117 55.953 156.132 55.8661C156.147 55.7721 156.162 55.7415 156.16 55.7471C156.157 55.7517 156.14 55.7848 156.097 55.8217C156.049 55.863 155.974 55.9042 155.878 55.9124C155.699 55.9277 155.614 55.8207 155.646 55.8536L156.354 55.1464ZM157.146 64.3536C157.854 65.0608 158.828 66.3945 159.627 67.8085C160.025 68.512 160.372 69.2229 160.618 69.8726C160.868 70.5311 161 71.0895 161 71.5H162C162 70.9105 161.819 70.2189 161.553 69.518C161.284 68.8083 160.913 68.0505 160.498 67.3165C159.672 65.8555 158.646 64.4392 157.854 63.6464L157.146 64.3536ZM161 71.5C161 72.446 161.395 73.221 161.863 73.792C162.328 74.3588 162.885 74.7516 163.276 74.9472L163.724 74.0528C163.448 73.9151 163.005 73.6079 162.637 73.158C162.271 72.7124 162 72.154 162 71.5H161ZM163.002 74.5498C163.042 74.9467 163.062 75.4108 163.04 75.85C163.017 76.2983 162.953 76.6805 162.849 76.9368C162.798 77.0631 162.748 77.1304 162.714 77.162C162.689 77.1855 162.677 77.1873 162.662 77.1878C162.591 77.1903 162.339 77.1315 161.854 76.6464L161.146 77.3536C161.661 77.8685 162.179 78.2055 162.697 78.1872C163.288 78.1663 163.613 77.714 163.776 77.3132C163.942 76.9028 164.014 76.3892 164.038 75.9C164.063 75.4017 164.041 74.8867 163.998 74.4502L163.002 74.5498ZM161.854 76.6464C161.221 76.0139 160.643 75.4994 160.162 75.0491C159.674 74.5917 159.28 74.196 158.966 73.7668C158.359 72.9393 158 71.9282 158 70H157C157 72.0718 157.391 73.3107 158.159 74.3582C158.532 74.8665 158.983 75.3146 159.479 75.779C159.982 76.2506 160.529 76.7361 161.146 77.3536L161.854 76.6464ZM158 70C158 69.1091 157.766 68.3924 157.355 67.8369C156.946 67.2848 156.389 66.9282 155.801 66.707C154.641 66.2708 153.288 66.3325 152.402 66.5097L152.598 67.4903C153.379 67.3341 154.526 67.2959 155.449 67.643C155.902 67.8135 156.283 68.0694 156.551 68.4319C156.817 68.7909 157 69.2909 157 70H158ZM152.026 66.8419L150.526 71.3419L151.474 71.6581L152.974 67.1581L152.026 66.8419ZM150.578 71.7684L154.078 77.2684L154.922 76.7316L151.422 71.2316L150.578 71.7684ZM154.2 76.6L152.2 78.1L152.8 78.9L154.8 77.4L154.2 76.6ZM152.884 78.1799L150.384 75.1799L149.616 75.8201L152.116 78.8201L152.884 78.1799ZM150.082 75.0068C149.189 74.858 147.986 74.2961 147.279 73.1178C146.583 71.9588 146.302 70.0908 147.464 67.1857L146.536 66.8143C145.298 69.9092 145.517 72.1245 146.421 73.6322C147.314 75.1205 148.811 75.8087 149.918 75.9932L150.082 75.0068ZM141.002 49.9547C140.945 50.5847 140.957 51.3944 141.116 52.1824C141.274 52.9626 141.587 53.7788 142.179 54.3574L142.878 53.6426C142.489 53.2621 142.235 52.6689 142.096 51.9843C141.96 51.3074 141.948 50.5967 141.998 50.0453L141.002 49.9547ZM142.179 54.3574C142.864 55.0275 143.843 55.3046 145.121 54.9851L144.879 54.0149C143.881 54.2645 143.275 54.0312 142.878 53.6426L142.179 54.3574ZM142.029 54.0157C142.108 56.5241 142.326 60.2428 142.728 63.2413C142.927 64.7345 143.176 66.0797 143.487 67.0111C143.638 67.4674 143.823 67.8813 144.062 68.1592C144.184 68.3018 144.348 68.4404 144.561 68.5069C144.79 68.5781 145.02 68.5492 145.224 68.4472L144.776 67.5528C144.774 67.5539 144.784 67.5488 144.803 67.5468C144.824 67.5448 144.844 67.5474 144.859 67.5522C144.886 67.5606 144.87 67.5657 144.82 67.5072C144.713 67.3828 144.578 67.1232 144.435 66.6952C144.157 65.8578 143.917 64.5905 143.719 63.1087C143.324 60.1572 143.107 56.4759 143.028 53.9843L142.029 54.0157ZM147.157 65.6842C146.824 64.4244 146.449 62.8658 146.2 61.5C146.075 60.8163 145.984 60.1904 145.944 59.6788C145.902 59.143 145.924 58.8082 145.974 58.6581L145.026 58.3419C144.905 58.7031 144.905 59.2212 144.947 59.7566C144.991 60.3162 145.088 60.9795 145.216 61.6794C145.472 63.0808 145.854 64.6671 146.191 65.9399L147.157 65.6842ZM147.45 56.4975C148.296 56.5821 149.572 56.6593 150.647 56.612C151.179 56.5886 151.695 56.5336 152.091 56.4196C152.287 56.3633 152.492 56.282 152.658 56.1544C152.834 56.0193 153 55.8014 153 55.5H152C152 55.3986 152.062 55.3515 152.049 55.3616C152.026 55.3792 151.958 55.4175 151.815 55.4586C151.534 55.5393 151.113 55.5906 150.603 55.613C149.594 55.6574 148.37 55.5845 147.55 55.5025L147.45 56.4975ZM153 55.5C153 55.4692 153.003 55.4979 152.992 55.5457C152.988 55.561 152.98 55.5926 152.963 55.6309C152.949 55.6624 152.91 55.7436 152.821 55.8143C152.711 55.9023 152.555 55.9476 152.394 55.9082C152.264 55.8764 152.186 55.8026 152.157 55.7726C152.098 55.7119 152.073 55.6522 152.072 55.6499C152.065 55.635 152.062 55.626 152.063 55.6283C152.064 55.632 152.069 55.6474 152.077 55.6794C152.11 55.8085 152.16 56.0609 152.218 56.4103C152.333 57.1016 152.472 58.1201 152.564 59.1689C152.658 60.2236 152.701 61.2829 152.635 62.0671C152.601 62.4651 152.542 62.7504 152.47 62.9216C152.391 63.1092 152.376 63 152.5 63V64C152.999 64 153.265 63.6096 153.392 63.3089C153.525 62.9918 153.595 62.5818 153.631 62.1517C153.705 61.2796 153.655 60.1514 153.561 59.0811C153.466 58.0049 153.323 56.9609 153.204 56.2459C153.145 55.8922 153.09 55.6055 153.046 55.4339C153.035 55.3907 153.023 55.3458 153.009 55.3052C153.002 55.2854 152.992 55.2583 152.979 55.2295C152.971 55.2132 152.94 55.1437 152.876 55.0775C152.844 55.0448 152.764 54.9693 152.632 54.9369C152.468 54.8969 152.31 54.9427 152.198 55.0324C152.107 55.1047 152.066 55.1886 152.05 55.2241C152.031 55.2662 152.022 55.3028 152.017 55.3243C152 55.3966 152 55.4683 152 55.5H153ZM152.5 63C152.048 63 151.614 63.1124 151.245 63.2248C150.847 63.3459 150.558 63.4536 150.277 63.5097C150.006 63.5638 149.878 63.5375 149.804 63.4931C149.733 63.4504 149.595 63.3195 149.485 62.8787L148.515 63.1213C148.655 63.6805 148.892 64.1121 149.29 64.3506C149.684 64.5875 150.119 64.5612 150.473 64.4903C150.817 64.4214 151.215 64.2791 151.536 64.1815C151.886 64.0751 152.202 64 152.5 64V63ZM149.485 62.8787C149.089 61.2926 148.324 57.5717 147.99 55.9019L147.01 56.0981C147.342 57.7616 148.111 61.5074 148.515 63.1213L149.485 62.8787ZM150.851 37.5228C149.498 37.9456 147.487 38.708 145.855 39.6268C145.041 40.0845 144.293 40.5973 143.767 41.1465C143.253 41.6838 142.861 42.3553 143.01 43.0981L143.99 42.9019C143.939 42.6447 144.052 42.2953 144.489 41.8379C144.916 41.3923 145.567 40.9363 146.345 40.4982C147.896 39.6254 149.836 38.8877 151.149 38.4773L150.851 37.5228ZM144.793 48.9552C145.729 49.3808 147.233 49.967 148.713 50.3468C149.453 50.5367 150.203 50.6788 150.881 50.7194C151.547 50.7593 152.206 50.7058 152.724 50.4472L152.276 49.5528C151.994 49.6942 151.545 49.7574 150.941 49.7212C150.349 49.6858 149.668 49.5592 148.962 49.3782C147.551 49.0163 146.104 48.4526 145.207 48.0448L144.793 48.9552ZM143.01 43.0981C143.048 43.2891 143.086 43.4619 143.125 43.6196L144.096 43.3804C144.061 43.2384 144.026 43.0801 143.99 42.9019L143.01 43.0981ZM144.107 45.0116C143.952 44.9776 143.784 44.9206 143.642 44.8449C143.494 44.766 143.417 44.689 143.386 44.6363C143.37 44.6089 143.353 44.5745 143.39 44.4834C143.438 44.3659 143.576 44.1661 143.922 43.8916L143.3 43.1084C142.89 43.4339 142.604 43.7633 142.464 44.1072C142.314 44.4775 142.346 44.8369 142.522 45.1387C142.682 45.4152 142.938 45.6028 143.171 45.727C143.409 45.8544 143.668 45.939 143.893 45.9884L144.107 45.0116ZM143.209 42.5931C142.6 43.0285 141.748 43.7689 141.198 44.5825C140.924 44.9884 140.698 45.4515 140.645 45.9315C140.59 46.437 140.731 46.9385 141.146 47.3535L141.854 46.6465C141.669 46.4615 141.614 46.2672 141.639 46.0404C141.667 45.7881 141.797 45.4824 142.027 45.1425C142.485 44.4645 143.233 43.8049 143.791 43.4069L143.209 42.5931ZM141.146 47.3535C142.486 48.6933 143.986 48.6982 144.658 48.4743L144.342 47.5257C144.014 47.6351 142.914 47.7067 141.854 46.6465L141.146 47.3535ZM143.125 43.6196C143.347 44.5202 143.581 44.9201 143.779 45.3594C143.966 45.7738 144.163 46.3074 144.366 47.5787L145.353 47.4213C145.14 46.081 144.921 45.4593 144.691 44.9489C144.473 44.4635 144.291 44.1692 144.096 43.3804L143.125 43.6196ZM144.366 47.5787C144.411 47.8664 144.458 48.1918 144.504 48.562L145.496 48.438C145.449 48.0584 145.401 47.7217 145.353 47.4213L144.366 47.5787ZM144.906 48.2918L145.265 47.7918L144.453 47.2082L144.094 47.7082L144.906 48.2918ZM145.224 68.4472C146.266 67.9259 146.818 67.3938 147.066 66.8695C147.325 66.3227 147.208 65.8789 147.159 65.6911L146.192 65.9449C146.226 66.0743 146.265 66.2246 146.162 66.4412C146.049 66.6801 145.721 67.0804 144.776 67.5528L145.224 68.4472ZM147.159 65.6912L147.158 65.6852L146.19 65.9389L146.192 65.9449L147.159 65.6912ZM146.191 65.9399C146.308 66.3827 146.42 66.7888 146.519 67.1374L147.481 66.8626C147.383 66.5208 147.273 66.121 147.157 65.6842L146.191 65.9399ZM147.159 65.6911C147.159 65.6891 147.158 65.6872 147.158 65.6853L146.19 65.9388C146.191 65.9409 146.191 65.9429 146.192 65.9449L147.159 65.6911ZM147.481 66.8626C147.384 66.5223 147.274 66.1247 147.159 65.6901L146.192 65.9459C146.309 66.3864 146.42 66.7903 146.519 67.1374L147.481 66.8626Z" fill="black"/>
<path d="M50.141 137.874L55.141 146.874C56.9731 146.379 58.6351 145.761 60.141 145.048C64.8688 142.81 68.0585 139.635 70.1444 136.374C64.5472 136.374 63.4766 129.933 63.641 126.712C60.0815 128.352 56.7641 130.944 54.141 133.467C52.4982 135.047 51.1279 136.599 50.141 137.874Z" fill="white"/>
<path d="M55.141 146.874L50.141 137.874C51.1279 136.599 52.4982 135.047 54.141 133.467C50.9743 132.103 43.7411 130.874 40.141 136.874C41.8558 138.491 45.571 141.454 46.7132 140.374C45.962 141.211 45.5666 141.991 46.141 142.374C47.641 143.374 48.6409 148.874 50.6409 148.374C51.1814 148.239 51.7751 148.062 52.3565 147.874C53.4964 147.506 54.5891 147.095 55.141 146.874Z" fill="white"/>
<path d="M55.141 146.874C54.5891 147.095 53.4964 147.506 52.3565 147.874C51.7846 150.041 50.6409 154.674 50.6409 155.874C50.6409 157.374 60.641 156.63 60.141 145.048C58.6351 145.761 56.9731 146.379 55.141 146.874Z" fill="white"/>
<path d="M71.7646 133.374C67.8634 132.174 66.7234 127.685 66.641 125.591C65.6289 125.877 64.6257 126.258 63.641 126.712C63.4766 129.933 64.5472 136.374 70.1444 136.374C70.7841 135.374 71.32 134.366 71.7646 133.374Z" fill="white"/>
<path d="M73.641 125.374C71.3379 124.773 68.9659 124.933 66.641 125.591C66.7234 127.685 67.8634 132.174 71.7646 133.374C73.1388 130.309 73.641 127.4 73.641 125.374Z" fill="white"/>
<path d="M50.6409 148.374C48.6409 148.874 47.641 143.374 46.141 142.374C45.0948 142.688 43.4312 143.396 42.4366 144.374C39.6714 145.207 34.4409 147.874 35.6409 151.874C34.1409 153.541 31.341 156.974 32.141 157.374C33.141 157.874 44.1409 157.374 50.6409 148.374Z" fill="#197C9B"/>
<path d="M50.141 137.874L49.7456 137.568C49.6232 137.726 49.6068 137.942 49.7039 138.117L50.141 137.874ZM73.641 125.374H74.141C74.141 125.147 73.9874 124.948 73.7672 124.89L73.641 125.374ZM49.9277 138.284C50.1539 138.125 50.2089 137.814 50.0506 137.587C49.8922 137.361 49.5805 137.306 49.3542 137.465L49.9277 138.284ZM41.1506 146.472C41.2048 146.743 41.4682 146.919 41.739 146.864C42.0098 146.81 42.1854 146.547 42.1312 146.276L41.1506 146.472ZM40.9277 148.784C41.1539 148.625 41.2089 148.314 41.0506 148.087C40.8922 147.861 40.5805 147.806 40.3542 147.965L40.9277 148.784ZM40.141 136.874L39.7122 136.617C39.5914 136.818 39.6271 137.077 39.798 137.238L40.141 136.874ZM70.1444 136.374L70.5656 136.644L70.1444 136.374ZM49.7039 138.117L54.7039 147.117L55.5781 146.631L50.5781 137.631L49.7039 138.117ZM45.8636 142.79C46.1185 142.96 46.4121 143.378 46.7517 144.034C47.0847 144.677 47.3941 145.403 47.7524 146.152C48.0963 146.871 48.4801 147.598 48.9267 148.115C49.3727 148.631 49.9888 149.053 50.7622 148.859L50.5197 147.889C50.293 147.946 50.0342 147.867 49.6833 147.461C49.3331 147.056 48.9981 146.439 48.6545 145.721C48.3254 145.033 47.9785 144.228 47.6396 143.574C47.3074 142.932 46.9135 142.288 46.4183 141.958L45.8636 142.79ZM45.9973 141.895C44.9232 142.217 43.167 142.954 42.086 144.018L42.7872 144.731C43.6955 143.837 45.2663 143.159 46.2846 142.853L45.9973 141.895ZM42.086 144.018C41.4398 144.653 40.9542 145.49 41.1506 146.472L42.1312 146.276C42.0298 145.769 42.2535 145.255 42.7872 144.731L42.086 144.018ZM42.2923 143.895C40.8682 144.325 38.8008 145.226 37.229 146.555C35.6586 147.882 34.4786 149.74 35.162 152.018L36.1198 151.73C35.6033 150.009 36.4385 148.533 37.8746 147.318C39.3093 146.106 41.2397 145.257 42.5808 144.853L42.2923 143.895ZM40.3542 147.965L35.3542 151.465L35.9276 152.284L40.9277 148.784L40.3542 147.965ZM35.2693 151.54C34.5125 152.381 33.4232 153.672 32.6198 154.811C32.2216 155.376 31.8747 155.929 31.6799 156.383C31.585 156.604 31.5053 156.849 31.5003 157.08C31.4948 157.332 31.5851 157.655 31.9174 157.821L32.3646 156.927C32.4969 156.993 32.4996 157.121 32.5 157.102C32.5009 157.063 32.5204 156.96 32.5989 156.778C32.7509 156.423 33.0478 155.939 33.4371 155.387C34.2087 154.293 35.2694 153.034 36.0126 152.209L35.2693 151.54ZM31.9174 157.821C32.0506 157.888 32.2143 157.925 32.3643 157.948C32.5258 157.974 32.7187 157.991 32.9361 158C33.3718 158.017 33.9315 158.002 34.5852 157.942C35.8935 157.822 37.6015 157.518 39.4817 156.913C43.2412 155.702 47.718 153.275 51.0463 148.667L50.2356 148.081C47.0638 152.473 42.7906 154.796 39.1752 155.961C37.3678 156.543 35.7321 156.833 34.4936 156.947C33.8739 157.004 33.3593 157.016 32.9767 157.001C32.7849 156.993 32.6325 156.978 32.52 156.96C32.3957 156.941 32.3563 156.923 32.3646 156.927L31.9174 157.821ZM50.5363 138.18C51.5077 136.926 52.8616 135.391 54.4876 133.827L53.7944 133.106C52.1349 134.702 50.748 136.273 49.7456 137.568L50.5363 138.18ZM54.3388 133.008C52.6948 132.299 50.0088 131.629 47.2525 131.911C44.4771 132.196 41.6101 133.454 39.7122 136.617L40.5697 137.131C42.272 134.294 44.8216 133.166 47.3546 132.906C49.9066 132.644 52.4205 133.27 53.9432 133.926L54.3388 133.008ZM49.3542 137.465C48.4723 138.082 47.1964 139.087 46.3411 140.04L47.0854 140.708C47.8667 139.837 49.0717 138.883 49.9277 138.284L49.3542 137.465ZM46.3411 140.04C45.9547 140.471 45.6125 140.936 45.4578 141.38C45.3788 141.607 45.3352 141.867 45.395 142.129C45.4582 142.406 45.6245 142.631 45.8636 142.79L46.4183 141.958C46.3703 141.926 46.3706 141.91 46.3699 141.907C46.3658 141.889 46.3603 141.829 46.4022 141.709C46.4894 141.458 46.7206 141.115 47.0854 140.708L46.3411 140.04ZM39.798 137.238C40.6691 138.059 42.0528 139.227 43.3759 140.059C44.0339 140.472 44.7062 140.821 45.3098 140.991C45.8882 141.155 46.5702 141.197 47.0567 140.737L46.3698 140.011C46.2851 140.091 46.0744 140.168 45.5814 140.029C45.1135 139.897 44.5357 139.606 43.9078 139.212C42.659 138.427 41.3277 137.306 40.484 136.51L39.798 137.238ZM50.7622 148.859C51.3173 148.72 51.9225 148.54 52.5103 148.35L52.2027 147.398C51.6276 147.584 51.0454 147.758 50.5197 147.889L50.7622 148.859ZM52.5103 148.35C53.6624 147.977 54.7658 147.563 55.3267 147.338L54.9553 146.41C54.4124 146.627 53.3304 147.034 52.2027 147.398L52.5103 148.35ZM51.873 147.747C51.586 148.834 51.1556 150.54 50.7966 152.126C50.6171 152.919 50.4546 153.686 50.3367 154.333C50.2211 154.966 50.1409 155.523 50.1409 155.874H51.1409C51.1409 155.625 51.2037 155.153 51.3205 154.512C51.4348 153.885 51.594 153.133 51.7719 152.347C52.1277 150.775 52.5551 149.081 52.8399 148.002L51.873 147.747ZM59.9271 144.596C58.4489 145.296 56.8149 145.904 55.0105 146.391L55.2714 147.357C57.1312 146.854 58.8212 146.226 60.3549 145.5L59.9271 144.596ZM50.1409 155.874C50.1409 156.392 50.5724 156.664 50.8965 156.784C51.2533 156.915 51.7145 156.965 52.217 156.944C53.2316 156.9 54.546 156.561 55.8336 155.797C58.4416 154.249 60.8978 150.987 60.6405 145.027L59.6415 145.07C59.8841 150.691 57.5903 153.592 55.3233 154.937C54.1734 155.619 53.019 155.908 52.1742 155.945C51.7471 155.963 51.431 155.915 51.2428 155.846C51.022 155.764 51.1409 155.732 51.1409 155.874H50.1409ZM66.7771 126.072C69.0373 125.432 71.3167 125.285 73.5148 125.858L73.7672 124.89C71.3591 124.262 68.8945 124.433 66.5048 125.11L66.7771 126.072ZM73.141 125.374C73.141 127.327 72.6549 130.166 71.3083 133.17L72.2208 133.579C73.6228 130.451 74.141 127.473 74.141 125.374H73.141ZM66.1414 125.61C66.185 126.719 66.5048 128.437 67.3254 130.045C68.1487 131.658 69.4993 133.2 71.6175 133.852L71.9116 132.896C70.1287 132.348 68.9586 131.045 68.2161 129.591C67.4708 128.13 67.1794 126.557 67.1406 125.571L66.1414 125.61ZM54.4876 133.827C57.087 131.327 60.3589 128.775 63.8502 127.166L63.4317 126.258C59.8042 127.929 56.4411 130.561 53.7944 133.106L54.4876 133.827ZM63.8502 127.166C64.8145 126.722 65.7932 126.35 66.7771 126.072L66.5048 125.11C65.4645 125.404 64.4368 125.795 63.4317 126.258L63.8502 127.166ZM71.3083 133.17C70.8733 134.14 70.349 135.126 69.7232 136.105L70.5656 136.644C71.2192 135.622 71.7666 134.592 72.2208 133.579L71.3083 133.17ZM69.7232 136.105C67.6842 139.293 64.564 142.402 59.9271 144.596L60.3549 145.5C65.1737 143.219 68.4329 139.978 70.5656 136.644L69.7232 136.105ZM63.1416 126.686C63.0568 128.349 63.2872 130.854 64.2796 132.964C65.2836 135.098 67.0992 136.874 70.1444 136.874V135.874C67.5924 135.874 66.074 134.429 65.1845 132.538C64.2835 130.622 64.0608 128.295 64.1403 126.737L63.1416 126.686Z" fill="black"/>
<path d="M56.2582 141.226C57.6268 141.226 58.9955 141.226 60.3641 141.226C61.3139 141.226 61.6301 140.286 61.6559 139.358C61.7254 136.855 61.5564 134.79 58.7033 134.79C56.976 134.79 55.2202 134.836 55.2202 137.074C55.2202 137.665 55.0183 138.689 55.4278 139.15C55.6987 139.455 55.7621 139.9 56.0506 140.188C56.3732 140.511 56.6734 140.272 56.6734 140.811" stroke="black" stroke-linecap="round"/>
<path d="M138.5 100.5C136.833 94.1667 129.7 82.7 114.5 87.5C95.4999 93.5 92.4999 106 95.4999 115.5C98.4999 125 104 146.5 130 159.5C137 149.167 148.5 122.9 138.5 100.5Z" fill="white" stroke="black" stroke-linecap="round" stroke-linejoin="round"/>
<path d="M116.5 95C108.5 96.6 106.833 105.667 107 110C108.167 115.667 113.5 126 125.5 122C132.7 114.8 132.5 107.667 131.5 105C129.833 101 124.5 93.4 116.5 95Z" fill="white" stroke="black" stroke-linecap="round"/>
</svg>
