<svg width="28" height="20" viewBox="0 0 28 20" fill="none" xmlns="http://www.w3.org/2000/svg">
<path d="M22.3328 8.98514C21.8084 5.05143 18.2708 2 14 2C10.6928 2 7.82 3.84114 6.5084 6.74286C3.9308 7.47657 2 9.79429 2 12.2857C2 15.4366 4.6916 18 8 18H9.2V16.8571V15.7143H8C6.0152 15.7143 4.4 14.176 4.4 12.2857C4.4 10.6811 5.8388 9.13486 7.6076 8.83886L8.3048 8.72229L8.5352 8.08457C9.3788 5.74057 11.4728 4.28571 14 4.28571C17.3084 4.28571 20 6.84914 20 10V11.1429H21.2C22.5236 11.1429 23.6 12.168 23.6 13.4286C23.6 14.6891 22.5236 15.7143 21.2 15.7143H18.8V18H21.2C23.8472 18 26 15.9497 26 13.4286C25.9986 12.404 25.6365 11.4095 24.9717 10.604C24.3069 9.79849 23.3778 9.2285 22.3328 8.98514Z" fill="#775591"/>
<path d="M15.2 12.2863V7.71484H12.8V12.2863H9.20001L14 18.0006L18.8 12.2863H15.2Z" fill="#775591"/>
</svg>
