<svg width="40" height="32" viewBox="0 0 40 32" fill="none" xmlns="http://www.w3.org/2000/svg">
<g filter="url(#filter0_d_649_2027)">
<path d="M28.3328 12.9851C27.8084 9.05143 24.2708 6 20 6C16.6928 6 13.82 7.84114 12.5084 10.7429C9.9308 11.4766 8 13.7943 8 16.2857C8 19.4366 10.6916 22 14 22H15.2V20.8571V19.7143H14C12.0152 19.7143 10.4 18.176 10.4 16.2857C10.4 14.6811 11.8388 13.1349 13.6076 12.8389L14.3048 12.7223L14.5352 12.0846C15.3788 9.74057 17.4728 8.28571 20 8.28571C23.3084 8.28571 26 10.8491 26 14V15.1429H27.2C28.5236 15.1429 29.6 16.168 29.6 17.4286C29.6 18.6891 28.5236 19.7143 27.2 19.7143H24.8V22H27.2C29.8472 22 32 19.9497 32 17.4286C31.9986 16.404 31.6365 15.4095 30.9717 14.604C30.3069 13.7985 29.3778 13.2285 28.3328 12.9851Z" fill="#775591"/>
<path d="M21.2 16.2863V11.7148H18.8V16.2863H15.2L20 22.0006L24.8 16.2863H21.2Z" fill="#775591"/>
</g>
<defs>
<filter id="filter0_d_649_2027" x="-2" y="-2" width="44" height="36" filterUnits="userSpaceOnUse" color-interpolation-filters="sRGB">
<feFlood flood-opacity="0" result="BackgroundImageFix"/>
<feColorMatrix in="SourceAlpha" type="matrix" values="0 0 0 0 0 0 0 0 0 0 0 0 0 0 0 0 0 0 127 0" result="hardAlpha"/>
<feOffset dy="2"/>
<feGaussianBlur stdDeviation="4"/>
<feComposite in2="hardAlpha" operator="out"/>
<feColorMatrix type="matrix" values="0 0 0 0 0.904167 0 0 0 0 0.904167 0 0 0 0 0.904167 0 0 0 1 0"/>
<feBlend mode="normal" in2="BackgroundImageFix" result="effect1_dropShadow_649_2027"/>
<feBlend mode="normal" in="SourceGraphic" in2="effect1_dropShadow_649_2027" result="shape"/>
</filter>
</defs>
</svg>
