<svg width="24" height="16" viewBox="0 0 24 16" fill="none" xmlns="http://www.w3.org/2000/svg">
<path d="M20.3328 6.98514C19.8084 3.05143 16.2708 0 12 0C8.6928 0 5.82 1.84114 4.5084 4.74286C1.9308 5.47657 0 7.79429 0 10.2857C0 13.4366 2.6916 16 6 16H7.2V14.8571V13.7143H6C4.0152 13.7143 2.4 12.176 2.4 10.2857C2.4 8.68114 3.8388 7.13486 5.6076 6.83886L6.3048 6.72229L6.5352 6.08457C7.3788 3.74057 9.4728 2.28571 12 2.28571C15.3084 2.28571 18 4.84914 18 8V9.14286H19.2C20.5236 9.14286 21.6 10.168 21.6 11.4286C21.6 12.6891 20.5236 13.7143 19.2 13.7143H16.8V16H19.2C21.8472 16 24 13.9497 24 11.4286C23.9986 10.404 23.6365 9.4095 22.9717 8.604C22.3069 7.79849 21.3778 7.2285 20.3328 6.98514Z" fill="#775591"/>
<path d="M13.2 10.2863V5.71484H10.8V10.2863H7.20001L12 16.0006L16.8 10.2863H13.2Z" fill="#775591"/>
</svg>
