<svg width="29" height="28" viewBox="0 0 29 28" fill="none" xmlns="http://www.w3.org/2000/svg">
<path d="M14.7949 11.399C13.4177 11.399 12.2938 12.5229 12.2938 13.9C12.2938 15.2772 13.4177 16.401 14.7949 16.401C16.172 16.401 17.2959 15.2772 17.2959 13.9C17.2959 12.5229 16.172 11.399 14.7949 11.399ZM22.296 13.9C22.296 12.8643 22.3054 11.838 22.2473 10.8042C22.1891 9.60343 21.9152 8.53773 21.0371 7.65966C20.1571 6.7797 19.0933 6.50765 17.8925 6.44949C16.8568 6.39132 15.8305 6.4007 14.7967 6.4007C13.7611 6.4007 12.7348 6.39132 11.701 6.44949C10.5002 6.50765 9.43446 6.78158 8.55639 7.65966C7.67643 8.53961 7.40438 9.60343 7.34622 10.8042C7.28805 11.8399 7.29743 12.8662 7.29743 13.9C7.29743 14.9338 7.28805 15.962 7.34622 16.9958C7.40438 18.1966 7.67831 19.2623 8.55639 20.1404C9.43634 21.0203 10.5002 21.2924 11.701 21.3505C12.7366 21.4087 13.7629 21.3993 14.7967 21.3993C15.8324 21.3993 16.8587 21.4087 17.8925 21.3505C19.0933 21.2924 20.159 21.0184 21.0371 20.1404C21.917 19.2604 22.1891 18.1966 22.2473 16.9958C22.3073 15.962 22.296 14.9357 22.296 13.9ZM14.7949 17.7482C12.6653 17.7482 10.9467 16.0295 10.9467 13.9C10.9467 11.7705 12.6653 10.0519 14.7949 10.0519C16.9244 10.0519 18.643 11.7705 18.643 13.9C18.643 16.0295 16.9244 17.7482 14.7949 17.7482ZM18.8006 10.793C18.3034 10.793 17.9019 10.3915 17.9019 9.89425C17.9019 9.39705 18.3034 8.99553 18.8006 8.99553C19.2978 8.99553 19.6993 9.39705 19.6993 9.89425C19.6995 10.0123 19.6763 10.1292 19.6312 10.2383C19.5861 10.3475 19.5199 10.4466 19.4364 10.5301C19.353 10.6136 19.2538 10.6797 19.1447 10.7249C19.0356 10.77 18.9187 10.7931 18.8006 10.793Z" fill="#775591"/>
</svg>
