<svg width="29" height="28" viewBox="0 0 29 28" fill="none" xmlns="http://www.w3.org/2000/svg">
<path fill-rule="evenodd" clip-rule="evenodd" d="M9.08263 10.6333H9.063C8.0816 10.6333 7.44531 9.99121 7.44531 9.17733C7.44531 8.34761 8.1004 7.71899 9.10144 7.71899C10.1017 7.71899 10.7167 8.34603 10.7363 9.17495C10.7363 9.98883 10.1017 10.6333 9.08263 10.6333ZM21.3553 20.0832H18.2811V15.7367C18.2811 14.599 17.8002 13.8224 16.7426 13.8224C15.9339 13.8224 15.484 14.3465 15.2747 14.8516C15.2055 15.0113 15.2068 15.2263 15.208 15.4479V15.4479C15.2082 15.4779 15.2084 15.508 15.2084 15.538V20.0832H12.1628C12.1628 20.0832 12.202 12.3838 12.1628 11.684H15.2084V13.0022C15.3884 12.4258 16.3616 11.6032 17.9146 11.6032C19.8414 11.6032 21.3553 12.8114 21.3553 15.4129V20.0832ZM10.5074 11.6838H7.7963V20.0831H10.5074V11.6838Z" fill="#684B7D"/>
</svg>
