<svg width="18" height="18" viewBox="0 0 18 18" fill="none" xmlns="http://www.w3.org/2000/svg">
<path d="M0.0351562 10.987V14.5534C0.0351562 14.8084 0.208828 15.0311 0.456363 15.092C6.05194 16.4668 11.6475 13.5613 17.2431 14.8095C17.5887 14.8866 17.9163 14.6221 17.9163 14.268V10.987C11.9559 9.28812 5.99555 12.6859 0.0351562 10.987V10.987Z" fill="#FF473E"/>
<path d="M0.0351562 6.99385V10.9871C5.99555 12.686 11.9559 9.28821 17.9163 10.9871V6.99385C11.9559 5.29495 5.99555 8.69274 0.0351562 6.99385Z" fill="#0B67B2"/>
<path d="M0.0351562 3.55766V6.99387C5.99555 8.69276 11.9559 5.29498 17.9163 6.99387V3.27223C17.9163 3.01731 17.7426 2.79453 17.4951 2.73371C11.8995 1.35889 6.30394 4.26438 0.708363 3.01615C0.362777 2.93909 0.0351562 3.20357 0.0351562 3.55766Z" fill="#E8E8E8"/>
</svg>
