<svg width="267" height="267" viewBox="0 0 267 267" fill="none" xmlns="http://www.w3.org/2000/svg">
<path fill-rule="evenodd" clip-rule="evenodd" d="M123.096 15.9743C150.604 4.19068 182.614 -6.53694 210.292 4.83804C238.65 16.4924 267.26 44.3382 266.998 75.1145C266.716 108.346 212.504 120.49 209.029 153.539C205.306 188.942 271.793 223.45 248.571 250.343C225.343 277.243 181.703 215.246 147.539 224.75C114.327 233.989 67.8633 269.485 33.5 266.862C2.6727 264.508 44.865 224.437 39.5 193.852C33.5 189.824 10.5 176.733 51.5333 151.464C43.9726 123.954 -6.23842 112.644 0.646453 84.9559C6.89968 59.8082 50.9068 76.1516 73.4132 63.4726C93.7661 52.0068 101.631 25.1692 123.096 15.9743Z" fill="#D47048"/>
<path d="M78.9999 140.222C75.9999 141.222 65.4999 148.722 65.9999 149.722C66.0728 149.867 66.1669 150.109 66.2838 150.408C66.5288 151.037 66.874 151.922 67.3336 152.722C68.1591 154.158 69.3536 155.319 70.9999 154.222C71.5565 153.851 72.321 153.329 73.2024 152.722C76.1218 150.71 80.3236 147.758 82.4999 146.222C82.4999 143.879 82.1951 140.927 80.6336 140.222C80.1951 140.023 79.6576 140.002 78.9999 140.222Z" fill="white"/>
<path d="M77.9999 158.722C81.1666 159.388 87.4999 160.322 87.4999 158.722C87.4999 156.722 86.9999 156.722 85.9999 156.722C87.6666 156.388 90.9999 155.422 90.9999 154.222C90.9999 152.722 90.9999 152.222 90.4999 152.222C90.9999 151.722 91.9999 150.622 91.9999 150.222C91.9999 149.722 91.4999 148.722 90.4999 148.722C89.9141 148.722 88.9852 149.236 88.2156 149.663C87.6715 149.964 87.207 150.222 86.9999 150.222C86.4999 150.222 82.4999 149.222 82.4999 146.222C80.3236 147.758 76.1218 150.71 73.2024 152.722C74.4682 154.655 77.1999 158.563 77.9999 158.722Z" fill="white"/>
<path d="M187 154.722L183 142.722L176.5 145.722C174.5 146.222 170.3 147.122 169.5 146.722C168.5 146.222 163 145.222 162.5 146.722C162.1 147.922 166 148.888 168 149.222C165.333 149.055 160.2 149.022 161 150.222C162 151.722 163.5 151.722 165.5 151.722C167.1 151.722 168.167 152.055 168.5 152.222C165.5 152.388 159.9 153.022 161.5 154.222C163.5 155.722 165 156.222 167 156.222C167.245 156.222 167.596 156.229 168.04 156.239C168.983 156.259 170.344 156.288 172 156.273C175.908 156.237 181.454 155.954 187 154.722Z" fill="white"/>
<path d="M155.167 149.722C159.778 140.888 169.3 123.222 170.5 123.222C172 123.222 174 124.222 173.5 124.722C173.1 125.122 162.52 142.4 157.28 150.99L155.167 149.722Z" fill="#775591"/>
<path fill-rule="evenodd" clip-rule="evenodd" d="M86.9999 193.222C99.3332 194.722 125.5 197.122 131.5 194.722C136.386 192.767 149.549 194.42 159.513 195.672C164.843 196.341 169.257 196.896 171 196.722C175 196.322 180.667 195.222 183 194.722C185.833 194.222 191.1 191.222 189.5 183.222C189.129 181.366 188.758 179.631 188.409 178.001C186.878 170.844 185.778 165.701 187 161.222C188.2 156.822 187.5 155.055 187 154.722C193.833 153.888 209.3 147.422 216.5 128.222C223.7 109.022 203.5 91.8883 192.5 85.7216L156 66.7215C153.5 69.0549 147.8 73.6215 145 73.2215C144.185 73.105 143.215 73.0435 142.159 72.9766C138.683 72.7561 134.269 72.4762 131.331 69.9782C130.103 71.3019 123.083 73.9753 119.5 75.2216C103.333 73.0549 67.7999 74.0216 54.9999 95.2216C42.1999 116.422 57.889 142.388 67.3336 152.722C66.874 151.922 66.5288 151.037 66.2838 150.408C66.1669 150.109 66.0728 149.867 65.9999 149.722C65.4999 148.722 75.9999 141.222 78.9999 140.222C79.6576 140.002 80.1951 140.023 80.6336 140.222C82.1951 140.927 82.4999 143.879 82.4999 146.222C82.4999 149.222 86.4999 150.222 86.9999 150.222C87.207 150.222 87.6715 149.964 88.2156 149.663C88.9852 149.236 89.9141 148.722 90.4999 148.722C91.4999 148.722 91.9999 149.722 91.9999 150.222C91.9999 150.622 90.9999 151.722 90.4999 152.222C90.9999 152.222 90.9999 152.722 90.9999 154.222C90.9999 155.422 87.6666 156.388 85.9999 156.722C86.9999 156.722 87.4999 156.722 87.4999 158.722C87.4999 160.322 81.1666 159.388 77.9999 158.722C77.3332 163.222 75.7999 173.722 74.9999 179.722C74.1999 185.722 82.6666 191.222 86.9999 193.222ZM172 156.273C175.908 156.237 181.454 155.954 187 154.722L183 142.722L176.5 145.722C180.833 138.555 189 124.022 187 123.222C186.176 122.892 183.075 120.935 179.178 118.477C171.243 113.472 160.012 106.386 158 106.722C155 107.222 135 146.722 138 147.722C139.374 148.18 144.944 152.099 150.722 156.165C157.559 160.976 164.687 165.993 165.5 165.722C166.7 165.322 170.333 159.256 172 156.273Z" fill="white"/>
<path d="M161.5 126.722C160.7 126.722 152.598 139.547 148.765 145.881L152.25 147.972C155.667 141.888 162.7 129.522 163.5 128.722C164.5 127.722 162.5 126.722 161.5 126.722Z" fill="#B1522C"/>
<path d="M146.5 25.2215C145.7 25.6215 143.833 23.0549 143 21.7215C143.167 22.8882 143.2 25.6215 142 27.2215C140.8 28.8215 137.374 27.8882 135.811 27.2215C136.26 29.1993 136.07 32.151 134.5 33.7215C132.5 35.7215 129.333 35.2215 128 34.7215C129.2 36.3215 127.5 38.0548 126.5 38.7215C126.5 43.2215 133 53.7215 135.5 54.7215C136.845 55.2594 137.21 57.8252 137.204 60.2216C137.2 61.3892 137.109 62.5166 137 63.3497C142.229 63.8335 148.295 64.7133 151.489 63.9026C151.043 63.9837 149.907 60.482 148.966 57.2216C148.596 55.9403 148.256 54.6962 148 53.7215C148.5 53.8882 150.2 53.2215 153 49.2215C156.5 44.2215 154 37.2215 151.5 35.7215C149 34.2215 147.5 24.7215 146.5 25.2215Z" fill="white"/>
<path d="M135.5 63.2216C129 62.7216 132 68.2216 131.5 69.7216C131.474 69.7999 131.416 69.8858 131.331 69.9782C134.269 72.4762 138.683 72.7561 142.159 72.9766C143.215 73.0435 144.185 73.105 145 73.2215C147.8 73.6215 153.5 69.0549 156 66.7215C155.833 64.8882 155 61.6215 153 63.2216C152.626 63.5211 152.117 63.7421 151.5 63.8997L151.489 63.9026C148.295 64.7133 142.229 63.8335 137 63.3497C136.491 63.3026 135.99 63.2592 135.5 63.2216Z" fill="white"/>
<path d="M143 21.7215C143.833 23.0549 145.7 25.6215 146.5 25.2215C147.5 24.7215 149 34.2215 151.5 35.7215C154 37.2215 156.5 44.2215 153 49.2215C150.2 53.2215 148.5 53.8882 148 53.7215C148.256 54.6962 148.596 55.9403 148.966 57.2216C149.738 57.2216 151.977 54.8882 153 53.7215C154.333 56.7215 158.5 61.2215 164.5 55.2215C169.969 49.7526 167.545 46.0837 165.18 44.5936C164.937 44.4725 164.709 44.347 164.5 44.2215C164.721 44.3248 164.95 44.4489 165.18 44.5936C167.839 45.92 172.267 46.7195 173 41.2215C173.8 35.2215 167.667 35.0549 164.5 35.7215C166.833 34.2215 170.8 30.1215 168 25.7215C165.2 21.3215 160.5 23.5549 158.5 25.2215C161 23.0549 165 17.9215 161 14.7215C157 11.5215 153 15.0549 151.5 17.2215C152.667 14.0549 153.6 7.42152 148 6.22152C142.078 4.95248 137.229 9.4096 137.088 12.6289C137.294 13.1991 137.428 13.7538 137.5 14.2215C137.192 13.7596 137.062 13.2147 137.088 12.6289C136.338 10.5574 134.636 8.2806 131.5 9.22156C127.64 10.3795 127.505 13.8033 127.949 15.5394C127.967 15.6012 127.984 15.6619 128 15.7216C127.982 15.6632 127.965 15.6024 127.949 15.5394C127.221 13.0106 124.904 8.76927 121 10.7216C117 12.7216 118.333 17.5549 119.5 19.7216C118.5 18.0549 115.4 15.4216 111 18.2216C105.633 21.6367 107.407 29.3366 110.748 29.7077C110.835 29.7111 110.919 29.7158 111 29.7216C110.915 29.7216 110.831 29.7169 110.748 29.7077C108.355 29.6127 104.114 30.4747 104.5 34.7215C104.9 39.1216 108 39.8882 109.5 39.7216C106.833 40.7216 101.9 43.2216 103.5 45.2216C105.5 47.7216 108.5 50.2216 113 47.2216C110 49.2216 104.7 54.0216 107.5 57.2216C110.3 60.4216 116.667 57.2215 119.5 55.2215C118.167 57.1737 116.3 61.6423 119.5 63.8997C122.7 66.1572 126.5 61.0549 128 58.2216C129.636 60.3882 133.766 63.8216 137.204 60.2216C137.21 57.8252 136.845 55.2594 135.5 54.7215C133 53.7215 126.5 43.2215 126.5 38.7215C127.5 38.0548 129.2 36.3215 128 34.7215C129.333 35.2215 132.5 35.7215 134.5 33.7215C136.07 32.151 136.26 29.1993 135.811 27.2215C137.374 27.8882 140.8 28.8215 142 27.2215C143.2 25.6215 143.167 22.8882 143 21.7215Z" fill="white"/>
<path fill-rule="evenodd" clip-rule="evenodd" d="M169.5 146.722C170.3 147.122 174.5 146.222 176.5 145.722C180.833 138.555 189 124.022 187 123.222C186.176 122.892 183.075 120.935 179.178 118.477C171.243 113.472 160.012 106.386 158 106.722C155 107.222 135 146.722 138 147.722C139.374 148.18 144.944 152.099 150.722 156.165C157.559 160.976 164.687 165.993 165.5 165.722C166.7 165.322 170.333 159.256 172 156.273C170.344 156.288 168.983 156.259 168.04 156.239C167.596 156.229 167.245 156.222 167 156.222C165 156.222 163.5 155.722 161.5 154.222C159.9 153.022 165.5 152.388 168.5 152.222C168.167 152.055 167.1 151.722 165.5 151.722C163.5 151.722 162 151.722 161 150.222C160.2 149.022 165.333 149.055 168 149.222C166 148.888 162.1 147.922 162.5 146.722C163 145.222 168.5 146.222 169.5 146.722ZM148.765 145.881C152.598 139.547 160.7 126.722 161.5 126.722C162.5 126.722 164.5 127.722 163.5 128.722C162.7 129.522 155.667 141.888 152.25 147.972L155.167 149.722C159.778 140.888 169.3 123.222 170.5 123.222C172 123.222 174 124.222 173.5 124.722C173.1 125.122 162.52 142.4 157.28 150.99L155.167 149.722L152.25 147.972L148.765 145.881Z" fill="white"/>
<path d="M86.9999 193.222C84.9999 210.388 81.7999 245.822 84.9999 250.222C90.5999 255.999 116 252.629 128 250.222L134.5 215.722L138 239.722C147.5 246.795 169.1 258.199 179.5 247.222C180.7 246.022 182.333 211.722 183 194.722C180.667 195.222 175 196.322 171 196.722C169.257 196.896 164.843 196.341 159.513 195.672C149.549 194.42 136.386 192.767 131.5 194.722C125.5 197.122 99.3332 194.722 86.9999 193.222Z" fill="white"/>
<path d="M78.9999 140.222C75.9999 141.222 65.4999 148.722 65.9999 149.722C66.0728 149.867 66.1669 150.109 66.2838 150.408C66.5288 151.037 66.874 151.922 67.3336 152.722C68.1591 154.158 69.3536 155.319 70.9999 154.222C71.5565 153.851 72.321 153.329 73.2024 152.722C76.1218 150.71 80.3236 147.758 82.4999 146.222C82.4999 143.879 82.1951 140.927 80.6336 140.222C80.1951 140.023 79.6576 140.002 78.9999 140.222Z" fill="white"/>
<path d="M77.9999 158.722C81.1666 159.388 87.4999 160.322 87.4999 158.722C87.4999 156.722 86.9999 156.722 85.9999 156.722C87.6666 156.388 90.9999 155.422 90.9999 154.222C90.9999 152.722 90.9999 152.222 90.4999 152.222C90.9999 151.722 91.9999 150.622 91.9999 150.222C91.9999 149.722 91.4999 148.722 90.4999 148.722C89.9141 148.722 88.9852 149.236 88.2156 149.663C87.6715 149.964 87.207 150.222 86.9999 150.222C86.4999 150.222 82.4999 149.222 82.4999 146.222C80.3236 147.758 76.1218 150.71 73.2024 152.722C74.4682 154.655 77.1999 158.563 77.9999 158.722Z" fill="white"/>
<path d="M187 154.722L183 142.722L176.5 145.722C174.5 146.222 170.3 147.122 169.5 146.722C168.5 146.222 163 145.222 162.5 146.722C162.1 147.922 166 148.888 168 149.222C165.333 149.055 160.2 149.022 161 150.222C162 151.722 163.5 151.722 165.5 151.722C167.1 151.722 168.167 152.055 168.5 152.222C165.5 152.388 159.9 153.022 161.5 154.222C163.5 155.722 165 156.222 167 156.222C167.245 156.222 167.596 156.229 168.04 156.239C168.983 156.259 170.344 156.288 172 156.273C175.908 156.237 181.454 155.954 187 154.722Z" fill="white"/>
<path d="M155.167 149.722C159.778 140.888 169.3 123.222 170.5 123.222C172 123.222 174 124.222 173.5 124.722C173.1 125.122 162.52 142.4 157.28 150.99L155.167 149.722Z" fill="#775591"/>
<path fill-rule="evenodd" clip-rule="evenodd" d="M86.9999 193.222C99.3332 194.722 125.5 197.122 131.5 194.722C136.386 192.767 149.549 194.42 159.513 195.672C164.843 196.341 169.257 196.896 171 196.722C175 196.322 180.667 195.222 183 194.722C185.833 194.222 191.1 191.222 189.5 183.222C189.129 181.366 188.758 179.631 188.409 178.001C186.878 170.844 185.778 165.701 187 161.222C188.2 156.822 187.5 155.055 187 154.722C193.833 153.888 209.3 147.422 216.5 128.222C223.7 109.022 203.5 91.8883 192.5 85.7216L156 66.7215C153.5 69.0549 147.8 73.6215 145 73.2215C144.185 73.105 143.215 73.0435 142.159 72.9766C138.683 72.7561 134.269 72.4762 131.331 69.9782C130.103 71.3019 123.083 73.9753 119.5 75.2216C103.333 73.0549 67.7999 74.0216 54.9999 95.2216C42.1999 116.422 57.889 142.388 67.3336 152.722C66.874 151.922 66.5288 151.037 66.2838 150.408C66.1669 150.109 66.0728 149.867 65.9999 149.722C65.4999 148.722 75.9999 141.222 78.9999 140.222C79.6576 140.002 80.1951 140.023 80.6336 140.222C82.1951 140.927 82.4999 143.879 82.4999 146.222C82.4999 149.222 86.4999 150.222 86.9999 150.222C87.207 150.222 87.6715 149.964 88.2156 149.663C88.9852 149.236 89.9141 148.722 90.4999 148.722C91.4999 148.722 91.9999 149.722 91.9999 150.222C91.9999 150.622 90.9999 151.722 90.4999 152.222C90.9999 152.222 90.9999 152.722 90.9999 154.222C90.9999 155.422 87.6666 156.388 85.9999 156.722C86.9999 156.722 87.4999 156.722 87.4999 158.722C87.4999 160.322 81.1666 159.388 77.9999 158.722C77.3332 163.222 75.7999 173.722 74.9999 179.722C74.1999 185.722 82.6666 191.222 86.9999 193.222ZM172 156.273C175.908 156.237 181.454 155.954 187 154.722L183 142.722L176.5 145.722C180.833 138.555 189 124.022 187 123.222C186.176 122.892 183.075 120.935 179.178 118.477C171.243 113.472 160.012 106.386 158 106.722C155 107.222 135 146.722 138 147.722C139.374 148.18 144.944 152.099 150.722 156.165C157.559 160.976 164.687 165.993 165.5 165.722C166.7 165.322 170.333 159.256 172 156.273Z" fill="white"/>
<path d="M161.5 126.722C160.7 126.722 152.598 139.547 148.765 145.881L152.25 147.972C155.667 141.888 162.7 129.522 163.5 128.722C164.5 127.722 162.5 126.722 161.5 126.722Z" fill="#B1522C"/>
<path d="M146.5 25.2215C145.7 25.6215 143.833 23.0549 143 21.7215C143.167 22.8882 143.2 25.6215 142 27.2215C140.8 28.8215 137.374 27.8882 135.811 27.2215C136.26 29.1993 136.07 32.151 134.5 33.7215C132.5 35.7215 129.333 35.2215 128 34.7215C129.2 36.3215 127.5 38.0548 126.5 38.7215C126.5 43.2215 133 53.7215 135.5 54.7215C136.845 55.2594 137.21 57.8252 137.204 60.2216C137.2 61.3892 137.109 62.5166 137 63.3497C142.229 63.8335 148.295 64.7133 151.489 63.9026C151.043 63.9837 149.907 60.482 148.966 57.2216C148.596 55.9403 148.256 54.6962 148 53.7215C148.5 53.8882 150.2 53.2215 153 49.2215C156.5 44.2215 154 37.2215 151.5 35.7215C149 34.2215 147.5 24.7215 146.5 25.2215Z" fill="white"/>
<path d="M135.5 63.2216C129 62.7216 132 68.2216 131.5 69.7216C131.474 69.7999 131.416 69.8858 131.331 69.9782C134.269 72.4762 138.683 72.7561 142.159 72.9766C143.215 73.0435 144.185 73.105 145 73.2215C147.8 73.6215 153.5 69.0549 156 66.7215C155.833 64.8882 155 61.6215 153 63.2216C152.626 63.5211 152.117 63.7421 151.5 63.8997L151.489 63.9026C148.295 64.7133 142.229 63.8335 137 63.3497C136.491 63.3026 135.99 63.2592 135.5 63.2216Z" fill="white"/>
<path d="M143 21.7215C143.833 23.0549 145.7 25.6215 146.5 25.2215C147.5 24.7215 149 34.2215 151.5 35.7215C154 37.2215 156.5 44.2215 153 49.2215C150.2 53.2215 148.5 53.8882 148 53.7215C148.256 54.6962 148.596 55.9403 148.966 57.2216C149.738 57.2216 151.977 54.8882 153 53.7215C154.333 56.7215 158.5 61.2215 164.5 55.2215C169.969 49.7526 167.545 46.0837 165.18 44.5936C164.937 44.4725 164.709 44.347 164.5 44.2215C164.721 44.3248 164.95 44.4489 165.18 44.5936C167.839 45.92 172.267 46.7195 173 41.2215C173.8 35.2215 167.667 35.0549 164.5 35.7215C166.833 34.2215 170.8 30.1215 168 25.7215C165.2 21.3215 160.5 23.5549 158.5 25.2215C161 23.0549 165 17.9215 161 14.7215C157 11.5215 153 15.0549 151.5 17.2215C152.667 14.0549 153.6 7.42152 148 6.22152C142.078 4.95248 137.229 9.4096 137.088 12.6289C137.294 13.1991 137.428 13.7538 137.5 14.2215C137.192 13.7596 137.062 13.2147 137.088 12.6289C136.338 10.5574 134.636 8.2806 131.5 9.22156C127.64 10.3795 127.505 13.8033 127.949 15.5394C127.967 15.6012 127.984 15.6619 128 15.7216C127.982 15.6632 127.965 15.6024 127.949 15.5394C127.221 13.0106 124.904 8.76927 121 10.7216C117 12.7216 118.333 17.5549 119.5 19.7216C118.5 18.0549 115.4 15.4216 111 18.2216C105.633 21.6367 107.407 29.3366 110.748 29.7077C110.835 29.7111 110.919 29.7158 111 29.7216C110.915 29.7216 110.831 29.7169 110.748 29.7077C108.355 29.6127 104.114 30.4747 104.5 34.7215C104.9 39.1216 108 39.8882 109.5 39.7216C106.833 40.7216 101.9 43.2216 103.5 45.2216C105.5 47.7216 108.5 50.2216 113 47.2216C110 49.2216 104.7 54.0216 107.5 57.2216C110.3 60.4216 116.667 57.2215 119.5 55.2215C118.167 57.1737 116.3 61.6423 119.5 63.8997C122.7 66.1572 126.5 61.0549 128 58.2216C129.636 60.3882 133.766 63.8216 137.204 60.2216C137.21 57.8252 136.845 55.2594 135.5 54.7215C133 53.7215 126.5 43.2215 126.5 38.7215C127.5 38.0548 129.2 36.3215 128 34.7215C129.333 35.2215 132.5 35.7215 134.5 33.7215C136.07 32.151 136.26 29.1993 135.811 27.2215C137.374 27.8882 140.8 28.8215 142 27.2215C143.2 25.6215 143.167 22.8882 143 21.7215Z" fill="white"/>
<path fill-rule="evenodd" clip-rule="evenodd" d="M169.5 146.722C170.3 147.122 174.5 146.222 176.5 145.722C180.833 138.555 189 124.022 187 123.222C186.176 122.892 183.075 120.935 179.178 118.477C171.243 113.472 160.012 106.386 158 106.722C155 107.222 135 146.722 138 147.722C139.374 148.18 144.944 152.099 150.722 156.165C157.559 160.976 164.687 165.993 165.5 165.722C166.7 165.322 170.333 159.256 172 156.273C170.344 156.288 168.983 156.259 168.04 156.239C167.596 156.229 167.245 156.222 167 156.222C165 156.222 163.5 155.722 161.5 154.222C159.9 153.022 165.5 152.388 168.5 152.222C168.167 152.055 167.1 151.722 165.5 151.722C163.5 151.722 162 151.722 161 150.222C160.2 149.022 165.333 149.055 168 149.222C166 148.888 162.1 147.922 162.5 146.722C163 145.222 168.5 146.222 169.5 146.722ZM148.765 145.881C152.598 139.547 160.7 126.722 161.5 126.722C162.5 126.722 164.5 127.722 163.5 128.722C162.7 129.522 155.667 141.888 152.25 147.972L155.167 149.722C159.778 140.888 169.3 123.222 170.5 123.222C172 123.222 174 124.222 173.5 124.722C173.1 125.122 162.52 142.4 157.28 150.99L155.167 149.722L152.25 147.972L148.765 145.881Z" fill="white"/>
<path d="M84.5955 250.516C84.758 250.739 85.0707 250.788 85.294 250.626C85.5173 250.464 85.5667 250.151 85.4043 249.928L84.5955 250.516ZM131.5 194.722L131.314 194.257L131.314 194.257L131.5 194.722ZM171 196.722L170.95 196.224L170.95 196.224L171 196.722ZM183 194.722L182.913 194.229C182.907 194.23 182.901 194.231 182.895 194.233L183 194.722ZM179.146 246.868C178.951 247.063 178.951 247.38 179.146 247.575C179.342 247.77 179.658 247.77 179.853 247.575L179.146 246.868ZM189.5 183.222L189.01 183.32L189.01 183.32L189.5 183.222ZM187 161.222L186.518 161.09L186.518 161.09L187 161.222ZM183 142.722L182.82 142.255C182.81 142.259 182.8 142.263 182.79 142.268L183 142.722ZM176.5 145.722L176.621 146.207C176.652 146.199 176.681 146.189 176.709 146.176L176.5 145.722ZM162.5 146.722L162.026 146.563L162.5 146.722ZM168 149.222L167.969 149.721C168.234 149.737 168.466 149.543 168.497 149.278C168.527 149.014 168.345 148.772 168.082 148.728L168 149.222ZM161 150.222L160.584 150.499L161 150.222ZM168.5 152.222L168.528 152.721C168.754 152.708 168.944 152.545 168.99 152.323C169.035 152.101 168.926 151.876 168.724 151.774L168.5 152.222ZM161.5 154.222L161.2 154.622L161.2 154.622L161.5 154.222ZM196.99 119.823C197.045 119.552 196.872 119.288 196.601 119.232C196.331 119.176 196.066 119.35 196.01 119.62L196.99 119.823ZM192.5 85.7216L192.744 85.2855C192.74 85.2829 192.735 85.2805 192.731 85.2781L192.5 85.7216ZM77.9999 158.722L78.1029 158.232L78.0973 158.231L77.9999 158.722ZM82.0821 155.728C81.8097 155.683 81.5521 155.867 81.5067 156.139C81.4613 156.412 81.6453 156.669 81.9177 156.715L82.0821 155.728ZM86.4471 152.998C86.3236 152.751 86.0233 152.651 85.7763 152.774C85.5293 152.898 85.4292 153.198 85.5527 153.445L86.4471 152.998ZM78.9999 140.222L78.8418 139.747L78.9999 140.222ZM65.9999 149.722L65.5527 149.945L65.5527 149.945L65.9999 149.722ZM70.9999 154.222L71.2773 154.638L71.2773 154.638L70.9999 154.222ZM76.8646 109.564C77.0535 109.362 77.0434 109.046 76.8419 108.857C76.6405 108.668 76.3241 108.678 76.1352 108.88L76.8646 109.564ZM67.3336 152.722L67.7671 152.472L67.7671 152.472L67.3336 152.722ZM119.5 75.2216L119.433 75.7172C119.511 75.7276 119.59 75.7196 119.664 75.6939L119.5 75.2216ZM131.5 69.7216L131.026 69.5634L131.5 69.7216ZM135.5 63.2216L135.538 62.723L135.5 63.2216ZM153 63.2216L152.688 62.8311L153 63.2216ZM145 73.2215L145.071 72.7265L145 73.2215ZM143 21.7215L143.424 21.4565C143.299 21.2562 143.05 21.1708 142.828 21.2519C142.606 21.3329 142.472 21.5583 142.505 21.7922L143 21.7215ZM153 49.2215L152.59 48.9348L153 49.2215ZM148 53.7215L148.158 53.2472C147.984 53.1891 147.792 53.2312 147.658 53.3567C147.524 53.4822 147.47 53.671 147.516 53.8486L148 53.7215ZM151.5 63.8997L151.624 64.3842L151.5 63.8997ZM137 63.3497L136.954 63.8476L136.954 63.8476L137 63.3497ZM135.5 54.7215L135.314 55.1858L135.314 55.1858L135.5 54.7215ZM122.812 37.3311C122.597 37.1586 122.282 37.1935 122.109 37.4092C121.937 37.6248 121.972 37.9394 122.188 38.112L122.812 37.3311ZM126.777 33.3055C126.548 33.1523 126.237 33.2144 126.084 33.4442C125.931 33.6739 125.993 33.9844 126.223 34.1375L126.777 33.3055ZM134.5 24.7215C134.224 24.7215 134 24.9454 134 25.2215C134 25.4977 134.224 25.7215 134.5 25.7215V24.7215ZM153 53.7215L153.457 53.5184C153.388 53.3626 153.244 53.2528 153.075 53.2272C152.906 53.2016 152.736 53.2637 152.624 53.3919L153 53.7215ZM164.5 44.2215L164.711 43.7684C164.47 43.6559 164.183 43.7519 164.058 43.9869C163.934 44.2218 164.015 44.5134 164.243 44.6503L164.5 44.2215ZM173 41.2215L173.496 41.2876L173.496 41.2876L173 41.2215ZM164.5 35.7215L164.23 35.3009C164.027 35.4314 163.946 35.6882 164.037 35.9113C164.129 36.1345 164.367 36.2605 164.603 36.2108L164.5 35.7215ZM158.5 25.2215L158.172 24.8437C157.965 25.0233 157.941 25.3363 158.119 25.5453C158.297 25.7543 158.609 25.7812 158.82 25.6056L158.5 25.2215ZM151.5 17.2215L151.031 17.0487C150.944 17.2849 151.046 17.5491 151.269 17.6652C151.493 17.7813 151.768 17.7131 151.911 17.5061L151.5 17.2215ZM148 6.22152L147.895 6.71043L147.895 6.71043L148 6.22152ZM137.5 14.2215L137.084 14.4989C137.214 14.694 137.462 14.7725 137.681 14.6876C137.9 14.6027 138.03 14.3773 137.994 14.1455L137.5 14.2215ZM131.5 9.22156L131.356 8.74264L131.356 8.74264L131.5 9.22156ZM128 15.7216L127.521 15.8653C127.6 16.1269 127.873 16.2771 128.136 16.2026C128.399 16.1282 128.553 15.8566 128.483 15.5927L128 15.7216ZM121 10.7216L121.224 11.1688L121.224 11.1688L121 10.7216ZM119.5 19.7216L119.071 19.9788C119.211 20.2117 119.511 20.2905 119.747 20.1562C119.983 20.0219 120.069 19.7237 119.94 19.4845L119.5 19.7216ZM111 18.2216L111.268 18.6434L111.268 18.6434L111 18.2216ZM111 29.7216V30.2216C111.269 30.2216 111.49 30.0084 111.5 29.7394C111.509 29.4703 111.304 29.242 111.036 29.2228L111 29.7216ZM104.5 34.7215L104.002 34.7668L104.5 34.7215ZM109.5 39.7216L109.675 40.1897C109.912 40.1012 110.045 39.8506 109.986 39.6053C109.928 39.36 109.695 39.1968 109.445 39.2246L109.5 39.7216ZM103.5 45.2216L103.89 44.9092L103.5 45.2216ZM113 47.2216L113.277 47.6376C113.507 47.4844 113.569 47.174 113.416 46.9442C113.263 46.7144 112.952 46.6524 112.723 46.8055L113 47.2216ZM119.5 55.2215L119.913 55.5035C120.049 55.3038 120.023 55.035 119.851 54.8652C119.678 54.6955 119.409 54.6735 119.212 54.813L119.5 55.2215ZM128 58.2216L128.399 57.9203C128.296 57.7839 128.13 57.7095 127.96 57.7232C127.79 57.7368 127.638 57.8365 127.558 57.9876L128 58.2216ZM137.204 60.2216L137.704 60.2229L137.204 60.2216ZM187 123.222L186.814 123.686L186.814 123.686L187 123.222ZM158 106.722L158.082 107.215L158.082 107.215L158 106.722ZM138 147.722L137.842 148.196L137.842 148.196L138 147.722ZM165.5 165.722L165.658 166.196L165.658 166.196L165.5 165.722ZM172 156.273L171.995 155.773L171.995 155.773L172 156.273ZM143.5 142.722L143.074 142.46C143.004 142.574 142.983 142.711 143.014 142.84C143.046 142.97 143.128 143.082 143.243 143.15L143.5 142.722ZM161.426 114.483C161.57 114.248 161.497 113.94 161.262 113.795C161.026 113.651 160.718 113.725 160.574 113.96L161.426 114.483ZM160.743 153.65C160.979 153.792 161.287 153.716 161.429 153.479C161.571 153.242 161.494 152.935 161.257 152.793L160.743 153.65ZM148.765 145.881L148.337 145.622C148.268 145.735 148.247 145.872 148.279 146.001C148.311 146.13 148.394 146.241 148.508 146.309L148.765 145.881ZM155.167 149.722L154.909 150.15L154.909 150.15L155.167 149.722ZM88.2156 149.663L88.458 150.1L88.458 150.1L88.2156 149.663ZM66.2838 150.408L66.7496 150.227L66.7496 150.227L66.2838 150.408ZM142.159 72.9766L142.191 72.4776L142.191 72.4776L142.159 72.9766ZM168.04 156.239L168.029 156.739L168.029 156.739L168.04 156.239ZM188.409 178.001L188.898 177.896L188.898 177.896L188.409 178.001ZM159.513 195.672L159.575 195.176L159.575 195.176L159.513 195.672ZM179.178 118.477L179.444 118.054L179.444 118.054L179.178 118.477ZM150.722 156.165L150.434 156.574L150.434 156.574L150.722 156.165ZM134.5 215.722L134.995 215.649C134.959 215.408 134.755 215.227 134.51 215.222C134.266 215.217 134.054 215.389 134.009 215.629L134.5 215.722ZM127.509 250.129C127.457 250.4 127.636 250.662 127.907 250.713C128.179 250.764 128.44 250.586 128.491 250.314L127.509 250.129ZM137.505 239.794C137.545 240.067 137.799 240.256 138.072 240.216C138.345 240.176 138.535 239.923 138.495 239.649L137.505 239.794ZM151.489 63.9026L151.612 64.3873L151.612 64.3873L151.489 63.9026ZM148.966 57.2216L148.485 57.3602L148.966 57.2216ZM86.5033 193.164C85.5026 201.753 84.2014 214.914 83.5507 226.481C83.2254 232.263 83.062 237.658 83.1814 241.887C83.241 244.001 83.3715 245.836 83.5907 247.288C83.8055 248.711 84.1169 249.858 84.5955 250.516L85.4043 249.928C85.0829 249.486 84.7943 248.562 84.5795 247.139C84.3689 245.744 84.2401 243.954 84.181 241.859C84.0628 237.671 84.2244 232.309 84.5491 226.537C85.1984 214.996 86.4973 201.857 87.4966 193.279L86.5033 193.164ZM86.9396 193.718C93.1138 194.469 102.75 195.445 111.597 195.933C116.02 196.177 120.254 196.3 123.763 196.211C127.244 196.122 130.091 195.824 131.686 195.186L131.314 194.257C129.909 194.82 127.235 195.122 123.737 195.211C120.267 195.299 116.063 195.178 111.652 194.935C102.833 194.448 93.2194 193.474 87.0603 192.725L86.9396 193.718ZM171.05 197.219C175.078 196.816 180.767 195.711 183.105 195.211L182.895 194.233C180.566 194.732 174.922 195.827 170.95 196.224L171.05 197.219ZM182.5 194.702C182.167 203.2 181.592 216.022 180.951 226.867C180.63 232.291 180.293 237.216 179.961 240.858C179.795 242.68 179.632 244.173 179.473 245.245C179.393 245.782 179.317 246.203 179.244 246.503C179.207 246.653 179.174 246.762 179.146 246.836C179.112 246.926 179.104 246.91 179.146 246.868L179.853 247.575C179.971 247.458 180.039 247.302 180.081 247.192C180.13 247.064 180.174 246.91 180.216 246.739C180.299 246.396 180.381 245.94 180.462 245.392C180.625 244.292 180.791 242.776 180.957 240.948C181.29 237.29 181.628 232.353 181.949 226.926C182.591 216.072 183.166 203.243 183.5 194.741L182.5 194.702ZM183.087 195.214C184.601 194.947 186.741 194.021 188.301 192.099C189.876 190.157 190.816 187.252 189.99 183.124L189.01 183.32C189.784 187.192 188.89 189.786 187.524 191.469C186.142 193.173 184.233 193.996 182.913 194.229L183.087 195.214ZM187.482 161.353C188.092 159.117 188.23 157.514 188.136 156.404C188.089 155.849 187.983 155.407 187.841 155.067C187.703 154.736 187.515 154.464 187.277 154.306L186.723 155.138C186.734 155.145 186.821 155.219 186.918 155.451C187.011 155.674 187.099 156.011 187.139 156.489C187.22 157.446 187.108 158.926 186.518 161.09L187.482 161.353ZM187.474 154.563L183.474 142.563L182.526 142.88L186.526 154.88L187.474 154.563ZM182.79 142.268L176.29 145.268L176.709 146.176L183.209 143.176L182.79 142.268ZM176.379 145.237C175.387 145.484 173.85 145.831 172.466 146.066C171.773 146.184 171.13 146.271 170.617 146.306C170.36 146.323 170.146 146.326 169.981 146.315C169.899 146.31 169.835 146.301 169.788 146.292C169.739 146.282 169.721 146.273 169.724 146.274L169.276 147.169C169.469 147.265 169.704 147.299 169.916 147.313C170.141 147.328 170.403 147.322 170.683 147.303C171.245 147.266 171.927 147.172 172.634 147.052C174.05 146.812 175.613 146.459 176.621 146.207L176.379 145.237ZM169.724 146.274C169.411 146.118 168.823 145.951 168.158 145.811C167.476 145.666 166.657 145.538 165.852 145.473C165.054 145.409 164.238 145.406 163.575 145.527C163.243 145.587 162.922 145.683 162.654 145.837C162.382 145.994 162.138 146.227 162.026 146.563L162.974 146.88C162.987 146.841 163.025 146.778 163.153 146.704C163.285 146.628 163.483 146.559 163.753 146.51C164.293 146.412 165.009 146.409 165.773 146.47C166.53 146.531 167.305 146.652 167.951 146.789C168.614 146.929 169.089 147.075 169.276 147.169L169.724 146.274ZM162.026 146.563C161.819 147.184 162.222 147.671 162.603 147.966C163.005 148.279 163.575 148.544 164.177 148.766C165.393 149.214 166.901 149.545 167.918 149.715L168.082 148.728C167.098 148.564 165.657 148.246 164.523 147.827C163.95 147.616 163.495 147.394 163.216 147.177C163.077 147.069 163.011 146.985 162.985 146.933C162.966 146.896 162.971 146.888 162.974 146.88L162.026 146.563ZM168.031 148.723C166.688 148.639 164.711 148.587 163.16 148.711C162.397 148.771 161.682 148.878 161.197 149.071C160.965 149.163 160.691 149.31 160.534 149.568C160.448 149.709 160.404 149.876 160.419 150.054C160.434 150.225 160.501 150.375 160.584 150.499L161.416 149.944C161.399 149.919 161.412 149.928 161.416 149.968C161.42 150.014 161.406 150.059 161.389 150.087C161.371 150.117 161.387 150.071 161.566 150C161.901 149.867 162.486 149.768 163.24 149.708C164.722 149.589 166.646 149.638 167.969 149.721L168.031 148.723ZM160.584 150.499C161.161 151.364 161.897 151.805 162.754 152.019C163.576 152.225 164.518 152.222 165.5 152.222V151.222C164.482 151.222 163.674 151.219 162.996 151.049C162.353 150.888 161.839 150.579 161.416 149.944L160.584 150.499ZM165.5 152.222C167.044 152.222 168.029 152.545 168.276 152.669L168.724 151.774C168.304 151.564 167.156 151.222 165.5 151.222V152.222ZM168.472 151.722C166.963 151.806 164.784 152.008 163.173 152.345C162.388 152.509 161.656 152.72 161.22 153.01C161.01 153.149 160.736 153.396 160.719 153.776C160.702 154.163 160.961 154.443 161.2 154.622L161.8 153.822C161.639 153.701 161.723 153.698 161.718 153.82C161.713 153.935 161.636 153.934 161.774 153.843C162.031 153.671 162.586 153.489 163.377 153.324C164.916 153.002 167.037 152.804 168.528 152.721L168.472 151.722ZM161.2 154.622C163.274 156.177 164.877 156.722 167 156.722V155.722C165.123 155.722 163.726 155.266 161.8 153.822L161.2 154.622ZM196.01 119.62C195.35 122.81 193.887 127.786 191.652 132.318C189.402 136.878 186.432 140.862 182.82 142.255L183.18 143.188C187.168 141.65 190.281 137.356 192.548 132.76C194.829 128.137 196.316 123.078 196.99 119.823L196.01 119.62ZM192.255 86.1577C197.711 89.2162 205.451 94.9983 210.923 102.382C216.394 109.763 219.549 118.667 216.032 128.046L216.968 128.397C220.651 118.577 217.306 109.314 211.727 101.786C206.149 94.2615 198.289 88.3937 192.744 85.2855L192.255 86.1577ZM216.032 128.046C208.906 147.047 193.615 153.411 186.939 154.225L187.06 155.218C194.052 154.365 209.694 147.796 216.968 128.397L216.032 128.046ZM87.2094 192.768C85.0772 191.784 81.9252 189.935 79.4151 187.605C76.8822 185.254 75.1296 182.532 75.4955 179.788L74.5043 179.656C74.0702 182.911 76.1509 185.939 78.7347 188.338C81.3413 190.758 84.5893 192.66 86.7904 193.676L87.2094 192.768ZM75.4955 179.788C76.295 173.792 77.8278 163.295 78.4945 158.795L77.5053 158.648C76.8387 163.148 75.3048 173.652 74.5043 179.656L75.4955 179.788ZM77.8969 159.211C79.4928 159.547 81.8945 159.952 83.908 160.071C84.9083 160.13 85.8504 160.121 86.5578 159.981C86.9084 159.912 87.2471 159.802 87.5095 159.617C87.7902 159.419 87.9999 159.119 87.9999 158.722H86.9999C86.9999 158.724 87.0117 158.745 86.9337 158.8C86.8374 158.867 86.6566 158.942 86.3639 159C85.7848 159.114 84.9457 159.13 83.9668 159.072C82.022 158.958 79.6737 158.563 78.1029 158.232L77.8969 159.211ZM87.9999 158.722C87.9999 158.206 87.9682 157.79 87.8943 157.457C87.8201 157.123 87.695 156.835 87.4785 156.618C87.256 156.396 86.9895 156.302 86.7384 156.26C86.5015 156.22 86.2372 156.222 85.9999 156.222V157.222C86.2626 157.222 86.4358 157.223 86.574 157.246C86.6978 157.267 86.7439 157.298 86.7714 157.325C86.8049 157.359 86.8672 157.445 86.9181 157.674C86.9691 157.904 86.9999 158.237 86.9999 158.722H87.9999ZM85.9999 156.222C85.6392 156.222 84.9228 156.144 84.1415 156.039C83.3728 155.935 82.5781 155.811 82.0821 155.728L81.9177 156.715C82.4218 156.799 83.2271 156.925 84.0083 157.03C84.7771 157.133 85.5607 157.222 85.9999 157.222V156.222ZM86.098 157.212C86.951 157.041 88.2351 156.708 89.317 156.258C89.8552 156.034 90.3711 155.77 90.7609 155.466C91.1325 155.175 91.4999 154.761 91.4999 154.222H90.4999C90.4999 154.283 90.4507 154.439 90.1451 154.678C89.8579 154.902 89.4363 155.126 88.9329 155.335C87.9314 155.752 86.7155 156.069 85.9019 156.231L86.098 157.212ZM91.4999 154.222C91.4999 153.5 91.5025 152.935 91.4277 152.561C91.3891 152.368 91.3161 152.143 91.1425 151.97C90.9506 151.778 90.7121 151.722 90.4999 151.722V152.722C90.5377 152.722 90.4867 152.728 90.4354 152.677C90.4025 152.644 90.4232 152.638 90.4471 152.757C90.4973 153.008 90.4999 153.443 90.4999 154.222H91.4999ZM90.4999 151.722C90.4006 151.722 90.3059 151.744 90.2419 151.761C90.1693 151.781 90.091 151.807 90.0121 151.836C89.8544 151.893 89.6643 151.972 89.4613 152.058C89.0474 152.233 88.5617 152.446 88.0744 152.628C87.5811 152.813 87.1287 152.951 86.7864 152.991C86.6145 153.01 86.5084 153 86.4528 152.985C86.4111 152.973 86.4332 152.97 86.4471 152.998L85.5527 153.445C85.6916 153.723 85.9325 153.877 86.1798 153.947C86.4133 154.013 86.6666 154.011 86.901 153.984C87.3711 153.93 87.9188 153.755 88.4255 153.565C88.9381 153.373 89.4525 153.148 89.851 152.979C90.0543 152.893 90.2235 152.823 90.3549 152.775C90.4206 152.751 90.4692 152.736 90.5031 152.726C90.5455 152.715 90.5367 152.722 90.4999 152.722V151.722ZM90.8535 152.575C91.112 152.317 91.4999 151.903 91.8266 151.498C91.9893 151.296 92.1453 151.086 92.2632 150.892C92.3221 150.795 92.3772 150.693 92.4188 150.591C92.4578 150.496 92.4999 150.365 92.4999 150.222H91.4999C91.4999 150.178 91.5108 150.169 91.4931 150.213C91.4781 150.25 91.4512 150.303 91.4085 150.373C91.3233 150.513 91.198 150.684 91.0482 150.87C90.75 151.24 90.3878 151.627 90.1464 151.868L90.8535 152.575ZM92.4999 150.222C92.4999 149.84 92.3241 149.358 92.0154 148.972C91.6939 148.57 91.1858 148.222 90.4999 148.222V149.222C90.814 149.222 91.0559 149.373 91.2345 149.596C91.4257 149.836 91.4999 150.103 91.4999 150.222H92.4999ZM86.9999 149.722C87.0029 149.722 86.9846 149.721 86.9372 149.715C86.8938 149.708 86.8364 149.698 86.7663 149.684C86.6262 149.654 86.4448 149.607 86.2364 149.542C85.8186 149.41 85.3078 149.205 84.8159 148.916C83.8193 148.329 82.9999 147.463 82.9999 146.222H81.9999C81.9999 147.981 83.1805 149.114 84.3089 149.778C84.8795 150.113 85.4625 150.346 85.9353 150.495C86.3875 150.638 86.7933 150.722 86.9999 150.722V149.722ZM78.8418 139.747C78.0308 140.018 76.7676 140.703 75.3709 141.561C73.9602 142.428 72.3716 143.498 70.8944 144.566C69.4187 145.634 68.044 146.708 67.065 147.583C66.5781 148.019 66.1737 148.419 65.9033 148.753C65.7699 148.917 65.6512 149.088 65.5756 149.254C65.5114 149.395 65.4148 149.669 65.5527 149.945L66.4471 149.498C66.5225 149.649 66.4494 149.748 66.4855 149.668C66.5102 149.614 66.5688 149.52 66.6805 149.382C66.9003 149.11 67.2577 148.753 67.7317 148.329C68.6746 147.485 70.0186 146.434 71.4805 145.377C72.9407 144.32 74.5084 143.265 75.8945 142.413C77.2947 141.553 78.469 140.926 79.158 140.696L78.8418 139.747ZM71.2773 154.638C71.8371 154.264 72.6041 153.741 73.4861 153.133L72.9187 152.31C72.0378 152.917 71.2759 153.437 70.7226 153.806L71.2773 154.638ZM73.4861 153.133C76.4079 151.12 80.6116 148.167 82.7883 146.63L82.2116 145.813C80.0357 147.349 75.8357 150.3 72.9187 152.31L73.4861 153.133ZM72.784 152.995C73.421 153.969 74.4273 155.439 75.3777 156.69C75.8521 157.314 76.3195 157.893 76.7242 158.329C76.9259 158.547 77.1206 158.738 77.2993 158.884C77.4595 159.015 77.672 159.166 77.9025 159.212L78.0973 158.231C78.1279 158.237 78.08 158.231 77.9327 158.111C77.8039 158.005 77.6441 157.85 77.4575 157.649C77.0854 157.248 76.6407 156.699 76.1739 156.085C75.2421 154.859 74.2496 153.409 73.6207 152.448L72.784 152.995ZM76.1352 108.88C75.0795 110.005 73.6566 112.012 72.7803 114.413C71.9032 116.816 71.5571 119.664 72.7431 122.419L73.6616 122.024C72.6096 119.58 72.8964 117.011 73.7197 114.756C74.5438 112.498 75.8886 110.605 76.8646 109.564L76.1352 108.88ZM82.9999 146.222C82.9999 145.036 82.9235 143.666 82.6382 142.49C82.3608 141.346 81.8464 140.221 80.8395 139.766L80.4276 140.677C80.9823 140.928 81.401 141.632 81.6664 142.726C81.9239 143.787 81.9999 145.065 81.9999 146.222H82.9999ZM80.8395 139.766C80.2606 139.504 79.5891 139.498 78.8418 139.747L79.158 140.696C79.7261 140.507 80.1296 140.543 80.4276 140.677L80.8395 139.766ZM72.7431 122.419C74.9786 127.613 78.6252 136.575 80.1698 140.408L81.0973 140.035C79.5528 136.201 75.9022 127.23 73.6616 122.024L72.7431 122.419ZM66.9001 152.971C67.3257 153.712 67.8876 154.46 68.6189 154.86C68.9945 155.066 69.4177 155.181 69.8809 155.151C70.3418 155.121 70.8082 154.95 71.2773 154.638L70.7226 153.806C70.3685 154.042 70.0683 154.137 69.8163 154.153C69.5667 154.169 69.331 154.11 69.099 153.983C68.6151 153.718 68.1669 153.168 67.7671 152.472L66.9001 152.971ZM67.7026 152.384C63.0178 147.259 56.7756 138.242 53.299 127.887C49.8234 117.535 49.1306 105.91 55.4279 95.48L54.5719 94.9632C48.0692 105.733 48.821 117.691 52.351 128.206C55.8802 138.717 62.2048 147.851 66.9645 153.059L67.7026 152.384ZM55.4279 95.48C61.722 85.0554 73.6395 79.558 86.09 76.9485C98.5282 74.3415 111.395 74.6398 119.433 75.7172L119.566 74.726C111.438 73.6367 98.455 73.3351 85.8848 75.9697C73.327 78.6018 61.0778 84.1878 54.5719 94.9632L55.4279 95.48ZM131.974 69.8797C132.07 69.5938 132.07 69.2607 132.047 68.9545C132.024 68.6383 131.97 68.2819 131.916 67.9276C131.805 67.1958 131.691 66.4437 131.748 65.7631C131.804 65.0967 132.016 64.5716 132.498 64.2188C133 63.852 133.889 63.5991 135.462 63.7201L135.538 62.723C133.861 62.594 132.688 62.8411 131.908 63.4118C131.109 63.9965 130.821 64.8464 130.752 65.68C130.683 66.4994 130.82 67.3723 130.927 68.078C130.983 68.4425 131.03 68.7579 131.05 69.0277C131.071 69.3074 131.055 69.4744 131.026 69.5634L131.974 69.8797ZM153.312 63.612C153.737 63.2725 153.995 63.2689 154.144 63.314C154.324 63.3689 154.538 63.5513 154.752 63.9305C155.179 64.6832 155.421 65.8732 155.502 66.7668L156.498 66.6763C156.412 65.7365 156.154 64.3765 155.622 63.4376C155.358 62.9709 154.977 62.5221 154.434 62.3572C153.859 62.1825 153.263 62.3706 152.688 62.8311L153.312 63.612ZM155.659 66.356C154.423 67.509 152.395 69.2154 150.336 70.5797C149.306 71.2622 148.282 71.8504 147.354 72.2421C146.411 72.64 145.634 72.807 145.071 72.7265L144.929 73.7165C145.766 73.8361 146.751 73.5822 147.743 73.1634C148.749 72.7385 149.831 72.1142 150.889 71.4133C153.005 70.011 155.076 68.2673 156.341 67.0871L155.659 66.356ZM119.664 75.6939C121.462 75.0684 124.123 74.0847 126.492 73.0899C127.676 72.5928 128.794 72.0899 129.697 71.6253C130.576 71.173 131.322 70.7225 131.697 70.3182L130.964 69.6382C130.725 69.8958 130.134 70.2758 129.239 70.7361C128.369 71.1839 127.277 71.6755 126.105 72.1679C123.761 73.1524 121.12 74.1285 119.336 74.7494L119.664 75.6939ZM131.697 70.3182C131.805 70.2016 131.916 70.0544 131.974 69.8797L131.026 69.5634C131.03 69.5513 131.031 69.5528 131.021 69.5685C131.011 69.5837 130.993 69.607 130.964 69.6382L131.697 70.3182ZM155.769 67.165L192.269 86.1651L192.731 85.2781L156.231 66.278L155.769 67.165ZM142.576 21.9865C143.001 22.6667 143.692 23.6666 144.388 24.4528C144.733 24.8429 145.1 25.204 145.451 25.4438C145.626 25.5636 145.821 25.6692 146.025 25.7237C146.234 25.7795 146.483 25.7888 146.724 25.6687L146.276 24.7743C146.316 24.7542 146.333 24.7708 146.283 24.7576C146.229 24.7431 146.14 24.7034 146.015 24.618C145.765 24.4474 145.463 24.1585 145.137 23.7902C144.491 23.0598 143.832 22.1097 143.424 21.4565L142.576 21.9865ZM146.724 25.6687C146.595 25.733 146.471 25.692 146.424 25.662C146.403 25.6482 146.425 25.6562 146.482 25.7428C146.591 25.9082 146.725 26.1994 146.884 26.6177C147.199 27.4464 147.55 28.6088 147.962 29.8761C148.369 31.1275 148.83 32.465 149.351 33.5883C149.612 34.1505 149.894 34.6713 150.199 35.1063C150.501 35.5371 150.846 35.9122 151.243 36.1503L151.757 35.2928C151.529 35.1559 151.28 34.9059 151.018 34.532C150.758 34.1624 150.505 33.6988 150.258 33.1672C149.764 32.1031 149.319 30.8155 148.913 29.567C148.512 28.3342 148.145 27.1217 147.819 26.2628C147.657 25.8373 147.491 25.4567 147.317 25.1925C147.232 25.0642 147.117 24.9179 146.962 24.8191C146.782 24.7042 146.53 24.6476 146.276 24.7743L146.724 25.6687ZM151.243 36.1503C151.765 36.4634 152.337 37.1004 152.845 38.0055C153.349 38.9016 153.769 40.0227 154.009 41.2548C154.491 43.7234 154.242 46.575 152.59 48.9348L153.41 49.5082C155.258 46.868 155.509 43.7197 154.991 41.0633C154.731 39.7328 154.276 38.5101 153.717 37.5156C153.163 36.5302 152.485 35.7296 151.757 35.2928L151.243 36.1503ZM152.59 48.9348C151.207 50.9107 150.116 52.0339 149.332 52.6381C148.94 52.9403 148.637 53.1034 148.424 53.1825C148.196 53.2674 148.125 53.2363 148.158 53.2472L147.842 54.1959C148.124 54.2901 148.454 54.2381 148.772 54.1199C149.106 53.9959 149.497 53.7736 149.943 53.43C150.834 52.7425 151.993 51.5323 153.41 49.5082L152.59 48.9348ZM151.624 64.3842C152.279 64.2166 152.862 63.9719 153.312 63.612L152.688 62.8311C152.389 63.0703 151.954 63.2675 151.376 63.4153L151.624 64.3842ZM135.462 63.7201C135.948 63.7575 136.447 63.8006 136.954 63.8476L137.046 62.8518C136.535 62.8045 136.031 62.7609 135.538 62.723L135.462 63.7201ZM135.686 54.2573C135.461 54.1675 135.141 53.9457 134.738 53.567C134.343 53.1964 133.9 52.7055 133.429 52.1192C132.486 50.9471 131.453 49.4216 130.494 47.7816C129.535 46.1418 128.656 44.3991 128.019 42.7948C127.377 41.1774 127 39.7493 127 38.7215H126C126 39.9438 126.435 41.5157 127.09 43.1639C127.75 44.8252 128.652 46.6137 129.631 48.2865C130.609 49.959 131.67 51.5271 132.649 52.7457C133.139 53.3547 133.614 53.8834 134.053 54.296C134.484 54.7005 134.914 55.0256 135.314 55.1858L135.686 54.2573ZM122.188 38.112C122.636 38.4707 123.384 38.9526 124.194 39.2423C124.983 39.5243 125.974 39.6731 126.777 39.1375L126.223 38.3055C125.826 38.57 125.234 38.5521 124.531 38.3007C123.849 38.0571 123.197 37.639 122.812 37.3311L122.188 38.112ZM126.777 39.1375C127.319 38.7764 128.061 38.1228 128.512 37.3152C128.974 36.4872 129.155 35.4289 128.4 34.4215L127.6 35.0215C128.044 35.6141 127.976 36.2225 127.638 36.8278C127.289 37.4535 126.681 37.9999 126.223 38.3055L126.777 39.1375ZM126.223 34.1375L127.723 35.1375L128.277 34.3055L126.777 33.3055L126.223 34.1375ZM127.824 35.1897C128.548 35.4609 129.741 35.7248 131.026 35.6584C132.314 35.5917 133.739 35.1891 134.853 34.0751L134.146 33.368C133.26 34.2539 132.102 34.6013 130.974 34.6597C129.842 34.7182 128.785 34.4821 128.175 34.2534L127.824 35.1897ZM134.853 34.0751C135.74 33.1889 136.209 31.9443 136.407 30.7027C136.604 29.4564 136.537 28.1599 136.299 27.111L135.324 27.332C135.534 28.261 135.596 29.4292 135.419 30.5458C135.241 31.6671 134.831 32.6837 134.146 33.368L134.853 34.0751ZM136.299 27.111C136.159 26.4932 135.954 25.9332 135.687 25.5142C135.435 25.1174 135.042 24.7215 134.5 24.7215V25.7215C134.515 25.7215 134.646 25.7403 134.844 26.0509C135.027 26.3393 135.199 26.7792 135.324 27.332L136.299 27.111ZM135.615 27.6814C136.429 28.0285 137.727 28.4462 138.993 28.5692C140.218 28.688 141.628 28.5502 142.4 27.5215L141.6 26.9215C141.171 27.4928 140.269 27.6883 139.09 27.5739C137.953 27.4635 136.757 27.0812 136.008 26.7616L135.615 27.6814ZM142.4 27.5215C143.076 26.6195 143.384 25.4345 143.509 24.3673C143.635 23.292 143.584 22.2735 143.495 21.6508L142.505 21.7922C142.583 22.3362 142.631 23.2677 142.516 24.2507C142.399 25.2419 142.123 26.2236 141.6 26.9215L142.4 27.5215ZM152.543 53.9246C153.238 55.4873 154.689 57.4971 156.821 58.3134C159.02 59.1555 161.762 58.6666 164.853 55.5751L164.146 54.868C161.238 57.7764 158.897 58.0376 157.179 57.3796C155.394 56.696 154.096 54.9557 153.457 53.5184L152.543 53.9246ZM173.496 41.2876C173.707 39.7031 173.467 38.447 172.883 37.4789C172.3 36.5123 171.408 35.8886 170.418 35.5053C168.461 34.7473 166.026 34.8894 164.397 35.2322L164.603 36.2108C166.141 35.887 168.356 35.779 170.057 36.4378C170.896 36.7627 171.585 37.264 172.026 37.9954C172.467 38.7252 172.693 39.7399 172.504 41.1554L173.496 41.2876ZM164.77 36.1421C165.987 35.3601 167.632 33.9019 168.617 32.043C169.614 30.1602 169.94 27.8383 168.422 25.4531L167.578 25.99C168.86 28.0047 168.603 29.9329 167.733 31.575C166.851 33.2411 165.346 34.5829 164.23 35.3009L164.77 36.1421ZM168.422 25.4531C167.676 24.2804 166.785 23.5236 165.818 23.0956C164.854 22.6688 163.848 22.5832 162.889 22.7002C160.989 22.9322 159.226 23.9652 158.18 24.8374L158.82 25.6056C159.773 24.8111 161.361 23.8942 163.01 23.6928C163.827 23.5932 164.646 23.6701 165.413 24.0099C166.178 24.3486 166.924 24.9626 167.578 25.99L168.422 25.4531ZM158.827 25.5994C160.11 24.4879 161.796 22.6029 162.649 20.551C163.078 19.5206 163.309 18.4157 163.143 17.3314C162.974 16.2335 162.403 15.2035 161.312 14.3311L160.688 15.112C161.597 15.8395 162.026 16.6512 162.154 17.4835C162.284 18.3294 162.11 19.2433 161.726 20.1671C160.954 22.0235 159.39 23.7885 158.172 24.8437L158.827 25.5994ZM161.312 14.3311C159.143 12.5957 156.938 12.6848 155.108 13.5025C153.313 14.305 151.873 15.8042 151.089 16.9369L151.911 17.5061C152.627 16.4722 153.937 15.1214 155.516 14.4155C157.062 13.7249 158.857 13.6474 160.688 15.112L161.312 14.3311ZM151.969 17.3944C152.569 15.765 153.119 13.227 152.782 10.912C152.613 9.74831 152.215 8.61502 151.462 7.68614C150.702 6.75032 149.607 6.05453 148.105 5.73262L147.895 6.71043C149.193 6.98852 150.081 7.5719 150.685 8.31628C151.295 9.06761 151.641 10.0156 151.793 11.056C152.097 13.1494 151.597 15.5114 151.031 17.0487L151.969 17.3944ZM120.776 10.2743C118.569 11.378 117.835 13.2858 117.812 15.153C117.79 16.9916 118.45 18.8258 119.06 19.9586L119.94 19.4845C119.383 18.4506 118.793 16.7848 118.812 15.1651C118.832 13.574 119.431 12.0651 121.224 11.1688L120.776 10.2743ZM119.929 19.4643C119.381 18.5523 118.273 17.3885 116.693 16.8256C115.085 16.2528 113.05 16.3241 110.731 17.7997L111.268 18.6434C113.35 17.319 115.064 17.307 116.357 17.7676C117.677 18.238 118.618 19.2242 119.071 19.9788L119.929 19.4643ZM104.002 34.7668C104.213 37.0913 105.15 38.5245 106.297 39.3414C107.425 40.1444 108.703 40.3132 109.555 40.2185L109.445 39.2246C108.797 39.2966 107.775 39.1654 106.877 38.5267C106 37.9019 105.187 36.7518 104.998 34.6763L104.002 34.7668ZM109.324 39.2534C107.971 39.7611 106.023 40.655 104.605 41.693C103.902 42.2074 103.278 42.7933 102.945 43.4265C102.775 43.7499 102.671 44.1044 102.69 44.4769C102.708 44.8548 102.851 45.2112 103.109 45.5339L103.89 44.9092C103.749 44.7319 103.696 44.5727 103.688 44.4272C103.681 44.2762 103.721 44.0995 103.83 43.8916C104.056 43.4623 104.531 42.9857 105.195 42.5001C106.51 41.5381 108.363 40.682 109.675 40.1897L109.324 39.2534ZM103.109 45.5339C104.125 46.8033 105.447 48.1439 107.143 48.7545C108.878 49.3791 110.918 49.2107 113.277 47.6376L112.723 46.8055C110.582 48.2324 108.872 48.314 107.482 47.8136C106.053 47.2993 104.875 46.1398 103.89 44.9092L103.109 45.5339ZM112.723 46.8055C111.195 47.8236 109.068 49.5618 107.671 51.4768C106.973 52.4336 106.43 53.4704 106.263 54.5108C106.091 55.5741 106.316 56.6279 107.124 57.5508L107.876 56.8923C107.284 56.2152 107.121 55.469 107.25 54.6698C107.382 53.8477 107.827 52.9595 108.479 52.0663C109.781 50.2813 111.804 48.6195 113.277 47.6376L112.723 46.8055ZM107.124 57.5508C108.728 59.3847 111.291 59.313 113.624 58.6526C115.99 57.9826 118.342 56.6511 119.788 55.63L119.212 54.813C117.825 55.7919 115.576 57.0605 113.351 57.6905C111.092 58.3301 109.072 58.2585 107.876 56.8923L107.124 57.5508ZM119.087 54.9395C118.392 55.9577 117.552 57.6346 117.305 59.3759C117.055 61.1324 117.406 63.0348 119.212 64.3083L119.788 63.4912C118.393 62.5072 118.078 61.0466 118.295 59.5164C118.514 57.9709 119.275 56.4375 119.913 55.5035L119.087 54.9395ZM119.212 64.3083C120.139 64.9628 121.128 65.0858 122.087 64.8487C123.025 64.6168 123.917 64.0467 124.717 63.3457C126.317 61.9434 127.676 59.9021 128.442 58.4555L127.558 57.9876C126.824 59.3743 125.533 61.3008 124.058 62.5937C123.32 63.2402 122.569 63.6995 121.847 63.8779C121.147 64.0511 120.46 63.9654 119.788 63.4912L119.212 64.3083ZM137.496 63.4147C137.607 62.5623 137.7 61.4136 137.704 60.2229L136.704 60.2202C136.701 61.3648 136.611 62.4709 136.504 63.2847L137.496 63.4147ZM137.704 60.2229C137.707 59.0063 137.616 57.7177 137.343 56.6504C137.078 55.619 136.598 54.6222 135.686 54.2573L135.314 55.1858C135.747 55.3587 136.121 55.9138 136.374 56.8988C136.618 57.848 136.707 59.0404 136.704 60.2202L137.704 60.2229ZM127.601 58.5228C128.451 59.6486 129.959 61.1223 131.738 61.8471C132.634 62.2124 133.619 62.3951 134.628 62.2256C135.643 62.0551 136.64 61.5354 137.565 60.5668L136.842 59.8763C136.048 60.7077 135.24 61.1088 134.463 61.2394C133.68 61.3709 132.885 61.2348 132.115 60.921C130.56 60.2875 129.185 58.9611 128.399 57.9203L127.601 58.5228ZM176.928 145.98C179.098 142.391 182.23 136.954 184.571 132.309C185.74 129.99 186.721 127.85 187.285 126.231C187.564 125.427 187.753 124.718 187.799 124.165C187.822 123.891 187.813 123.616 187.735 123.374C187.653 123.118 187.482 122.876 187.186 122.757L186.814 123.686C186.768 123.667 186.768 123.632 186.783 123.681C186.803 123.743 186.82 123.869 186.802 124.083C186.767 124.506 186.612 125.12 186.34 125.903C185.799 127.457 184.843 129.549 183.678 131.859C181.353 136.472 178.235 141.885 176.072 145.463L176.928 145.98ZM157.918 106.228C157.715 106.262 157.531 106.365 157.38 106.473C157.222 106.586 157.058 106.733 156.891 106.904C156.556 107.245 156.173 107.717 155.753 108.29C154.911 109.439 153.886 111.043 152.758 112.943C150.499 116.746 147.806 121.773 145.302 126.812C142.799 131.849 140.479 136.911 138.972 140.782C138.219 142.714 137.661 144.369 137.387 145.583C137.251 146.185 137.177 146.714 137.198 147.127C137.216 147.492 137.328 148.025 137.842 148.196L138.158 147.247C138.297 147.293 138.213 147.401 138.197 147.076C138.182 146.801 138.233 146.378 138.363 145.803C138.62 144.664 139.156 143.065 139.903 141.145C141.396 137.313 143.701 132.281 146.198 127.257C148.694 122.233 151.375 117.229 153.617 113.453C154.739 111.564 155.745 109.992 156.559 108.881C156.967 108.325 157.319 107.896 157.605 107.603C157.749 107.457 157.867 107.354 157.96 107.288C158.06 107.216 158.097 107.212 158.082 107.215L157.918 106.228ZM172.004 156.773C175.929 156.737 181.514 156.453 187.108 155.21L186.891 154.234C181.394 155.455 175.887 155.737 171.995 155.773L172.004 156.773ZM165.658 166.196C165.922 166.108 166.178 165.899 166.403 165.683C166.642 165.452 166.904 165.152 167.178 164.808C167.728 164.118 168.357 163.214 168.994 162.239C170.268 160.287 171.599 158.015 172.436 156.517L171.563 156.029C170.734 157.514 169.415 159.766 168.156 161.692C167.526 162.657 166.918 163.531 166.396 164.184C166.135 164.512 165.904 164.774 165.708 164.963C165.498 165.167 165.378 165.235 165.342 165.247L165.658 166.196ZM143.926 142.983L161.426 114.483L160.574 113.96L143.074 142.46L143.926 142.983ZM149.193 146.139C151.107 142.977 154.088 138.192 156.689 134.199C157.99 132.202 159.193 130.408 160.118 129.116C160.582 128.468 160.97 127.955 161.263 127.607C161.41 127.432 161.524 127.31 161.605 127.236C161.624 127.218 161.64 127.205 161.652 127.196C161.657 127.191 161.662 127.187 161.665 127.185C161.669 127.183 161.67 127.182 161.67 127.182C161.67 127.182 161.667 127.184 161.662 127.186C161.658 127.189 161.649 127.193 161.637 127.197C161.617 127.205 161.568 127.222 161.5 127.222V126.222C161.329 126.222 161.197 126.298 161.138 126.335C161.063 126.382 160.993 126.441 160.929 126.498C160.802 126.616 160.656 126.775 160.498 126.963C160.179 127.341 159.773 127.88 159.305 128.533C158.367 129.844 157.154 131.652 155.851 133.653C153.243 137.656 150.256 142.451 148.337 145.622L149.193 146.139ZM161.5 127.222C161.881 127.222 162.528 127.43 162.95 127.747C163.161 127.905 163.246 128.039 163.267 128.116C163.275 128.146 163.296 128.219 163.146 128.368L163.853 129.075C164.204 128.724 164.35 128.297 164.233 127.858C164.129 127.467 163.839 127.163 163.55 126.947C162.972 126.513 162.118 126.222 161.5 126.222V127.222ZM143.243 143.15L151.993 148.4L152.507 147.543L143.757 142.293L143.243 143.15ZM163.146 128.368C163.063 128.451 162.967 128.579 162.871 128.714C162.769 128.858 162.647 129.041 162.507 129.258C162.227 129.69 161.871 130.268 161.457 130.953C160.629 132.324 159.567 134.138 158.423 136.115C156.137 140.07 153.523 144.684 151.814 147.727L152.686 148.216C154.394 145.176 157.005 140.565 159.289 136.616C160.431 134.64 161.49 132.833 162.313 131.47C162.725 130.788 163.075 130.221 163.347 129.8C163.483 129.59 163.597 129.42 163.687 129.292C163.784 129.155 163.837 129.092 163.853 129.075L163.146 128.368ZM151.993 148.4L154.909 150.15L155.424 149.293L152.507 147.543L151.993 148.4ZM155.61 149.953C157.914 145.539 161.445 138.919 164.548 133.404C166.1 130.646 167.542 128.17 168.669 126.387C169.233 125.494 169.712 124.784 170.082 124.302C170.269 124.06 170.417 123.889 170.527 123.783C170.583 123.729 170.617 123.704 170.63 123.695C170.655 123.68 170.603 123.722 170.5 123.722V122.722C170.322 122.722 170.179 122.798 170.096 122.85C170.004 122.908 169.915 122.984 169.834 123.062C169.671 123.219 169.487 123.436 169.289 123.693C168.891 124.212 168.393 124.952 167.824 125.853C166.683 127.658 165.231 130.151 163.677 132.914C160.566 138.441 157.03 145.071 154.723 149.49L155.61 149.953ZM170.5 123.722C171.158 123.722 171.956 123.946 172.526 124.231C172.817 124.376 172.997 124.512 173.073 124.602C173.112 124.647 173.088 124.638 173.08 124.578C173.069 124.488 173.107 124.407 173.146 124.368L173.853 125.075C174.017 124.911 174.103 124.689 174.072 124.449C174.045 124.239 173.935 124.07 173.833 123.951C173.628 123.712 173.308 123.504 172.974 123.337C172.294 122.997 171.342 122.722 170.5 122.722V123.722ZM154.909 150.15L157.023 151.418L157.537 150.561L155.424 149.293L154.909 150.15ZM157.023 151.418L160.743 153.65L161.257 152.793L157.537 150.561L157.023 151.418ZM173.146 124.368C173.099 124.415 173.053 124.48 173.026 124.517C172.99 124.568 172.945 124.633 172.894 124.71C172.79 124.865 172.651 125.078 172.482 125.343C172.143 125.873 171.675 126.616 171.109 127.522C169.979 129.334 168.454 131.801 166.779 134.522C163.429 139.967 159.473 146.434 156.853 150.729L157.707 151.25C160.326 146.956 164.281 140.489 167.631 135.047C169.306 132.325 170.829 129.861 171.958 128.052C172.523 127.147 172.988 126.407 173.324 125.882C173.492 125.62 173.627 125.413 173.725 125.266C173.774 125.193 173.812 125.137 173.84 125.098C173.877 125.046 173.876 125.053 173.853 125.075L173.146 124.368ZM90.4999 148.222C90.091 148.222 89.627 148.393 89.2203 148.577C88.797 148.769 88.3543 149.014 87.9733 149.225L88.458 150.1C88.8466 149.885 89.2531 149.66 89.633 149.488C90.0297 149.308 90.3231 149.222 90.4999 149.222V148.222ZM87.9733 149.225C87.6973 149.378 87.4582 149.511 87.2629 149.605C87.1657 149.653 87.0898 149.685 87.0333 149.706C86.9673 149.729 86.9645 149.722 86.9999 149.722V150.722C87.1389 150.722 87.2718 150.682 87.3681 150.648C87.474 150.61 87.5871 150.56 87.6999 150.505C87.9246 150.396 88.1899 150.249 88.458 150.1L87.9733 149.225ZM65.5527 149.945C65.6126 150.065 65.6966 150.279 65.818 150.59L66.7496 150.227C66.6372 149.939 66.533 149.67 66.4471 149.498L65.5527 149.945ZM65.818 150.59C66.0614 151.214 66.419 152.134 66.9001 152.971L67.7671 152.472C67.329 151.71 66.9962 150.859 66.7496 150.227L65.818 150.59ZM131.007 70.3591C132.562 71.6817 134.489 72.4011 136.438 72.8203C138.385 73.2391 140.395 73.3657 142.127 73.4756L142.191 72.4776C140.447 72.367 138.511 72.2433 136.648 71.8426C134.786 71.4422 133.037 70.7727 131.654 69.5973L131.007 70.3591ZM142.127 73.4756C143.189 73.5429 144.137 73.6034 144.929 73.7165L145.071 72.7265C144.232 72.6067 143.241 72.5442 142.191 72.4776L142.127 73.4756ZM167 156.722C167.239 156.722 167.583 156.729 168.029 156.739L168.05 155.739C167.61 155.729 167.252 155.722 167 155.722V156.722ZM168.029 156.739C168.973 156.759 170.341 156.788 172.004 156.773L171.995 155.773C170.348 155.788 168.993 155.759 168.05 155.739L168.029 156.739ZM186.518 161.09C185.884 163.414 185.858 165.89 186.176 168.664C186.492 171.433 187.156 174.534 187.92 178.105L188.898 177.896C188.131 174.311 187.479 171.262 187.169 168.55C186.859 165.844 186.895 163.508 187.482 161.353L186.518 161.09ZM187.92 178.105C188.269 179.736 188.639 181.468 189.01 183.32L189.99 183.124C189.618 181.264 189.247 179.526 188.898 177.896L187.92 178.105ZM170.95 196.224C170.137 196.305 168.649 196.217 166.652 196.016C164.672 195.816 162.242 195.511 159.575 195.176L159.451 196.168C162.113 196.502 164.556 196.809 166.552 197.011C168.53 197.21 170.12 197.312 171.05 197.219L170.95 196.224ZM159.575 195.176C154.597 194.551 148.799 193.822 143.634 193.496C141.051 193.332 138.616 193.269 136.513 193.37C134.421 193.471 132.615 193.737 131.314 194.257L131.686 195.186C132.828 194.729 134.5 194.469 136.561 194.369C138.612 194.27 141.007 194.331 143.571 194.494C148.699 194.818 154.465 195.542 159.451 196.168L159.575 195.176ZM187.186 122.757C186.823 122.612 185.886 122.07 184.503 121.221C183.141 120.386 181.394 119.284 179.444 118.054L178.911 118.9C180.858 120.128 182.611 121.234 183.98 122.074C185.328 122.901 186.353 123.501 186.814 123.686L187.186 122.757ZM179.444 118.054C175.479 115.553 170.68 112.525 166.619 110.164C164.59 108.985 162.735 107.966 161.257 107.262C160.519 106.91 159.863 106.631 159.32 106.451C158.804 106.279 158.303 106.164 157.918 106.228L158.082 107.215C158.2 107.195 158.49 107.228 159.004 107.4C159.492 107.562 160.105 107.821 160.827 108.164C162.268 108.851 164.095 109.853 166.117 111.029C170.158 113.378 174.942 116.396 178.911 118.9L179.444 118.054ZM137.842 148.196C138.122 148.289 138.679 148.588 139.493 149.088C140.29 149.578 141.288 150.233 142.43 151.005C144.711 152.547 147.544 154.54 150.434 156.574L151.01 155.756C148.122 153.724 145.281 151.725 142.99 150.176C141.844 149.402 140.832 148.737 140.017 148.236C139.22 147.746 138.565 147.383 138.158 147.247L137.842 148.196ZM150.434 156.574C153.851 158.979 157.348 161.44 160.093 163.266C161.464 164.178 162.657 164.938 163.562 165.454C164.012 165.711 164.404 165.915 164.718 166.047C164.873 166.112 165.024 166.167 165.161 166.199C165.279 166.226 165.469 166.259 165.658 166.196L165.342 165.247C165.429 165.218 165.469 165.244 165.389 165.225C165.329 165.211 165.236 165.18 165.106 165.125C164.847 165.016 164.496 164.835 164.057 164.585C163.183 164.086 162.014 163.342 160.647 162.433C157.915 160.616 154.43 158.163 151.01 155.756L150.434 156.574ZM148.508 146.309L151.993 148.4L152.507 147.543L149.022 145.452L148.508 146.309ZM134.009 215.629L127.509 250.129L128.491 250.314L134.991 215.814L134.009 215.629ZM134.005 215.794L137.505 239.794L138.495 239.649L134.995 215.649L134.005 215.794ZM136.954 63.8476C139.546 64.0874 142.398 64.431 144.973 64.6104C147.54 64.7893 149.928 64.8145 151.612 64.3873L151.366 63.418C149.855 63.8014 147.614 63.7921 145.042 63.6128C142.478 63.4341 139.683 63.0958 137.046 62.8518L136.954 63.8476ZM151.612 64.3873C151.616 64.3862 151.62 64.3852 151.624 64.3842L151.376 63.4153C151.373 63.4162 151.369 63.4171 151.366 63.418L151.612 64.3873ZM151.377 63.4152L151.365 63.4181L151.612 64.3872L151.623 64.3843L151.377 63.4152ZM151.399 63.4107C151.546 63.384 151.648 63.443 151.674 63.4606C151.701 63.4786 151.703 63.4874 151.681 63.46C151.639 63.4071 151.573 63.3016 151.486 63.1278C151.316 62.7872 151.11 62.2777 150.883 61.6461C150.432 60.3884 149.916 58.71 149.446 57.0829L148.485 57.3602C148.957 58.9935 149.48 60.6962 149.942 61.9842C150.173 62.6255 150.394 63.18 150.591 63.575C150.688 63.769 150.792 63.9492 150.9 64.0851C150.954 64.1521 151.027 64.2309 151.12 64.293C151.213 64.3546 151.375 64.4314 151.578 64.3946L151.399 63.4107ZM149.446 57.0829C149.077 55.8057 148.739 54.5656 148.484 53.5945L147.516 53.8486C147.773 54.8269 148.114 56.0748 148.485 57.3602L149.446 57.0829ZM152.624 53.3919C152.12 53.9668 151.317 54.8287 150.548 55.5429C150.163 55.901 149.798 56.2122 149.489 56.4307C149.335 56.5402 149.205 56.619 149.102 56.6686C148.989 56.7227 148.951 56.7216 148.966 56.7216V57.7216C149.174 57.7216 149.374 57.6475 149.536 57.5695C149.707 57.4869 149.887 57.3742 150.067 57.2467C150.428 56.9913 150.83 56.6463 151.229 56.2752C152.03 55.5311 152.857 54.6429 153.376 54.0511L152.624 53.3919ZM164.853 55.5751C167.648 52.7809 168.518 50.3524 168.274 48.355C168.032 46.3689 166.707 44.9646 165.446 44.1706L164.913 45.0167C166.018 45.7128 167.088 46.8879 167.281 48.476C167.474 50.0528 166.821 52.1931 164.146 54.868L164.853 55.5751ZM165.403 44.1462C165.172 44.0308 164.955 43.9115 164.757 43.7928L164.243 44.6503C164.463 44.7825 164.703 44.9142 164.957 45.041L165.403 44.1462ZM164.288 44.6746C164.491 44.7689 164.701 44.883 164.913 45.0167L165.446 44.1706C165.199 44.0148 164.952 43.8806 164.711 43.7684L164.288 44.6746ZM164.957 45.041C166.325 45.7233 168.221 46.3119 169.915 45.956C170.778 45.7747 171.588 45.3473 172.228 44.5729C172.863 43.8041 173.304 42.7267 173.496 41.2876L172.504 41.1554C172.33 42.4653 171.942 43.3498 171.457 43.9359C170.978 44.5164 170.377 44.8372 169.709 44.9774C168.342 45.2647 166.695 44.7903 165.403 44.1462L164.957 45.041ZM148.105 5.73262C144.992 5.06559 142.16 5.9047 140.092 7.33041C138.048 8.73979 136.668 10.7847 136.588 12.6069L137.587 12.6508C137.649 11.2538 138.764 9.46048 140.66 8.15375C142.532 6.86333 145.086 6.10841 147.895 6.71043L148.105 5.73262ZM136.617 12.799C136.812 13.3383 136.939 13.8614 137.006 14.2976L137.994 14.1455C137.917 13.6462 137.775 13.06 137.558 12.4588L136.617 12.799ZM137.916 13.9442C137.676 13.5839 137.565 13.1477 137.587 12.6508L136.588 12.6069C136.558 13.2818 136.708 13.9354 137.084 14.4989L137.916 13.9442ZM137.558 12.4588C137.166 11.3762 136.51 10.192 135.496 9.40127C134.456 8.59012 133.078 8.22606 131.356 8.74264L131.644 9.70047C133.058 9.27609 134.099 9.57997 134.882 10.1899C135.69 10.8202 136.26 11.8101 136.617 12.799L137.558 12.4588ZM131.356 8.74264C129.277 9.36629 128.159 10.6232 127.643 11.9868C127.137 13.3238 127.224 14.7227 127.465 15.6634L128.434 15.4153C128.23 14.62 128.163 13.439 128.578 12.3406C128.984 11.2688 129.863 10.2348 131.644 9.70047L131.356 8.74264ZM127.469 15.6777C127.486 15.7365 127.502 15.794 127.517 15.8504L128.483 15.5927C128.466 15.5298 128.449 15.4659 128.43 15.401L127.469 15.6777ZM128.479 15.5779C128.463 15.5262 128.448 15.472 128.434 15.4153L127.465 15.6634C127.483 15.7328 127.501 15.8002 127.521 15.8653L128.479 15.5779ZM128.43 15.401C128.053 14.0927 127.259 12.3087 126.015 11.0925C125.388 10.4791 124.628 9.99278 123.733 9.80569C122.831 9.61716 121.84 9.74254 120.776 10.2743L121.224 11.1688C122.112 10.7244 122.875 10.6479 123.528 10.7845C124.189 10.9226 124.785 11.2887 125.316 11.8076C126.389 12.8562 127.117 14.4572 127.469 15.6778L128.43 15.401ZM110.731 17.7997C107.864 19.6247 106.908 22.5989 107.11 25.1457C107.211 26.4168 107.601 27.6057 108.208 28.5143C108.812 29.4194 109.665 30.0904 110.693 30.2046L110.803 29.2107C110.161 29.1394 109.54 28.7087 109.039 27.9591C108.541 27.2129 108.197 26.1937 108.107 25.0666C107.929 22.8169 108.769 20.2336 111.268 18.6434L110.731 17.7997ZM110.728 30.2073C110.81 30.2105 110.888 30.2149 110.964 30.2203L111.036 29.2228C110.949 29.2166 110.86 29.2117 110.768 29.208L110.728 30.2073ZM111 29.2216C110.934 29.2216 110.868 29.2179 110.803 29.2107L110.693 30.2046C110.794 30.2158 110.897 30.2216 111 30.2216V29.2216ZM110.768 29.208C109.52 29.1585 107.758 29.3541 106.337 30.1502C105.62 30.5522 104.976 31.1151 104.541 31.8879C104.104 32.6638 103.897 33.6176 104.002 34.7668L104.998 34.6763C104.909 33.7021 105.088 32.9556 105.412 32.3783C105.739 31.7981 106.233 31.3551 106.826 31.0226C108.027 30.3497 109.583 30.1618 110.728 30.2073L110.768 29.208Z" fill="black"/>
<path d="M82.5 124.5H102C106.142 124.5 109.5 127.858 109.5 132V151.5H90C85.8579 151.5 82.5 148.142 82.5 144V124.5Z" fill="#FAFAFA"/>
<path d="M95.1466 138.857L95.1465 138.857C94.961 138.672 94.6604 138.671 94.4749 138.857C94.4749 138.857 94.4749 138.857 94.4749 138.857L93.75 139.582L93.0252 138.857C92.8396 138.671 92.539 138.672 92.3533 138.857L92.3533 138.857C92.1678 139.042 92.1678 139.343 92.3533 139.529L93.078 140.254L92.3533 140.978C92.1678 141.164 92.1678 141.465 92.3533 141.65C92.5388 141.836 92.8395 141.836 93.0251 141.65L93.0251 141.65L93.75 140.926L94.4749 141.65C94.6603 141.836 94.961 141.836 95.1465 141.65C95.332 141.465 95.332 141.164 95.1465 140.978L94.4219 140.254L95.1465 139.529L95.1466 139.529C95.332 139.343 95.332 139.043 95.1466 138.857ZM101.25 131.899H90.75C90.2825 131.899 89.9 132.281 89.9 132.749V143.251C89.9 143.719 90.2825 144.101 90.75 144.101H101.25C101.718 144.101 102.1 143.719 102.1 143.251V132.749C102.1 132.281 101.718 131.899 101.25 131.899ZM101.15 143.151H90.85V132.849H101.15V143.151ZM92.625 136.229H93.275V136.879C93.275 137.141 93.4878 137.354 93.75 137.354C94.0122 137.354 94.225 137.141 94.225 136.879V136.229H94.875C95.1372 136.229 95.35 136.016 95.35 135.754C95.35 135.491 95.1372 135.279 94.875 135.279H94.225V134.629C94.225 134.366 94.0122 134.154 93.75 134.154C93.4878 134.154 93.275 134.366 93.275 134.629V135.279H92.625C92.3628 135.279 92.15 135.491 92.15 135.754C92.15 136.016 92.3628 136.229 92.625 136.229ZM97.125 136.229H99.375C99.6372 136.229 99.85 136.016 99.85 135.754C99.85 135.491 99.6372 135.279 99.375 135.279H97.125C96.8628 135.279 96.65 135.491 96.65 135.754C96.65 136.016 96.8628 136.229 97.125 136.229ZM97.125 139.979H99.375C99.6372 139.979 99.85 139.766 99.85 139.504C99.85 139.241 99.6372 139.029 99.375 139.029H97.125C96.8628 139.029 96.65 139.241 96.65 139.504C96.65 139.766 96.8628 139.979 97.125 139.979ZM97.125 141.479H99.375C99.6372 141.479 99.85 141.266 99.85 141.004C99.85 140.741 99.6372 140.529 99.375 140.529H97.125C96.8628 140.529 96.65 140.741 96.65 141.004C96.65 141.266 96.8628 141.479 97.125 141.479Z" fill="black" stroke="#0F0F0F" stroke-width="0.2"/>
<path d="M82.5 124.5H102C106.142 124.5 109.5 127.858 109.5 132V151.5H90C85.8579 151.5 82.5 148.142 82.5 144V124.5Z" stroke="#0F0F0F"/>
<path d="M74.25 92.25H98C102.28 92.25 105.75 95.7198 105.75 100V123.75H82C77.7198 123.75 74.25 120.28 74.25 116V92.25Z" fill="#FAFAFA"/>
<rect x="84.75" y="102.75" width="8.5" height="7" rx="1.25" stroke="#0F0F0F" stroke-width="1.5"/>
<rect x="84.375" y="111.375" width="9.75" height="0.75" rx="0.375" stroke="#0F0F0F" stroke-width="0.75"/>
<rect x="94.875" y="102.375" width="0.75" height="7.75" rx="0.375" stroke="#0F0F0F" stroke-width="0.75"/>
<path d="M74.25 92.25H98C102.28 92.25 105.75 95.7198 105.75 100V123.75H82C77.7198 123.75 74.25 120.28 74.25 116V92.25Z" stroke="#775591" stroke-width="0.5"/>
<path d="M166.5 73.7214C160.1 77.3214 167.167 78.8881 171.5 79.2214C173.5 81.7216 170 89.2213 168 88.7213C166 88.2213 161 96.7214 164 96.7214C166.4 96.7214 170 99.0548 171.5 100.221C169.974 103.427 170.32 108.814 182.375 106.931C182.426 96.0996 178.537 78.5982 176 69.2213C179.619 70.5069 182.293 90.8171 183.7 106.704C184.427 106.568 185.194 106.407 186 106.221C201.6 102.621 199.833 96.0546 197 93.2213C192.833 93.388 186.2 92.1213 193 85.7213C199.8 79.3213 197.167 75.0547 195 73.7214C192.167 74.5547 186.1 74.4214 184.5 67.2214C182.9 60.0215 181.5 60.5547 181 61.7213C181 63.5547 179.7 66.4214 174.5 63.2214C169.3 60.0214 168 61.8881 168 63.2214C170.167 65.2214 172.9 70.1214 166.5 73.7214Z" fill="white"/>
<path d="M176 69.2213C178.537 78.5982 182.426 96.0996 182.375 106.931C182.802 106.865 183.243 106.789 183.7 106.704C182.293 90.8171 179.619 70.5069 176 69.2213Z" fill="#0F0F0F"/>
<path d="M107.5 109.594C100.757 103.551 91.5254 110.837 87.5 115.599C89.2464 116.935 91.3976 117.915 94 118.17C94.2375 118.193 94.4787 118.21 94.7237 118.221C93.7026 113.021 102.816 110.303 107.5 109.594Z" fill="white"/>
<path d="M94 118.17C91.3976 117.915 89.2464 116.935 87.5 115.599C86.6043 117.698 87.0625 119.892 88.3804 121.998C89.952 124.51 92.746 126.897 95.9249 128.854C94.7207 127.355 94.1452 121.368 94 118.17Z" fill="white"/>
<path d="M96 118.221C95.5636 118.24 95.1382 118.24 94.7237 118.221C94.4787 118.21 94.2375 118.193 94 118.17C94.1452 121.368 94.7207 127.355 95.9249 128.854C96.1153 128.971 96.307 129.086 96.5 129.2C100.72 131.694 105.513 133.417 109 133.681C109 133.221 100 124.837 101 118.779C99.2462 118.362 97.5594 118.154 96 118.221Z" fill="white"/>
<path d="M109.5 121.998C107 120.762 104.447 119.715 102 119.037C101.665 118.944 101.331 118.858 101 118.779C100 124.837 109 133.221 109 133.681C110.43 133.789 111.64 133.651 112.5 133.221C113.494 132.725 114.504 132.348 115.5 132.067C113.5 131.544 110.667 125.136 109.5 121.998Z" fill="white"/>
<path d="M124.5 131.721C121.298 129.084 115.552 124.989 109.5 121.998C110.667 125.136 113.5 131.544 115.5 132.067C119.316 130.991 122.914 131.325 124.5 131.721Z" fill="white"/>
<path d="M107.5 115.599C103.608 115.599 102.212 117.891 102 119.037C104.447 119.715 107 120.762 109.5 121.998C115.552 124.989 121.298 129.084 124.5 131.721C122.852 129.485 119.193 124.572 114.79 118.779C113.791 117.465 112.754 116.105 111.693 114.721C111.917 115.014 111.392 115.599 107.5 115.599Z" fill="white"/>
<path d="M109 111.221C108.517 110.596 108.016 110.056 107.5 109.594C102.816 110.303 93.7026 113.021 94.7237 118.221C95.1382 118.24 95.5636 118.24 96 118.221C97.5594 118.154 99.2462 118.362 101 118.779C101.331 118.858 101.665 118.944 102 119.037C102.212 117.891 103.608 115.599 107.5 115.599C111.392 115.599 111.917 115.014 111.693 114.721C110.809 113.568 109.908 112.397 109 111.221Z" fill="white"/>
<path d="M181 114.701C177 121.517 181.667 119.221 184.5 117.221C184.312 114.209 184.044 110.588 183.7 106.704C183.243 106.789 182.802 106.865 182.375 106.931C182.359 110.33 181.955 113.072 181 114.701Z" fill="#0F0F0F"/>
<path d="M81.9862 106.105C81.9217 105.836 81.6518 105.671 81.3833 105.735C81.1148 105.8 80.9494 106.069 81.0138 106.338L81.9862 106.105ZM96 118.221L95.9783 117.722L96 118.221ZM124.5 131.721L124.379 132.206C124.583 132.258 124.798 132.175 124.915 132C125.033 131.824 125.028 131.594 124.903 131.425L124.5 131.721ZM109 111.221L109.396 110.916L109.396 110.916L109 111.221ZM94.7237 118.221L94.7014 118.721L94.7237 118.221ZM115.5 132.067L115.636 132.548L115.5 132.067ZM94 118.17L94.0488 117.672L94 118.17ZM88.3804 121.998L88.8043 121.733L88.8043 121.733L88.3804 121.998ZM114.79 118.779L114.392 119.082L114.79 118.779ZM171.5 79.2214L171.89 78.9091C171.804 78.8009 171.676 78.7335 171.538 78.7229L171.5 79.2214ZM168 63.2214H167.5C167.5 63.3609 167.558 63.4941 167.661 63.5888L168 63.2214ZM181 61.7213L180.54 61.5244C180.514 61.5866 180.5 61.6536 180.5 61.7213H181ZM195 73.7214L195.262 73.2956C195.141 73.2213 194.995 73.2017 194.859 73.2417L195 73.7214ZM197 93.2213L197.354 92.8678C197.255 92.7691 197.119 92.7161 196.98 92.7217L197 93.2213ZM186 106.221L185.888 105.734L185.888 105.734L186 106.221ZM171.5 100.221L171.951 100.436C172.052 100.224 171.992 99.9709 171.807 99.8268L171.5 100.221ZM176 69.2213L176.167 68.7502C175.992 68.6879 175.797 68.7281 175.66 68.8544C175.524 68.9807 175.469 69.1724 175.517 69.3519L176 69.2213ZM181 114.701L181.431 114.954L181 114.701ZM184.5 117.221L184.788 117.63C184.93 117.53 185.01 117.363 184.999 117.19L184.5 117.221ZM81.0138 106.338C81.6493 108.986 83.5714 113.222 87.1962 115.996L87.8038 115.201C84.4122 112.607 82.5852 108.601 81.9862 106.105L81.0138 106.338ZM87.8818 115.921C89.865 113.575 93.1231 110.62 96.688 109C100.242 107.384 103.999 107.127 107.166 109.966L107.834 109.221C104.258 106.017 100.028 106.382 96.2741 108.089C92.531 109.791 89.1604 112.86 87.1182 115.276L87.8818 115.921ZM107.166 109.966C107.658 110.406 108.138 110.924 108.604 111.527L109.396 110.916C108.895 110.268 108.374 109.705 107.834 109.221L107.166 109.966ZM94.7014 118.721C95.1308 118.74 95.5709 118.74 96.0217 118.721L95.9783 117.722C95.5563 117.74 95.1456 117.74 94.746 117.722L94.7014 118.721ZM107.425 109.099C105.051 109.459 101.544 110.327 98.7423 111.78C97.3424 112.505 96.0831 113.395 95.2374 114.47C94.3809 115.56 93.9447 116.849 94.2331 118.318L95.2143 118.125C94.9921 116.993 95.3122 115.993 96.0236 115.088C96.7458 114.17 97.8662 113.36 99.2025 112.667C101.873 111.283 105.264 110.438 107.575 110.088L107.425 109.099ZM102.492 119.128C102.659 118.219 103.849 116.099 107.5 116.099V115.099C103.368 115.099 101.764 117.562 101.508 118.946L102.492 119.128ZM108.604 111.527C109.512 112.702 110.412 113.872 111.296 115.025L112.09 114.417C111.205 113.263 110.304 112.092 109.396 110.916L108.604 111.527ZM107.5 116.099C109.456 116.099 110.623 115.953 111.288 115.747C111.608 115.648 111.892 115.511 112.067 115.299C112.162 115.181 112.235 115.028 112.237 114.849C112.239 114.671 112.172 114.524 112.09 114.417L111.296 115.025C111.271 114.992 111.236 114.927 111.237 114.837C111.238 114.745 111.276 114.686 111.293 114.665C111.31 114.644 111.262 114.708 110.992 114.792C110.477 114.951 109.435 115.099 107.5 115.099V116.099ZM101.866 119.519C104.275 120.186 106.797 121.22 109.278 122.446L109.722 121.55C107.203 120.305 104.62 119.244 102.134 118.555L101.866 119.519ZM109.278 122.446C115.289 125.417 121.002 129.489 124.182 132.107L124.818 131.335C121.594 128.68 115.816 124.562 109.722 121.55L109.278 122.446ZM124.621 131.236C122.96 130.821 119.273 130.484 115.364 131.586L115.636 132.548C119.358 131.499 122.868 131.829 124.379 132.206L124.621 131.236ZM115.364 131.586C114.341 131.874 113.301 132.262 112.276 132.774L112.724 133.669C113.686 133.187 114.667 132.821 115.636 132.548L115.364 131.586ZM109.031 122.172C109.62 123.756 110.629 126.164 111.747 128.249C112.305 129.291 112.899 130.267 113.489 131.022C113.784 131.4 114.086 131.733 114.391 131.993C114.693 132.25 115.022 132.459 115.373 132.551L115.627 131.583C115.478 131.544 115.281 131.438 115.04 131.232C114.803 131.03 114.547 130.752 114.277 130.406C113.737 129.715 113.174 128.795 112.628 127.777C111.538 125.743 110.547 123.379 109.969 121.824L109.031 122.172ZM112.276 132.774C111.534 133.145 110.43 133.287 109.038 133.182L108.962 134.179C110.429 134.29 111.745 134.158 112.724 133.669L112.276 132.774ZM96.0217 118.721C97.5229 118.656 99.1621 118.856 100.884 119.266L101.116 118.293C99.3303 117.869 97.5959 117.651 95.9783 117.722L96.0217 118.721ZM100.884 119.266C101.209 119.343 101.537 119.427 101.866 119.519L102.134 118.555C101.792 118.46 101.453 118.373 101.116 118.293L100.884 119.266ZM109.5 133.681C109.5 133.583 109.473 133.506 109.459 133.471C109.442 133.429 109.423 133.392 109.408 133.365C109.376 133.311 109.338 133.256 109.3 133.205C109.224 133.103 109.118 132.975 108.995 132.832C108.749 132.544 108.394 132.147 107.985 131.681C107.161 130.739 106.078 129.472 105.029 128.034C103.978 126.595 102.97 124.999 102.288 123.402C101.603 121.8 101.265 120.242 101.493 118.861L100.507 118.698C100.235 120.345 100.647 122.107 101.368 123.795C102.092 125.488 103.147 127.153 104.221 128.624C105.297 130.097 106.402 131.391 107.233 132.34C107.653 132.819 107.993 133.2 108.235 133.482C108.356 133.623 108.443 133.729 108.498 133.803C108.526 133.841 108.538 133.86 108.541 133.864C108.542 133.867 108.536 133.856 108.528 133.836C108.523 133.823 108.5 133.764 108.5 133.681H109.5ZM87.1962 115.996C89.0086 117.382 91.2466 118.402 93.9512 118.667L94.0488 117.672C91.5486 117.427 89.4842 116.487 87.8038 115.201L87.1962 115.996ZM93.9512 118.667C94.1975 118.692 94.4476 118.709 94.7014 118.721L94.746 117.722C94.5098 117.711 94.2774 117.695 94.0488 117.672L93.9512 118.667ZM109.038 133.182C105.652 132.926 100.933 131.239 96.7544 128.77L96.2456 129.631C100.506 132.148 105.374 133.908 108.962 134.179L109.038 133.182ZM88.8043 121.733C87.5403 119.713 87.1493 117.695 87.9599 115.795L87.0401 115.402C86.0593 117.702 86.5846 120.071 87.9566 122.263L88.8043 121.733ZM111.296 115.025C112.357 116.409 113.393 117.768 114.392 119.082L115.188 118.477C114.189 117.162 113.151 115.802 112.09 114.417L111.296 115.025ZM114.392 119.082C118.793 124.873 122.451 129.784 124.097 132.018L124.903 131.425C123.253 129.186 119.592 124.271 115.188 118.477L114.392 119.082ZM171.538 78.7229C170.472 78.6409 169.241 78.4831 168.095 78.2387C166.939 77.9921 165.912 77.6658 165.228 77.265C164.886 77.0647 164.665 76.8663 164.546 76.6833C164.438 76.517 164.409 76.3595 164.456 76.1775C164.509 75.9741 164.669 75.6943 165.043 75.3411C165.414 74.9909 165.966 74.5957 166.745 74.1572L166.255 73.2856C165.434 73.7471 164.807 74.1883 164.356 74.6142C163.909 75.037 163.605 75.4729 163.488 75.9278C163.365 76.4042 163.46 76.8477 163.708 77.2283C163.944 77.5922 164.31 77.8865 164.722 78.1279C165.546 78.6104 166.698 78.9632 167.886 79.2167C169.084 79.4722 170.361 79.6353 171.462 79.72L171.538 78.7229ZM166.745 74.1572C168.399 73.2268 169.5 72.1915 170.166 71.1042C170.834 70.0118 171.046 68.8929 170.961 67.8315C170.793 65.7347 169.474 63.9013 168.339 62.854L167.661 63.5888C168.693 64.5415 169.824 66.1581 169.964 67.9113C170.033 68.7749 169.864 69.681 169.313 70.5823C168.758 71.4888 167.801 72.416 166.255 73.2856L166.745 74.1572ZM168.5 63.2214C168.5 62.7039 168.737 62.1701 169.416 62.0077C170.185 61.8237 171.658 62.0595 174.238 63.6472L174.762 62.7956C172.142 61.1833 170.365 60.7524 169.184 61.0351C167.913 61.3393 167.5 62.4056 167.5 63.2214H168.5ZM174.238 63.6472C176.876 65.2707 178.72 65.4805 179.944 64.7952C181.153 64.1182 181.5 62.7102 181.5 61.7213H180.5C180.5 62.5658 180.197 63.5079 179.456 63.9226C178.73 64.3289 177.324 64.3721 174.762 62.7956L174.238 63.6472ZM181.46 61.9183C181.569 61.6638 181.685 61.556 181.737 61.5323C181.747 61.528 181.751 61.5264 181.768 61.5314C181.796 61.5392 181.868 61.5704 181.982 61.6851C182.215 61.9217 182.526 62.4165 182.882 63.3404C183.234 64.2532 183.615 65.5438 184.012 67.3299L184.988 67.113C184.585 65.2991 184.191 63.9564 183.815 62.9807C183.443 62.016 183.073 61.367 182.693 60.9828C182.5 60.787 182.284 60.6386 182.042 60.5697C181.791 60.4979 181.545 60.5226 181.328 60.6198C180.928 60.7993 180.681 61.1956 180.54 61.5244L181.46 61.9183ZM184.012 67.3299C184.846 71.0816 186.869 73.054 189.102 73.9481C191.301 74.8287 193.645 74.6411 195.141 74.2011L194.859 73.2417C193.522 73.635 191.416 73.7974 189.473 73.0197C187.565 72.2554 185.754 70.5612 184.988 67.113L184.012 67.3299ZM194.738 74.1472C195.71 74.7454 196.791 76.0071 196.863 77.8408C196.934 79.6736 196.001 82.2101 192.657 85.3572L193.343 86.0854C196.799 82.8325 197.949 80.0357 197.862 77.8019C197.775 75.5689 196.457 74.0307 195.262 73.2956L194.738 74.1472ZM192.657 85.3572C190.937 86.9766 189.993 88.3351 189.687 89.4886C189.531 90.0766 189.539 90.6205 189.705 91.1111C189.871 91.5999 190.18 91.9989 190.569 92.3196C191.333 92.9493 192.442 93.3114 193.574 93.5121C194.719 93.7151 195.951 93.7637 197.02 93.7209L196.98 92.7217C195.965 92.7623 194.806 92.7151 193.748 92.5274C192.677 92.3374 191.771 92.0142 191.206 91.548C190.93 91.3208 190.747 91.0693 190.652 90.7905C190.559 90.5135 190.54 90.1728 190.654 89.7447C190.887 88.8659 191.663 87.666 193.343 86.0854L192.657 85.3572ZM196.646 93.5749C197.988 94.9162 198.987 97.0453 197.96 99.2204C196.911 101.445 193.66 103.94 185.888 105.734L186.112 106.709C193.94 104.902 197.606 102.315 198.865 99.6472C200.147 96.9307 198.846 94.3597 197.354 92.8678L196.646 93.5749ZM171.807 99.8268C171.037 99.2279 169.737 98.3361 168.32 97.5913C166.922 96.8563 165.329 96.2214 164 96.2214V97.2214C165.071 97.2214 166.478 97.7532 167.855 98.4765C169.213 99.1901 170.463 100.048 171.193 100.616L171.807 99.8268ZM164 96.2214C163.756 96.2214 163.686 96.1455 163.651 96.0898C163.592 95.9962 163.541 95.7996 163.576 95.4504C163.644 94.7609 164.013 93.7841 164.564 92.7733C165.11 91.7725 165.803 90.7957 166.469 90.1081C166.803 89.7631 167.113 89.5079 167.379 89.3554C167.657 89.1963 167.813 89.19 167.879 89.2064L168.121 88.2362C167.687 88.1276 167.249 88.2775 166.882 88.4876C166.504 88.7043 166.119 89.0311 165.75 89.4127C165.009 90.1782 164.265 91.2327 163.686 92.2945C163.112 93.3461 162.669 94.4632 162.581 95.3518C162.537 95.7917 162.572 96.2552 162.806 96.6246C163.064 97.0317 163.494 97.2214 164 97.2214V96.2214ZM167.879 89.2064C168.297 89.311 168.705 89.1932 169.055 88.9932C169.405 88.7929 169.741 88.4863 170.051 88.1256C170.673 87.4024 171.261 86.3835 171.712 85.2868C172.165 84.1887 172.494 82.9801 172.577 81.8681C172.659 80.772 172.507 79.6798 171.89 78.9091L171.11 79.5338C171.493 80.0131 171.654 80.796 171.58 81.7936C171.506 82.7753 171.21 83.8792 170.788 84.906C170.364 85.9343 169.827 86.8528 169.293 87.4733C169.025 87.7845 168.775 88.0014 168.558 88.1253C168.341 88.2494 168.203 88.2567 168.121 88.2362L167.879 89.2064ZM180.569 114.447C179.567 116.155 179.058 117.369 178.964 118.195C178.917 118.613 178.966 119.019 179.209 119.33C179.461 119.651 179.832 119.758 180.174 119.767C180.821 119.785 181.645 119.467 182.42 119.076C183.222 118.672 184.067 118.139 184.788 117.63L184.212 116.813C183.517 117.303 182.715 117.808 181.97 118.183C181.199 118.572 180.575 118.778 180.201 118.767C180.032 118.763 180 118.717 179.996 118.713C179.983 118.697 179.924 118.602 179.958 118.308C180.026 117.709 180.433 116.654 181.431 114.954L180.569 114.447ZM171.049 100.006C170.253 101.678 169.865 104.086 171.478 105.824C173.065 107.535 176.403 108.37 182.452 107.425L182.298 106.437C176.293 107.375 173.43 106.458 172.211 105.144C171.018 103.859 171.221 101.971 171.951 100.436L171.049 100.006ZM182.875 106.933C182.926 96.028 179.02 78.4689 176.483 69.0907L175.517 69.3519C178.054 78.7276 181.926 96.1712 181.875 106.929L182.875 106.933ZM175.833 69.6925C176.114 69.7924 176.475 70.1204 176.883 70.8051C177.279 71.471 177.672 72.3942 178.058 73.545C178.828 75.8438 179.54 78.9717 180.187 82.5754C181.48 89.778 182.499 98.8101 183.202 106.748L184.198 106.659C183.494 98.7105 182.472 89.6443 181.171 82.3988C180.522 78.7785 179.799 75.5948 179.006 73.2274C178.61 72.0451 178.19 71.0466 177.742 70.2937C177.305 69.5595 176.791 68.9716 176.167 68.7502L175.833 69.6925ZM183.791 107.195C184.527 107.058 185.3 106.896 186.112 106.709L185.888 105.734C185.088 105.919 184.328 106.077 183.608 106.212L183.791 107.195ZM184.999 117.19C184.811 114.173 184.542 110.548 184.198 106.659L183.202 106.748C183.545 110.628 183.813 114.244 184.001 117.253L184.999 117.19ZM181.875 106.929C181.859 110.321 181.451 112.944 180.569 114.447L181.431 114.954C182.46 113.201 182.859 110.339 182.875 106.933L181.875 106.929ZM183.608 106.212C183.156 106.296 182.72 106.371 182.298 106.437L182.452 107.425C182.884 107.358 183.33 107.281 183.791 107.195L183.608 106.212ZM87.9566 122.263C89.5858 124.867 92.4521 127.303 95.6628 129.279L96.187 128.428C93.0398 126.491 90.3182 124.152 88.8043 121.733L87.9566 122.263ZM96.3146 128.54C96.0828 128.252 95.8423 127.684 95.6187 126.869C95.4004 126.074 95.2145 125.106 95.0598 124.075C94.7505 122.012 94.5716 119.734 94.4995 118.147L93.5005 118.192C93.5737 119.803 93.7551 122.118 94.0709 124.223C94.2287 125.275 94.4215 126.285 94.6543 127.134C94.8819 127.963 95.1648 128.706 95.5351 129.167L96.3146 128.54ZM96.7544 128.77C96.5639 128.657 96.3748 128.543 96.187 128.428L95.6628 129.279C95.8558 129.398 96.0501 129.515 96.2456 129.631L96.7544 128.77ZM95.5351 129.167C95.7567 129.443 96.0746 129.696 96.4948 129.7L96.5052 128.7C96.5037 128.7 96.501 128.7 96.4957 128.699C96.4901 128.697 96.4794 128.693 96.4634 128.683C96.4296 128.662 96.3787 128.62 96.3146 128.54L95.5351 129.167Z" fill="black"/>
</svg>
