<svg width="18" height="18" viewBox="0 0 18 18" fill="none" xmlns="http://www.w3.org/2000/svg">
<path d="M0 11.6937V14.9202C0 15.1508 0.174826 15.3523 0.424007 15.4074C6.05678 16.6512 11.6895 14.0226 17.3223 15.1518C17.6702 15.2216 18 14.9823 18 14.6619V11.6937C12 10.1567 6.00001 13.2306 0 11.6937V11.6937Z" fill="#E93333"/>
<path d="M0 5.98947V12.0105C6.00001 14.5721 12 9.44893 18 12.0105V5.98947C12 3.42787 6.00001 8.55107 0 5.98947Z" fill="#FFCB21"/>
<path d="M0 3.30513V6.31974C6.00001 7.8102 12 4.82929 18 6.31974V3.05471C18 2.83107 17.8252 2.63562 17.576 2.58226C11.9432 1.37612 6.31045 3.92513 0.677682 2.83005C0.329799 2.76245 0 2.99448 0 3.30513Z" fill="#E93333"/>
</svg>
