<svg width="266" height="267" viewBox="0 0 266 267" fill="none" xmlns="http://www.w3.org/2000/svg">
<path fill-rule="evenodd" clip-rule="evenodd" d="M119.182 3.22633C150.303 8.03531 170.078 35.394 193.916 56.6802C221.136 80.9865 269.6 97.1096 265.788 134.138C261.917 171.736 208.381 173.553 179.505 196.66C157.504 214.265 145.894 243.49 119.182 251.453C82.845 262.285 26.9126 282.27 10.1486 247.145C-8.48035 208.112 61.5703 177.653 63.1919 134.138C64.6695 94.4908 2.74467 65.8097 18.2583 29.5368C32.8721 -4.63231 83.5144 -2.28513 119.182 3.22633Z" fill="#197C9B"/>
<path fill-rule="evenodd" clip-rule="evenodd" d="M35.5 92.5L7.99997 53.5C4.49997 50 -1.60003 42.2 1.99997 39C5.59997 35.8 9.83332 35 11.5 35C14 35.8333 19.4 38.2 21 41C23 44.5 45.5 79.5 46 81.5C46.4 83.1 53.1667 82.1667 56.5 81.5C63.5 84 74.8 93.2 64 110C62.5 104.333 58.9 93.2 56.5 94C53.5 95 51 93 44.5 98C39.3 102 48.6667 110.333 54 114C48.1667 117.667 35.7 122.8 32.5 114C28.5 103 30.4999 98 35.5 92.5ZM15.5 42C14.7 40 12.5 40.5 11.5 41C8.3 41.4 8.5 44.1667 9 45.5C8.5 46 12.5 49 13.5 49.5C14.5 50 16 48 17 47.5C18 47 16.5 44.5 15.5 42Z" fill="#D47048" stroke="black" stroke-linecap="round" stroke-linejoin="round"/>
<path d="M200.5 130C200.5 127.975 200.727 126.004 201.157 124.111C201.197 123.931 201.315 123.787 201.598 123.666C201.9 123.537 202.326 123.464 202.859 123.425C203.25 123.396 203.663 123.386 204.092 123.376C204.246 123.372 204.402 123.369 204.56 123.364C205.143 123.347 205.745 123.317 206.277 123.217C206.8 123.12 207.331 122.942 207.708 122.573C208.115 122.174 208.269 121.626 208.173 120.966C208.08 120.331 207.755 119.566 207.187 118.637C206.653 117.765 205.885 116.718 204.838 115.46C204.857 115.431 204.875 115.402 204.893 115.373C205.471 114.463 206.073 113.516 206.726 112.667C207.414 111.771 208.131 111.024 208.891 110.559C210.067 111.072 211.036 111.42 211.834 111.63C212.68 111.851 213.364 111.926 213.913 111.854C214.478 111.779 214.913 111.546 215.204 111.159C215.483 110.79 215.585 110.338 215.617 109.908C215.65 109.476 215.615 109.008 215.571 108.569C215.559 108.445 215.546 108.324 215.534 108.205C215.5 107.888 215.469 107.588 215.455 107.299C215.435 106.902 215.454 106.589 215.526 106.358C215.591 106.146 215.692 106.026 215.848 105.953C217.367 105.248 218.963 104.683 220.62 104.273C220.621 104.273 220.622 104.272 220.623 104.272C220.648 104.266 220.692 104.254 220.804 104.375C220.937 104.52 221.078 104.77 221.233 105.125C221.335 105.358 221.43 105.603 221.53 105.861C221.581 105.993 221.634 106.128 221.689 106.266C221.845 106.658 222.021 107.067 222.232 107.404C222.436 107.729 222.725 108.073 223.145 108.205C223.603 108.349 224.058 108.197 224.473 107.876C224.881 107.561 225.313 107.041 225.791 106.298C226.238 105.602 226.741 104.685 227.314 103.502C229.401 103.526 231.43 103.791 233.373 104.271C233.385 104.279 233.451 104.334 233.522 104.573C233.609 104.86 233.658 105.268 233.687 105.766C233.707 106.116 233.717 106.486 233.727 106.865C233.731 107.021 233.735 107.179 233.74 107.338C233.756 107.871 233.782 108.41 233.852 108.872C233.918 109.309 234.036 109.787 234.316 110.103C234.471 110.279 234.681 110.411 234.943 110.446C235.195 110.48 235.442 110.418 235.67 110.311C236.114 110.103 236.618 109.662 237.207 108.998C237.749 108.387 238.393 107.552 239.163 106.45C241.209 107.508 243.099 108.826 244.791 110.359C244.796 110.377 244.82 110.468 244.754 110.722C244.671 111.046 244.487 111.466 244.236 111.959C244.064 112.299 243.872 112.651 243.675 113.011C243.589 113.17 243.501 113.331 243.414 113.492C243.135 114.01 242.863 114.536 242.675 115.007C242.498 115.451 242.348 115.955 242.432 116.384C242.48 116.626 242.605 116.857 242.836 117.018C243.055 117.17 243.318 117.225 243.582 117.228C244.098 117.236 244.798 117.053 245.708 116.693C246.55 116.36 247.617 115.856 248.952 115.151C249.966 116.646 250.83 118.25 251.525 119.942C251.516 119.968 251.485 120.042 251.367 120.18C251.175 120.405 250.861 120.67 250.463 120.971C250.194 121.174 249.905 121.379 249.609 121.59C249.47 121.689 249.329 121.789 249.188 121.89C248.756 122.201 248.325 122.522 247.985 122.833C247.667 123.124 247.335 123.485 247.236 123.887C247.179 124.115 247.195 124.366 247.331 124.599C247.458 124.817 247.662 124.969 247.882 125.078C248.313 125.291 248.969 125.419 249.863 125.486C250.686 125.548 251.756 125.56 253.122 125.515C253.368 126.959 253.497 128.442 253.5 129.955C253.469 129.986 253.404 130.034 253.284 130.094C253.031 130.22 252.652 130.337 252.184 130.454C251.857 130.536 251.51 130.612 251.156 130.69C251.006 130.723 250.854 130.756 250.702 130.79C250.202 130.902 249.698 131.024 249.279 131.168C249.07 131.24 248.868 131.322 248.693 131.419C248.522 131.513 248.345 131.638 248.216 131.808C248.076 131.992 247.994 132.229 248.04 132.496C248.081 132.741 248.219 132.947 248.38 133.116C248.697 133.449 249.247 133.788 250.032 134.159C250.753 134.5 251.715 134.886 252.964 135.329C252.638 136.926 252.168 138.471 251.569 139.95C251.508 139.966 251.402 139.981 251.24 139.983C250.886 139.986 250.396 139.926 249.82 139.83C249.445 139.768 249.034 139.69 248.615 139.611C247.796 139.456 246.947 139.296 246.288 139.236C246.032 139.212 245.785 139.201 245.565 139.213C245.354 139.225 245.124 139.259 244.926 139.355C244.709 139.46 244.501 139.658 244.456 139.972C244.418 140.242 244.518 140.497 244.637 140.705C244.879 141.125 245.377 141.652 246.14 142.315C246.847 142.929 247.817 143.689 249.102 144.626C248.157 146.05 247.079 147.378 245.884 148.592C245.822 148.581 245.72 148.548 245.57 148.475C245.237 148.313 244.805 148.02 244.307 147.649C243.99 147.412 243.645 147.142 243.294 146.867C242.589 146.316 241.856 145.742 241.255 145.365C241.023 145.22 240.794 145.092 240.578 145.001C240.37 144.913 240.132 144.841 239.896 144.848C239.63 144.857 239.362 144.97 239.191 145.237C239.043 145.469 239.011 145.751 239.022 146.017C239.043 146.554 239.252 147.33 239.65 148.385C240.024 149.375 240.582 150.653 241.36 152.276C239.812 153.276 238.154 154.118 236.408 154.782C236.344 154.74 236.248 154.655 236.12 154.509C235.852 154.204 235.536 153.736 235.187 153.174C234.963 152.813 234.726 152.413 234.485 152.007C233.999 151.188 233.497 150.342 233.055 149.732C232.885 149.498 232.714 149.285 232.545 149.111C232.383 148.944 232.192 148.781 231.979 148.689C231.744 148.588 231.438 148.561 231.162 148.756C230.928 148.922 230.806 149.188 230.733 149.437C230.583 149.945 230.535 150.754 230.575 151.9C230.613 152.971 230.732 154.384 230.946 156.208C229.659 156.4 228.341 156.5 227 156.5C226.967 156.5 226.856 156.481 226.67 156.217C226.491 155.965 226.318 155.589 226.139 155.122C226.009 154.782 225.886 154.42 225.76 154.047C225.713 153.91 225.666 153.771 225.618 153.631C225.443 153.125 225.257 152.612 225.046 152.182C224.844 151.769 224.581 151.347 224.211 151.112C224.013 150.986 223.779 150.911 223.518 150.928C223.264 150.944 223.027 151.045 222.812 151.196C222.397 151.487 221.984 152.017 221.546 152.778C221.145 153.475 220.7 154.408 220.201 155.62C219.013 155.305 217.858 154.91 216.741 154.441C216.725 154.404 216.704 154.334 216.689 154.219C216.657 153.965 216.665 153.61 216.698 153.179C216.721 152.881 216.754 152.57 216.788 152.25C216.802 152.11 216.817 151.967 216.832 151.824C216.878 151.367 216.917 150.902 216.913 150.5C216.91 150.129 216.873 149.695 216.676 149.384C216.564 149.205 216.387 149.049 216.138 148.992C215.905 148.939 215.676 148.989 215.479 149.071C215.096 149.23 214.651 149.587 214.125 150.117C213.652 150.596 213.08 151.25 212.391 152.113C211.279 151.377 210.225 150.559 209.239 149.667C209.238 149.621 209.246 149.538 209.279 149.411C209.351 149.134 209.506 148.769 209.716 148.338C209.849 148.065 210.005 147.765 210.165 147.457C210.485 146.843 210.821 146.197 211.023 145.673C211.102 145.468 211.169 145.264 211.209 145.071C211.248 144.883 211.27 144.673 211.23 144.469C211.187 144.249 211.069 144.029 210.838 143.886C210.624 143.755 210.379 143.731 210.153 143.747C209.712 143.78 209.123 143.988 208.373 144.353C207.688 144.686 206.825 145.17 205.749 145.835C204.804 144.569 203.97 143.216 203.261 141.79C203.261 141.782 203.264 141.769 203.27 141.748C203.292 141.677 203.348 141.568 203.46 141.419C203.683 141.12 204.051 140.764 204.511 140.363C204.825 140.088 205.164 139.808 205.511 139.523C205.668 139.393 205.827 139.262 205.986 139.13C206.484 138.714 206.976 138.29 207.36 137.889C207.553 137.689 207.728 137.484 207.866 137.282C208.001 137.083 208.118 136.86 208.166 136.621C208.217 136.369 208.19 136.094 208.024 135.847C207.868 135.615 207.628 135.464 207.367 135.362C206.856 135.164 206.078 135.086 205.01 135.106C204.015 135.126 202.719 135.233 201.06 135.445C200.693 133.688 200.5 131.867 200.5 130ZM236.449 154.805C236.449 154.805 236.448 154.804 236.446 154.804C236.448 154.804 236.449 154.805 236.449 154.805ZM203.26 141.798C203.26 141.798 203.26 141.797 203.26 141.795C203.26 141.797 203.26 141.798 203.26 141.798Z" fill="white" stroke="#0F0F0F"/>
<circle cx="227.5" cy="129.5" r="14" fill="white" stroke="#0F0F0F"/>
<circle cx="227" cy="130" r="7.5" fill="white" stroke="#0F0F0F"/>
<path d="M104.516 75C106.049 67.1613 107.064 61.7727 107.011 61.5076C107.009 61.4973 107.005 61.4947 107 61.5L102.742 58L83 141L94 129V127.5C94.8247 123.438 95.7972 118.634 96.8331 113.5C97.2608 111.38 97.6994 109.204 98.1429 107C98.5422 105.015 98.9456 103.008 99.3485 101C100.058 97.4652 100.766 93.9268 101.449 90.5C101.893 88.2758 102.326 86.0987 102.742 84C103.381 80.7769 103.98 77.7389 104.516 75Z" fill="white"/>
<path d="M119 141C119 141 132.372 64.4564 133.876 58.8245C132.952 59.793 128.092 62.2763 126.5 63L124.5 72.76L122.709 81.5L121.275 88.5L119.225 98.5L117.893 105L116.561 111.5L114 124L117 142L119 141Z" fill="white"/>
<path d="M124.5 72.76L104.516 75C103.98 77.7389 103.381 80.7769 102.742 84L122.709 81.5L124.5 72.76Z" fill="white"/>
<path d="M122.709 81.5L102.742 84C102.326 86.0987 101.893 88.2758 101.449 90.5L121.275 88.5L122.709 81.5Z" fill="white"/>
<path d="M121.275 88.5L101.449 90.5C100.766 93.9268 100.058 97.4652 99.3485 101L119.225 98.5L121.275 88.5Z" fill="white"/>
<path d="M119.225 98.5L99.3485 101C98.9456 103.008 98.5422 105.015 98.1429 107L117.893 105L119.225 98.5Z" fill="white"/>
<path d="M117.893 105L98.1429 107C97.6994 109.204 97.2608 111.38 96.8331 113.5L116.561 111.5L117.893 105Z" fill="white"/>
<path d="M107.011 61.5076C107.064 61.7727 106.049 67.1613 104.516 75L124.5 72.76L126.5 63C118.509 66.9954 110.186 63.6744 107.011 61.5076Z" fill="white"/>
<path d="M96.8331 113.5C95.7972 118.634 94.8247 123.438 94 127.5V129C96.5 131.5 104 134 114 124L116.561 111.5L96.8331 113.5Z" fill="white"/>
<path d="M178 61.5L138 32C138.833 34.5 141.4 40.6 141 41L175 65.5L178 61.5Z" fill="white"/>
<path d="M175 65.5L141 41L140 48L174 71L175 65.5Z" fill="white"/>
<path d="M138 54L178 79.5L182.5 80L184.5 75.5L174 71L140 48L138 54Z" fill="white"/>
<path d="M126.5 63L124.5 72.76M126.5 63C128.092 62.2763 132.952 59.793 133.876 58.8245M126.5 63C118.509 66.9954 110.186 63.6744 107.011 61.5076M114 124L116.561 111.5M114 124L117 142L119 141C119 141 132.372 64.4564 133.876 58.8245M114 124C104 134 96.5 131.5 94 129M107 61.5L102.742 58L83 141L94 129M107 61.5C107.004 61.5025 107.007 61.505 107.011 61.5076M107 61.5C107.005 61.4947 107.009 61.4973 107.011 61.5076M104.516 75L124.5 72.76M104.516 75C103.98 77.7389 103.381 80.7769 102.742 84M104.516 75C106.049 67.1613 107.064 61.7727 107.011 61.5076M124.5 72.76L122.709 81.5M102.742 84L122.709 81.5M102.742 84C102.326 86.0987 101.893 88.2758 101.449 90.5M122.709 81.5L121.275 88.5M101.449 90.5L121.275 88.5M101.449 90.5C100.766 93.9268 100.058 97.4652 99.3485 101M121.275 88.5L119.225 98.5M99.3485 101L119.225 98.5M99.3485 101C98.9456 103.008 98.5422 105.015 98.1429 107M119.225 98.5L117.893 105M98.1429 107L117.893 105M98.1429 107C97.6994 109.204 97.2608 111.38 96.8331 113.5M117.893 105L116.561 111.5M96.8331 113.5C95.7972 118.634 94.8247 123.438 94 127.5V129M96.8331 113.5L116.561 111.5M141 41L175 65.5M141 41C141.4 40.6 138.833 34.5 138 32L178 61.5L175 65.5M141 41L140 48M175 65.5L174 71M140 48L174 71M140 48L138 54L178 79.5L182.5 80L184.5 75.5L174 71M133.876 58.8245C134.016 58.6778 134.066 58.5658 134 58.5C133.98 58.4802 133.938 58.5918 133.876 58.8245Z" stroke="black"/>
<path d="M29.6359 164.414C30.86 159.846 32.5639 155.535 34.6787 151.521C35.0047 150.903 35.576 150.57 36.4183 150.449C37.2795 150.326 38.3631 150.437 39.5931 150.67C40.4998 150.842 41.4517 151.073 42.4217 151.309C42.7641 151.393 43.1088 151.476 43.4545 151.558C44.7649 151.869 46.0846 152.151 47.2765 152.242C48.4589 152.333 49.5925 152.244 50.4843 151.741C51.4126 151.217 51.9932 150.295 52.1542 148.926C52.3121 147.582 52.0727 145.78 51.3685 143.399C50.6829 141.08 49.5454 138.176 47.8583 134.555C48.0323 134.395 48.2074 134.234 48.3833 134.073C50.2168 132.388 52.1493 130.612 54.1414 129.086C56.3483 127.396 58.5845 126.048 60.7831 125.476C63.2016 127.418 65.2128 128.821 66.8918 129.779C68.6109 130.759 70.0092 131.29 71.1591 131.441C72.3253 131.595 73.2508 131.358 73.9687 130.797C74.6696 130.249 75.1138 129.437 75.424 128.551C75.7349 127.663 75.9289 126.647 76.0945 125.644C76.1395 125.371 76.1824 125.099 76.2249 124.83C76.341 124.095 76.454 123.38 76.5998 122.706C76.7991 121.786 77.0478 121.008 77.4082 120.436C77.7575 119.881 78.1988 119.537 78.812 119.43C82.6645 118.756 86.6084 118.445 90.5968 118.523C90.973 118.53 91.2614 118.728 91.5148 119.213C91.7794 119.719 91.9552 120.454 92.0912 121.348C92.1817 121.943 92.2501 122.572 92.3203 123.218C92.3552 123.539 92.3905 123.864 92.4292 124.191C92.5435 125.156 92.6864 126.125 92.9372 126.941C93.1841 127.744 93.5638 128.496 94.2217 128.915C94.9132 129.354 95.774 129.344 96.7792 128.924C97.7751 128.508 98.9858 127.664 100.478 126.308C101.928 124.989 103.669 123.163 105.765 120.718C110.616 122.044 115.173 123.912 119.391 126.238C119.642 126.377 119.844 126.742 119.868 127.547C119.891 128.321 119.743 129.325 119.509 130.462C119.342 131.268 119.139 132.115 118.933 132.971C118.849 133.321 118.764 133.672 118.682 134.022C118.4 135.219 118.143 136.406 118.027 137.437C117.914 138.443 117.92 139.409 118.262 140.098C118.444 140.463 118.724 140.76 119.124 140.926C119.513 141.088 119.965 141.107 120.46 141.018C121.437 140.843 122.733 140.224 124.43 139.104C126.071 138.022 128.129 136.443 130.698 134.262C134.863 137.989 138.484 142.25 141.482 146.905C141.627 147.13 141.623 147.558 141.183 148.339C140.767 149.078 140.06 149.952 139.204 150.906C138.609 151.569 137.958 152.252 137.3 152.943C137.013 153.244 136.725 153.547 136.439 153.85C135.508 154.838 134.609 155.826 133.932 156.733C133.272 157.616 132.748 158.515 132.695 159.314C132.666 159.741 132.77 160.156 133.064 160.504C133.347 160.84 133.767 161.066 134.281 161.211C135.297 161.5 136.862 161.524 139.093 161.267C141.255 161.018 144.094 160.496 147.759 159.646C149.254 163.827 150.305 168.184 150.873 172.646C150.898 172.847 150.756 173.173 150.089 173.631C149.463 174.061 148.547 174.488 147.472 174.923C146.741 175.219 145.959 175.51 145.167 175.804C144.799 175.941 144.429 176.079 144.061 176.218C142.913 176.653 141.791 177.101 140.881 177.573C139.999 178.031 139.209 178.564 138.85 179.212C138.657 179.561 138.582 179.955 138.695 180.368C138.803 180.765 139.069 181.122 139.44 181.448C140.174 182.093 141.461 182.739 143.401 183.418C145.277 184.075 147.812 184.779 151.149 185.542C150.844 189.17 150.214 192.821 149.239 196.461C149.217 196.544 149.157 196.64 148.99 196.741C148.817 196.848 148.556 196.942 148.198 197.014C147.482 197.159 146.505 197.193 145.384 197.175C144.596 197.162 143.761 197.123 142.918 197.084C142.565 197.068 142.211 197.052 141.859 197.037C140.675 196.989 139.509 196.96 138.529 197.028C138.038 197.063 137.58 197.122 137.181 197.221C136.787 197.318 136.416 197.462 136.127 197.686C135.824 197.92 135.612 198.244 135.573 198.658C135.537 199.051 135.661 199.46 135.886 199.873C136.332 200.691 137.277 201.713 138.797 203.002C140.267 204.248 142.314 205.776 145.061 207.649C143.276 211.309 141.154 214.737 138.746 217.903C138.729 217.926 138.663 217.991 138.424 218.005C138.186 218.019 137.853 217.975 137.425 217.864C136.571 217.644 135.468 217.195 134.236 216.636C133.405 216.258 132.515 215.83 131.618 215.398C129.902 214.571 128.159 213.733 126.751 213.213C126.208 213.013 125.698 212.853 125.243 212.757C124.796 212.664 124.362 212.622 123.989 212.694C123.594 212.769 123.231 212.982 123.051 213.403C122.888 213.784 122.919 214.242 123.047 214.722C123.304 215.69 124.045 217.085 125.349 219.017C126.614 220.89 128.436 223.307 130.938 226.389C127.77 229.246 124.319 231.763 120.65 233.905C120.603 233.933 120.506 233.963 120.285 233.877C120.057 233.787 119.767 233.597 119.417 233.293C118.719 232.687 117.898 231.732 117.007 230.603C116.416 229.855 115.796 229.03 115.17 228.197C113.94 226.562 112.688 224.896 111.592 223.719C111.174 223.269 110.765 222.875 110.376 222.572C109.994 222.275 109.595 222.037 109.198 221.944C108.772 221.845 108.338 221.913 107.983 222.237C107.659 222.532 107.461 222.988 107.337 223.536C107.088 224.637 107.078 226.402 107.336 228.989C107.587 231.509 108.097 234.855 108.923 239.21C104.592 240.65 100.084 241.618 95.4749 242.071C95.451 242.073 95.3521 242.071 95.1626 241.872C94.9766 241.676 94.7699 241.356 94.5485 240.907C94.108 240.013 93.6695 238.734 93.2259 237.268C92.9323 236.297 92.637 235.244 92.3393 234.183C91.7504 232.084 91.1521 229.951 90.5386 228.352C90.3052 227.743 90.0638 227.196 89.8124 226.744C89.5655 226.301 89.2877 225.912 88.9667 225.659C88.6275 225.392 88.1986 225.251 87.7372 225.421C87.3241 225.574 86.9895 225.942 86.7033 226.411C86.1246 227.358 85.5514 229.041 84.9574 231.621C84.3797 234.13 83.7723 237.536 83.1276 242.036C79.8974 241.701 76.6513 241.107 73.4137 240.239C73.0273 240.136 72.683 239.769 72.4006 239.005C72.1229 238.253 71.9532 237.242 71.833 236.081C71.7452 235.232 71.6861 234.33 71.6263 233.418C71.6046 233.086 71.5827 232.753 71.5593 232.42C71.4726 231.186 71.3653 229.964 71.1611 228.921C70.9607 227.898 70.6512 226.954 70.0976 226.352C69.8096 226.038 69.4507 225.812 69.0144 225.724C68.5836 225.638 68.12 225.695 67.6307 225.873C66.6687 226.223 65.5125 227.075 64.0972 228.495C62.7315 229.865 61.0883 231.802 59.105 234.426C56.3949 232.906 53.8271 231.196 51.4144 229.318C51.3644 229.279 51.3046 229.2 51.2699 229.022C51.2342 228.838 51.2333 228.585 51.2772 228.257C51.3653 227.599 51.6158 226.758 51.9502 225.809C52.1827 225.15 52.4478 224.46 52.7158 223.762C52.8321 223.459 52.949 223.155 53.064 222.851C53.44 221.857 53.7945 220.872 54.0172 220.012C54.2324 219.18 54.3566 218.353 54.1644 217.736C54.0603 217.401 53.856 217.104 53.5163 216.924C53.1907 216.752 52.8033 216.72 52.3904 216.775C51.5775 216.883 50.4657 217.354 48.987 218.218C47.5685 219.047 45.7666 220.265 43.4985 221.953C41.247 219.457 39.206 216.786 37.3933 213.97C37.3599 213.919 37.3282 213.822 37.3653 213.628C37.4034 213.428 37.5067 213.17 37.6871 212.852C38.0474 212.216 38.6509 211.452 39.3813 210.611C39.8675 210.052 40.4112 209.458 40.9613 208.857C42.0251 207.696 43.1133 206.507 43.8581 205.487C44.1458 205.093 44.3944 204.708 44.5777 204.345C44.7585 203.987 44.8914 203.618 44.916 203.263C44.9417 202.891 44.8478 202.521 44.5668 202.224C44.3002 201.942 43.9172 201.782 43.4755 201.697C42.601 201.53 41.2683 201.621 39.3854 201.984C37.5708 202.334 35.1937 202.948 32.1326 203.88C30.653 200.271 29.5096 196.514 28.7302 192.658C28.7024 192.52 28.728 192.349 28.8715 192.121C29.0191 191.887 29.2731 191.623 29.6413 191.334C30.3776 190.755 31.466 190.154 32.7368 189.531C33.6106 189.103 34.5494 188.675 35.4974 188.242C35.9247 188.047 36.354 187.852 36.7799 187.655C38.1405 187.025 39.4637 186.385 40.5277 185.742C41.0603 185.419 41.5391 185.09 41.9299 184.753C42.3172 184.418 42.6425 184.056 42.8381 183.662C43.0402 183.256 43.1058 182.808 42.9505 182.352C42.8007 181.913 42.4675 181.532 42.0063 181.194C41.0933 180.526 39.5116 179.909 37.1277 179.32C34.8121 178.747 31.6872 178.189 27.5761 177.645C27.7783 173.26 28.4529 168.829 29.6359 164.414Z" fill="white" stroke="#0F0F0F"/>
<circle cx="89.5" cy="180.5" r="40" stroke="#0F0F0F"/>
<circle cx="118" cy="42" r="22.5" fill="white" stroke="#0F0F0F"/>
<circle cx="89" cy="180" r="14.5" stroke="#0F0F0F"/>
<circle cx="89.5" cy="180.5" r="7" stroke="#0F0F0F"/>
<circle cx="118" cy="42" r="12.5" fill="white" stroke="#0F0F0F"/>
<circle cx="118.5" cy="41.5" r="6" fill="white" stroke="#0F0F0F"/>
<path d="M174.589 67.5901C175.182 65.3762 176.008 63.2874 177.033 61.3426C177.142 61.1345 177.334 61.004 177.693 60.9526C178.07 60.8986 178.565 60.9456 179.16 61.0585C179.597 61.1413 180.052 61.2522 180.524 61.3669C180.693 61.4079 180.864 61.4494 181.036 61.4902C181.677 61.6421 182.339 61.7842 182.943 61.8307C183.538 61.8765 184.154 61.837 184.656 61.5535C185.195 61.2493 185.514 60.7174 185.6 59.985C185.684 59.2779 185.556 58.358 185.208 57.1814C184.879 56.0687 184.342 54.6916 183.558 52.9939C183.598 52.9573 183.637 52.9207 183.677 52.8839C184.574 52.0599 185.509 51.2005 186.473 50.4625C187.5 49.6762 188.519 49.0602 189.505 48.7761C190.649 49.6885 191.61 50.3566 192.422 50.8199C193.276 51.307 193.992 51.5838 194.601 51.6639C195.226 51.7461 195.75 51.621 196.165 51.2971C196.562 50.9864 196.801 50.537 196.96 50.0825C197.12 49.6258 197.217 49.1104 197.298 48.6187C197.321 48.481 197.342 48.3458 197.363 48.213C197.42 47.8563 197.473 47.5173 197.543 47.1958C197.639 46.7544 197.753 46.4094 197.904 46.1683C198.045 45.9448 198.204 45.8298 198.418 45.7924C200.285 45.466 202.196 45.3151 204.128 45.3528C204.188 45.354 204.258 45.3671 204.355 45.5529C204.464 45.76 204.545 46.0834 204.611 46.5163C204.654 46.8018 204.687 47.1 204.721 47.4119C204.738 47.5701 204.755 47.7319 204.775 47.8973C204.831 48.37 204.903 48.8635 205.033 49.2862C205.159 49.6961 205.368 50.1371 205.768 50.3914C206.201 50.667 206.717 50.6399 207.253 50.416C207.78 50.1961 208.397 49.7609 209.134 49.0908C209.829 48.4593 210.653 47.5976 211.634 46.4598C213.927 47.0993 216.083 47.9892 218.081 49.0915L218.081 49.0915C218.083 49.0921 218.102 49.1008 218.126 49.1608C218.154 49.2297 218.177 49.3431 218.183 49.515C218.193 49.8614 218.126 50.3274 218.012 50.8804C217.932 51.2697 217.834 51.6771 217.733 52.0939C217.692 52.2656 217.65 52.4388 217.609 52.613C217.472 53.1985 217.343 53.7916 217.284 54.3121C217.229 54.8069 217.221 55.346 217.424 55.7548C217.536 55.98 217.716 56.1732 217.976 56.2816C218.225 56.3857 218.5 56.3912 218.772 56.3423C219.303 56.2472 219.973 55.9196 220.808 55.3685C221.585 54.8562 222.545 54.1235 223.725 53.1281C225.673 54.8977 227.371 56.9096 228.783 59.1022C228.784 59.1059 228.819 59.2106 228.632 59.5428C228.443 59.878 228.114 60.2874 227.697 60.752C227.409 61.073 227.095 61.4026 226.775 61.7387C226.634 61.8866 226.492 62.0358 226.35 62.186C225.895 62.6693 225.447 63.161 225.106 63.6171C224.783 64.0494 224.483 64.5421 224.451 65.0145C224.433 65.278 224.498 65.5492 224.691 65.7779C224.874 65.9947 225.132 66.1255 225.412 66.2049C225.96 66.3602 226.767 66.3665 227.862 66.2401C228.888 66.1219 230.214 65.8809 231.903 65.4942C232.586 67.4494 233.068 69.4824 233.334 71.5624C233.327 71.5803 233.284 71.6652 233.062 71.8177C232.781 72.0109 232.355 72.2109 231.832 72.4225C231.478 72.5658 231.102 72.7059 230.717 72.8491C230.536 72.9163 230.353 72.9843 230.17 73.0535C229.609 73.2661 229.048 73.4897 228.589 73.7279C228.157 73.9521 227.707 74.2417 227.491 74.6321C227.369 74.8521 227.317 75.1127 227.392 75.3879C227.463 75.6471 227.631 75.862 227.834 76.0405C228.232 76.3901 228.901 76.7188 229.854 77.0526C230.742 77.3635 231.921 77.6936 233.451 78.0485C233.297 79.7253 233 81.4122 232.551 83.0946C232.548 83.0972 232.543 83.1004 232.536 83.1043C232.487 83.1343 232.393 83.1726 232.232 83.2051C231.911 83.27 231.458 83.2875 230.912 83.2784C230.531 83.272 230.129 83.2535 229.718 83.2347C229.545 83.2267 229.37 83.2187 229.195 83.2115C228.616 83.1877 228.034 83.1729 227.54 83.2075C227.292 83.2249 227.052 83.2554 226.837 83.3085C226.628 83.3602 226.408 83.4415 226.227 83.5816C226.032 83.7325 225.885 83.9518 225.859 84.2351C225.834 84.497 225.919 84.7492 226.042 84.9749C226.284 85.419 226.777 85.9437 227.523 86.5769C228.218 87.1656 229.167 87.8775 230.422 88.7387C229.588 90.4181 228.606 91.9951 227.499 93.4579C227.497 93.4581 227.494 93.4583 227.492 93.4584C227.414 93.4629 227.281 93.4487 227.082 93.3974C226.688 93.2959 226.166 93.0847 225.565 92.8118C225.172 92.633 224.744 92.4271 224.309 92.2177C223.462 91.8102 222.589 91.3899 221.89 91.132C221.619 91.0318 221.356 90.9493 221.117 90.899C220.886 90.8505 220.635 90.8226 220.404 90.8669C220.151 90.9152 219.888 91.0606 219.758 91.3642C219.646 91.6282 219.677 91.9193 219.744 92.175C219.882 92.693 220.266 93.4057 220.905 94.3514C221.502 95.2361 222.349 96.3632 223.496 97.7828C222.025 99.0878 220.431 100.243 218.741 101.234C218.739 101.234 218.737 101.233 218.735 101.232C218.663 101.204 218.547 101.133 218.385 100.992C218.064 100.713 217.675 100.263 217.241 99.712C216.961 99.3577 216.663 98.9613 216.359 98.5578C215.753 97.7515 215.125 96.9167 214.581 96.3318C214.372 96.1067 214.161 95.9034 213.956 95.7438C213.758 95.5896 213.529 95.4473 213.282 95.3896C213.007 95.3254 212.704 95.3681 212.457 95.5928C212.243 95.7888 212.13 96.0723 212.065 96.3602C211.933 96.9416 211.933 97.84 212.059 99.107C212.178 100.306 212.416 101.879 212.796 103.903C210.785 104.556 208.696 104.999 206.562 105.213C206.558 105.21 206.554 105.206 206.55 105.201C206.485 105.133 206.398 105.003 206.294 104.793C206.089 104.376 205.879 103.769 205.663 103.053C205.523 102.591 205.381 102.084 205.236 101.569C204.946 100.535 204.647 99.4707 204.344 98.6785C204.227 98.3754 204.104 98.0953 203.973 97.8602C203.847 97.6331 203.691 97.4082 203.495 97.2534C203.28 97.0843 202.979 96.9756 202.647 97.0981C202.364 97.2027 202.162 97.4427 202.012 97.6882C201.706 98.1896 201.419 99.048 201.128 100.31C200.854 101.5 200.568 103.094 200.265 105.177C198.781 105.011 197.29 104.731 195.802 104.332C195.736 104.315 195.609 104.236 195.481 103.888C195.357 103.552 195.276 103.084 195.218 102.521C195.175 102.111 195.147 101.678 195.118 101.234C195.107 101.071 195.096 100.906 195.085 100.74C195.042 100.137 194.989 99.5258 194.886 98.9993C194.787 98.4919 194.625 97.9696 194.304 97.6197C194.132 97.4324 193.91 97.2902 193.636 97.2354C193.368 97.1816 193.093 97.2202 192.822 97.3186C192.298 97.5095 191.7 97.959 191.002 98.6596C190.355 99.3087 189.588 100.208 188.675 101.406C187.443 100.703 186.272 99.9179 185.168 99.0604C185.167 99.0571 185.166 99.0533 185.165 99.0487C185.155 98.9971 185.152 98.904 185.171 98.7575C185.211 98.4642 185.325 98.074 185.488 97.6126C185.6 97.2937 185.728 96.9619 185.858 96.6226C185.915 96.4738 185.973 96.3235 186.03 96.1723C186.214 95.6866 186.392 95.1937 186.505 94.7583C186.61 94.3517 186.691 93.8839 186.573 93.5061C186.506 93.2913 186.369 93.0851 186.132 92.9596C185.909 92.8416 185.66 92.8284 185.428 92.8593C184.977 92.9192 184.397 93.1725 183.67 93.5972C183.005 93.9853 182.177 94.5422 181.152 95.2988C180.13 94.1484 179.2 92.923 178.368 91.6352C178.369 91.6315 178.37 91.6273 178.37 91.6224C178.382 91.5636 178.418 91.465 178.499 91.3214C178.662 91.0346 178.942 90.6774 179.298 90.268C179.525 90.0067 179.784 89.7233 180.05 89.433C180.576 88.8581 181.127 88.2564 181.499 87.747C181.644 87.5481 181.774 87.3478 181.872 87.1533C181.968 86.9637 182.049 86.7487 182.064 86.5268C182.081 86.2888 182.02 86.033 181.824 85.826C181.643 85.6342 181.397 85.5396 181.153 85.493C180.675 85.4017 179.982 85.4552 179.058 85.6334C178.204 85.798 177.105 86.0793 175.711 86.4986C175.037 84.8161 174.512 83.0687 174.15 81.2771C174.151 81.2686 174.157 81.245 174.185 81.2006C174.235 81.1209 174.334 81.0131 174.503 80.8806C174.84 80.6158 175.351 80.3318 175.97 80.0284C176.394 79.8207 176.847 79.6139 177.309 79.4033C177.518 79.3076 177.73 79.2112 177.941 79.1136C178.606 78.8059 179.264 78.488 179.797 78.1655C180.064 78.0039 180.311 77.8345 180.517 77.6569C180.719 77.4825 180.906 77.2794 181.023 77.0444C181.146 76.7963 181.193 76.5065 181.091 76.2079C180.995 75.9256 180.788 75.7005 180.538 75.5181C180.049 75.1602 179.234 74.8496 178.065 74.5603C176.965 74.2884 175.502 74.0243 173.603 73.7677C173.713 71.7195 174.037 69.6514 174.589 67.5901ZM227.531 93.4534C227.531 93.4534 227.53 93.4536 227.529 93.454C227.53 93.4536 227.531 93.4534 227.531 93.4534ZM206.589 105.236C206.589 105.236 206.588 105.236 206.586 105.234C206.587 105.235 206.588 105.236 206.589 105.236ZM174.15 81.2807C174.15 81.2808 174.15 81.2796 174.15 81.2772C174.151 81.2795 174.15 81.2807 174.15 81.2807Z" fill="white" stroke="#0F0F0F"/>
<circle cx="204" cy="75" r="16.5" stroke="#0F0F0F"/>
<circle cx="203.5" cy="75.5" r="9" stroke="#0F0F0F"/>
</svg>
