<svg width="29" height="28" viewBox="0 0 29 28" fill="none" xmlns="http://www.w3.org/2000/svg">
<path d="M21.5524 9.86393C21.0413 10.0967 20.491 10.2541 19.9138 10.3244C20.5033 9.96273 20.9556 9.38922 21.1687 8.70603C20.6168 9.04093 20.0069 9.28456 19.3554 9.41517C18.8361 8.84669 18.094 8.4917 17.2726 8.4917C15.6977 8.4917 14.4199 9.80198 14.4199 11.4178C14.4199 11.6472 14.4444 11.8699 14.4934 12.0843C12.1216 11.962 10.0193 10.7983 8.61089 9.02585C8.36513 9.45955 8.22471 9.96273 8.22471 10.4986C8.22471 11.5133 8.72846 12.4091 9.49429 12.934C9.02727 12.9198 8.58639 12.7868 8.20103 12.5691V12.6051C8.20103 14.0233 9.18485 15.2064 10.4912 15.4743C10.252 15.5429 9.99966 15.5772 9.73922 15.5772C9.55552 15.5772 9.3759 15.5597 9.202 15.5253C9.56531 16.6874 10.6185 17.5339 11.8677 17.5564C10.8912 18.3418 9.66002 18.8098 8.3235 18.8098C8.09326 18.8098 7.86547 18.7964 7.64258 18.7696C8.90562 19.5985 10.4063 20.0832 12.0171 20.0832C17.2669 20.0832 20.1367 15.625 20.1367 11.7578C20.1367 11.6305 20.1342 11.5032 20.1294 11.3785C20.687 10.9657 21.1711 10.4508 21.5524 9.86393Z" fill="#684B7D"/>
</svg>
