<svg width="20" height="22" viewBox="0 0 20 22" fill="none" xmlns="http://www.w3.org/2000/svg">
<path d="M19.2154 17.2765C18.7137 16.0881 17.9856 15.0087 17.0718 14.0983C16.1607 13.1853 15.0814 12.4574 13.8936 11.9547C13.883 11.9494 13.8723 11.9467 13.8617 11.9414C15.5186 10.7446 16.5957 8.79515 16.5957 6.5957C16.5957 2.95211 13.6436 0 10 0C6.35641 0 3.4043 2.95211 3.4043 6.5957C3.4043 8.79515 4.48142 10.7446 6.13832 11.9441C6.12768 11.9494 6.11705 11.952 6.10641 11.9574C4.91493 12.46 3.84579 13.1808 2.92824 14.101C2.01524 15.012 1.2873 16.0913 0.784636 17.2791C0.290815 18.442 0.0244864 19.6888 6.65049e-05 20.952C-0.000643344 20.9804 0.00433542 21.0086 0.0147096 21.035C0.0250837 21.0615 0.0406433 21.0856 0.0604714 21.1059C0.0802996 21.1262 0.103995 21.1424 0.130162 21.1534C0.156329 21.1644 0.184437 21.1701 0.212831 21.1701H1.80857C1.92559 21.1701 2.01867 21.077 2.02133 20.9626C2.07452 18.9094 2.89898 16.9866 4.35642 15.5292C5.86439 14.0212 7.86704 13.1914 10 13.1914C12.133 13.1914 14.1356 14.0212 15.6436 15.5292C17.101 16.9866 17.9255 18.9094 17.9787 20.9626C17.9813 21.0796 18.0744 21.1701 18.1914 21.1701H19.7872C19.8156 21.1701 19.8437 21.1644 19.8698 21.1534C19.896 21.1424 19.9197 21.1262 19.9395 21.1059C19.9594 21.0856 19.9749 21.0615 19.9853 21.035C19.9957 21.0086 20.0006 20.9804 19.9999 20.952C19.9733 19.6807 19.71 18.444 19.2154 17.2765ZM10 11.1701C8.77926 11.1701 7.63033 10.6941 6.76598 9.82972C5.90162 8.96537 5.42556 7.81644 5.42556 6.5957C5.42556 5.37496 5.90162 4.22604 6.76598 3.36168C7.63033 2.49732 8.77926 2.02126 10 2.02126C11.2207 2.02126 12.3697 2.49732 13.234 3.36168C14.0984 4.22604 14.5744 5.37496 14.5744 6.5957C14.5744 7.81644 14.0984 8.96537 13.234 9.82972C12.3697 10.6941 11.2207 11.1701 10 11.1701Z" fill="black"/>
</svg>
